<?xml version="1.0" encoding="iso-8859-1"?>
<!-- Generator: Adobe Illustrator 19.0.0, SVG Export Plug-In . SVG Version: 6.00 Build 0)  -->
<svg version="1.1" id="Capa_1" xmlns="http://www.w3.org/2000/svg" xmlns:xlink="http://www.w3.org/1999/xlink" x="0px" y="0px"
	 viewBox="0 0 511.999 511.999" style="enable-background:new 0 0 511.999 511.999;" xml:space="preserve">
<path style="fill:#FEDB41;" d="M436.868,479.05H75.132c-45.601,0-74.7-49.2-52.5-89.101L203.5,64.149
	c11.4-20.7,32.1-30.899,52.5-30.899s41.1,10.199,52.5,30.899l180.868,325.8C511.568,429.849,482.469,479.05,436.868,479.05z"/>
<path style="fill:#FCBF29;" d="M436.868,479.05H256V33.25c20.4,0,41.1,10.199,52.5,30.899l180.868,325.8
	C511.568,429.849,482.469,479.05,436.868,479.05z"/>
<path style="fill:#3C3A41;" d="M287.816,267.248c-5.859-5.859-5.859-15.352,0-21.211l30.938-30.938
	c5.859-5.859,15.352-5.859,21.211,0s5.859,15.352,0,21.211l-30.938,30.938C303.168,273.108,293.676,273.108,287.816,267.248z"/>
<g>
	<path style="fill:#57555C;" d="M196,314.05h-53.906c-8.291,0-15-6.709-15-15s6.709-15,15-15H196c8.291,0,15,6.709,15,15
		S204.291,314.05,196,314.05z"/>
	<path style="fill:#57555C;" d="M202.973,267.248l-30.938-30.938c-5.859-5.859-5.859-15.352,0-21.211s15.352-5.859,21.211,0
		l30.938,30.938c5.859,5.859,5.859,15.352,0,21.211C218.324,273.108,208.832,273.108,202.973,267.248z"/>
</g>
<path style="fill:#3C3A41;" d="M318.754,385.944l-32.432-32.432c-5.859-5.859-5.859-15.352,0-21.211s15.352-5.859,21.211,0
	l32.432,32.432c5.859,5.859,5.859,15.352,0,21.211C334.105,391.804,324.613,391.804,318.754,385.944z"/>
<g>
	<path style="fill:#57555C;" d="M172.035,385.944c-5.859-5.859-5.859-15.352,0-21.211l32.432-32.432
		c5.859-5.859,15.352-5.859,21.211,0s5.859,15.352,0,21.211l-32.432,32.432C187.387,391.804,177.895,391.804,172.035,385.944z"/>
	<path style="fill:#57555C;" d="M271,359.05v60c0,8.399-6.599,15-15,15s-15-6.601-15-15v-60c0-8.401,6.599-15,15-15
		S271,350.649,271,359.05z"/>
	<path style="fill:#57555C;" d="M271,179.05v60c0,8.399-6.599,15-15,15s-15-6.601-15-15v-60c0-8.401,6.599-15,15-15
		S271,170.649,271,179.05z"/>
</g>
<path style="fill:#3C3A41;" d="M316,284.05c-8.291,0-15,6.709-15,15s6.709,15,15,15h122.461v-30H316z"/>
<path style="fill:#FD3018;" d="M436.868,494.05H256v-30h180.868c34.2,0,55.8-36.901,39.3-66.901l-180.868-325.8
	c-8.399-15.599-24-23.399-39.3-23.399v-30c27.599,0,52.2,14.7,65.7,38.699l180.868,326.1
	C530.168,432.849,493.867,494.05,436.868,494.05z"/>
<g>
	<path style="fill:#3C3A41;" d="M271,179.05v60c0,8.399-6.599,15-15,15v-90C264.401,164.05,271,170.649,271,179.05z"/>
	<path style="fill:#3C3A41;" d="M271,359.05v60c0,8.399-6.599,15-15,15v-90C264.401,344.05,271,350.649,271,359.05z"/>
</g>
<path style="fill:#57555C;" d="M256,224.05c-41.4,0-75,33.6-75,75s33.6,75,75,75s75-33.6,75-75S297.4,224.05,256,224.05z"/>
<path style="fill:#3C3A41;" d="M331,299.05c0,41.4-33.6,75-75,75v-150C297.4,224.05,331,257.65,331,299.05z"/>
<path style="fill:#FD4E26;" d="M502.568,382.749L321.7,56.649c-13.5-24-38.101-38.699-65.7-38.699s-52.2,14.7-65.7,38.699
	L9.432,382.749c-27.599,50.099,8.701,111.301,65.7,111.301h361.737C493.867,494.05,530.168,432.849,502.568,382.749z
	 M436.868,464.05H75.132c-34.2,0-56.1-36.601-39.3-66.901L216.7,71.349c8.699-15.599,24-23.399,39.3-23.399s30.901,7.8,39.3,23.399
	l180.868,325.8C492.668,427.149,471.069,464.05,436.868,464.05z"/>
<g>
</g>
<g>
</g>
<g>
</g>
<g>
</g>
<g>
</g>
<g>
</g>
<g>
</g>
<g>
</g>
<g>
</g>
<g>
</g>
<g>
</g>
<g>
</g>
<g>
</g>
<g>
</g>
<g>
</g>
</svg>
