<?xml version="1.0" encoding="iso-8859-1"?>
<!-- Generator: Adobe Illustrator 19.0.0, SVG Export Plug-In . SVG Version: 6.00 Build 0)  -->
<svg version="1.1" id="Capa_1" xmlns="http://www.w3.org/2000/svg" xmlns:xlink="http://www.w3.org/1999/xlink" x="0px" y="0px"
	 viewBox="0 0 512 512" style="enable-background:new 0 0 512 512;" xml:space="preserve">
<path style="fill:#FEDB41;" d="M479.608,298.392L298.093,479.607c-11.641,11.643-26.868,17.316-42.093,17.316
	c-15.226,0-30.452-5.673-42.093-17.316L32.393,298.392c-23.287-23.285-23.287-61.201,0-84.487L213.906,32.691
	c11.641-11.643,26.868-17.614,42.093-17.614c15.226,0,30.452,5.971,42.093,17.614l181.514,181.213
	C502.894,237.192,502.894,275.106,479.608,298.392z"/>
<path style="fill:#FD4E26;" d="M490.058,203.456L308.842,22.241C294.214,7.613,275.107,0.15,256,0.15
	c-19.106,0-38.214,7.463-52.843,22.092L21.943,203.456c-29.257,28.957-29.257,76.427,0,105.386l181.215,181.213
	c14.628,14.63,33.735,21.795,52.843,21.795s38.214-7.165,52.843-21.795l181.215-181.213
	C519.314,279.584,519.314,232.414,490.058,203.456z M468.861,287.944L287.645,469.159c-8.657,8.657-20.3,12.837-31.646,12.837
	s-22.989-4.18-31.646-12.837L43.14,287.944c-17.613-17.614-17.613-45.976,0-63.59L224.355,43.139
	c8.657-8.657,20.3-13.136,31.646-13.136s22.989,4.479,31.646,13.136l181.215,181.215c8.657,8.657,13.136,20.3,13.136,31.944
	C481.996,267.643,477.518,278.988,468.861,287.944z"/>
<path style="fill:#FCBF29;" d="M479.608,298.392L298.093,479.607c-11.641,11.643-26.868,17.316-42.093,17.316V15.077
	c15.226,0,30.452,5.971,42.093,17.614l181.514,181.213C502.894,237.192,502.894,275.106,479.608,298.392z"/>
<path style="fill:#FD3018;" d="M490.058,308.842L308.842,490.056c-14.628,14.63-33.735,21.795-52.843,21.795v-29.854
	c11.345,0,22.989-4.18,31.646-12.837L468.86,287.944c8.657-8.956,13.136-20.3,13.136-31.646c0-11.643-4.479-23.287-13.136-31.944
	L287.645,43.139c-8.657-8.657-20.3-13.136-31.646-13.136V0.15c19.107,0,38.214,7.463,52.843,22.092l181.215,181.215
	C519.314,232.414,519.314,279.584,490.058,308.842z"/>
<path style="fill:#57555C;" d="M390.344,244.954v29.854c0,8.358-6.567,14.927-14.927,14.927h-89.563v89.563
	c0,8.358-6.567,14.927-14.927,14.927h-29.854c-8.36,0-14.927-6.569-14.927-14.927v-89.563h-89.563
	c-8.36,0-14.927-6.569-14.927-14.927v-27.467c0-9.552,7.762-17.314,17.316-17.314h87.174v-89.563c0-8.36,6.567-14.927,14.927-14.927
	h29.854c8.36,0,14.927,6.567,14.927,14.927v89.563h89.563C383.777,230.027,390.344,236.594,390.344,244.954z"/>
<path style="fill:#3C3A41;" d="M390.344,244.954v29.854c0,8.358-6.567,14.927-14.927,14.927h-89.563v89.563
	c0,8.358-6.567,14.927-14.927,14.927H256V125.537h14.927c8.36,0,14.927,6.567,14.927,14.927v89.563h89.563
	C383.777,230.027,390.344,236.594,390.344,244.954z"/>
<g>
</g>
<g>
</g>
<g>
</g>
<g>
</g>
<g>
</g>
<g>
</g>
<g>
</g>
<g>
</g>
<g>
</g>
<g>
</g>
<g>
</g>
<g>
</g>
<g>
</g>
<g>
</g>
<g>
</g>
</svg>
