<?xml version="1.0" encoding="iso-8859-1"?>
<!-- Generator: Adobe Illustrator 19.0.0, SVG Export Plug-In . SVG Version: 6.00 Build 0)  -->
<svg version="1.1" id="Capa_1" xmlns="http://www.w3.org/2000/svg" xmlns:xlink="http://www.w3.org/1999/xlink" x="0px" y="0px"
	 viewBox="0 0 511.999 511.999" style="enable-background:new 0 0 511.999 511.999;" xml:space="preserve">
<path style="fill:#FEDB41;" d="M436.868,479.05H75.132c-45.601,0-74.7-49.2-52.5-89.101L203.5,64.149
	c11.4-20.7,32.1-30.899,52.5-30.899s41.1,10.199,52.5,30.899l180.868,325.8C511.568,429.849,482.469,479.05,436.868,479.05z"/>
<path style="fill:#FCBF29;" d="M436.868,479.05H256V33.25c20.4,0,41.1,10.199,52.5,30.899l180.868,325.8
	C511.568,429.849,482.469,479.05,436.868,479.05z"/>
<path style="fill:#FD4E26;" d="M502.568,382.749L321.7,56.649C307.599,30.85,281.799,17.95,256,17.95s-51.599,12.9-65.7,38.699
	L9.432,382.749c-27.599,50.099,8.701,111.301,65.7,111.301h361.737C493.867,494.05,530.168,432.849,502.568,382.749z
	 M436.868,464.05H75.132c-34.2,0-56.1-36.601-39.3-66.901L216.7,71.349c8.699-15.599,24-23.399,39.3-23.399s30.901,7.8,39.3,23.399
	l180.868,325.8C492.668,427.149,471.069,464.05,436.868,464.05z"/>
<path style="fill:#FD3018;" d="M436.868,494.05H256v-30h180.868c34.2,0,55.8-36.901,39.3-66.901l-180.868-325.8
	c-8.399-15.599-24-23.399-39.3-23.399v-30c25.8,0,51.599,12.9,65.7,38.699l180.868,326.1
	C530.168,432.849,493.867,494.05,436.868,494.05z"/>
<path style="fill:#57555C;" d="M346,254.05h-45v-45c0-2.401-0.601-4.501-1.5-6.601l-30-60c-2.701-5.099-8.101-7.8-13.5-7.8
	s-10.8,2.701-13.5,7.8l-30,60c-0.899,2.1-1.5,4.2-1.5,6.601v210c0,6,3.6,11.4,9.3,13.799c5.4,2.401,12.001,1.201,16.199-3.3
	l19.501-19.2l19.501,19.2c4.199,4.501,10.8,5.7,16.199,3.3c5.7-2.399,9.3-7.798,9.3-13.799v-75h45c8.401,0,15-6.601,15-15v-60
	C361,260.649,354.401,254.05,346,254.05z"/>
<path style="fill:#3C3A41;" d="M361,269.05v60c0,8.399-6.599,15-15,15h-45v75c0,6-3.6,11.4-9.3,13.799
	c-5.4,2.401-12.001,1.201-16.199-3.3L256,410.349v-275.7c5.4,0,10.8,2.701,13.5,7.8l30,60c0.899,2.1,1.5,4.2,1.5,6.601v45h45
	C354.401,254.05,361,260.649,361,269.05z"/>
<g>
</g>
<g>
</g>
<g>
</g>
<g>
</g>
<g>
</g>
<g>
</g>
<g>
</g>
<g>
</g>
<g>
</g>
<g>
</g>
<g>
</g>
<g>
</g>
<g>
</g>
<g>
</g>
<g>
</g>
</svg>
