<?xml version="1.0" encoding="iso-8859-1"?>
<!-- Generator: Adobe Illustrator 19.0.0, SVG Export Plug-In . SVG Version: 6.00 Build 0)  -->
<svg version="1.1" id="Capa_1" xmlns="http://www.w3.org/2000/svg" xmlns:xlink="http://www.w3.org/1999/xlink" x="0px" y="0px"
	 viewBox="0 0 511.999 511.999" style="enable-background:new 0 0 511.999 511.999;" xml:space="preserve">
<path style="fill:#FEDB41;" d="M436.868,479.05H75.132c-45.601,0-74.7-49.2-52.5-89.101L203.5,64.149
	c11.4-20.7,32.1-30.899,52.5-30.899s41.1,10.199,52.5,30.899l180.868,325.8C511.568,429.849,482.469,479.05,436.868,479.05z"/>
<path style="fill:#FCBF29;" d="M436.868,479.05H256V33.25c20.4,0,41.1,10.199,52.5,30.899l180.868,325.8
	C511.568,429.849,482.469,479.05,436.868,479.05z"/>
<polygon style="fill:#57555C;" points="301,149.05 301,389.05 267.7,399.249 256,397.149 211,389.05 211,149.05 "/>
<polygon style="fill:#3C3A41;" points="301,149.05 301,389.05 267.7,399.249 256,397.149 256,149.05 "/>
<path style="fill:#32D736;" d="M256,104.05c-24.901,0-45,20.099-45,45c0,24.899,20.099,45,45,45s45-20.101,45-45
	C301,124.149,280.901,104.05,256,104.05z"/>
<path style="fill:#FCBF29;" d="M256,224.05c-24.901,0-45,20.099-45,45c0,24.899,20.099,45,45,45s45-20.101,45-45
	C301,244.149,280.901,224.05,256,224.05z"/>
<g>
	<path style="fill:#FD4E26;" d="M256,344.05c-24.901,0-45,20.099-45,45c0,24.899,20.099,45,45,45s45-20.101,45-45
		C301,364.149,280.901,344.05,256,344.05z"/>
	<path style="fill:#FD4E26;" d="M502.568,382.749L321.7,56.649C307.599,30.85,281.799,17.95,256,17.95s-51.599,12.9-65.7,38.699
		L9.432,382.749c-27.599,50.099,8.701,111.301,65.7,111.301h361.737C493.867,494.05,530.168,432.849,502.568,382.749z
		 M436.868,464.05H75.132c-34.2,0-56.1-36.601-39.3-66.901L216.7,71.349c8.699-15.599,24-23.399,39.3-23.399s30.901,7.8,39.3,23.399
		l180.868,325.8C492.668,427.149,471.069,464.05,436.868,464.05z"/>
</g>
<path style="fill:#FD3018;" d="M256,434.05v-90c24.901,0,45,20.099,45,45C301,413.949,280.901,434.05,256,434.05z"/>
<path style="fill:#FE9923;" d="M256,314.05v-90c24.901,0,45,20.099,45,45C301,293.949,280.901,314.05,256,314.05z"/>
<path style="fill:#10BB67;" d="M256,194.05v-90c24.901,0,45,20.099,45,45C301,173.949,280.901,194.05,256,194.05z"/>
<path style="fill:#FD3018;" d="M436.868,494.05H256v-30h180.868c34.2,0,55.8-36.901,39.3-66.901l-180.868-325.8
	c-8.399-15.599-24-23.399-39.3-23.399v-30c25.8,0,51.599,12.9,65.7,38.699l180.868,326.1
	C530.168,432.849,493.867,494.05,436.868,494.05z"/>
<g>
</g>
<g>
</g>
<g>
</g>
<g>
</g>
<g>
</g>
<g>
</g>
<g>
</g>
<g>
</g>
<g>
</g>
<g>
</g>
<g>
</g>
<g>
</g>
<g>
</g>
<g>
</g>
<g>
</g>
</svg>
