<?xml version="1.0" encoding="iso-8859-1"?>
<!-- Generator: Adobe Illustrator 19.0.0, SVG Export Plug-In . SVG Version: 6.00 Build 0)  -->
<svg version="1.1" id="Capa_1" xmlns="http://www.w3.org/2000/svg" xmlns:xlink="http://www.w3.org/1999/xlink" x="0px" y="0px"
	 viewBox="0 0 512 512" style="enable-background:new 0 0 512 512;" xml:space="preserve">
<path style="fill:#FEDB41;" d="M488.467,62.351c-10.8-18.301-30.3-29.401-51.599-29.401H75.132c-21.299,0-40.8,11.1-51.599,29.401
	c-10.801,18.6-11.4,40.8-0.901,59.698L203.5,447.851c10.8,19.499,30.3,31.199,52.5,31.199s41.7-11.7,52.5-31.199L489.368,122.05
	C499.868,103.151,499.269,80.951,488.467,62.351z"/>
<path style="fill:#FD4E26;" d="M436.868,17.95H75.132c-56.999,0-93.3,61.201-65.7,111.301l180.868,326.1
	c14.101,25.8,39.901,38.699,65.7,38.699s51.599-12.9,65.7-38.699l180.868-326.1C530.168,79.151,493.867,17.95,436.868,17.95z
	 M476.168,114.849L295.3,440.651c-8.399,15.599-24,23.399-39.3,23.399s-30.601-7.8-39.3-23.399L35.832,114.849
	c-16.8-30.298,5.099-66.899,39.3-66.899h361.737C471.069,47.95,492.668,84.851,476.168,114.849z"/>
<path style="fill:#FCBF29;" d="M488.467,62.351c-10.8-18.301-30.3-29.401-51.599-29.401H256v446.1c22.2,0,41.7-11.7,52.5-31.199
	L489.368,122.05C499.868,103.151,499.269,80.951,488.467,62.351z"/>
<path style="fill:#FD3018;" d="M436.868,17.95H256v30h180.868c34.2,0,55.8,36.901,39.3,66.899L295.3,440.651
	c-8.399,15.599-24,23.399-39.3,23.399v30c25.8,0,51.599-12.9,65.7-38.699l180.868-326.1C530.168,79.151,493.867,17.95,436.868,17.95
	z"/>
<g>
</g>
<g>
</g>
<g>
</g>
<g>
</g>
<g>
</g>
<g>
</g>
<g>
</g>
<g>
</g>
<g>
</g>
<g>
</g>
<g>
</g>
<g>
</g>
<g>
</g>
<g>
</g>
<g>
</g>
</svg>
