<?xml version="1.0" encoding="iso-8859-1"?>
<!-- Generator: Adobe Illustrator 19.0.0, SVG Export Plug-In . SVG Version: 6.00 Build 0)  -->
<svg version="1.1" id="Capa_1" xmlns="http://www.w3.org/2000/svg" xmlns:xlink="http://www.w3.org/1999/xlink" x="0px" y="0px"
	 viewBox="0 0 511.999 511.999" style="enable-background:new 0 0 511.999 511.999;" xml:space="preserve">
<path style="fill:#FEDB41;" d="M488.467,449.649c-10.8,18.301-30.3,29.401-51.599,29.401H75.132c-21.299,0-40.8-11.1-51.599-29.401
	c-10.801-18.6-11.4-40.8-0.901-59.698L203.5,64.149C214.3,44.651,233.8,32.95,256,32.95s41.7,11.7,52.5,31.199L489.367,389.95
	C499.868,408.849,499.269,431.049,488.467,449.649z"/>
<path style="fill:#FD4E26;" d="M502.568,382.749L321.7,56.649C307.599,30.85,281.799,17.95,256,17.95s-51.599,12.9-65.7,38.699
	L9.432,382.749c-27.599,50.099,8.701,111.301,65.7,111.301h361.737C493.867,494.05,530.168,432.849,502.568,382.749z
	 M436.868,464.05H75.132c-34.2,0-56.1-36.601-39.3-66.899L216.7,71.349c8.699-15.599,24-23.399,39.3-23.399s30.901,7.8,39.3,23.399
	L476.167,397.15C492.668,427.149,471.069,464.05,436.868,464.05z"/>
<path style="fill:#FCBF29;" d="M488.467,449.649c-10.8,18.301-30.3,29.401-51.599,29.401H256V32.95c22.2,0,41.7,11.7,52.5,31.199
	L489.367,389.95C499.868,408.849,499.269,431.049,488.467,449.649z"/>
<path style="fill:#FD3018;" d="M436.868,494.05H256v-30h180.868c34.2,0,55.8-36.901,39.3-66.899L295.299,71.349
	c-8.399-15.599-24-23.399-39.3-23.399v-30c25.8,0,51.599,12.9,65.7,38.699l180.868,326.1
	C530.168,432.849,493.867,494.05,436.868,494.05z"/>
<g>
	<path style="fill:#57555C;" d="M166,434.05c-8.291,0-15-6.709-15-15v-150c0-8.291,6.709-15,15-15s15,6.709,15,15v150
		C181,427.341,174.291,434.05,166,434.05z"/>
	<path style="fill:#57555C;" d="M226,434.05c-8.291,0-15-6.709-15-15v-150c0-8.291,6.709-15,15-15s15,6.709,15,15v150
		C241,427.341,234.291,434.05,226,434.05z"/>
</g>
<g>
	<path style="fill:#3C3A41;" d="M286,434.05c-8.291,0-15-6.709-15-15v-150c0-8.291,6.709-15,15-15s15,6.709,15,15v150
		C301,427.341,294.29,434.05,286,434.05z"/>
	<path style="fill:#3C3A41;" d="M346,434.05c-8.291,0-15-6.709-15-15v-150c0-8.291,6.709-15,15-15s15,6.709,15,15v150
		C361,427.341,354.29,434.05,346,434.05z"/>
</g>
<g>
	<path style="fill:#57555C;" d="M391,299.05c0,8.401-6.599,15-15,15H136c-8.401,0-15-6.599-15-15s6.599-15,15-15h240
		C384.401,284.05,391,290.649,391,299.05z"/>
	<path style="fill:#57555C;" d="M391,389.05c0,8.401-6.599,15-15,15H136c-8.401,0-15-6.599-15-15s6.599-15,15-15h240
		C384.401,374.05,391,380.649,391,389.05z"/>
</g>
<g>
	<path style="fill:#3C3A41;" d="M391,389.05c0,8.401-6.599,15-15,15H256v-30h120C384.401,374.05,391,380.649,391,389.05z"/>
	<path style="fill:#3C3A41;" d="M376,314.05H256v-30h120c8.401,0,15,6.599,15,15S384.401,314.05,376,314.05z"/>
</g>
<g>
</g>
<g>
</g>
<g>
</g>
<g>
</g>
<g>
</g>
<g>
</g>
<g>
</g>
<g>
</g>
<g>
</g>
<g>
</g>
<g>
</g>
<g>
</g>
<g>
</g>
<g>
</g>
<g>
</g>
</svg>
