<?xml version="1.0" encoding="iso-8859-1"?>
<!-- Generator: Adobe Illustrator 19.0.0, SVG Export Plug-In . SVG Version: 6.00 Build 0)  -->
<svg version="1.1" id="Capa_1" xmlns="http://www.w3.org/2000/svg" xmlns:xlink="http://www.w3.org/1999/xlink" x="0px" y="0px"
	 viewBox="0 0 511.999 511.999" style="enable-background:new 0 0 511.999 511.999;" xml:space="preserve">
<path style="fill:#FEDB41;" d="M488.467,449.649c-10.8,18.301-30.3,29.401-51.599,29.401H75.132c-21.299,0-40.8-11.1-51.599-29.401
	c-10.801-18.6-11.4-40.8-0.901-59.7L203.5,64.149c10.8-19.5,30.3-31.199,52.5-31.199s41.7,11.699,52.5,31.199l180.868,325.8
	C499.868,408.849,499.269,431.049,488.467,449.649z"/>
<path style="fill:#FCBF29;" d="M488.467,449.649c-10.8,18.301-30.3,29.401-51.599,29.401H256V32.95c22.2,0,41.7,11.699,52.5,31.199
	l180.868,325.8C499.868,408.849,499.269,431.049,488.467,449.649z"/>
<path style="fill:#57555C;" d="M449.5,411.85l-47.701-86.1c-4.499-8.101-15-10.501-22.5-4.501c-17.1,13.5-46.5,22.8-63.3,22.8
	c-24.901,0-45-20.101-45-45c0-24.901,20.099-45,45-45c6,0,12.001,1.199,17.401,3.6c13.2,5.4,25.8-8.701,18.9-21.301l-4.501-8.099
	c-18.6-33.9-53.101-54.302-91.8-54.302s-73.2,20.402-91.8,54.302L62.5,411.85c-5.4,9.899,1.8,22.2,13.2,22.2h360.6
	C447.7,434.05,454.9,421.749,449.5,411.85z"/>
<path style="fill:#FD4E26;" d="M502.568,382.749L321.7,56.649C307.599,30.85,281.799,17.95,256,17.95s-51.599,12.9-65.7,38.699
	L9.432,382.749c-27.599,50.099,8.701,111.301,65.7,111.301h361.737C493.867,494.05,530.168,432.849,502.568,382.749z
	 M436.868,464.05H75.132c-34.2,0-56.1-36.601-39.3-66.901L216.7,71.349c8.699-15.599,24-23.399,39.3-23.399s30.901,7.8,39.3,23.399
	l180.868,325.8C492.668,427.149,471.069,464.05,436.868,464.05z"/>
<path style="fill:#3C3A41;" d="M436.299,434.05H256V173.949c38.699,0,73.2,20.402,91.8,54.302l4.501,8.099
	c6.899,12.599-5.7,26.7-18.9,21.301c-5.4-2.401-11.4-3.6-17.401-3.6c-24.901,0-45,20.099-45,45c0,24.899,20.099,45,45,45
	c16.8,0,46.199-9.3,63.3-22.8c7.5-6,18.001-3.6,22.5,4.501l47.701,86.1C454.9,421.749,447.7,434.05,436.299,434.05z"/>
<path style="fill:#FD3018;" d="M436.868,494.05H256v-30h180.868c34.2,0,55.8-36.901,39.3-66.901l-180.868-325.8
	c-8.399-15.599-24-23.399-39.3-23.399v-30c25.8,0,51.599,12.9,65.7,38.699l180.868,326.1
	C530.168,432.849,493.867,494.05,436.868,494.05z"/>
<g>
</g>
<g>
</g>
<g>
</g>
<g>
</g>
<g>
</g>
<g>
</g>
<g>
</g>
<g>
</g>
<g>
</g>
<g>
</g>
<g>
</g>
<g>
</g>
<g>
</g>
<g>
</g>
<g>
</g>
</svg>
