<?xml version="1.0" encoding="iso-8859-1"?>
<!-- Generator: Adobe Illustrator 19.0.0, SVG Export Plug-In . SVG Version: 6.00 Build 0)  -->
<svg version="1.1" id="Capa_1" xmlns="http://www.w3.org/2000/svg" xmlns:xlink="http://www.w3.org/1999/xlink" x="0px" y="0px"
	 viewBox="0 0 512 512" style="enable-background:new 0 0 512 512;" xml:space="preserve">
<path style="fill:#57555C;" d="M466,0H46C20.636,0,0,20.636,0,46v420c0,25.364,20.636,46,46,46h420c25.364,0,46-20.636,46-46V46
	C512,20.636,491.364,0,466,0z"/>
<path style="fill:#3C3A41;" d="M466,0H256v512h210c25.364,0,46-20.636,46-46V46C512,20.636,491.364,0,466,0z"/>
<path style="fill:#1689FC;" d="M46,482c-8.822,0-16-7.178-16-16V46c0-8.822,7.178-16,16-16h420c8.822,0,16,7.178,16,16v420
	c0,8.822-7.178,16-16,16H46z"/>
<path style="fill:#136EF1;" d="M466,30H256v452h210c8.822,0,16-7.178,16-16V46C482,37.178,474.822,30,466,30z"/>
<path style="fill:#CAE8F9;" d="M416.609,245.396c-5.841-5.85-15.397-5.829-21.218,0l-29.998,29.998
	c-5.858,5.858-5.858,15.355,0,21.213c5.857,5.858,15.355,5.858,21.213,0l4.239-4.239c-3.102,66.48-54.514,120.538-119.845,127.794
	V179.101c25.849-6.677,45-30.195,45-58.101c0-33.084-26.916-60-60-60s-60,26.916-60,60c0,27.906,19.151,51.424,45,58.101v241.061
	c-65.331-7.256-116.743-61.314-119.846-127.795l4.239,4.239c2.929,2.93,6.768,4.394,10.607,4.394s7.678-1.464,10.606-4.394
	c5.858-5.858,5.858-15.355,0-21.213l-29.998-29.998c-5.96-5.969-15.514-5.712-21.218,0l-29.998,29.998
	c-5.858,5.858-5.858,15.355,0,21.213c5.857,5.858,15.355,5.858,21.213,0l4.518-4.518C94.34,380.259,167.058,451,256,451
	s161.66-70.741,164.876-158.911l4.518,4.518C428.322,299.536,432.161,301,436,301s7.678-1.464,10.606-4.394
	c5.858-5.858,5.858-15.355,0-21.213L416.609,245.396z M226,121c0-16.542,13.458-30,30-30s30,13.458,30,30s-13.458,30-30,30
	S226,137.542,226,121z"/>
<path style="fill:#B7E0F6;" d="M286,121c0,16.542-13.458,30-30,30v300c88.942,0,161.66-70.741,164.876-158.911l4.518,4.518
	C428.322,299.536,432.161,301,436,301s7.678-1.464,10.606-4.394c5.858-5.858,5.858-15.355,0-21.213l-29.998-29.998
	c-5.841-5.85-15.397-5.829-21.218,0l-29.998,29.998c-5.858,5.858-5.858,15.355,0,21.213c5.857,5.858,15.355,5.858,21.213,0
	l4.239-4.239C387.743,358.848,336.331,412.906,271,420.162V179.101c25.849-6.677,45-30.195,45-58.101c0-33.084-26.916-60-60-60v30
	C272.542,91,286,104.458,286,121z"/>
<g>
</g>
<g>
</g>
<g>
</g>
<g>
</g>
<g>
</g>
<g>
</g>
<g>
</g>
<g>
</g>
<g>
</g>
<g>
</g>
<g>
</g>
<g>
</g>
<g>
</g>
<g>
</g>
<g>
</g>
</svg>
