<?xml version="1.0" encoding="iso-8859-1"?>
<!-- Generator: Adobe Illustrator 19.0.0, SVG Export Plug-In . SVG Version: 6.00 Build 0)  -->
<svg version="1.1" id="Capa_1" xmlns="http://www.w3.org/2000/svg" xmlns:xlink="http://www.w3.org/1999/xlink" x="0px" y="0px"
	 viewBox="0 0 511.999 511.999" style="enable-background:new 0 0 511.999 511.999;" xml:space="preserve">
<path style="fill:#FEDB41;" d="M436.868,479.05H75.132c-45.601,0-74.7-49.2-52.5-89.101L203.5,64.149
	c11.4-20.7,32.1-30.899,52.5-30.899s41.1,10.199,52.5,30.899l180.868,325.8C511.568,429.849,482.469,479.05,436.868,479.05z"/>
<path style="fill:#FCBF29;" d="M436.868,479.05H256V33.25c20.4,0,41.1,10.199,52.5,30.899l180.868,325.8
	C511.568,429.849,482.469,479.05,436.868,479.05z"/>
<g>
	<path style="fill:#FD4E26;" d="M333.401,256.749c-5.4-8.399-16.8-9.3-23.401-2.999c-2.401,2.401-3.6,5.099-4.499,8.101
		c-0.601-37.5-14.702-65.402-38.101-92.701c-2.999-3.3-6.899-5.099-11.4-5.099c-0.901,0-2.1,0-2.999,0.3
		c-5.101,0.899-9.6,4.799-11.1,9.899c-11.102,33.001-18.301,43.801-38.701,66.301c-10.199,11.1-21.599,23.699-32.699,43.801
		c-36,65.999,5.099,149.7,85.199,149.7h0.3c58.5-0.3,105-47.1,105-105C361,310.75,352,287.049,333.401,256.749z"/>
	<path style="fill:#FD4E26;" d="M502.568,382.749L321.7,56.649c-13.5-24-38.101-38.699-65.7-38.699s-52.2,14.7-65.7,38.699
		L9.432,382.749c-27.599,50.099,8.701,111.301,65.7,111.301h361.737C493.867,494.05,530.168,432.849,502.568,382.749z
		 M436.868,464.05H75.132c-34.2,0-56.1-36.601-39.3-66.901L216.7,71.349c8.699-15.599,24-23.399,39.3-23.399s30.901,7.8,39.3,23.399
		l180.868,325.8C492.668,427.149,471.069,464.05,436.868,464.05z"/>
</g>
<g>
	<path style="fill:#FD3018;" d="M436.868,494.05H256v-30h180.868c34.2,0,55.8-36.901,39.3-66.901l-180.868-325.8
		c-8.399-15.599-24-23.399-39.3-23.399v-30c27.599,0,52.2,14.7,65.7,38.699l180.868,326.1
		C530.168,432.849,493.867,494.05,436.868,494.05z"/>
	<path style="fill:#FD3018;" d="M361,329.05c0,57.9-46.5,104.7-105,105v-270c4.501,0,8.401,1.8,11.4,5.099
		c23.399,27.299,37.5,55.201,38.101,92.701c0.899-3.001,2.098-5.7,4.499-8.101c6.601-6.301,18.001-5.4,23.401,2.999
		C352,287.049,361,310.75,361,329.05z"/>
</g>
<g>
</g>
<g>
</g>
<g>
</g>
<g>
</g>
<g>
</g>
<g>
</g>
<g>
</g>
<g>
</g>
<g>
</g>
<g>
</g>
<g>
</g>
<g>
</g>
<g>
</g>
<g>
</g>
<g>
</g>
</svg>
