<?xml version="1.0" encoding="iso-8859-1"?>
<!-- Generator: Adobe Illustrator 19.0.0, SVG Export Plug-In . SVG Version: 6.00 Build 0)  -->
<svg version="1.1" id="Capa_1" xmlns="http://www.w3.org/2000/svg" xmlns:xlink="http://www.w3.org/1999/xlink" x="0px" y="0px"
	 viewBox="0 0 511.999 511.999" style="enable-background:new 0 0 511.999 511.999;" xml:space="preserve">
<path style="fill:#FEDB41;" d="M436.7,479.546H75.299c-45.702,0-74.866-49.309-52.617-89.299L203.383,63.722
	c11.425-20.746,32.171-30.968,52.617-30.968s41.191,10.222,52.617,30.968l180.701,326.524
	C511.566,430.236,482.403,479.546,436.7,479.546z"/>
<path style="fill:#FCBF29;" d="M436.7,479.546H255.999V32.754c20.445,0,41.191,10.222,52.617,30.968l180.701,326.524
	C511.566,430.236,482.403,479.546,436.7,479.546z"/>
<path style="fill:#57555C;" d="M449.93,412.196l-33.374-60.133c-2.707-4.812-7.817-7.817-13.229-7.817H360.03
	c-7.218-50.813-51.113-90.2-104.032-90.2s-96.814,39.387-104.032,90.2h-43.296c-5.412,0-10.522,3.006-13.229,7.817l-33.374,60.133
	c-5.412,9.921,1.804,22.249,13.229,22.249h90.501c41.492,0,75.167-33.675,75.167-75.167c0-8.42,6.614-15.033,15.033-15.033
	c8.42,0,15.033,6.614,15.033,15.033c0,41.492,33.675,75.167,75.167,75.167h90.501C448.126,434.446,455.342,422.117,449.93,412.196z"
	/>
<path style="fill:#FD4E26;" d="M502.546,383.031L321.846,56.205c-13.53-24.053-38.186-38.785-65.846-38.785
	s-52.316,14.733-65.846,38.785L9.452,383.031c-27.66,50.21,8.72,111.548,65.846,111.548h361.403
	C493.826,494.579,530.208,433.242,502.546,383.031z M436.7,464.512H75.299c-34.276,0-56.225-36.682-39.387-67.05L216.612,70.938
	c8.718-15.634,24.053-23.451,39.387-23.451s30.97,7.817,39.387,23.451l180.701,326.524
	C492.624,427.529,470.977,464.512,436.7,464.512z"/>
<path style="fill:#3C3A41;" d="M255.999,344.245v-90.2c52.917,0,96.814,39.387,104.032,90.2h43.296
	c5.412,0,10.522,3.006,13.229,7.817l33.374,60.133c5.412,9.921-1.804,22.249-13.229,22.249h-90.501
	c-41.492,0-75.167-33.675-75.167-75.167C271.033,350.859,264.419,344.245,255.999,344.245z"/>
<path style="fill:#FD3018;" d="M436.7,494.579H255.999v-30.067H436.7c34.276,0,55.924-36.983,39.387-67.05L295.387,70.938
	c-8.418-15.634-24.053-23.451-39.387-23.451V17.42c27.66,0,52.316,14.733,65.846,38.785l180.701,326.825
	C530.208,433.242,493.826,494.579,436.7,494.579z"/>
<g>
</g>
<g>
</g>
<g>
</g>
<g>
</g>
<g>
</g>
<g>
</g>
<g>
</g>
<g>
</g>
<g>
</g>
<g>
</g>
<g>
</g>
<g>
</g>
<g>
</g>
<g>
</g>
<g>
</g>
</svg>
