<?xml version="1.0" encoding="iso-8859-1"?>
<!-- Generator: Adobe Illustrator 19.0.0, SVG Export Plug-In . SVG Version: 6.00 Build 0)  -->
<svg version="1.1" id="Capa_1" xmlns="http://www.w3.org/2000/svg" xmlns:xlink="http://www.w3.org/1999/xlink" x="0px" y="0px"
	 viewBox="0 0 512 512" style="enable-background:new 0 0 512 512;" xml:space="preserve">
<path style="fill:#1689FC;" d="M496.843,44.971v421.726c0,16.489-13.491,30.23-29.98,30.23H45.137
	c-16.489,0-29.98-12.742-29.98-29.231V45.97c0-16.489,13.491-30.98,29.98-30.98h421.726
	C483.351,14.99,496.843,28.481,496.843,44.971z"/>
<path style="fill:#136EF1;" d="M496.843,44.971v421.726c0,16.489-13.491,30.23-29.98,30.23H256V14.99h210.863
	C483.351,14.99,496.843,28.481,496.843,44.971z"/>
<path style="fill:#57555C;" d="M466.863,0H45.137C20.252,0,0.166,21.085,0.166,45.97v421.726C0.166,492.579,20.252,512,45.137,512
	l421.726-0.333c24.885,0,44.971-20.088,44.971-44.971V44.971C511.834,20.086,491.747,0,466.863,0z M481.853,466.696
	c0,8.394-6.595,15.323-14.99,15.323H45.137c-8.396,0-14.99-5.93-14.99-14.324V45.97c0-8.396,6.595-15.99,14.99-15.99h421.726
	c8.396,0,14.99,6.595,14.99,14.99V466.696z"/>
<path style="fill:#3C3A41;" d="M511.834,44.971v421.726c0,24.883-20.087,45.304-44.971,45.304H256v-29.98h210.863
	c8.396,0,14.99-6.929,14.99-15.323V44.971c0-8.396-6.595-14.99-14.99-14.99H256V0h210.863C491.747,0,511.834,20.086,511.834,44.971z
	"/>
<path style="fill:#B7E0F6;" d="M345.941,435.717V268.248l-59.961-59.961V75.951c0-8.279,6.712-14.99,14.99-14.99h29.98
	c8.279,0,14.99,6.712,14.99,14.99v107.508l59.961,59.961v192.297c0,8.279-6.712,14.99-14.99,14.99h-29.98
	C352.652,450.707,345.941,443.995,345.941,435.717z"/>
<path style="fill:#CAE8F9;" d="M106.098,435.717V243.42l59.961-59.961V75.951c0-8.279,6.712-14.99,14.99-14.99h29.98
	c8.279,0,14.99,6.712,14.99,14.99v132.336l-59.961,59.961v167.469c0,8.279-6.712,14.99-14.99,14.99h-29.981
	C112.808,450.707,106.098,443.995,106.098,435.717z"/>
<g>
</g>
<g>
</g>
<g>
</g>
<g>
</g>
<g>
</g>
<g>
</g>
<g>
</g>
<g>
</g>
<g>
</g>
<g>
</g>
<g>
</g>
<g>
</g>
<g>
</g>
<g>
</g>
<g>
</g>
</svg>
