<?xml version="1.0" encoding="iso-8859-1"?>
<!-- Generator: Adobe Illustrator 19.0.0, SVG Export Plug-In . SVG Version: 6.00 Build 0)  -->
<svg version="1.1" id="Capa_1" xmlns="http://www.w3.org/2000/svg" xmlns:xlink="http://www.w3.org/1999/xlink" x="0px" y="0px"
	 viewBox="0 0 512 512" style="enable-background:new 0 0 512 512;" xml:space="preserve">
<path style="fill:#1689FC;" d="M497,45v422c0,16.5-13.5,30-30,30H45c-16.5,0-30-13.5-30-30V45c0-16.5,13.5-30,30-30h422
	C483.5,15,497,28.5,497,45z"/>
<path style="fill:#136EF1;" d="M497,45v422c0,16.5-13.5,30-30,30H256V15h211C483.5,15,497,28.5,497,45z"/>
<path style="fill:#57555C;" d="M467,0H45C20.099,0,0,20.099,0,45v422c0,24.899,20.099,45,45,45h422c24.901,0,45-20.101,45-45V45
	C512,20.099,491.901,0,467,0z M482,467c0,8.399-6.599,15-15,15H45c-8.401,0-15-6.601-15-15V45c0-8.401,6.599-15,15-15h422
	c8.401,0,15,6.599,15,15V467z"/>
<path style="fill:#3C3A41;" d="M512,45v422c0,24.899-20.099,45-45,45H256v-30h211c8.401,0,15-6.601,15-15V45c0-8.401-6.599-15-15-15
	H256V0h211C491.901,0,512,20.099,512,45z"/>
<path style="fill:#CAE8F9;" d="M240.532,61.007C232.374,61.244,226,68.185,226,76.345V151h-30V76.345
	c0-8.161-6.374-15.101-14.532-15.339C172.846,60.756,166,67.444,166,76v75h-30V76.345c0-8.161-6.374-15.101-14.532-15.339
	C112.846,60.756,106,67.444,106,76v75v42.299c0,24.853,20.147,45,45,45l0,0v182.062c0,16.324,12.775,30.14,29.092,30.625
	C197.046,451.49,211,437.844,211,421V238.299l0,0c24.853,0,45-20.147,45-45V151V76C256,67.444,249.154,60.756,240.532,61.007z"/>
<path style="fill:#B7E0F6;" d="M389.092,62.761c-4.192,0.526-8.734,1.376-13.092,2.738C332.8,78.399,301,118.6,301,166v120
	c0,8.284,6.716,15,15,15h15h15v120c0,16.542,13.458,30,30,30s30-13.458,30-30V77.642C406,68.599,398.064,61.635,389.092,62.761z"/>
<g>
</g>
<g>
</g>
<g>
</g>
<g>
</g>
<g>
</g>
<g>
</g>
<g>
</g>
<g>
</g>
<g>
</g>
<g>
</g>
<g>
</g>
<g>
</g>
<g>
</g>
<g>
</g>
<g>
</g>
</svg>
