<?xml version="1.0" encoding="iso-8859-1"?>
<!-- Generator: Adobe Illustrator 19.0.0, SVG Export Plug-In . SVG Version: 6.00 Build 0)  -->
<svg version="1.1" id="Capa_1" xmlns="http://www.w3.org/2000/svg" xmlns:xlink="http://www.w3.org/1999/xlink" x="0px" y="0px"
	 viewBox="0 0 512 512" style="enable-background:new 0 0 512 512;" xml:space="preserve">
<path style="fill:#FEDB41;" d="M497,45v422c0,16.5-13.5,30-30,30H45c-16.5,0-30-13.5-30-30V45c0-16.5,13.5-30,30-30h422
	C483.5,15,497,28.5,497,45z"/>
<path style="fill:#57555C;" d="M467,0H45C20.099,0,0,20.099,0,45v422c0,24.899,20.099,45,45,45h422c24.901,0,45-20.101,45-45V45
	C512,20.099,491.901,0,467,0z M482,467c0,8.399-6.599,15-15,15H45c-8.401,0-15-6.601-15-15V45c0-8.401,6.599-15,15-15h422
	c8.401,0,15,6.599,15,15V467z"/>
<path style="fill:#FCBF29;" d="M497,45v422c0,16.5-13.5,30-30,30H256V15h211C483.5,15,497,28.5,497,45z"/>
<path style="fill:#3C3A41;" d="M512,45v422c0,24.899-20.099,45-45,45H256v-30h211c8.401,0,15-6.601,15-15V45c0-8.401-6.599-15-15-15
	H256V0h211C491.901,0,512,20.099,512,45z"/>
<path style="fill:#57555C;" d="M376,241c-9.901,0-19.501,2.1-28.2,5.7l-32.701-49.501l22.8-46.199H376c8.401,0,15,6.599,15,15
	c0,8.399-6.599,15-15,15s-15,6.599-15,15c0,8.399,6.599,15,15,15c24.901,0,45-20.101,45-45c0-24.901-20.099-45-45-45h-47.401
	c-5.7,0-10.8,3.3-13.5,8.399L289.6,181H211v-30h15c8.401,0,15-6.601,15-15c0-8.401-6.599-15-15-15h-60c-8.401,0-15,6.599-15,15
	c0,8.399,6.599,15,15,15h15v41.4l-25.8,51.299c-6-1.5-12.601-2.699-19.2-2.699c-41.4,0-75,33.6-75,75s33.6,75,75,75
	c36.301,0,66.599-25.8,73.5-60h30c5.7,0,10.8-3.3,13.5-8.401l2.999-6L299.8,228.1l23.099,35.099C309.401,276.7,301,295.3,301,316
	c0,41.4,33.6,75,75,75s75-33.6,75-75S417.4,241,376,241z M136,361c-24.901,0-45-20.101-45-45c0-24.901,20.099-45,45-45
	c1.8,0,3.6,0.3,5.4,0.599l-18.9,37.8C117.7,319.3,124.9,331,136,331h42.299C172,348.399,155.501,361,136,361z M160.3,301
	l8.101-16.201C172.6,289.3,176.201,295,178.3,301H160.3z M256,249.099L230.2,301h-20.7c-3.6-17.701-13.801-33.001-27.301-43.801
	L205.3,211h69.6L256,249.099z M376,361c-24.901,0-45-20.101-45-45c0-10.201,3.6-19.501,9-27.001l23.401,35.4
	c4.799,6.901,14.099,8.701,21,4.2c6.899-4.799,8.699-14.099,4.199-21L365.2,272.5c3.3-0.901,6.899-1.5,10.8-1.5
	c24.901,0,45,20.099,45,45C421,340.899,400.901,361,376,361z"/>
<path style="fill:#3C3A41;" d="M376,241c-9.901,0-19.501,2.1-28.2,5.7l-32.701-49.501l22.8-46.199H376c8.401,0,15,6.599,15,15
	c0,8.399-6.599,15-15,15s-15,6.599-15,15c0,8.399,6.599,15,15,15c24.901,0,45-20.101,45-45c0-24.901-20.099-45-45-45h-47.401
	c-5.7,0-10.8,3.3-13.5,8.399L289.6,181H256v30h18.9L256,249.099v67.5l43.801-88.499l23.099,35.099C309.401,276.7,301,295.3,301,316
	c0,41.4,33.6,75,75,75s75-33.6,75-75S417.4,241,376,241z M376,361c-24.901,0-45-20.101-45-45c0-10.201,3.6-19.501,9-27.001
	l23.401,35.4c4.799,6.901,14.099,8.701,21,4.2c6.899-4.799,8.699-14.099,4.199-21L365.2,272.5c3.3-0.901,6.899-1.5,10.8-1.5
	c24.901,0,45,20.099,45,45C421,340.899,400.901,361,376,361z"/>
<g>
</g>
<g>
</g>
<g>
</g>
<g>
</g>
<g>
</g>
<g>
</g>
<g>
</g>
<g>
</g>
<g>
</g>
<g>
</g>
<g>
</g>
<g>
</g>
<g>
</g>
<g>
</g>
<g>
</g>
</svg>
