<?xml version="1.0" encoding="iso-8859-1"?>
<!-- Generator: Adobe Illustrator 19.0.0, SVG Export Plug-In . SVG Version: 6.00 Build 0)  -->
<svg version="1.1" id="Capa_1" xmlns="http://www.w3.org/2000/svg" xmlns:xlink="http://www.w3.org/1999/xlink" x="0px" y="0px"
	 viewBox="0 0 512 512" style="enable-background:new 0 0 512 512;" xml:space="preserve">
<path style="fill:#FEDB41;" d="M497,45v422c0,16.5-13.5,30-30,30H45c-16.5,0-30-13.5-30-30V45c0-16.5,13.5-30,30-30h422
	C483.5,15,497,28.5,497,45z"/>
<path style="fill:#57555C;" d="M467,0H45C20.099,0,0,20.099,0,45v422c0,24.899,20.099,45,45,45h422c24.901,0,45-20.101,45-45V45
	C512,20.099,491.901,0,467,0z M482,467c0,8.399-6.599,15-15,15H45c-8.401,0-15-6.601-15-15V45c0-8.401,6.599-15,15-15h422
	c8.401,0,15,6.599,15,15V467z"/>
<path style="fill:#FCBF29;" d="M497,45v422c0,16.5-13.5,30-30,30H256V15h211C483.5,15,497,28.5,497,45z"/>
<g>
	<path style="fill:#3C3A41;" d="M512,45v422c0,24.899-20.099,45-45,45H256v-30h211c8.401,0,15-6.601,15-15V45
		c0-8.401-6.599-15-15-15H256V0h211C491.901,0,512,20.099,512,45z"/>
	<path style="fill:#3C3A41;" d="M382.301,170.799C377.199,133.9,345.399,106,307.899,106H204.101c-37.8,0-69.901,28.2-74.401,64.2
		l-8.399,37.5C119.2,217,126.4,226,136,226h240c9.6,0,16.8-9,14.7-18.3L382.301,170.799z"/>
	<path style="fill:#3C3A41;" d="M166,406c-24.814,0-45-20.186-45-45v-30c0-8.291,6.709-15,15-15h60c8.291,0,15,6.709,15,15v30
		C211,385.814,190.814,406,166,406z"/>
</g>
<g>
	<path style="fill:#2B292C;" d="M346,406c-24.814,0-45-20.186-45-45v-30c0-8.291,6.709-15,15-15h60c8.291,0,15,6.709,15,15v30
		C391,385.814,370.814,406,346,406z"/>
	<path style="fill:#2B292C;" d="M390.7,207.7c2.1,9.3-5.1,18.3-14.7,18.3H256V106h51.899c37.5,0,69.3,27.9,74.401,64.799
		L390.7,207.7z"/>
</g>
<path style="fill:#FEDB41;" d="M357.4,196H154.9l4.2-19.2c2.999-24,22.5-40.8,45-40.8h103.799c22.5,0,41.7,16.8,44.7,39L357.4,196z"
	/>
<path style="fill:#FCBF29;" d="M357.4,196H256v-60h51.899c22.5,0,41.7,16.8,44.7,39L357.4,196z"/>
<path style="fill:#57555C;" d="M421,256l-30,17.399L421,286v15c0,24.899-20.099,45-45,45H136c-24.901,0-45-20.101-45-45v-15
	l17.401-13.801L91,256v-15c0-24.901,20.099-45,45-45h240c24.901,0,45,20.099,45,45V256z"/>
<g>
	<path style="fill:#3C3A41;" d="M421,256l-30,17.399L421,286v15c0,24.899-20.099,45-45,45H256V196h120c24.901,0,45,20.099,45,45V256
		z"/>
	<path style="fill:#3C3A41;" d="M181,271c0,8.291-6.709,15-15,15H91v-30h75C174.291,256,181,262.709,181,271z"/>
</g>
<path style="fill:#2B292C;" d="M421,286h-75c-8.291,0-15-6.709-15-15s6.709-15,15-15h75V286z"/>
<g>
</g>
<g>
</g>
<g>
</g>
<g>
</g>
<g>
</g>
<g>
</g>
<g>
</g>
<g>
</g>
<g>
</g>
<g>
</g>
<g>
</g>
<g>
</g>
<g>
</g>
<g>
</g>
<g>
</g>
</svg>
