<?xml version="1.0" encoding="iso-8859-1"?>
<!-- Generator: Adobe Illustrator 19.0.0, SVG Export Plug-In . SVG Version: 6.00 Build 0)  -->
<svg version="1.1" id="Capa_1" xmlns="http://www.w3.org/2000/svg" xmlns:xlink="http://www.w3.org/1999/xlink" x="0px" y="0px"
	 viewBox="0 0 512 512" style="enable-background:new 0 0 512 512;" xml:space="preserve">
<path style="fill:#57555C;" d="M467,0H45C20.099,0,0,20.099,0,45v422c0,24.899,20.099,45,45,45h422c24.901,0,45-20.101,45-45V45
	C512,20.099,491.901,0,467,0z"/>
<path style="fill:#3C3A41;" d="M512,45v422c0,24.899-20.099,45-45,45H256V0h211C491.901,0,512,20.099,512,45z"/>
<path style="fill:#1689FC;" d="M482,45v422c0,8.399-6.599,15-15,15H45c-8.401,0-15-6.601-15-15V45c0-8.401,6.599-15,15-15h422
	C475.401,30,482,36.599,482,45z"/>
<path style="fill:#136EF1;" d="M482,45v422c0,8.399-6.599,15-15,15H256V30h211C475.401,30,482,36.599,482,45z"/>
<path style="fill:#CAE8F9;" d="M376,106v300c0,8.401-6.599,15-15,15h-30c-8.401,0-15-6.599-15-15V286H196v120
	c0,8.401-6.599,15-15,15h-30c-8.401,0-15-6.599-15-15V106c0-8.401,6.599-15,15-15h30c8.401,0,15,6.599,15,15v120h120V106
	c0-8.401,6.599-15,15-15h30C369.401,91,376,97.599,376,106z"/>
<path style="fill:#B7E0F6;" d="M376,106v300c0,8.401-6.599,15-15,15h-30c-8.401,0-15-6.599-15-15V286h-60v-60h60V106
	c0-8.401,6.599-15,15-15h30C369.401,91,376,97.599,376,106z"/>
<g>
</g>
<g>
</g>
<g>
</g>
<g>
</g>
<g>
</g>
<g>
</g>
<g>
</g>
<g>
</g>
<g>
</g>
<g>
</g>
<g>
</g>
<g>
</g>
<g>
</g>
<g>
</g>
<g>
</g>
</svg>
