<?xml version="1.0" encoding="iso-8859-1"?>
<!-- Generator: Adobe Illustrator 19.0.0, SVG Export Plug-In . SVG Version: 6.00 Build 0)  -->
<svg version="1.1" id="Capa_1" xmlns="http://www.w3.org/2000/svg" xmlns:xlink="http://www.w3.org/1999/xlink" x="0px" y="0px"
	 viewBox="0 0 512 512" style="enable-background:new 0 0 512 512;" xml:space="preserve">
<path style="fill:#1689FC;" d="M256,497c-64.374,0-124.895-25.068-170.413-70.587S15,320.374,15,256S40.068,131.106,85.587,85.587
	S191.626,15,256,15s124.895,25.068,170.413,70.587S497,191.626,497,256s-25.068,124.894-70.587,170.413S320.374,497,256,497z"/>
<path style="fill:#136EF1;" d="M426.413,426.413C471.932,380.894,497,320.374,497,256s-25.068-124.894-70.587-170.413
	S320.374,15,256,15v482C320.374,497,380.895,471.932,426.413,426.413z"/>
<path style="fill:#CAE8F9;" d="M181,361c-33.084,0-60-26.916-60-60v-90c0-33.084,26.916-60,60-60
	c23.682,0,45.206,13.982,54.837,35.622c3.368,7.569-0.036,16.435-7.605,19.803c-7.571,3.369-16.435-0.038-19.803-7.605
	C203.611,187.995,192.845,181,181,181c-16.542,0-30,13.458-30,30v38.052c8.83-5.119,19.08-8.052,30-8.052c33.084,0,60,26.916,60,60
	S214.084,361,181,361z M151,301c0,16.542,13.458,30,30,30s30-13.458,30-30s-13.458-30-30-30S151,284.458,151,301z"/>
<path style="fill:#B7E0F6;" d="M331,361c-33.084,0-60-26.916-60-60v-90c0-33.084,26.916-60,60-60s60,26.916,60,60v90
	C391,334.084,364.084,361,331,361z M331,181c-16.542,0-30,13.458-30,30v90c0,16.542,13.458,30,30,30s30-13.458,30-30v-90
	C361,194.458,347.542,181,331,181z"/>
<path style="fill:#57555C;" d="M256,512c-68.381,0-132.668-26.629-181.02-74.981C26.629,388.667,0,324.38,0,256
	S26.629,123.333,74.98,74.981C123.332,26.629,187.619,0,256,0s132.668,26.629,181.02,74.981C485.371,123.333,512,187.62,512,256
	s-26.629,132.667-74.98,181.019C388.668,485.371,324.381,512,256,512z M256,30c-60.367,0-117.121,23.508-159.807,66.194
	S30,195.633,30,256s23.508,117.121,66.193,159.806S195.633,482,256,482s117.121-23.508,159.807-66.194S482,316.367,482,256
	s-23.508-117.121-66.193-159.806S316.367,30,256,30z"/>
<path style="fill:#3C3A41;" d="M415.807,96.194C458.492,138.879,482,195.633,482,256s-23.508,117.121-66.193,159.806
	S316.367,482,256,482v30c68.381,0,132.668-26.629,181.02-74.981C485.371,388.667,512,324.38,512,256s-26.629-132.667-74.98-181.019
	C388.668,26.629,324.381,0,256,0v30C316.367,30,373.121,53.508,415.807,96.194z"/>
<g>
</g>
<g>
</g>
<g>
</g>
<g>
</g>
<g>
</g>
<g>
</g>
<g>
</g>
<g>
</g>
<g>
</g>
<g>
</g>
<g>
</g>
<g>
</g>
<g>
</g>
<g>
</g>
<g>
</g>
</svg>
