<?xml version="1.0" encoding="iso-8859-1"?>
<!-- Generator: Adobe Illustrator 19.0.0, SVG Export Plug-In . SVG Version: 6.00 Build 0)  -->
<svg version="1.1" id="Capa_1" xmlns="http://www.w3.org/2000/svg" xmlns:xlink="http://www.w3.org/1999/xlink" x="0px" y="0px"
	 viewBox="0 0 512 512" style="enable-background:new 0 0 512 512;" xml:space="preserve">
<path style="fill:#FEDB41;" d="M479.299,298.7l-181,180.899C286.601,491.3,271.3,497,256,497s-30.601-5.7-42.299-17.401
	L32.551,298.7c-23.401-23.4-23.401-61.501,0-84.9l181.15-181.099C225.399,21,240.7,15,256,15s30.601,6,42.299,17.701l181,181.099
	C502.7,237.199,502.7,275.3,479.299,298.7z"/>
<path style="fill:#FCBF29;" d="M479.299,298.7l-181,180.899C286.601,491.3,271.3,497,256,497V15c15.3,0,30.601,6,42.299,17.701
	l181,181.099C502.7,237.199,502.7,275.3,479.299,298.7z"/>
<path style="fill:#57555C;" d="M322.899,152H286v75c0,3.3-0.3,6.599-0.901,9.6c-2.999,13.799-14.399,24.3-28.198,26.4
	c-0.3,0-0.601,0-0.901,0.298c-14.7,2.401-26.1,7.5-26.1,23.701c0,11.4,8.399,21,19.799,22.8c2.1,0.298,4.2,0.599,6.301,1.199
	c15.601,2.401,24.3,5.7,29.099,26.4C285.7,340.399,286,343.7,286,347c0,1.5,0.3,61.5-0.3,62.999c-1.5,15-14.099,27.001-29.7,27.001
	c-16.5,0-30-13.5-30-30v-49.801c0-5.099-3.6-9.6-9-10.8c-22.8-4.501-42.9-21-48.9-43.5c-9-34.799,12.9-68.099,45.899-74.7
	c6.901-1.5,12.001-7.5,12.001-14.7V152h-34.799c-9.3,0-13.801-11.4-7.202-18.001l61.501-61.5c2.699-2.699,6.599-4.2,10.499-4.2
	c3.9,0,7.8,1.501,10.499,4.2L329.5,135.5C335.501,141.499,331.3,152,322.899,152z"/>
<path style="fill:#FD4E26;" d="M489.8,203.299L309.1,22.202C294.401,7.5,275.2,0,256,0s-38.401,7.5-53.101,22.202L22.05,203.299
	c-29.399,29.101-29.399,76.8,0,105.901L202.9,490.101C217.599,504.8,236.8,512,256,512c19.2,0,38.401-7.2,53.101-21.899L489.8,309.2
	c14.7-14.399,22.2-33.6,22.2-52.8S504.5,218,489.8,203.299z M468.5,288.199L287.8,469.1c-8.699,8.7-20.4,12.9-31.8,12.9
	c-11.4,0-23.101-4.2-31.8-12.9L43.35,288.199c-17.699-17.699-17.699-46.199,0-63.9L224.2,43.2C232.899,34.501,244.6,30,256,30
	c11.4,0,23.101,4.501,31.8,13.2l180.7,181.099C486.199,242,486.199,270.5,468.5,288.199z"/>
<g>
	<path style="fill:#3C3A41;" d="M256,437V311c15.601,2.401,24.3,5.7,29.099,26.4c0.601,2.999,0.901,6.3,0.901,9.6
		c0,1.5,0.3,61.5-0.3,62.999C284.2,424.999,271.601,437,256,437z"/>
	<path style="fill:#3C3A41;" d="M256.901,263c-0.3,0-0.601,0-0.901,0.298v-195c3.9,0,7.8,1.501,10.499,4.2L329.5,135.5
		c6,5.999,1.8,16.5-6.601,16.5H286v75c0,3.3-0.3,6.599-0.901,9.6C282.1,250.399,270.7,260.9,256.901,263z"/>
</g>
<path style="fill:#FD3018;" d="M512,256.399c0,19.2-7.5,38.401-22.2,52.8L309.1,490.1C294.401,504.8,275.2,512,256,512v-30
	c11.4,0,23.101-4.2,31.8-12.9l180.7-180.901c17.699-17.699,17.699-46.199,0-63.9L287.8,43.2C279.101,34.501,267.4,30,256,30V0
	c19.2,0,38.401,7.5,53.101,22.202l180.7,181.097C504.5,218,512,237.199,512,256.399z"/>
<g>
</g>
<g>
</g>
<g>
</g>
<g>
</g>
<g>
</g>
<g>
</g>
<g>
</g>
<g>
</g>
<g>
</g>
<g>
</g>
<g>
</g>
<g>
</g>
<g>
</g>
<g>
</g>
<g>
</g>
</svg>
