<?xml version="1.0" encoding="iso-8859-1"?>
<!-- Generator: Adobe Illustrator 19.0.0, SVG Export Plug-In . SVG Version: 6.00 Build 0)  -->
<svg version="1.1" id="Capa_1" xmlns="http://www.w3.org/2000/svg" xmlns:xlink="http://www.w3.org/1999/xlink" x="0px" y="0px"
	 viewBox="0 0 512 512" style="enable-background:new 0 0 512 512;" xml:space="preserve">
<path style="fill:#FEDB41;" d="M496.85,256.4c0,15.899-6.301,30.899-17.401,42.299l-181.15,180.9C287.199,491,272.199,497,256,497
	s-31.199-6-42.299-17.401l-181.15-180.9c-11.1-11.4-17.401-26.4-17.401-42.299c0-16.201,6.301-31.201,17.401-42.601l181.15-181.098
	c11.1-11.4,26.1-17.401,42.299-17.401s31.199,6,42.299,17.401l181.15,181.098C490.549,225.199,496.85,240.199,496.85,256.4z"/>
<path style="fill:#FCBF29;" d="M496.85,256.4c0,15.899-6.301,30.899-17.401,42.299l-181.15,180.9C287.199,491,272.199,497,256,497
	V15.3c16.199,0,31.199,6,42.299,17.401l181.15,181.098C490.549,225.199,496.85,240.199,496.85,256.4z"/>
<path style="fill:#57555C;" d="M353,170v30c0,8.399-6.599,15-15,15h-52v195c0,8.399-6.599,15-15,15h-30c-8.401,0-15-6.601-15-15V215
	h-52c-8.401,0-15-6.601-15-15v-30c0-8.401,6.599-15,15-15h164C346.401,155,353,161.599,353,170z"/>
<path style="fill:#FD4E26;" d="M489.95,203.3L309.101,22.2C294.401,7.5,275.2,0,256,0s-38.401,7.5-53.101,22.2L22.05,203.3
	c-29.399,29.099-29.399,76.8,0,105.901L202.9,490.099C217.599,504.8,236.8,512,256,512s38.401-7.2,53.101-21.901L489.95,309.2
	C519.35,279.799,519.35,232.399,489.95,203.3z M468.65,288.2L287.8,469.1c-8.699,8.7-20.4,12.9-31.8,12.9s-23.101-4.2-31.8-12.9
	L43.35,288.2c-17.699-17.701-17.699-46.201,0-63.9L224.2,43.2C232.899,34.501,244.6,30,256,30s23.101,4.501,31.8,13.2l180.85,181.1
	c8.699,8.699,13.2,20.4,13.2,32.1C481.85,267.8,477.349,279.2,468.65,288.2z"/>
<path style="fill:#3C3A41;" d="M353,170v30c0,8.399-6.599,15-15,15h-52v195c0,8.399-6.599,15-15,15h-15V155h82
	C346.401,155,353,161.599,353,170z"/>
<path style="fill:#FD3018;" d="M489.95,309.2L309.1,490.098C294.401,504.8,275.2,512,256,512v-30c11.4,0,23.101-4.2,31.8-12.9
	l180.85-180.9c8.699-9,13.2-20.4,13.2-31.8c0-11.7-4.501-23.401-13.2-32.1L287.8,43.2C279.101,34.501,267.4,30,256,30V0
	c19.2,0,38.401,7.5,53.101,22.2l180.85,181.1C519.35,232.399,519.35,279.799,489.95,309.2z"/>
<g>
</g>
<g>
</g>
<g>
</g>
<g>
</g>
<g>
</g>
<g>
</g>
<g>
</g>
<g>
</g>
<g>
</g>
<g>
</g>
<g>
</g>
<g>
</g>
<g>
</g>
<g>
</g>
<g>
</g>
</svg>
