<?xml version="1.0" encoding="iso-8859-1"?>
<!-- Generator: Adobe Illustrator 19.0.0, SVG Export Plug-In . SVG Version: 6.00 Build 0)  -->
<svg version="1.1" id="Capa_1" xmlns="http://www.w3.org/2000/svg" xmlns:xlink="http://www.w3.org/1999/xlink" x="0px" y="0px"
	 viewBox="0 0 512 512" style="enable-background:new 0 0 512 512;" xml:space="preserve">
<path style="fill:#FEDB41;" d="M479.449,298.299l-181.15,181.3C286.601,491.3,271.3,497.298,256,497.298
	s-30.601-5.999-42.299-17.699l-181.15-181.3c-23.401-23.399-23.401-61.199,0-84.6l181.15-181.298C225.399,20.7,240.7,14.7,256,14.7
	s30.601,6,42.299,17.701l181.15,181.298C502.85,237.1,502.85,274.9,479.449,298.299z"/>
<path style="fill:#FCBF29;" d="M479.449,298.299l-181.15,181.3C286.601,491.3,271.3,497.298,256,497.298V14.7
	c15.3,0,30.601,6,42.299,17.701l181.15,181.298C502.85,237.1,502.85,274.9,479.449,298.299z"/>
<path style="fill:#57555C;" d="M421,256c0,8.399-6.599,15-15,15h-23.699l4.199,4.499c6,5.7,6,15.3,0,21c-5.7,6-15.298,6-20.999,0
	L339.699,271H292.3l37.798,38.099c6,5.7,6,15.3,0,21c-5.698,6-15.298,6-20.999,0L271,292.299V339.7l25.499,25.8c6,5.7,6,15.3,0,21
	c-2.699,3-6.599,4.5-10.499,4.5s-7.8-1.5-10.499-4.501l-4.501-4.2V406c0,8.399-6.599,15-15,15c-8.401,0-15-6.601-15-15v-23.701
	l-4.501,4.2c-5.7,6-15.298,6-20.999,0c-6-5.7-6-15.3,0-21l25.499-25.8v-47.401l-38.101,37.8C199.9,333.1,196.3,334.6,192.4,334.6
	s-7.8-1.5-10.499-4.501c-6-5.7-6-15.3,0-21L219.699,271H172.3l-25.801,25.499c-5.7,6-15.298,6-20.999,0c-6-5.7-6-15.3,0-21
	l4.199-4.499H106c-8.401,0-15-6.601-15-15c0-8.401,6.599-15,15-15h23.699l-4.199-4.501c-6-5.7-6-15.3,0-21
	c5.7-5.999,15.298-5.999,20.999,0L172.301,241H219.7l-37.798-38.101c-6-5.7-6-15.3,0-21c5.698-6,15.298-6,20.999,0l38.101,37.8
	v-47.401l-25.499-25.8c-6-5.7-6-15.3,0-21c5.7-5.999,15.298-5.999,20.999,0l4.501,4.2V106c0-8.401,6.599-15,15-15
	c8.401,0,15,6.599,15,15v23.699l4.501-4.2c5.7-5.999,15.298-5.999,20.999,0c6,5.7,6,15.3,0,21L271,172.299V219.7l38.101-37.8
	c5.7-6,15.3-6,20.999,0c6,5.7,6,15.3,0,21L292.301,241H339.7l25.801-25.501c5.7-5.999,15.298-5.999,20.999,0c6,5.7,6,15.3,0,21
	L382.301,241H406C414.401,241,421,247.599,421,256z"/>
<path style="fill:#FD4E26;" d="M489.95,202.899l-180.85-181C294.401,7.5,275.2,0,256,0s-38.401,7.5-53.101,21.899l-180.85,181
	c-29.399,29.399-29.399,76.8,0,106.199l180.85,181C217.599,504.798,236.8,512,256,512c19.2,0,38.401-7.202,53.101-21.901l180.85-181
	C519.35,279.699,519.35,232.299,489.95,202.899z M468.65,287.8l-180.85,181c-8.699,8.699-20.4,13.2-31.8,13.2
	c-11.4,0-23.101-4.501-31.8-13.2l-180.85-181c-17.699-17.701-17.699-46.201,0-63.6l180.85-181C232.899,34.499,244.6,30,256,30
	c11.4,0,23.101,4.499,31.8,13.2l180.85,181c8.699,9,13.2,20.4,13.2,31.8C481.85,267.7,477.349,279.099,468.65,287.8z"/>
<path style="fill:#FD3018;" d="M489.95,309.099l-180.85,181C294.401,504.798,275.2,512,256,512v-30c11.4,0,23.101-4.501,31.8-13.2
	l180.85-181c8.699-8.701,13.2-20.099,13.2-31.8c0-11.4-4.501-22.8-13.2-31.8L287.8,43.2C279.101,34.499,267.4,30,256,30V0
	c19.2,0,38.401,7.5,53.101,21.899l180.85,181C519.35,232.299,519.35,279.699,489.95,309.099z"/>
<path style="fill:#3C3A41;" d="M421,256c0,8.399-6.599,15-15,15h-23.699l4.199,4.499c6,5.7,6,15.3,0,21c-5.7,6-15.298,6-20.999,0
	L339.699,271H292.3l37.798,38.099c6,5.7,6,15.3,0,21c-5.698,6-15.298,6-20.999,0L271,292.299V339.7l25.499,25.8c6,5.7,6,15.3,0,21
	c-2.699,3-6.599,4.5-10.499,4.5s-7.8-1.5-10.499-4.501l-4.501-4.2V406c0,8.399-6.599,15-15,15V91c8.401,0,15,6.599,15,15v23.699
	l4.501-4.2c5.7-5.999,15.298-5.999,20.999,0c6,5.7,6,15.3,0,21l-25.5,25.8V219.7l38.101-37.8c5.7-6,15.3-6,20.999,0
	c6,5.7,6,15.3,0,21L292.301,241H339.7l25.801-25.501c5.7-5.999,15.298-5.999,20.999,0c6,5.7,6,15.3,0,21L382.301,241H406
	C414.401,241,421,247.599,421,256z"/>
<g>
</g>
<g>
</g>
<g>
</g>
<g>
</g>
<g>
</g>
<g>
</g>
<g>
</g>
<g>
</g>
<g>
</g>
<g>
</g>
<g>
</g>
<g>
</g>
<g>
</g>
<g>
</g>
<g>
</g>
</svg>
