<?xml version="1.0" encoding="iso-8859-1"?>
<!-- Generator: Adobe Illustrator 19.0.0, SVG Export Plug-In . SVG Version: 6.00 Build 0)  -->
<svg version="1.1" id="Capa_1" xmlns="http://www.w3.org/2000/svg" xmlns:xlink="http://www.w3.org/1999/xlink" x="0px" y="0px"
	 viewBox="0 0 512 512" style="enable-background:new 0 0 512 512;" xml:space="preserve">
<path style="fill:#FEDB41;" d="M479.449,298.299l-181.15,181.3C286.601,491.3,271.3,497.298,256,497.298
	s-30.601-5.999-42.299-17.699l-181.15-181.3c-23.401-23.399-23.401-61.199,0-84.6l181.15-181.298C225.399,20.7,240.7,14.7,256,14.7
	s30.601,6,42.299,17.701l181.15,181.298C502.85,237.1,502.85,274.9,479.449,298.299z"/>
<path style="fill:#FCBF29;" d="M479.449,298.299l-181.15,181.3C286.601,491.3,271.3,497.298,256,497.298V14.7
	c15.3,0,30.601,6,42.299,17.701l181.15,181.298C502.85,237.1,502.85,274.9,479.449,298.299z"/>
<path style="fill:#57555C;" d="M357.7,181.599l-71.7,71.7V409.6c0,8.399-6.599,15-15,15h-30c-8.401,0-15-6.601-15-15V253.299
	l-71.7-71.7c-5.7-5.7-5.7-15.298,0-20.999l21.3-21.3c5.7-5.7,15.3-5.7,21.301,0L256,198.699l59.099-59.399
	c6-5.7,15.601-5.7,21.301,0l21.3,21.3C363.401,166.3,363.401,175.899,357.7,181.599z"/>
<path style="fill:#FD4E26;" d="M489.95,202.899l-180.85-181C294.401,7.5,275.2,0,256,0s-38.401,7.5-53.101,21.899l-180.85,181
	c-29.399,29.399-29.399,76.8,0,106.199l180.85,181C217.599,504.798,236.8,512,256,512c19.2,0,38.401-7.202,53.101-21.901l180.85-181
	C519.35,279.699,519.35,232.299,489.95,202.899z M468.65,287.8l-180.85,181c-8.699,8.699-20.4,13.2-31.8,13.2
	c-11.4,0-23.101-4.501-31.8-13.2l-180.85-181c-17.699-17.701-17.699-46.201,0-63.6l180.85-181C232.899,34.499,244.6,30,256,30
	c11.4,0,23.101,4.499,31.8,13.2l180.85,181c8.699,9,13.2,20.4,13.2,31.8C481.85,267.7,477.349,279.099,468.65,287.8z"/>
<path style="fill:#3C3A41;" d="M271,424.6h-15V198.699l59.099-59.399c6-5.7,15.601-5.7,21.301,0l21.3,21.3
	c5.7,5.7,5.7,15.298,0,20.999l-71.7,71.7V409.6C286,417.999,279.401,424.6,271,424.6z"/>
<path style="fill:#FD3018;" d="M489.95,309.099l-180.85,181C294.401,504.798,275.2,512,256,512v-30c11.4,0,23.101-4.501,31.8-13.2
	l180.85-181c8.699-8.701,13.2-20.099,13.2-31.8c0-11.4-4.501-22.8-13.2-31.8L287.8,43.2C279.101,34.499,267.4,30,256,30V0
	c19.2,0,38.401,7.5,53.101,21.899l180.85,181C519.35,232.299,519.35,279.699,489.95,309.099z"/>
<g>
</g>
<g>
</g>
<g>
</g>
<g>
</g>
<g>
</g>
<g>
</g>
<g>
</g>
<g>
</g>
<g>
</g>
<g>
</g>
<g>
</g>
<g>
</g>
<g>
</g>
<g>
</g>
<g>
</g>
</svg>
