<?xml version="1.0" encoding="iso-8859-1"?>
<!-- Generator: Adobe Illustrator 19.0.0, SVG Export Plug-In . SVG Version: 6.00 Build 0)  -->
<svg version="1.1" id="Capa_1" xmlns="http://www.w3.org/2000/svg" xmlns:xlink="http://www.w3.org/1999/xlink" x="0px" y="0px"
	 viewBox="0 0 512 512" style="enable-background:new 0 0 512 512;" xml:space="preserve">
<path style="fill:#FEDB41;" d="M467,15c16.5,0,30,13.5,30,30v422c0,16.5-13.5,30-30,30H45c-16.5,0-30-13.5-30-30V45
	c0-16.5,13.5-30,30-30H467z"/>
<path style="fill:#FCBF29;" d="M497,45v422c0,16.5-13.5,30-30,30H256V15h211C483.5,15,497,28.5,497,45z"/>
<path style="fill:#57555C;" d="M512,45c0-24.901-20.099-45-45-45H45C20.099,0,0,20.099,0,45v422c0,24.899,20.099,45,45,45h422
	c24.901,0,45-20.101,45-45V45z M482,467c0,8.399-6.599,15-15,15H45c-8.401,0-15-6.601-15-15V45c0-8.401,6.599-15,15-15h422
	c8.401,0,15,6.599,15,15V467z"/>
<g>
	<path style="fill:#2B292C;" d="M421,271h-90v-90h60c16.569,0,30,13.431,30,30V271z"/>
	<path style="fill:#2B292C;" d="M376,391h-30c-8.291,0-15-6.709-15-15s6.709-15,15-15h30c8.262,0,15-6.724,15-15V196
		c0-24.814-20.186-45-45-45c-8.291,0-15-6.709-15-15s6.709-15,15-15c41.367,0,75,33.647,75,75v150C421,370.814,400.814,391,376,391z
		"/>
</g>
<path style="fill:#57555C;" d="M316,61H136c-24.901,0-45,20.099-45,45v330h270V106C361,81.099,340.901,61,316,61z"/>
<g>
	<path style="fill:#3C3A41;" d="M512,45v422c0,24.899-20.099,45-45,45H256v-30h211c8.401,0,15-6.601,15-15V45
		c0-8.401-6.599-15-15-15H256V0h211C491.901,0,512,20.099,512,45z"/>
	<path style="fill:#3C3A41;" d="M361,106v330H256V61h60C340.901,61,361,81.099,361,106z"/>
	<path style="fill:#3C3A41;" d="M451,436c0,8.399-6.599,15-15,15H76c-8.401,0-15-6.601-15-15c0-8.401,6.599-15,15-15h360
		C444.401,421,451,427.599,451,436z"/>
</g>
<path style="fill:#2B292C;" d="M451,436c0,8.399-6.599,15-15,15H256v-30h180C444.401,421,451,427.599,451,436z"/>
<g>
	<path style="fill:#FEDB41;" d="M286,121H166c-8.401,0-15,6.599-15,15v90c0,8.399,6.599,15,15,15h120c8.401,0,15-6.601,15-15v-90
		C301,127.599,294.401,121,286,121z"/>
	<path style="fill:#FEDB41;" d="M256,305.799c-6.301-11.4-13.2-21.899-17.701-28.2c-5.4-8.099-19.199-8.099-24.598,0
		C203.8,291.7,181,326.8,181,346c0,24.899,20.099,45,45,45c11.7,0,22.2-4.501,30-11.7c9.3-8.101,15-20.099,15-33.3
		C271,335.2,264.101,319.9,256,305.799z"/>
</g>
<g>
	<path style="fill:#FCBF29;" d="M256,305.799C264.101,319.9,271,335.2,271,346c0,13.2-5.7,25.199-15,33.3V305.799z"/>
	<path style="fill:#FCBF29;" d="M301,136v90c0,8.399-6.599,15-15,15h-30V121h30C294.401,121,301,127.599,301,136z"/>
</g>
<g>
</g>
<g>
</g>
<g>
</g>
<g>
</g>
<g>
</g>
<g>
</g>
<g>
</g>
<g>
</g>
<g>
</g>
<g>
</g>
<g>
</g>
<g>
</g>
<g>
</g>
<g>
</g>
<g>
</g>
</svg>
