<?xml version="1.0" encoding="iso-8859-1"?>
<!-- Generator: Adobe Illustrator 19.0.0, SVG Export Plug-In . SVG Version: 6.00 Build 0)  -->
<svg version="1.1" id="Capa_1" xmlns="http://www.w3.org/2000/svg" xmlns:xlink="http://www.w3.org/1999/xlink" x="0px" y="0px"
	 viewBox="0 0 512 512" style="enable-background:new 0 0 512 512;" xml:space="preserve">
<path style="fill:#1689FC;" d="M497,45v422c0,16.5-13.5,30-30,30H45c-16.5,0-30-13.5-30-30V45c0-16.5,13.5-30,30-30h422
	C483.5,15,497,28.5,497,45z"/>
<path style="fill:#57555C;" d="M498.8,13.2C490.699,5.099,479.299,0,467,0H45C32.701,0,21.301,5.099,13.2,13.2
	C5.099,21.299,0,32.699,0,45v422c0,12.299,5.099,23.699,13.2,31.8C21.301,506.899,32.701,512,45,512h422
	c12.299,0,23.699-5.101,31.8-13.2c8.101-8.101,13.2-19.501,13.2-31.8V45C512,32.699,506.901,21.299,498.8,13.2z M482,467
	c0,4.2-1.8,7.8-4.501,10.499C474.8,480.2,471.2,482,467,482H45c-4.2,0-7.8-1.8-10.499-4.501C31.8,474.8,30,471.2,30,467V45
	c0-4.2,1.8-7.8,4.501-10.501C37.2,31.8,40.8,30,45,30h422c4.2,0,7.8,1.8,10.499,4.499C480.2,37.2,482,40.8,482,45V467z"/>
<path style="fill:#136EF1;" d="M497,45v422c0,16.5-13.5,30-30,30H256V15h211C483.5,15,497,28.5,497,45z"/>
<path style="fill:#3C3A41;" d="M512,45v422c0,12.299-5.099,23.699-13.2,31.8c-8.101,8.099-19.501,13.2-31.8,13.2H256v-30h211
	c4.2,0,7.8-1.8,10.499-4.501C480.2,474.8,482,471.2,482,467V45c0-4.2-1.8-7.8-4.501-10.501C474.8,31.8,471.2,30,467,30H256V0h211
	c12.299,0,23.699,5.099,31.8,13.2C506.901,21.299,512,32.699,512,45z"/>
<path style="fill:#CAE8F9;" d="M196,61h-30c-7.324,0-13.594,5.303-14.795,12.539l-15,90c-0.022,0.13,0.031,0.251,0.013,0.381
	c-0.024,0.123-0.11,0.214-0.13,0.337L91.205,433.539c-0.732,4.351,0.498,8.789,3.34,12.158C97.416,449.066,101.576,451,106,451h90
	c8.291,0,15-6.709,15-15V166V76C211,67.709,204.291,61,196,61z"/>
<path style="fill:#B7E0F6;" d="M375.795,163.539l-15-87.539c-1.201-7.236-7.471-15-14.795-15h-30c-8.291,0-15,6.709-15,15v89v270
	c0,8.291,6.709,15,15,15l90,1c4.424,0,8.584-1.934,11.455-5.303c2.842-3.369,4.072-7.808,3.34-12.158L375.795,163.539z"/>
<path style="fill:#CAE8F9;" d="M406,151H106c-8.401,0-15,6.599-15,15v60c0,8.399,6.599,15,15,15h300c8.401,0,15-6.601,15-15v-60
	C421,157.599,414.401,151,406,151z"/>
<path style="fill:#B7E0F6;" d="M406,241H256v-90h150c8.401,0,15,6.599,15,15v60C421,234.399,414.401,241,406,241z"/>
<g>
</g>
<g>
</g>
<g>
</g>
<g>
</g>
<g>
</g>
<g>
</g>
<g>
</g>
<g>
</g>
<g>
</g>
<g>
</g>
<g>
</g>
<g>
</g>
<g>
</g>
<g>
</g>
<g>
</g>
</svg>
