<?xml version="1.0" encoding="iso-8859-1"?>
<!-- Generator: Adobe Illustrator 19.0.0, SVG Export Plug-In . SVG Version: 6.00 Build 0)  -->
<svg version="1.1" id="Capa_1" xmlns="http://www.w3.org/2000/svg" xmlns:xlink="http://www.w3.org/1999/xlink" x="0px" y="0px"
	 viewBox="0 0 512 512" style="enable-background:new 0 0 512 512;" xml:space="preserve">
<path style="fill:#FEDB41;" d="M497,45v422c0,16.5-13.5,30-30,30H45c-16.5,0-30-13.5-30-30V45c0-16.5,13.5-30,30-30h422
	C483.5,15,497,28.5,497,45z"/>
<path style="fill:#57555C;" d="M467,0H45C20.099,0,0,20.099,0,45v422c0,24.899,20.099,45,45,45h422c24.901,0,45-20.101,45-45V45
	C512,20.099,491.901,0,467,0z M482,467c0,8.399-6.599,15-15,15H45c-8.401,0-15-6.601-15-15V45c0-8.401,6.599-15,15-15h422
	c8.401,0,15,6.599,15,15V467z"/>
<path style="fill:#FCBF29;" d="M497,45v422c0,16.5-13.5,30-30,30H256V15h211C483.5,15,497,28.5,497,45z"/>
<path style="fill:#57555C;" d="M391,182.5l-30,24.9V256c0,8.399,6.599,15,15,15h59.099l14.401-30
	C443.5,211.599,420.399,188.5,391,182.5z"/>
<path style="fill:#3C3A41;" d="M512,45v422c0,24.899-20.099,45-45,45H256v-30h211c8.401,0,15-6.601,15-15V45c0-8.401-6.599-15-15-15
	H256V0h211C491.901,0,512,20.099,512,45z"/>
<path style="fill:#57555C;" d="M316,121H76c-8.401,0-15,6.599-15,15v180c0,8.399,6.599,15,15,15h255V136
	C331,127.599,324.401,121,316,121z"/>
<path style="fill:#2B292C;" d="M449.5,241H391v-58.5c-4.799-0.901-9.901-1.5-15-1.5h-60c-8.401,0-15,6.599-15,15v111.299L331,331
	h105c8.401,0,15-6.601,15-15v-60C451,250.899,450.399,245.799,449.5,241z"/>
<path style="fill:#3C3A41;" d="M378.988,391c-24.814,0-45-20.186-45-45s20.186-45,45-45s45,20.186,45,45S403.803,391,378.988,391z"
	/>
<path style="fill:#FCBF29;" d="M378.988,361c-8.262,0-15-6.724-15-15s6.738-15,15-15s15,6.724,15,15S387.25,361,378.988,361z"/>
<path style="fill:#3C3A41;" d="M136,391c-24.814,0-45-20.186-45-45s20.186-45,45-45s45,20.186,45,45S160.814,391,136,391z"/>
<path style="fill:#FEDB41;" d="M136,361c-8.262,0-15-6.724-15-15s6.738-15,15-15s15,6.724,15,15S144.262,361,136,361z"/>
<path style="fill:#3C3A41;" d="M331,331h-75V121h60c8.401,0,15,6.599,15,15V331z"/>
<g>
</g>
<g>
</g>
<g>
</g>
<g>
</g>
<g>
</g>
<g>
</g>
<g>
</g>
<g>
</g>
<g>
</g>
<g>
</g>
<g>
</g>
<g>
</g>
<g>
</g>
<g>
</g>
<g>
</g>
</svg>
