<?xml version="1.0" encoding="iso-8859-1"?>
<!-- Generator: Adobe Illustrator 19.0.0, SVG Export Plug-In . SVG Version: 6.00 Build 0)  -->
<svg version="1.1" id="Capa_1" xmlns="http://www.w3.org/2000/svg" xmlns:xlink="http://www.w3.org/1999/xlink" x="0px" y="0px"
	 viewBox="0 0 512 512" style="enable-background:new 0 0 512 512;" xml:space="preserve">
<path style="fill:#FEDB41;" d="M436.967,478.7H75.005c-45.32,0-74.432-48.922-52.523-88.841L203.462,64.813
	C214.567,44.104,235.276,33.6,255.986,33.6s41.419,10.504,52.523,31.213L489.49,389.859
	C511.399,429.778,482.587,478.7,436.967,478.7z"/>
<path style="fill:#FCBF29;" d="M436.967,478.7H255.986V33.6c20.709,0,41.419,10.504,52.523,31.213L489.49,389.859
	C511.399,429.778,482.587,478.7,436.967,478.7z"/>
<path style="fill:#57555C;" d="M346.026,238.593h-75.034v-90.04c0-9.304-7.203-15.007-15.007-15.007
	c-5.101,0-10.206,2.4-13.206,7.803l-90.04,165.074c-5.402,9.903,1.801,22.21,13.206,22.21h75.034v90.04
	c0,9.304,7.203,15.007,15.007,15.007c5.101,0,10.206-2.402,13.206-7.803l90.04-165.074
	C364.634,250.897,357.431,238.593,346.026,238.593z"/>
<path style="fill:#FD4E26;" d="M502.696,382.657L321.715,57.611c-14.107-26.112-39.919-39.318-65.729-39.318
	s-51.622,13.206-65.729,39.318L9.275,382.657c-27.313,50.121,9.004,111.05,65.729,111.05h361.962
	c43.821,0,75.034-36.016,75.034-75.034C512,406.667,509,394.363,502.696,382.657z M436.967,463.694H75.005
	c-34.215,0-55.825-36.617-39.318-66.631L216.368,72.018c8.405-15.608,24.011-23.411,39.618-23.411s31.213,7.803,39.618,23.411
	l180.68,325.044C492.791,427.076,471.182,463.694,436.967,463.694z"/>
<path style="fill:#3C3A41;" d="M359.232,260.803l-90.04,165.074c-3,5.402-8.105,7.803-13.206,7.803V133.546
	c7.803,0,15.007,5.703,15.007,15.007v90.04h75.034C357.431,238.593,364.634,250.897,359.232,260.803z"/>
<path style="fill:#FD3018;" d="M512,418.673c0,39.017-31.213,75.034-75.034,75.034H255.986v-30.013h180.981
	c34.215,0,55.825-36.617,39.318-66.631L295.603,72.018c-8.405-15.608-24.011-23.411-39.618-23.411V18.293
	c25.812,0,51.622,13.206,65.729,39.318l180.981,325.046C509,394.363,512,406.667,512,418.673z"/>
<g>
</g>
<g>
</g>
<g>
</g>
<g>
</g>
<g>
</g>
<g>
</g>
<g>
</g>
<g>
</g>
<g>
</g>
<g>
</g>
<g>
</g>
<g>
</g>
<g>
</g>
<g>
</g>
<g>
</g>
</svg>
