<?xml version="1.0" encoding="iso-8859-1"?>
<!-- Generator: Adobe Illustrator 19.0.0, SVG Export Plug-In . SVG Version: 6.00 Build 0)  -->
<svg version="1.1" id="Capa_1" xmlns="http://www.w3.org/2000/svg" xmlns:xlink="http://www.w3.org/1999/xlink" x="0px" y="0px"
	 viewBox="0 0 512 512" style="enable-background:new 0 0 512 512;" xml:space="preserve">
<path style="fill:#1689FC;" d="M497,256c0,132.299-108.701,241-241,241S15,388.299,15,256C15,123.699,123.701,15,256,15
	S497,123.699,497,256z"/>
<path style="fill:#57555C;" d="M256,0C115.3,0,0,115.3,0,256s115.3,256,256,256s256-115.3,256-256S396.7,0,256,0z M256,482
	C131.8,482,30,380.2,30,256S131.8,30,256,30s226,101.8,226,226S380.2,482,256,482z"/>
<path style="fill:#136EF1;" d="M497,256c0,132.299-108.701,241-241,241V15C388.299,15,497,123.699,497,256z"/>
<path style="fill:#3C3A41;" d="M512,256c0,140.7-115.3,256-256,256v-30c124.2,0,226-101.8,226-226S380.2,30,256,30V0
	C396.7,0,512,115.3,512,256z"/>
<g>
	<path style="fill:#CAE8F9;" d="M368.2,185.499l-28.5,13.5c-5.999,3.001-12.9,1.201-17.399-3.9
		C309.401,181.3,292.599,171.7,274,167.8l-18-3.6V196l-71.4-47.401c-8.699-6-8.699-19.2,0-25.201L256,76v29.399l13.801,1.199
		c41.1,3.602,77.999,23.701,103.2,55.501C379.3,169.9,376.901,181.3,368.2,185.499z"/>
	<path style="fill:#CAE8F9;" d="M99.745,345.37l26.455-12.686l-6.24-13.447C110.819,299.608,106,277.738,106,256
		c0-20.664,4.256-41.041,12.406-59.82c3.814-8.789,14.429-12.301,22.399-6.984l25.298,16.878c5.64,3.763,8.5,10.948,6.04,17.266
		C168.101,233.72,166,244.827,166,256c0,8.745,1.274,17.446,3.794,25.854l5.625,18.809l27.114-16.802l-2.694,86.034
		c-0.339,10.826-11.69,17.735-21.462,13.064L99.745,345.37z"/>
</g>
<g>
	<path style="fill:#B7E0F6;" d="M256,358.859c0-7.245,5.654-12.745,12.826-13.774c21.11-3.03,40.646-13.471,54.952-29.67
		l11.895-13.477L304.12,282.88l80.025-38.518c9.566-4.605,20.757,1.914,21.472,12.507L411.624,346l-25.312-14.604l-7.896,11.177
		c-25.011,35.37-64.048,58.051-106.606,62.587c-8.554,0.912-15.811-6.39-15.811-14.992v-31.309H256z"/>
	<path style="fill:#B7E0F6;" d="M368.2,185.499l-28.5,13.5c-5.999,3.001-12.9,1.201-17.399-3.9
		C309.401,181.3,292.599,171.7,274,167.8l-18-3.6v-58.801l13.801,1.199c41.1,3.602,77.999,23.701,103.2,55.501
		C379.3,169.9,376.901,181.3,368.2,185.499z"/>
</g>
<g>
</g>
<g>
</g>
<g>
</g>
<g>
</g>
<g>
</g>
<g>
</g>
<g>
</g>
<g>
</g>
<g>
</g>
<g>
</g>
<g>
</g>
<g>
</g>
<g>
</g>
<g>
</g>
<g>
</g>
</svg>
