<?xml version="1.0" encoding="iso-8859-1"?>
<!-- Generator: Adobe Illustrator 19.0.0, SVG Export Plug-In . SVG Version: 6.00 Build 0)  -->
<svg version="1.1" id="Capa_1" xmlns="http://www.w3.org/2000/svg" xmlns:xlink="http://www.w3.org/1999/xlink" x="0px" y="0px"
	 viewBox="0 0 512 512" style="enable-background:new 0 0 512 512;" xml:space="preserve">
<path style="fill:#1689FC;" d="M497,256c0,64.2-25.901,124.499-71.201,169.799C380.501,471.099,320.2,497,256,497
	s-124.501-25.901-169.799-71.201C40.901,380.499,15,320.2,15,256S40.901,131.499,86.201,86.199C131.499,40.899,191.8,15,256,15
	s124.501,25.899,169.799,71.199C471.099,131.499,497,191.8,497,256z"/>
<path style="fill:#136EF1;" d="M497,256c0,64.2-25.901,124.499-71.201,169.799C380.501,471.099,320.2,497,256,497V15
	c64.2,0,124.501,25.899,169.799,71.199C471.099,131.499,497,191.8,497,256z"/>
<path style="fill:#57555C;" d="M436.3,75.7C388.001,27.4,324.101,0,256,0S123.999,27.4,75.7,75.7S0,187.899,0,256
	c0,34.2,6.599,67.2,19.2,97.5c12.6,30.599,32.2,58.5,56.5,82.8C124,484.6,187.9,512,256,512s132.001-27.4,180.3-75.7
	C484.6,387.999,512,324.099,512,256C512,187.899,484.6,123.999,436.3,75.7z M415,415c-42.299,42.599-99,67-159,67
	s-116.7-24.401-159-67c-42.599-42.3-67-99-67-159S54.401,139.3,97,97c42.299-42.601,99-67,159-67s116.7,24.399,159,67
	c42.599,42.299,67,99,67,159S457.599,372.7,415,415z"/>
<path style="fill:#3C3A41;" d="M512,256c0,68.099-27.4,131.999-75.7,180.3C388,484.6,324.1,512,256,512v-30
	c60,0,116.7-24.401,159-67c42.599-42.299,67-99,67-159s-24.401-116.7-67-159c-42.3-42.601-99-67-159-67V0
	c68.101,0,132.001,27.4,180.3,75.7S512,187.899,512,256z"/>
<path style="fill:#CAE8F9;" d="M335.2,175.6c-1.8,3.3-5.101,5.4-9,5.4H286v240c0,8.399-6.599,15-15,15h-30c-8.401,0-15-6.601-15-15
	V181h-40.499c-3.6,0-7.202-2.1-8.701-5.4c-1.8-3.301-1.199-7.202,0.901-10.201L244,76.899c3.001-3.9,7.5-5.7,12.001-5.7
	s9,1.8,12.001,5.7l65.999,88.2C336.4,168.1,336.7,172.299,335.2,175.6z"/>
<path style="fill:#B7E0F6;" d="M271,436h-15V71.199c4.501,0,9,1.8,12.001,5.7l65.999,88.2c2.401,3.001,2.701,7.2,1.201,10.501
	c-1.8,3.3-5.101,5.4-9,5.4H286v240C286,429.399,279.401,436,271,436z"/>
<g>
</g>
<g>
</g>
<g>
</g>
<g>
</g>
<g>
</g>
<g>
</g>
<g>
</g>
<g>
</g>
<g>
</g>
<g>
</g>
<g>
</g>
<g>
</g>
<g>
</g>
<g>
</g>
<g>
</g>
</svg>
