<?xml version="1.0" encoding="iso-8859-1"?>
<!-- Generator: Adobe Illustrator 19.0.0, SVG Export Plug-In . SVG Version: 6.00 Build 0)  -->
<svg version="1.1" id="Capa_1" xmlns="http://www.w3.org/2000/svg" xmlns:xlink="http://www.w3.org/1999/xlink" x="0px" y="0px"
	 viewBox="0 0 512 512" style="enable-background:new 0 0 512 512;" xml:space="preserve">
<path style="fill:#1689FC;" d="M497,256c0,132.299-108.701,241-241,241S15,388.299,15,256S123.701,15,256,15S497,123.701,497,256z"
	/>
<path style="fill:#136EF1;" d="M497,256c0,132.299-108.701,241-241,241V15C388.299,15,497,123.701,497,256z"/>
<path style="fill:#57555C;" d="M256,0C115,0,0,115,0,256c0,138.9,113.5,256,256,256c141,0,256-115,256-256S397,0,256,0z M256,482
	C130.6,482,30,378.999,30,256C30,131.499,131.8,30,256,30c124.501,0,226,101.8,226,226C482,380.501,380.2,482,256,482z"/>
<path style="fill:#3C3A41;" d="M512,256c0,141-115,256-256,256v-30c124.2,0,226-101.499,226-226c0-124.2-101.499-226-226-226V0
	C397,0,512,115,512,256z"/>
<path style="fill:#CAE8F9;" d="M398.2,328.9l-66,37.8c-7.2,4.2-16.199-0.901-16.199-9.3V346h-60v60c0,8.401-6.599,15-15,15h-30
	c-8.401,0-15-6.599-15-15V181H157.6c-9,0-14.099-10.201-8.699-17.1L214,76.901c6-7.8,18.001-7.8,24.001,0l17.999,24l47.401,63.6
	c5.4,6.599,0.3,16.5-8.101,16.5H256v105h60v-13.5c0-7.2,8.101-11.999,14.399-8.399l67.8,39C408.401,308.8,408.401,323.2,398.2,328.9
	z"/>
<g>
	<path style="fill:#B7E0F6;" d="M295.3,181H256v-80.099l47.401,63.6C308.8,171.099,303.701,181,295.3,181z"/>
	<path style="fill:#B7E0F6;" d="M316,346h-60v-60h60v-13.5c0-7.2,8.101-11.999,14.399-8.399l67.8,39
		c10.201,5.7,10.201,20.099,0,25.8l-66,37.8c-7.2,4.2-16.199-0.901-16.199-9.3L316,346L316,346z"/>
</g>
<g>
</g>
<g>
</g>
<g>
</g>
<g>
</g>
<g>
</g>
<g>
</g>
<g>
</g>
<g>
</g>
<g>
</g>
<g>
</g>
<g>
</g>
<g>
</g>
<g>
</g>
<g>
</g>
<g>
</g>
</svg>
