<?xml version="1.0" encoding="iso-8859-1"?>
<!-- Generator: Adobe Illustrator 19.0.0, SVG Export Plug-In . SVG Version: 6.00 Build 0)  -->
<svg version="1.1" id="Capa_1" xmlns="http://www.w3.org/2000/svg" xmlns:xlink="http://www.w3.org/1999/xlink" x="0px" y="0px"
	 viewBox="0 0 512 512" style="enable-background:new 0 0 512 512;" xml:space="preserve">
<path style="fill:#1689FC;" d="M497,45v422c0,16.5-13.5,30-30,30H45c-16.5,0-30-13.5-30-30V45c0-16.5,13.5-30,30-30h422
	C483.5,15,497,28.5,497,45z"/>
<path style="fill:#136EF1;" d="M497,45v422c0,16.5-13.5,30-30,30H256V15h211C483.5,15,497,28.5,497,45z"/>
<path style="fill:#CAE8F9;" d="M448.001,327.4c-7.8-9.901-56.4-53.401-89.401-54.901c-12.9-0.901-20.7,4.799-24.899,9.6
	c-0.601,0.3-26.7,29.399-26.7,30c-0.3,0-1.5-0.3-3.6-1.5c-18.6-9.901-34.501-21-47.401-32.401c-41.7-36-56.7-73.801-56.7-73.801
	s24.6-20.7,30.901-28.2c10.199-11.699,9.6-30-1.201-53.699c-7.5-16.199-35.099-61.5-56.4-61.5h-0.298c-30,0-53.101,13.5-66.301,39
	c-42.9,81.899,2.1,182.1,66,245.4c26.1,25.8,54.901,45.601,84,58.5c27.599,12.599,56.1,18.9,82.8,18.9c26.1,0,51-6,73.799-18.001
	c24.001-12.9,36.301-34.499,38.401-67.2C451.3,333.999,450.099,330.399,448.001,327.4z"/>
<path style="fill:#57555C;" d="M467,0H45C20.099,0,0,20.099,0,45v422c0,24.899,20.099,45,45,45h422c24.901,0,45-20.101,45-45V45
	C512,20.099,491.901,0,467,0z M482,467c0,8.399-6.599,15-15,15H45c-8.401,0-15-6.601-15-15V45c0-8.401,6.599-15,15-15h422
	c8.401,0,15,6.599,15,15V467z"/>
<path style="fill:#B7E0F6;" d="M338.8,422.8c-26.7,0-55.201-6.301-82.8-18.9V278.2c12.9,11.4,28.801,22.5,47.401,32.401
	c2.1,1.199,3.3,1.5,3.6,1.5c0-0.601,26.1-29.7,26.7-30c4.199-4.801,11.999-10.501,24.899-9.6c33.001,1.5,81.601,45,89.401,54.901
	c2.098,2.999,3.3,6.599,2.999,10.199c-2.1,32.701-14.399,54.3-38.401,67.2C389.801,416.8,364.9,422.8,338.8,422.8z"/>
<path style="fill:#3C3A41;" d="M512,45v422c0,24.899-20.099,45-45,45H256v-30h211c8.401,0,15-6.601,15-15V45c0-8.401-6.599-15-15-15
	H256V0h211C491.901,0,512,20.099,512,45z"/>
<g>
</g>
<g>
</g>
<g>
</g>
<g>
</g>
<g>
</g>
<g>
</g>
<g>
</g>
<g>
</g>
<g>
</g>
<g>
</g>
<g>
</g>
<g>
</g>
<g>
</g>
<g>
</g>
<g>
</g>
</svg>
