<?xml version="1.0" encoding="iso-8859-1"?>
<!-- Generator: Adobe Illustrator 19.0.0, SVG Export Plug-In . SVG Version: 6.00 Build 0)  -->
<svg version="1.1" id="Capa_1" xmlns="http://www.w3.org/2000/svg" xmlns:xlink="http://www.w3.org/1999/xlink" x="0px" y="0px"
	 viewBox="0 0 512 512" style="enable-background:new 0 0 512 512;" xml:space="preserve">
<path style="fill:#FD4E26;" d="M507.499,145.899l-141.4-141.4C363.1,1.5,359.5,0,355.3,0H156.7c-4.2,0-7.8,1.5-10.8,4.499
	L4.5,145.899C1.5,148.9,0,152.5,0,156.7v198.6c0,4.2,1.5,7.8,4.501,10.8l141.4,141.4c2.999,3,6.599,4.5,10.799,4.5h198.6
	c4.2,0,7.8-1.5,10.8-4.501l141.4-141.4c3-2.999,4.5-6.599,4.5-10.799V156.7C512,152.5,510.5,148.9,507.499,145.899z"/>
<path style="fill:#FD3018;" d="M512,156.7v198.6c0,4.2-1.5,7.8-4.501,10.8l-141.4,141.4c-2.999,3-6.599,4.5-10.799,4.5H256V0h99.3
	c4.2,0,7.8,1.5,10.8,4.499l141.4,141.4C510.5,148.9,512,152.5,512,156.7z"/>
<path style="fill:#CAE8F9;" d="M446.499,170.799l-105.298-105.3C338.2,62.5,334.6,61,330.399,61H181.601
	c-4.2,0-7.8,1.5-10.801,4.499l-105.298,105.3C62.5,173.8,61,177.4,61,181.599V330.4c0,4.2,1.5,7.8,4.501,10.8l105.298,105.3
	c3.001,3,6.601,4.5,10.802,4.5H330.4c4.2,0,7.8-1.5,10.801-4.501l105.298-105.3C449.5,338.2,451,334.6,451,330.399v-148.8
	C451,177.4,449.5,173.8,446.499,170.799z M421,324.399L324.401,421H187.599L91,324.399v-136.8L187.599,91h136.802L421,187.599
	V324.399z"/>
<path style="fill:#B7E0F6;" d="M451,181.599V330.4c0,4.2-1.5,7.8-4.501,10.8L341.201,446.5c-3.001,3-6.601,4.5-10.802,4.5H256v-30
	h68.401L421,324.399v-136.8L324.401,91H256V61h74.399c4.2,0,7.8,1.5,10.801,4.499l105.298,105.3C449.5,173.8,451,177.4,451,181.599z
	"/>
<g>
</g>
<g>
</g>
<g>
</g>
<g>
</g>
<g>
</g>
<g>
</g>
<g>
</g>
<g>
</g>
<g>
</g>
<g>
</g>
<g>
</g>
<g>
</g>
<g>
</g>
<g>
</g>
<g>
</g>
</svg>
