<?xml version="1.0" encoding="iso-8859-1"?>
<!-- Generator: Adobe Illustrator 19.0.0, SVG Export Plug-In . SVG Version: 6.00 Build 0)  -->
<svg version="1.1" id="Capa_1" xmlns="http://www.w3.org/2000/svg" xmlns:xlink="http://www.w3.org/1999/xlink" x="0px" y="0px"
	 viewBox="0 0 512 512" style="enable-background:new 0 0 512 512;" xml:space="preserve">
<path style="fill:#1689FC;" d="M467,15c16.5,0,30,13.5,30,30v422c0,16.5-13.5,30-30,30H45c-16.5,0-30-13.5-30-30V45
	c0-16.5,13.5-30,30-30H467z"/>
<path style="fill:#57555C;" d="M512,45c0-24.901-20.099-45-45-45H45C20.099,0,0,20.099,0,45v422c0,24.899,20.099,45,45,45h422
	c24.901,0,45-20.101,45-45V45z M482,467c0,8.399-6.599,15-15,15H45c-8.401,0-15-6.601-15-15V45c0-8.401,6.599-15,15-15h422
	c8.401,0,15,6.599,15,15V467z"/>
<path style="fill:#136EF1;" d="M467,15c16.5,0,30,13.5,30,30v422c0,16.5-13.5,30-30,30H256V15H467z"/>
<path style="fill:#3C3A41;" d="M467,0c24.901,0,45,20.099,45,45v422c0,24.899-20.099,45-45,45H256v-30h211c8.401,0,15-6.601,15-15
	V45c0-8.401-6.599-15-15-15H256V0H467z"/>
<path style="fill:#CAE8F9;" d="M286,91H166v330h60V271h60c49.799,0,90-40.201,90-90C376,131.199,335.799,91,286,91z M286,211h-60
	v-60h60c16.5,0,30,13.5,30,30S302.5,211,286,211z"/>
<path style="fill:#B7E0F6;" d="M376,181c0,49.799-40.201,90-90,90h-30v-60h30c16.5,0,30-13.5,30-30s-13.5-30-30-30h-30V91h30
	C335.799,91,376,131.199,376,181z"/>
<g>
</g>
<g>
</g>
<g>
</g>
<g>
</g>
<g>
</g>
<g>
</g>
<g>
</g>
<g>
</g>
<g>
</g>
<g>
</g>
<g>
</g>
<g>
</g>
<g>
</g>
<g>
</g>
<g>
</g>
</svg>
