<?xml version="1.0" encoding="iso-8859-1"?>
<!-- Generator: Adobe Illustrator 19.0.0, SVG Export Plug-In . SVG Version: 6.00 Build 0)  -->
<svg version="1.1" id="Capa_1" xmlns="http://www.w3.org/2000/svg" xmlns:xlink="http://www.w3.org/1999/xlink" x="0px" y="0px"
	 viewBox="0 0 512 512" style="enable-background:new 0 0 512 512;" xml:space="preserve">
<path style="fill:#1689FC;" d="M497,45v422c0,16.5-13.5,30-30,30H45c-16.5,0-30-13.5-30-30V45c0-16.5,13.5-30,30-30h422
	C483.5,15,497,28.5,497,45z"/>
<path style="fill:#136EF1;" d="M497,45v422c0,16.5-13.5,30-30,30H256V15h211C483.5,15,497,28.5,497,45z"/>
<path d="M226,371.005h0.293H226z"/>
<path style="fill:#CAE8F9;" d="M436,316v-41.4c0-11.4-6.301-21.899-16.5-27.001L286,181V91c0-16.5-13.5-30-30-30s-30,13.5-30,30v90
	L92.5,247.599C82.301,252.7,76,263.2,76,274.6V316l150-30v84.899l-39.6,13.2c-12.299,4.2-20.4,15.601-20.4,28.5V451l90-30l90,30
	v-38.401c0-12.9-8.101-24.3-20.4-28.5l-39.6-13.2V286L436,316z"/>
<path style="fill:#B7E0F6;" d="M346,451l-90-30V61c16.5,0,30,13.5,30,30v90l133.5,66.599C429.699,252.7,436,263.2,436,274.6V316
	l-150-30v84.899l39.6,13.2c12.299,4.2,20.4,15.601,20.4,28.5V451z"/>
<path style="fill:#57555C;" d="M467,0H45C20.099,0,0,20.099,0,45v422c0,24.899,20.099,45,45,45h422c24.901,0,45-20.101,45-45V45
	C512,20.099,491.901,0,467,0z M482,467c0,8.399-6.599,15-15,15H45c-8.401,0-15-6.601-15-15V45c0-8.401,6.599-15,15-15h422
	c8.401,0,15,6.599,15,15V467z"/>
<path style="fill:#3C3A41;" d="M512,45v422c0,24.899-20.099,45-45,45H256v-30h211c8.401,0,15-6.601,15-15V45c0-8.401-6.599-15-15-15
	H256V0h211C491.901,0,512,20.099,512,45z"/>
<g>
</g>
<g>
</g>
<g>
</g>
<g>
</g>
<g>
</g>
<g>
</g>
<g>
</g>
<g>
</g>
<g>
</g>
<g>
</g>
<g>
</g>
<g>
</g>
<g>
</g>
<g>
</g>
<g>
</g>
</svg>
