<?xml version="1.0" encoding="iso-8859-1"?>
<!-- Generator: Adobe Illustrator 19.0.0, SVG Export Plug-In . SVG Version: 6.00 Build 0)  -->
<svg version="1.1" id="Capa_1" xmlns="http://www.w3.org/2000/svg" xmlns:xlink="http://www.w3.org/1999/xlink" x="0px" y="0px"
	 viewBox="0 0 512 512" style="enable-background:new 0 0 512 512;" xml:space="preserve">
<path style="fill:#FEDB41;" d="M497,45v422c0,7.8-2.999,15.3-9,21c-5.7,5.999-13.2,9-21,9H45c-7.8,0-15.3-3.001-21-9
	c-6-5.7-9-13.2-9-21V45c0-7.8,2.999-15.3,9-21c5.7-6,13.2-9,21-9h422c7.8,0,15.3,2.999,21,9C494.001,29.7,497,37.2,497,45z"/>
<path style="fill:#FCBF29;" d="M497,45v422c0,7.8-2.999,15.3-9,21c-5.7,5.999-13.2,9-21,9H256V15h211c7.8,0,15.3,2.999,21,9
	C494.001,29.7,497,37.2,497,45z"/>
<path style="fill:#3C3A41;" d="M444.699,448.299c-6.599,4.801-15.899,3.3-20.999-3.6L406.601,421H105.399l-17.1,23.699
	c-5.099,6.899-14.399,8.401-20.999,3.6c-6.901-5.099-8.401-14.399-3.6-21L141.4,319.6c4.801-6.599,14.399-8.101,21-3.3
	c6.599,4.799,8.101,14.399,3.3,21L127,391h258l-38.7-53.699c-4.801-6.601-3.3-16.201,3.3-21c6.601-4.801,16.199-3.3,21,3.3
	L448.299,427.3C453.1,433.9,451.601,443.2,444.699,448.299z"/>
<path style="fill:#2B292C;" d="M444.699,448.299c-6.599,4.801-15.899,3.3-20.999-3.6L406.601,421H256v-30h129l-38.7-53.699
	c-4.801-6.601-3.3-16.201,3.3-21c6.601-4.801,16.199-3.3,21,3.3L448.299,427.3C453.1,433.9,451.601,443.2,444.699,448.299z"/>
<path style="fill:#57555C;" d="M316,61H196c-41.4,0-75,33.6-75,75v150c0,41.4,33.6,75,75,75h120c41.4,0,75-33.6,75-75V136
	C391,94.6,357.4,61,316,61z"/>
<path style="fill:#3C3A41;" d="M316,361h-60V61h60c41.4,0,75,33.6,75,75v150C391,327.4,357.4,361,316,361z"/>
<circle style="fill:#FEDB41;" cx="196" cy="286" r="15"/>
<circle style="fill:#FCBF29;" cx="316" cy="286" r="15"/>
<path style="fill:#FEDB41;" d="M316,121H196c-8.401,0-15,6.599-15,15v90c0,8.401,6.599,15,15,15h120c8.401,0,15-6.599,15-15v-90
	C331,127.599,324.401,121,316,121z"/>
<path style="fill:#FCBF29;" d="M316,241h-60V121h60c8.401,0,15,6.599,15,15v90C331,234.401,324.401,241,316,241z"/>
<path style="fill:#57555C;" d="M498.8,13.2C490.699,5.099,479.299,0,467,0H45C32.701,0,21.301,5.099,13.2,13.2S0,32.701,0,45v422
	c0,12.299,5.099,23.699,13.2,31.8C21.301,506.899,32.701,512,45,512h422c12.299,0,23.699-5.101,31.8-13.2
	c8.101-8.101,13.2-19.501,13.2-31.8V45C512,32.701,506.901,21.301,498.8,13.2z M482,467c0,4.2-1.8,7.8-4.501,10.499
	C474.8,480.2,471.2,482,467,482H45c-4.2,0-7.8-1.8-10.499-4.501C31.8,474.8,30,471.2,30,467V45c0-4.2,1.8-7.8,4.501-10.499
	C37.2,31.8,40.8,30,45,30h422c4.2,0,7.8,1.8,10.499,4.501C480.2,37.2,482,40.8,482,45V467z"/>
<path style="fill:#3C3A41;" d="M512,45v422c0,12.299-5.099,23.699-13.2,31.8c-8.101,8.099-19.501,13.2-31.8,13.2H256v-30h211
	c4.2,0,7.8-1.8,10.499-4.501C480.2,474.8,482,471.2,482,467V45c0-4.2-1.8-7.8-4.501-10.499C474.8,31.8,471.2,30,467,30H256V0h211
	c12.299,0,23.699,5.099,31.8,13.2S512,32.701,512,45z"/>
<g>
</g>
<g>
</g>
<g>
</g>
<g>
</g>
<g>
</g>
<g>
</g>
<g>
</g>
<g>
</g>
<g>
</g>
<g>
</g>
<g>
</g>
<g>
</g>
<g>
</g>
<g>
</g>
<g>
</g>
</svg>
