<?xml version="1.0" encoding="iso-8859-1"?>
<!-- Generator: Adobe Illustrator 19.0.0, SVG Export Plug-In . SVG Version: 6.00 Build 0)  -->
<svg version="1.1" id="Capa_1" xmlns="http://www.w3.org/2000/svg" xmlns:xlink="http://www.w3.org/1999/xlink" x="0px" y="0px"
	 viewBox="0 0 512.001 512.001" style="enable-background:new 0 0 512.001 512.001;" xml:space="preserve">
<g>
	<path style="fill:#3C3A41;" d="M393.856,139.323l-21.211,21.211c-5.93,5.93-15.251,5.94-21.191,0.02
		c-0.01-0.01-0.01-0.01-0.02-0.02c-5.94-5.94-5.94-15.271,0-21.211l21.211-21.211c5.94-5.94,15.271-5.94,21.211,0
		c0.01,0.01,0.01,0.01,0.02,0.02C399.797,124.072,399.787,133.393,393.856,139.323z"/>
	<path style="fill:#3C3A41;" d="M330.212,202.967l-33.722,33.732c-5.72,5.72-15.261,5.94-21.201,0.02
		c-0.01-0.01-0.01-0.01-0.02-0.02c-5.94-5.94-5.72-15.491,0-21.221l33.732-33.722c5.94-5.94,15.271-5.94,21.211,0
		c0.01,0.01,0.01,0.01,0.02,0.02C336.162,187.716,336.151,197.037,330.212,202.967z"/>
</g>
<g>
	<path style="fill:#2B292C;" d="M330.232,181.776c5.93,5.94,5.92,15.261-0.02,21.191l-33.722,33.732
		c-5.72,5.72-15.261,5.94-21.201,0.02L330.232,181.776z"/>
	<path style="fill:#2B292C;" d="M393.856,139.323l-21.211,21.211c-5.93,5.93-15.251,5.94-21.191,0.02l42.423-42.423
		C399.797,124.072,399.787,133.393,393.856,139.323z"/>
</g>
<path style="fill:#664B34;" d="M436.649,229.139H265.728c-41.863,0-82.505-11.081-120.548-28.562
	c-11.531-5.3-25.022-7.05-39.073-3.86c-22.131,5.01-40.143,23.532-44.673,45.763c-7.891,38.673,21.441,72.645,58.704,72.645
	c10.261,0,19.911-2.57,28.352-7.1c20.051-10.771,41.403-19.081,64.154-19.081h181.532c26.642,0,49.233-17.171,57.064-41.203
	C454.26,238.48,446.389,229.139,436.649,229.139z M120.137,270.121c-8.281,0-15.001-6.71-15.001-15.001
	c0-8.281,6.72-15.001,15.001-15.001c8.291,0,15.001,6.72,15.001,15.001C135.138,263.411,128.429,270.121,120.137,270.121z"/>
<path style="fill:#59422D;" d="M451.24,247.74c-7.831,24.032-30.422,41.203-57.064,41.203H223.055l59.814-59.804h153.78
	C446.389,229.139,454.26,238.48,451.24,247.74z"/>
<path style="fill:#896748;" d="M310.571,365.968c-17.491-38.043-28.562-78.685-28.562-120.558V74.498
	c0-9.741-9.341-17.611-18.601-14.601c-24.032,7.831-41.203,30.422-41.203,57.074v181.522c0,22.751-8.321,44.113-19.081,64.154
	c-4.54,8.441-7.11,18.101-7.11,28.352c0,37.272,33.982,66.604,72.645,58.714c22.231-4.54,40.753-22.551,45.773-44.673
	C317.611,390.979,315.861,377.49,310.571,365.968z M256.017,406c-8.281,0-15.001-6.72-15.001-15.001
	c0-8.291,6.72-15.001,15.001-15.001s15.001,6.71,15.001,15.001C271.018,399.28,264.298,406,256.017,406z"/>
<path style="fill:#73553A;" d="M310.571,365.968c-17.491-38.043-28.562-78.685-28.562-120.558v-15.411l-59.804,59.794v8.701
	c0,22.751-8.321,44.113-19.081,64.154c-4.54,8.441-7.11,18.101-7.11,28.352c0,37.272,33.982,66.604,72.645,58.714
	c22.231-4.54,40.753-22.551,45.773-44.673C317.611,390.979,315.861,377.49,310.571,365.968z M256.017,406
	c-8.281,0-15.001-6.72-15.001-15.001c0-8.291,6.72-15.001,15.001-15.001s15.001,6.71,15.001,15.001
	C271.018,399.28,264.298,406,256.017,406z"/>
<path style="fill:#FD4E26;" d="M512,256c0-70.434-29.428-134.077-75.676-180.324S326.434,0.001,256,0.001
	C115.135,0.001,0,114.71,0,256c0.001,70.433,29.428,134.077,75.676,180.324S185.567,511.999,256,512C397.29,512,512,396.441,512,256
	z M256,30.127c61.946-0.001,118.378,26.033,159.11,66.764s66.766,97.163,66.764,159.11c0,57.703-22.638,109.467-56.795,147.865
	L108.135,86.921C146.321,52.552,198.72,30.125,256,30.127z M256,481.875c-62.157,0.212-118.378-26.033-159.11-66.764
	s-66.977-96.952-66.764-159.11c-0.001-57.28,22.427-109.68,56.795-147.865l316.945,316.945
	C365.468,459.236,313.28,481.876,256,481.875z"/>
<path style="fill:#FD3018;" d="M256,512c-70.433-0.001-134.077-29.428-180.324-75.676L96.89,415.11
	c40.732,40.732,96.952,66.977,159.11,66.764c57.28,0.001,109.468-22.639,147.865-56.795L245.393,266.608l21.214-21.214
	L425.08,403.866c34.156-38.399,56.795-90.162,56.795-147.865c0.001-61.946-26.033-118.378-66.764-159.11l21.214-21.214
	c46.248,46.248,75.676,109.89,75.676,180.324C512,396.441,397.29,512,256,512z"/>
<g>
</g>
<g>
</g>
<g>
</g>
<g>
</g>
<g>
</g>
<g>
</g>
<g>
</g>
<g>
</g>
<g>
</g>
<g>
</g>
<g>
</g>
<g>
</g>
<g>
</g>
<g>
</g>
<g>
</g>
</svg>
