<?xml version="1.0" encoding="iso-8859-1"?>
<!-- Generator: Adobe Illustrator 19.0.0, SVG Export Plug-In . SVG Version: 6.00 Build 0)  -->
<svg version="1.1" id="Capa_1" xmlns="http://www.w3.org/2000/svg" xmlns:xlink="http://www.w3.org/1999/xlink" x="0px" y="0px"
	 viewBox="0 0 512 512" style="enable-background:new 0 0 512 512;" xml:space="preserve">
<path style="fill:#57555C;" d="M256,99.099c-8.699-5.1-19.2-8.099-30-8.099c-21.599,0-41.4,11.7-51.899,30H151
	c-24.901,0-45,20.099-45,45v15l38.699,30h103.2l8.101-6.301L286,181v-30C286,128.8,273.999,109.6,256,99.099z"/>
<path style="fill:#1689FC;" d="M331,211h-30c-8.401,0-15-6.601-15-15v-15H106v60l45.601,24l30,7.8L196,331h210v-45
	C406,244.6,372.4,211,331,211z"/>
<path style="fill:#3C3A41;" d="M286,181l-30,23.699v-105.6C273.999,109.6,286,128.8,286,151V181z"/>
<path style="fill:#136EF1;" d="M406,286v45H256V181h30v15c0,8.399,6.599,15,15,15h30C372.4,211,406,244.6,406,286z"/>
<path style="fill:#57555C;" d="M196,331h-90v-90h45c24.814,0,45,20.186,45,45V331z"/>
<path style="fill:#3C3A41;" d="M436,316c0,8.399-6.599,15-15,15H91c-8.401,0-15-6.601-15-15c0-8.401,6.599-15,15-15h330
	C429.401,301,436,307.599,436,316z"/>
<path style="fill:#2B292C;" d="M436,316c0,8.399-6.599,15-15,15H256v-30h165C429.401,301,436,307.599,436,316z"/>
<path style="fill:#59422D;" d="M376,391c-24.814,0-45-20.186-45-45s20.186-45,45-45s45,20.186,45,45S400.814,391,376,391z"/>
<path style="fill:#B7E0F6;" d="M376,361c-8.276,0-15-6.724-15-15s6.724-15,15-15s15,6.724,15,15S384.276,361,376,361z"/>
<path style="fill:#73553A;" d="M136,391c-24.814,0-45-20.186-45-45s20.186-45,45-45s45,20.186,45,45S160.814,391,136,391z"/>
<path style="fill:#CAE8F9;" d="M136,361c-8.276,0-15-6.724-15-15s6.724-15,15-15s15,6.724,15,15S144.276,361,136,361z"/>
<path style="fill:#73553A;" d="M256,301c-24.901,0-45,20.099-45,45c0,24.899,20.099,45,45,45s45-20.101,45-45
	C301,321.099,280.901,301,256,301z"/>
<path style="fill:#CAE8F9;" d="M271,346c0,8.399-6.599,15-15,15s-15-6.601-15-15c0-8.401,6.599-15,15-15S271,337.599,271,346z"/>
<path style="fill:#59422D;" d="M301,346c0,24.899-20.099,45-45,45v-90C280.901,301,301,321.099,301,346z"/>
<path style="fill:#B7E0F6;" d="M271,346c0,8.399-6.599,15-15,15v-30C264.401,331,271,337.599,271,346z"/>
<path style="fill:#FD4E26;" d="M256,0C115,0,0,114.699,0,256c0,140.7,115,256,256,256c141.301,0,256-115.6,256-256
	C512,115,396.7,0,256,0z M256,482C132.1,482.3,29.7,380.2,30,256c0-57.301,22.599-109.501,56.8-147.9L256,277.299L403.9,425.2
	C365.501,459.399,313.299,482,256,482z M425.2,403.9L108.1,86.8C146.499,52.599,198.701,30,256,30c124.2,0,226,101.8,226,226
	C482,313.599,459.401,365.499,425.2,403.9z"/>
<path style="fill:#FD3018;" d="M512,256c0,140.4-114.699,256-256,256v-30c57.299,0,109.501-22.601,147.9-56.8L256,277.299V234.7
	l169.2,169.2C459.4,365.499,482,313.6,482,256c0-124.2-101.8-226-226-226V0C396.7,0,512,115,512,256z"/>
<g>
</g>
<g>
</g>
<g>
</g>
<g>
</g>
<g>
</g>
<g>
</g>
<g>
</g>
<g>
</g>
<g>
</g>
<g>
</g>
<g>
</g>
<g>
</g>
<g>
</g>
<g>
</g>
<g>
</g>
</svg>
