<?xml version="1.0" encoding="iso-8859-1"?>
<!-- Generator: Adobe Illustrator 19.0.0, SVG Export Plug-In . SVG Version: 6.00 Build 0)  -->
<svg version="1.1" id="Capa_1" xmlns="http://www.w3.org/2000/svg" xmlns:xlink="http://www.w3.org/1999/xlink" x="0px" y="0px"
	 viewBox="0 0 512 512" style="enable-background:new 0 0 512 512;" xml:space="preserve">
<path style="fill:#17ACE8;" d="M316,121H136c-24.901,0-45,20.099-45,45v120c0,24.899,20.099,45,45,45h210c8.401,0,15-6.601,15-15
	V166C361,141.099,340.901,121,316,121z"/>
<path style="fill:#1689FC;" d="M361,166v150c0,8.399-6.599,15-15,15h-90V121h60C340.901,121,361,141.099,361,166z"/>
<path style="fill:#FCBF29;" d="M376,181H196c-24.901,0-45,20.099-45,45v120c0,24.899,20.099,45,45,45h45v45c0,9,7.2,15,15,15
	c3.6,0,7.5-1.5,10.499-4.501L322.301,391H376c24.901,0,45-20.101,45-45V226C421,201.099,400.901,181,376,181z"/>
<path style="fill:#FE9923;" d="M421,226v120c0,24.899-20.099,45-45,45h-53.699L266.5,446.499c-3,3.001-6.9,4.501-10.5,4.501V181h120
	C400.901,181,421,201.099,421,226z"/>
<path style="fill:#FD4E26;" d="M256,0C115,0,0,114.699,0,256c0,140.7,115,256,256,256c141.301,0,256-115.6,256-256
	C512,115,396.7,0,256,0z M256,482C132.1,482.3,29.7,380.2,30,256c0-57.301,22.599-109.501,56.8-147.9L256,277.299L403.9,425.2
	C365.501,459.399,313.299,482,256,482z M425.2,403.9L108.1,86.8C146.499,52.599,198.701,30,256,30c124.2,0,226,101.8,226,226
	C482,313.599,459.401,365.499,425.2,403.9z"/>
<path style="fill:#FD3018;" d="M512,256c0,140.4-114.699,256-256,256v-30c57.299,0,109.501-22.601,147.9-56.8L256,277.299V234.7
	l169.2,169.2C459.4,365.499,482,313.6,482,256c0-124.2-101.8-226-226-226V0C396.7,0,512,115,512,256z"/>
<g>
</g>
<g>
</g>
<g>
</g>
<g>
</g>
<g>
</g>
<g>
</g>
<g>
</g>
<g>
</g>
<g>
</g>
<g>
</g>
<g>
</g>
<g>
</g>
<g>
</g>
<g>
</g>
<g>
</g>
</svg>
