<?xml version="1.0" encoding="iso-8859-1"?>
<!-- Generator: Adobe Illustrator 19.0.0, SVG Export Plug-In . SVG Version: 6.00 Build 0)  -->
<svg version="1.1" id="Capa_1" xmlns="http://www.w3.org/2000/svg" xmlns:xlink="http://www.w3.org/1999/xlink" x="0px" y="0px"
	 viewBox="0 0 512 512" style="enable-background:new 0 0 512 512;" xml:space="preserve">
<path style="fill:#A4D9F5;" d="M181.749,351.466l-42.429,42.429c-2.97,2.97-6.788,4.243-10.608,4.242
	c-3.818,0.001-7.636-1.271-10.608-4.242c-5.94-5.94-5.939-15.275,0-21.214l42.429-42.429c5.94-5.94,15.274-5.94,21.214,0
	C187.69,336.192,187.69,345.525,181.749,351.466z"/>
<path style="fill:#81C8EE;" d="M181.749,351.466l-42.429,42.429c-2.97,2.97-6.788,4.243-10.608,4.242
	c-3.818,0.001-7.636-1.271-10.608-4.242l63.644-63.644C187.69,336.192,187.69,345.525,181.749,351.466z"/>
<path style="fill:#17ACE8;" d="M264.697,328.766l-83.16-83.16c-0.425-0.425-0.425-0.425-0.425-0.425l-20.577,0.212
	c-2.97,2.97-4.455,6.576-4.242,10.608v78.917l21.002,21.002L256,355.707c4.031,0.214,7.636-1.271,10.608-4.242L264.697,328.766z"/>
<path style="fill:#1689FC;" d="M264.697,328.766l1.91,22.699c-2.97,2.97-6.576,4.455-10.608,4.242l-78.705,0.212l-10.608-10.608
	l57.278-57.278L264.697,328.766z"/>
<path style="fill:#1DE8F1;" d="M266.819,139.533l-106.284,105.86l106.072,106.072L372.68,245.394L266.819,139.533z"/>
<path style="fill:#A4D9F5;" d="M330.038,117.894l-42.217,42.217c-3.182,3.182-4.455,7.001-4.666,11.032
	c-0.001,3.818,1.696,7.636,4.666,10.608l42.429,42.429c2.97,2.97,6.788,4.668,10.608,4.666c4.031-0.211,7.849-1.484,11.032-4.666
	l42.217-42.217L330.038,117.894z"/>
<path style="fill:#FD4E26;" d="M511.998,256c0-70.433-29.428-134.076-75.676-180.323S326.434,0.002,256,0.002
	C115.443-0.436-0.435,115.367,0.001,256c0.001,70.432,29.428,134.076,75.676,180.323S185.567,511.998,256,511.999
	C396.558,512.435,512.437,396.634,511.998,256z M256,30.128c62.159-0.214,118.377,26.033,159.109,66.764
	s66.978,96.95,66.764,159.109c0,55.157-20.729,107.132-56.794,147.864L108.136,86.922C148.867,50.857,200.843,30.128,256,30.128z
	 M256,481.874c-62.157,0.212-118.377-26.033-159.109-66.764s-66.977-96.952-66.764-159.109c0-55.157,20.729-107.133,56.794-147.864
	l316.943,316.942C363.133,461.145,311.157,481.874,256,481.874z"/>
<rect x="218.116" y="234.401" transform="matrix(-0.7071 0.7071 -0.7071 -0.7071 692.6503 256.8999)" style="fill:#1BD9DE;" width="150.008" height="75.004"/>
<path style="fill:#81C8EE;" d="M394.107,181.962l-42.217,42.217c-3.182,3.182-7.001,4.455-11.032,4.666
	c-3.818,0.001-7.636-1.696-10.608-4.666l-21.214-21.214l53.036-53.036L394.107,181.962z"/>
<path style="fill:#FD3018;" d="M256,511.999c-70.432-0.001-134.076-29.428-180.323-75.676l21.214-21.214
	c40.731,40.731,96.952,66.977,159.109,66.764c55.157,0,107.132-20.729,147.864-56.794L245.393,266.608l21.214-21.214
	l158.472,158.472c36.065-40.731,56.794-92.708,56.794-147.864c0.214-62.159-26.033-118.377-66.764-159.109l21.214-21.214
	c46.248,46.248,75.676,109.89,75.676,180.323C512.437,396.558,396.633,512.435,256,511.999z"/>
<g>
	<path style="fill:#CAE8F9;" d="M393.894,266.608c-5.939,5.939-15.274,5.94-21.214,0L245.393,139.321
		c-5.94-5.94-5.939-15.275,0-21.214c5.94-5.94,15.274-5.94,21.214,0l127.287,127.287
		C399.834,251.334,399.834,260.668,393.894,266.608z"/>
	<path style="fill:#CAE8F9;" d="M415.108,202.964c-5.939,5.939-15.274,5.94-21.214,0l-84.858-84.858
		c-5.94-5.94-5.939-15.275,0-21.214c5.94-5.94,15.274-5.94,21.214,0l84.858,84.858C421.05,187.69,421.05,197.024,415.108,202.964z"
		/>
</g>
<g>
	<path style="fill:#B7E0F6;" d="M393.894,202.964l-42.429-42.429l21.214-21.214l42.429,42.429c5.94,5.94,5.94,15.274,0,21.214
		C409.169,208.903,399.834,208.905,393.894,202.964z"/>
	<path style="fill:#B7E0F6;" d="M393.894,266.608c-5.939,5.939-15.274,5.94-21.214,0l-63.644-63.644l21.214-21.214l63.644,63.644
		C399.834,251.334,399.834,260.668,393.894,266.608z"/>
</g>
<g>
</g>
<g>
</g>
<g>
</g>
<g>
</g>
<g>
</g>
<g>
</g>
<g>
</g>
<g>
</g>
<g>
</g>
<g>
</g>
<g>
</g>
<g>
</g>
<g>
</g>
<g>
</g>
<g>
</g>
</svg>
