<?xml version="1.0" encoding="iso-8859-1"?>
<!-- Generator: Adobe Illustrator 19.0.0, SVG Export Plug-In . SVG Version: 6.00 Build 0)  -->
<svg version="1.1" id="Capa_1" xmlns="http://www.w3.org/2000/svg" xmlns:xlink="http://www.w3.org/1999/xlink" x="0px" y="0px"
	 viewBox="0 0 512 512" style="enable-background:new 0 0 512 512;" xml:space="preserve">
<path style="fill:#FEA832;" d="M286,91h-60c-74.399,0-135,30.599-135,105c0,24.899,20.099,45,45,45h240c24.901,0,45-20.101,45-45
	C421,121.599,360.399,91,286,91z"/>
<path style="fill:#994C10;" d="M376,241H172.301l-24.3,18.3l57.9,57.9L256,329.5l6.301,1.5H376c24.901,0,45-20.101,45-45
	C421,261.099,400.901,241,376,241z"/>
<path style="fill:#994C0F;" d="M172.301,241H136c-24.901,0-45,20.099-45,45c0,24.899,20.099,45,45,45h126.301L172.301,241z"/>
<path style="fill:#FEA832;" d="M406,331H106c-8.401,0-15,6.599-15,15c0,41.4,33.6,45,75,45h180c41.4,0,75-3.6,75-45
	C421,337.599,414.401,331,406,331z"/>
<g>
	<path style="fill:#FE9923;" d="M376,241H256V91h30c74.399,0,135,30.599,135,105C421,220.899,400.901,241,376,241z"/>
	<path style="fill:#FE9923;" d="M421,346c0,41.4-33.6,45-75,45h-90v-60h150C414.401,331,421,337.599,421,346z"/>
</g>
<path style="fill:#713708;" d="M421,286c0,24.899-20.099,45-45,45H262.301L256,329.5V241h120C400.901,241,421,261.099,421,286z"/>
<polygon style="fill:#994C0F;" points="262.301,331 256,331 256,324.699 "/>
<path style="fill:#FD4E26;" d="M256,0C115,0,0,114.699,0,256c0,140.7,115,256,256,256c141.301,0,256-115.6,256-256
	C512,115,396.7,0,256,0z M256,482C132.1,482.3,29.7,380.2,30,256c0-57.301,22.599-109.501,56.8-147.9L256,277.299L403.9,425.2
	C365.501,459.399,313.299,482,256,482z M425.2,403.9L108.1,86.8C146.499,52.599,198.701,30,256,30c124.2,0,226,101.8,226,226
	C482,313.599,459.401,365.499,425.2,403.9z"/>
<path style="fill:#FD3018;" d="M512,256c0,140.4-114.699,256-256,256v-30c57.299,0,109.501-22.601,147.9-56.8L256,277.299V234.7
	l169.2,169.2C459.4,365.499,482,313.6,482,256c0-124.2-101.8-226-226-226V0C396.7,0,512,115,512,256z"/>
<g>
</g>
<g>
</g>
<g>
</g>
<g>
</g>
<g>
</g>
<g>
</g>
<g>
</g>
<g>
</g>
<g>
</g>
<g>
</g>
<g>
</g>
<g>
</g>
<g>
</g>
<g>
</g>
<g>
</g>
</svg>
