<?xml version="1.0" encoding="iso-8859-1"?>
<!-- Generator: Adobe Illustrator 19.0.0, SVG Export Plug-In . SVG Version: 6.00 Build 0)  -->
<svg version="1.1" id="Capa_1" xmlns="http://www.w3.org/2000/svg" xmlns:xlink="http://www.w3.org/1999/xlink" x="0px" y="0px"
	 viewBox="0 0 512 512" style="enable-background:new 0 0 512 512;" xml:space="preserve">
<path style="fill:#57555C;" d="M256,91h-30c-28.2,0-54.3,10.8-74.099,30.899C131.8,141.7,121,167.8,121,196v15l24,30h111
	c8.401,0,15-6.601,15-15V106C271,97.599,264.401,91,256,91z"/>
<path style="fill:#3C3A41;" d="M361.015,241c-1.201,0-2.432-0.146-3.647-0.454c-8.042-2.007-12.935-10.151-10.913-18.179l15-60
	C363.124,155.688,369.115,151,376,151h30c8.291,0,15,6.709,15,15s-6.709,15-15,15h-18.281l-12.173,48.633
	C373.847,236.459,367.738,241,361.015,241z"/>
<g>
	<path style="fill:#57555C;" d="M269.801,286v60c0,8.099-6,14.399-13.801,15h-1.199c-8.101,0-14.8-6.601-14.8-15v-60
		c0-8.401,6.699-15,14.8-15H256C263.8,271.599,269.801,277.899,269.801,286z"/>
	<path style="fill:#57555C;" d="M321.099,370.899c-2.999,7.5-11.4,11.7-19.199,8.701L256,362.5l-1.199-0.601l-46.8,17.701
		c-1.8,0.601-3.6,0.899-5.402,0.899c-5.999,0-11.699-3.6-13.799-9.6c-3.001-7.798,0.899-16.5,8.699-19.499l52.2-19.501
		c2.1-0.599,4.2-0.899,6.301-0.599c1.5-0.3,2.701,0,4.2,0.599l52.2,19.501C319.9,354.399,324.101,363.1,321.099,370.899z"/>
</g>
<g>
	<path style="fill:#3C3A41;" d="M256,241V91c8.401,0,15,6.599,15,15v120C271,234.399,264.401,241,256,241z"/>
	<path style="fill:#3C3A41;" d="M321.099,370.899c-2.999,7.5-11.4,11.7-19.199,8.701L256,362.5v-31.2c1.5-0.3,2.701,0,4.2,0.599
		l52.2,19.501C319.9,354.399,324.101,363.1,321.099,370.899z"/>
</g>
<path style="fill:#59422D;" d="M334.003,421c-24.814,0-45-20.186-45-45s20.186-45,45-45s45,20.186,45,45S358.817,421,334.003,421z"
	/>
<path style="fill:#B7E0F6;" d="M334.003,391c-8.276,0-15-6.724-15-15s6.724-15,15-15s15,6.724,15,15S342.279,391,334.003,391z"/>
<path style="fill:#3C3A41;" d="M269.801,286v60c0,8.099-6,14.399-13.801,15v-90C263.8,271.599,269.801,277.899,269.801,286z"/>
<path style="fill:#32D736;" d="M376,211H121v45c0,24.899,20.099,45,45,45h180c24.901,0,45-20.101,45-45v-30
	C391,217.599,384.401,211,376,211z"/>
<path style="fill:#10BB67;" d="M391,226v30c0,24.899-20.099,45-45,45h-90v-90h120C384.401,211,391,217.599,391,226z"/>
<path style="fill:#FD4E26;" d="M256,0C115,0,0,114.699,0,256c0,140.7,115,256,256,256c141.301,0,256-115.6,256-256
	C512,115,396.7,0,256,0z M256,482C132.1,482.3,29.7,380.2,30,256c0-57.301,22.599-109.501,56.8-147.9L256,277.299L403.9,425.2
	C365.501,459.399,313.299,482,256,482z M425.2,403.9L108.1,86.8C146.499,52.599,198.701,30,256,30c124.2,0,226,101.8,226,226
	C482,313.599,459.401,365.499,425.2,403.9z"/>
<path style="fill:#FD3018;" d="M512,256c0,140.4-114.699,256-256,256v-30c57.299,0,109.501-22.601,147.9-56.8L256,277.299V234.7
	l169.2,169.2C459.4,365.499,482,313.6,482,256c0-124.2-101.8-226-226-226V0C396.7,0,512,115,512,256z"/>
<path style="fill:#73553A;" d="M173.5,421c-24.814,0-45-20.186-45-45s20.186-45,45-45s45,20.186,45,45S198.314,421,173.5,421z"/>
<path style="fill:#CAE8F9;" d="M173.5,391c-8.276,0-15-6.724-15-15s6.724-15,15-15s15,6.724,15,15S181.776,391,173.5,391z"/>
<g>
</g>
<g>
</g>
<g>
</g>
<g>
</g>
<g>
</g>
<g>
</g>
<g>
</g>
<g>
</g>
<g>
</g>
<g>
</g>
<g>
</g>
<g>
</g>
<g>
</g>
<g>
</g>
<g>
</g>
</svg>
