<?xml version="1.0" encoding="iso-8859-1"?>
<!-- Generator: Adobe Illustrator 19.0.0, SVG Export Plug-In . SVG Version: 6.00 Build 0)  -->
<svg version="1.1" id="Capa_1" xmlns="http://www.w3.org/2000/svg" xmlns:xlink="http://www.w3.org/1999/xlink" x="0px" y="0px"
	 viewBox="0 0 512 512" style="enable-background:new 0 0 512 512;" xml:space="preserve">
<path style="fill:#10BB67;" d="M230.817,199.512l-10.431-59.096c-1.45-8.16,3.999-15.939,12.159-17.374
	c8.175-1.479,15.939,3.999,17.374,12.159l10.431,59.096c1.45,8.16-3.999,15.939-12.159,17.374
	C240.165,213.143,232.261,207.758,230.817,199.512z"/>
<path style="fill:#0CA656;" d="M262.079,376.799l-10.431-59.096c-1.45-8.16,3.999-15.939,12.159-17.374
	c8.146-1.523,15.939,3.984,17.374,12.159l10.431,59.096c1.45,8.16-3.999,15.939-12.159,17.374
	C271.426,390.43,263.523,385.046,262.079,376.799z"/>
<path style="fill:#10BB67;" d="M194.297,260.351l-59.096-10.431c-8.16-1.436-13.609-9.215-12.159-17.374
	c1.436-8.16,9.171-13.712,17.374-12.159l59.096,10.431c8.16,1.436,13.609,9.215,12.159,17.374
	C210.228,256.438,202.324,261.822,194.297,260.351z"/>
<path style="fill:#0CA656;" d="M371.584,291.612l-59.096-10.431c-8.16-1.436-13.609-9.215-12.159-17.374
	c1.421-8.16,9.259-13.609,17.374-12.159l59.096,10.431c8.16,1.436,13.609,9.215,12.159,17.374
	C387.515,287.7,379.611,293.084,371.584,291.612z"/>
<g>
	<path style="fill:#10BB67;" d="M224.178,309.036l-42.429,42.429c-5.94,5.94-15.274,5.94-21.214,0c-5.94-5.94-5.94-15.274,0-21.214
		l42.429-42.429c5.94-5.94,15.274-5.94,21.214,0C230.119,293.763,230.119,303.096,224.178,309.036z"/>
	<path style="fill:#10BB67;" d="M351.466,181.749l-42.429,42.429c-5.94,5.94-15.274,5.94-21.214,0c-5.94-5.94-5.94-15.274,0-21.214
		l42.429-42.429c5.94-5.94,15.274-5.94,21.214,0C357.407,166.475,357.407,175.809,351.466,181.749z"/>
</g>
<g>
	<path style="fill:#0CA656;" d="M351.466,181.749l-42.429,42.429c-5.94,5.94-15.274,5.94-21.214,0l63.644-63.644
		C357.407,166.475,357.407,175.809,351.466,181.749z"/>
	<path style="fill:#0CA656;" d="M224.178,309.036l-42.429,42.429c-5.94,5.94-15.274,5.94-21.214,0l63.644-63.644
		C230.119,293.763,230.119,303.096,224.178,309.036z"/>
</g>
<path style="fill:#32D736;" d="M331.101,256c0-20.79-8.487-39.459-22.064-53.037c-13.578-13.578-32.246-22.064-53.037-22.064
	c-41.369,0.214-74.887,33.732-75.101,75.101c0,20.79,8.487,39.459,22.064,53.036c13.578,13.578,32.246,22.064,53.037,22.064
	C297.369,330.887,330.887,297.369,331.101,256z"/>
<path style="fill:#FD4E26;" d="M512,256c0-68.311-27.519-132.167-75.676-180.324S324.311,0,256,0C115.049,0,0,114.93,0,256
	c0,68.311,27.519,132.167,75.676,180.324S187.689,512,256,512C396.951,512,512,397.07,512,256z M256,30.126
	c60.036-0.212,116.681,24.336,159.11,66.764s66.977,99.074,66.764,159.11c0.212,54.945-20.729,107.133-56.582,148.078
	l-317.37-317.37C148.867,50.855,201.055,29.913,256,30.126z M256,481.875c-60.036,0.212-116.681-24.336-159.11-66.764
	s-66.977-99.074-66.764-159.11c-0.212-54.945,20.729-107.133,56.582-148.078l317.37,317.37
	C363.134,461.145,310.946,482.087,256,481.875z"/>
<path style="fill:#10BB67;" d="M256,331.101c-20.79,0-39.459-8.487-53.037-22.064l106.073-106.073
	c13.578,13.578,22.064,32.246,22.064,53.037C330.887,297.369,297.369,330.887,256,331.101z"/>
<path style="fill:#FD3018;" d="M256,512c-68.311,0-132.167-27.519-180.324-75.676L96.89,415.11
	c42.429,42.429,99.074,66.977,159.11,66.764c54.945,0.212,107.133-20.729,148.078-56.582L245.393,266.608l21.214-21.214
	l158.685,158.685c35.852-40.944,56.795-93.132,56.582-148.078c0.212-60.036-24.336-116.681-66.764-159.11l21.214-21.214
	C484.481,123.833,512,187.689,512,256C512,396.951,397.07,512,256,512z"/>
<path style="fill:#32D736;" d="M204.142,145.134c-20.402-14.278-25.333-42.279-11.061-62.685
	c14.19-20.246,42.169-25.383,62.685-11.046c9.845,6.899,16.407,17.213,18.502,29.05c0,0,0,0,0.015,0.015
	c2.08,11.837-0.571,23.776-7.472,33.62C252.475,154.543,224.427,159.357,204.142,145.134z"/>
<path style="fill:#10BB67;" d="M237.733,411.547c-4.326-24.475,11.946-47.793,36.521-52.137c11.793-2.021,23.747,0.542,33.606,7.456
	c9.859,6.899,16.422,17.213,18.517,29.065c4.302,24.479-11.946,47.779-36.521,52.122
	C265.013,452.332,242.032,435.845,237.733,411.547z"/>
<path style="fill:#32D736;" d="M108.349,274.971c-28.041,0-49.274-25.229-44.388-52.84c4.244-24.153,27.106-40.761,52.107-36.506
	c24.575,4.344,40.843,27.665,36.506,52.137C148.684,259.903,129.454,274.971,108.349,274.971z"/>
<path style="fill:#10BB67;" d="M403.828,327.065c-28.146,0-49.273-25.337-44.402-52.826c4.287-24.393,27.402-40.791,52.107-36.521
	c0.015,0.015,0.015,0.015,0.015,0.015c24.495,4.335,40.827,27.643,36.491,52.137C444.156,311.966,424.975,327.065,403.828,327.065z"
	/>
<g>
	<path style="fill:#32D736;" d="M181.749,330.251c-16.971-16.971-46.672-16.971-63.644,0c-17.608,17.608-17.608,46.035,0,63.644
		c17.608,17.608,46.035,17.608,63.644,0C199.357,376.287,199.357,347.86,181.749,330.251z"/>
	<path style="fill:#32D736;" d="M393.895,118.105c-16.971-16.971-46.672-16.971-63.644,0c-17.608,17.608-17.608,46.035,0,63.644
		c17.608,17.608,46.035,17.608,63.644,0C411.503,164.141,411.503,135.714,393.895,118.105z"/>
</g>
<g>
	<path style="fill:#10BB67;" d="M181.749,393.895c-17.608,17.608-46.035,17.608-63.644,0l63.644-63.644
		C199.357,347.86,199.357,376.287,181.749,393.895z"/>
	<path style="fill:#10BB67;" d="M330.251,181.749l63.644-63.644c17.608,17.608,17.608,46.035,0,63.644
		C376.287,199.357,347.86,199.357,330.251,181.749z"/>
</g>
<g>
</g>
<g>
</g>
<g>
</g>
<g>
</g>
<g>
</g>
<g>
</g>
<g>
</g>
<g>
</g>
<g>
</g>
<g>
</g>
<g>
</g>
<g>
</g>
<g>
</g>
<g>
</g>
<g>
</g>
</svg>
