<?xml version="1.0" encoding="iso-8859-1"?>
<!-- Generator: Adobe Illustrator 19.0.0, SVG Export Plug-In . SVG Version: 6.00 Build 0)  -->
<svg version="1.1" id="Capa_1" xmlns="http://www.w3.org/2000/svg" xmlns:xlink="http://www.w3.org/1999/xlink" x="0px" y="0px"
	 viewBox="0 0 512 512" style="enable-background:new 0 0 512 512;" xml:space="preserve">
<path style="fill:#896748;" d="M316,76c-33.13,0-60,26.86-60,60c0,22.15,12.14,41.28,30,51.68V346c0,19.59-12.52,36.26-30,42.43
	c-4.69,1.67-9.74,2.57-15,2.57c-24.85,0-45-20.15-45-45v-15h30.71c6.16,0,11.72-3.71,14.08-9.41c2.36-5.69,1.05-12.25-3.31-16.61
	l-75.46-75.46c-4.36-4.36-10.92-5.67-16.61-3.31c-5.7,2.36-9.41,7.92-9.41,14.08V346c0,57.99,47.01,105,105,105
	c5.09,0,10.1-0.36,15-1.07c0.4-0.06,0.8-0.12,1.21-0.18C307.5,441.96,346,398.48,346,346V187.68c17.86-10.4,30-29.53,30-51.68
	C376,102.86,349.13,76,316,76z M316,151c-8.28,0-15-6.72-15-15s6.72-15,15-15s15,6.72,15,15S324.28,151,316,151z"/>
<path style="fill:#59422D;" d="M316,121c8.284,0,15,6.716,15,15s-6.716,15-15,15s-15-6.716-15-15S307.716,121,316,121z M316,76
	c-33.13,0-60,26.86-60,60c0,22.15,12.14,41.28,30,51.68V346c0,19.59-12.52,36.26-30,42.43v61.5c0.4-0.06,0.8-0.12,1.21-0.18
	C307.5,441.96,346,398.48,346,346V187.68c17.86-10.4,30-29.53,30-51.68C376,102.86,349.13,76,316,76z"/>
<path style="fill:#FD4E26;" d="M256,0C115,0,0,114.699,0,256c0,140.7,115,256,256,256c141.301,0,256-115.6,256-256
	C512,115,396.7,0,256,0z M256,482C132.1,482.3,29.7,380.2,30,256c0-57.301,22.599-109.501,56.8-147.9L256,277.299L403.9,425.2
	C365.501,459.399,313.299,482,256,482z M425.2,403.9L108.1,86.8C146.499,52.599,198.701,30,256,30c124.2,0,226,101.8,226,226
	C482,313.599,459.401,365.499,425.2,403.9z"/>
<path style="fill:#FD3018;" d="M512,256c0,140.4-114.699,256-256,256v-30c57.299,0,109.501-22.601,147.9-56.8L256,277.299V234.7
	l169.2,169.2C459.4,365.499,482,313.6,482,256c0-124.2-101.8-226-226-226V0C396.7,0,512,115,512,256z"/>
<g>
</g>
<g>
</g>
<g>
</g>
<g>
</g>
<g>
</g>
<g>
</g>
<g>
</g>
<g>
</g>
<g>
</g>
<g>
</g>
<g>
</g>
<g>
</g>
<g>
</g>
<g>
</g>
<g>
</g>
</svg>
