<?xml version="1.0" encoding="iso-8859-1"?>
<!-- Generator: Adobe Illustrator 19.0.0, SVG Export Plug-In . SVG Version: 6.00 Build 0)  -->
<svg version="1.1" id="Capa_1" xmlns="http://www.w3.org/2000/svg" xmlns:xlink="http://www.w3.org/1999/xlink" x="0px" y="0px"
	 viewBox="0 0 512 512" style="enable-background:new 0 0 512 512;" xml:space="preserve">
<g>
	<path style="fill:#1689FC;" d="M361,166c0,40.8-23.101,75.599-56.7,93.3c-4.2,2.1-18.3,10.499-18.3,25.201v66.923
		c0,5.289-4.288,9.576-9.576,9.576h-40.847c-5.289,0-9.576-4.288-9.576-9.576V284.5C226,259.6,236.8,236.8,256,220
		c6-5.4,12.9-10.201,20.7-14.101c4.2-2.098,7.8-4.799,11.1-8.099c8.401-8.401,13.2-19.801,13.2-31.8c0-24-18.3-44.101-45-44.101
		c-27.001,0-45,20.101-45,44.101v20.424c0,5.289-4.288,9.576-9.576,9.576h-40.847c-5.289,0-9.576-4.288-9.576-9.576V166
		c0-56.1,43.801-104.101,105-104.101C316.901,61.899,361,109.6,361,166z"/>
	<path style="fill:#1689FC;" d="M286,421c0,16.5-13.5,30-30,30s-30-13.5-30-30s13.5-30,30-30S286,404.5,286,421z"/>
</g>
<g>
	<path style="fill:#136EF1;" d="M286,421c0,16.5-13.5,30-30,30v-60C272.5,391,286,404.5,286,421z"/>
	<path style="fill:#136EF1;" d="M361,166c0,40.8-23.101,75.599-56.7,93.3c-4.2,2.1-18.3,10.499-18.3,25.201v66.923
		c0,5.289-4.288,9.576-9.576,9.576H256V220c6-5.4,12.9-10.201,20.7-14.101c4.2-2.098,7.8-4.799,11.1-8.099
		c8.401-8.401,13.2-19.801,13.2-31.8c0-24-18.3-44.101-45-44.101v-60C316.901,61.899,361,109.6,361,166z"/>
</g>
<path style="fill:#FD4E26;" d="M256,0C115,0,0,114.699,0,256c0,140.7,115,256,256,256c141.301,0,256-115.6,256-256
	C512,115,396.7,0,256,0z M256,482C132.1,482.3,29.7,380.2,30,256c0-57.301,22.599-109.501,56.8-147.9L256,277.299L403.9,425.2
	C365.501,459.399,313.299,482,256,482z M425.2,403.9L108.1,86.8C146.499,52.599,198.701,30,256,30c124.2,0,226,101.8,226,226
	C482,313.599,459.401,365.499,425.2,403.9z"/>
<path style="fill:#FD3018;" d="M512,256c0,140.4-114.699,256-256,256v-30c57.299,0,109.501-22.601,147.9-56.8L256,277.299V234.7
	l169.2,169.2C459.4,365.499,482,313.6,482,256c0-124.2-101.8-226-226-226V0C396.7,0,512,115,512,256z"/>
<g>
</g>
<g>
</g>
<g>
</g>
<g>
</g>
<g>
</g>
<g>
</g>
<g>
</g>
<g>
</g>
<g>
</g>
<g>
</g>
<g>
</g>
<g>
</g>
<g>
</g>
<g>
</g>
<g>
</g>
</svg>
