<?xml version="1.0" encoding="iso-8859-1"?>
<!-- Generator: Adobe Illustrator 19.0.0, SVG Export Plug-In . SVG Version: 6.00 Build 0)  -->
<svg version="1.1" id="Capa_1" xmlns="http://www.w3.org/2000/svg" xmlns:xlink="http://www.w3.org/1999/xlink" x="0px" y="0px"
	 viewBox="0 0 512.001 512.001" style="enable-background:new 0 0 512.001 512.001;" xml:space="preserve">
<path style="fill:#994C0F;" d="M234.788,443.293c-16.041,0-31.101-6.24-42.425-17.579c-11.339-11.339-17.579-26.398-17.579-42.425
	c0-16.041,6.24-31.101,17.579-42.425l10.606-10.606c5.859-5.859,15.353-5.859,21.212,0c5.859,5.859,5.859,15.353,0,21.212
	l-10.606,10.606c-5.669,5.669-8.79,13.199-8.79,21.212c0,8.014,3.12,15.543,8.79,21.212c11.339,11.339,31.086,11.339,42.425,0
	c5.859-5.859,15.353-5.859,21.212,0c5.859,5.859,5.859,15.353,0,21.212C265.874,437.053,250.815,443.293,234.788,443.293z"/>
<path style="fill:#57555C;" d="M202.963,330.251l-56.431,56.431c-2.758,2.758-6.788,4.243-10.609,4.243
	c-3.817,0-7.635-1.273-10.606-4.243c-5.94-5.94-5.728-15.486,0-21.214l56.431-56.431c5.94-5.94,15.274-5.94,21.214,0
	S208.904,324.311,202.963,330.251z"/>
<path style="fill:#B7E0F6;" d="M372.681,245.394l-55.582,55.583l-20.577,7.424l-82.737-10.183l-59.613-7.425l-18.669-15.699
	c0.212-3.182,1.485-6.151,3.818-8.485l53.674-53.674l31.185-8.274l77.646,3.82l1.273,0.423l54.097,13.789l19.517,14.004
	C376.288,239.665,375.226,242.848,372.681,245.394z"/>
<path style="fill:#A4D9F5;" d="M372.681,245.394l-55.582,55.583l-20.577,7.424l-82.737-10.183l89.314-89.314l54.097,13.789
	l19.517,14.004C376.288,239.665,375.226,242.848,372.681,245.394z"/>
<g>
	<path style="fill:#FD3018;" d="M317.098,300.975l-71.706,71.706c-2.97,2.97-6.788,4.243-10.608,4.242
		c-3.818,0.001-7.637-1.271-10.608-4.242l-84.859-84.859c-3.394-3.394-4.666-8.062-3.818-12.73l88.677,12.73L317.098,300.975z"/>
	<path style="fill:#FD3018;" d="M376.711,236.696l-89.737-11.669l-93.98-12.093l73.614-73.614c5.94-5.94,15.274-5.94,21.214,0
		l84.859,84.859C376.074,227.573,377.348,232.239,376.711,236.696z"/>
</g>
<path style="fill:#3C3A41;" d="M202.963,330.251l-56.431,56.431c-2.758,2.758-6.788,4.243-10.609,4.243
	c-3.817,0-7.635-1.273-10.606-4.243l77.645-77.645C208.904,314.977,208.904,324.311,202.963,330.251z"/>
<g>
	<path style="fill:#E61E14;" d="M376.711,236.696l-89.737-11.669l43.277-43.277l42.429,42.429
		C376.074,227.573,377.348,232.239,376.711,236.696z"/>
	<path style="fill:#E61E14;" d="M317.098,300.975l-71.706,71.706c-2.97,2.97-6.788,4.243-10.608,4.242
		c-3.818,0.001-7.637-1.271-10.608-4.242l-42.429-42.429l42.429-42.429L317.098,300.975z"/>
</g>
<path style="fill:#FD4E26;" d="M398.026,255.999V128.712c0.212-4.029-1.373-7.848-4.131-10.606
	c-2.758-2.758-6.576-5.336-10.606-5.124H256.001c-6.153-0.212-11.457,4.276-13.791,10.004c-2.333,5.728-1.06,12.093,3.182,16.336
	l127.288,127.286c2.97,2.97,6.576,4.455,10.608,4.242c1.91,0.214,4.031-0.211,5.728-1.059
	C394.743,267.456,398.238,262.152,398.026,255.999z"/>
<path style="fill:#FD3018;" d="M389.016,269.79c-1.697,0.848-3.818,1.273-5.728,1.059c-4.031,0.214-7.637-1.271-10.608-4.242
	l-63.644-63.644l84.859-84.859c2.758,2.758,4.343,6.576,4.131,10.606v127.287C398.238,262.152,394.743,267.456,389.016,269.79z"/>
<path style="fill:#FD4E26;" d="M512,256c0-70.434-29.428-134.077-75.676-180.324S326.434,0.001,256,0.001
	C115.135,0.001,0,114.71,0,256c0.001,70.433,29.428,134.077,75.676,180.324S185.567,511.999,256,512C397.29,512,512,396.441,512,256
	z M256,30.127c61.946-0.001,118.378,26.033,159.11,66.764s66.766,97.163,66.764,159.11c0.212,57.491-22.425,109.679-56.795,147.865
	L108.135,86.921C146.321,52.552,198.72,30.125,256,30.127z M256,481.875c-62.157,0.212-118.378-26.033-159.11-66.764
	s-66.977-96.952-66.764-159.11c-0.001-57.28,22.427-109.68,56.795-147.865l316.945,316.945
	C365.68,459.448,313.28,481.876,256,481.875z"/>
<path style="fill:#FD3018;" d="M256,512c-70.433-0.001-134.077-29.428-180.324-75.676L96.89,415.11
	c40.732,40.732,96.952,66.977,159.11,66.764c57.28,0.001,109.68-22.427,147.865-56.795L245.393,266.608l21.214-21.214
	L425.08,403.866c34.369-38.187,57.007-90.374,56.795-147.865c0.001-61.946-26.033-118.378-66.764-159.11l21.214-21.214
	c46.248,46.248,75.676,109.89,75.676,180.324C512,396.441,397.29,512,256,512z"/>
<g>
</g>
<g>
</g>
<g>
</g>
<g>
</g>
<g>
</g>
<g>
</g>
<g>
</g>
<g>
</g>
<g>
</g>
<g>
</g>
<g>
</g>
<g>
</g>
<g>
</g>
<g>
</g>
<g>
</g>
</svg>
