<?xml version="1.0" encoding="iso-8859-1"?>
<!-- Generator: Adobe Illustrator 19.0.0, SVG Export Plug-In . SVG Version: 6.00 Build 0)  -->
<svg version="1.1" id="Capa_1" xmlns="http://www.w3.org/2000/svg" xmlns:xlink="http://www.w3.org/1999/xlink" x="0px" y="0px"
	 viewBox="0 0 512 512" style="enable-background:new 0 0 512 512;" xml:space="preserve">
<path style="fill:#59422D;" d="M376,181h-60c-8.401,0-15,6.599-15,15v45v30h120v-45C421,201.099,400.901,181,376,181z"/>
<path style="fill:#10BB67;" d="M301,241v66.599L331,331h75c8.401,0,15-6.601,15-15v-75H301z"/>
<path style="fill:#B7E0F6;" d="M316,331H106c-8.291,0-15-6.709-15-15V166c0-24.814,20.186-45,45-45h150c24.814,0,45,20.186,45,45
	v150C331,324.291,324.291,331,316,331z"/>
<path style="fill:#A4D9F5;" d="M286,121h-30v210h60c8.291,0,15-6.709,15-15V166C331,141.186,310.814,121,286,121z"/>
<path style="fill:#59422D;" d="M304.003,391c-24.814,0-45-20.186-45-45s20.186-45,45-45s45,20.186,45,45S328.817,391,304.003,391z"
	/>
<path style="fill:#B7E0F6;" d="M304.003,361c-8.276,0-15-6.724-15-15s6.724-15,15-15s15,6.724,15,15S312.279,361,304.003,361z"/>
<path style="fill:#73553A;" d="M166,391c-24.814,0-45-20.186-45-45s20.186-45,45-45s45,20.186,45,45S190.814,391,166,391z"/>
<path style="fill:#CAE8F9;" d="M166,361c-8.276,0-15-6.724-15-15s6.724-15,15-15s15,6.724,15,15S174.276,361,166,361z"/>
<path style="fill:#FD4E26;" d="M256,0C115,0,0,114.699,0,256c0,140.7,115,256,256,256c141.301,0,256-115.6,256-256
	C512,115,396.7,0,256,0z M256,482C132.1,482.3,29.7,380.2,30,256c0-57.301,22.599-109.501,56.8-147.9L256,277.299L403.9,425.2
	C365.501,459.399,313.299,482,256,482z M425.2,403.9L108.1,86.8C146.499,52.599,198.701,30,256,30c124.2,0,226,101.8,226,226
	C482,313.599,459.401,365.499,425.2,403.9z"/>
<path style="fill:#FD3018;" d="M512,256c0,140.4-114.699,256-256,256v-30c57.299,0,109.501-22.601,147.9-56.8L256,277.299V234.7
	l169.2,169.2C459.4,365.499,482,313.6,482,256c0-124.2-101.8-226-226-226V0C396.7,0,512,115,512,256z"/>
<g>
</g>
<g>
</g>
<g>
</g>
<g>
</g>
<g>
</g>
<g>
</g>
<g>
</g>
<g>
</g>
<g>
</g>
<g>
</g>
<g>
</g>
<g>
</g>
<g>
</g>
<g>
</g>
<g>
</g>
</svg>
