<?xml version="1.0" encoding="iso-8859-1"?>
<!-- Generator: Adobe Illustrator 19.0.0, SVG Export Plug-In . SVG Version: 6.00 Build 0)  -->
<svg version="1.1" id="Capa_1" xmlns="http://www.w3.org/2000/svg" xmlns:xlink="http://www.w3.org/1999/xlink" x="0px" y="0px"
	 viewBox="0 0 512 512" style="enable-background:new 0 0 512 512;" xml:space="preserve">
<path style="fill:#FD4E26;" d="M313.599,133.9c-9.3-29.101-25.499-41.7-47.1-63.3C263.8,67.599,259.9,66.099,256,66.099
	s-7.8,1.5-10.499,4.501c-21.601,21.599-37.8,34.199-47.1,63.3c-2.401,8.101,2.1,16.5,10.199,18.9c18.9,5.7,32.4,23.399,32.4,43.2
	c0,8.399,6.599,15,15,15s15-6.601,15-15c0-19.801,13.5-37.5,32.401-43.2C311.499,150.399,316,142,313.599,133.9z"/>
<path style="fill:#FD3018;" d="M303.401,152.8C284.5,158.5,271,176.199,271,196c0,8.399-6.599,15-15,15V66.099
	c3.9,0,7.8,1.5,10.499,4.501c21.601,21.599,37.8,34.199,47.1,63.3C316,142,311.499,150.399,303.401,152.8z"/>
<path style="fill:#664B34;" d="M271,256v180c0,8.399-6.599,15-15,15s-15-6.601-15-15V256c0-8.401,6.599-15,15-15
	S271,247.599,271,256z"/>
<path style="fill:#FCBF29;" d="M391,136v60c0,41.4-33.6,75-75,75H196c-41.4,0-75-33.6-75-75v-60c0-8.401,6.599-15,15-15h60
	c6.899,0,13.5,0.899,20.7,2.999c16.199,4.801,29.7,14.7,39.3,27.301c9.6-12.601,23.101-22.5,39-27.301
	c7.5-2.1,14.101-2.999,21-2.999h60C384.401,121,391,127.599,391,136z"/>
<path style="fill:#FE9923;" d="M316,271h-60V151.3c9.6-12.601,23.101-22.5,39-27.301c7.5-2.1,14.101-2.999,21-2.999h60
	c8.401,0,15,6.599,15,15v60C391,237.4,357.4,271,316,271z"/>
<path style="fill:#59422D;" d="M271,256v180c0,8.399-6.599,15-15,15V241C264.401,241,271,247.599,271,256z"/>
<path style="fill:#32D736;" d="M421,316c0,57.9-47.1,105-105,105H196c-57.9,0-105-47.1-105-105c0-8.401,6.599-15,15-15h60
	c38.401,0,71.7,21,90,51.899C274.3,322,307.599,301,346,301h60C414.401,301,421,307.599,421,316z"/>
<path style="fill:#10BB67;" d="M421,316c0,57.9-47.1,105-105,105h-60v-68.101C274.3,322,307.599,301,346,301h60
	C414.401,301,421,307.599,421,316z"/>
<path style="fill:#FD4E26;" d="M256,0C115,0,0,114.699,0,256c0,140.7,115,256,256,256c141.301,0,256-115.6,256-256
	C512,115,396.7,0,256,0z M256,482C132.1,482.3,29.7,380.2,30,256c0-57.301,22.599-109.501,56.8-147.9L256,277.299L403.9,425.2
	C365.501,459.399,313.299,482,256,482z M425.2,403.9L108.1,86.8C146.499,52.599,198.701,30,256,30c124.2,0,226,101.8,226,226
	C482,313.599,459.401,365.499,425.2,403.9z"/>
<path style="fill:#FD3018;" d="M512,256c0,140.4-114.699,256-256,256v-30c57.299,0,109.501-22.601,147.9-56.8L256,277.299V234.7
	l169.2,169.2C459.4,365.499,482,313.6,482,256c0-124.2-101.8-226-226-226V0C396.7,0,512,115,512,256z"/>
<g>
</g>
<g>
</g>
<g>
</g>
<g>
</g>
<g>
</g>
<g>
</g>
<g>
</g>
<g>
</g>
<g>
</g>
<g>
</g>
<g>
</g>
<g>
</g>
<g>
</g>
<g>
</g>
<g>
</g>
</svg>
