<?xml version="1.0" encoding="iso-8859-1"?>
<!-- Generator: Adobe Illustrator 19.0.0, SVG Export Plug-In . SVG Version: 6.00 Build 0)  -->
<svg version="1.1" id="Capa_1" xmlns="http://www.w3.org/2000/svg" xmlns:xlink="http://www.w3.org/1999/xlink" x="0px" y="0px"
	 viewBox="0 0 512.001 512.001" style="enable-background:new 0 0 512.001 512.001;" xml:space="preserve">
<path style="fill:#664B34;" d="M267.245,351.679c-2.758,2.333-5.728,4.879-8.487,7.636l-34.58,34.58
	c-27.512,27.512-75.726,30.347-106.073,0c-29.064-29.064-29.064-76.584,0-106.073l42.429-42.429
	c0.212-0.212,0.212-0.212,0.212-0.212l74.251,11.032l8.062,12.728l19.093,29.701L267.245,351.679z"/>
<path style="fill:#59422D;" d="M267.245,351.679c-2.758,2.333-5.728,4.879-8.487,7.636l-34.58,34.58
	c-27.512,27.512-75.726,30.347-106.073,0l124.954-124.954l19.093,29.701L267.245,351.679z"/>
<path style="fill:#896748;" d="M340.011,299.278l-0.212,0.212l-0.637,0.212c-25.881,13.578-49.641,30.972-71.917,51.976
	L160.747,245.181c13.153-13.153,24.609-27.579,34.156-43.49l6.575-11.245c15.488-26.942,28.639-49.854,67.463-63.644
	c29.064-10.82,60.673-11.032,88.465-0.636c7.212,2.545,13.365,5.728,19.092,9.335c19.943,12.728,31.397,31.397,32.67,53.885
	C411.928,233.726,376.288,279.973,340.011,299.278z"/>
<path style="fill:#73553A;" d="M340.011,299.278l-0.212,0.212l-0.637,0.212c-25.881,13.578-49.641,30.972-71.917,51.976
	l-53.462-53.462l162.716-162.716c19.943,12.728,31.397,31.397,32.67,53.885C411.928,233.726,376.288,279.973,340.011,299.278z"/>
<path style="fill:#FD4E26;" d="M512,256c0-70.434-29.853-134.501-75.676-180.324S326.434,0,256,0C115.135,0,0,114.71,0,256
	c0.001,70.433,29.428,134.077,75.676,180.324S185.567,511.999,256,512C394.971,512,512,398.88,512,256z M256,481.875
	c-62.157,0.212-118.378-26.033-159.11-66.764s-66.977-96.952-66.764-159.11c-0.001-57.28,22.427-109.68,56.795-147.865
	l316.945,316.945C365.68,459.448,313.28,481.876,256,481.875z M108.135,86.921C146.322,52.552,198.721,30.125,256,30.126
	c62.159-0.214,118.378,26.033,159.11,66.764s66.978,96.95,66.764,159.11c0.212,57.491-22.425,109.679-56.795,147.865L108.135,86.921
	z"/>
<path style="fill:#FD3018;" d="M481.875,256c0.212,57.491-22.425,109.679-56.795,147.865L266.608,245.393l-21.214,21.214
	L403.866,425.08c-38.185,34.367-90.586,56.796-147.865,56.795c-62.157,0.212-118.378-26.033-159.11-66.764l-21.214,21.214
	c46.248,46.248,109.891,75.674,180.324,75.676c138.97,0,256-113.121,256-256c0-70.434-29.853-134.501-75.676-180.324l-21.214,21.214
	C455.841,137.623,482.088,193.842,481.875,256z"/>
<g>
</g>
<g>
</g>
<g>
</g>
<g>
</g>
<g>
</g>
<g>
</g>
<g>
</g>
<g>
</g>
<g>
</g>
<g>
</g>
<g>
</g>
<g>
</g>
<g>
</g>
<g>
</g>
<g>
</g>
</svg>
