<?xml version="1.0" encoding="iso-8859-1"?>
<!-- Generator: Adobe Illustrator 19.0.0, SVG Export Plug-In . SVG Version: 6.00 Build 0)  -->
<svg version="1.1" id="Capa_1" xmlns="http://www.w3.org/2000/svg" xmlns:xlink="http://www.w3.org/1999/xlink" x="0px" y="0px"
	 viewBox="0 0 512 512" style="enable-background:new 0 0 512 512;" xml:space="preserve">
<path style="fill:#3C3A41;" d="M376,361c-41.353,0-75-33.647-75-75s33.647-75,75-75s75,33.647,75,75S417.353,361,376,361z M376,241
	c-24.814,0-45,20.186-45,45s20.186,45,45,45s45-20.186,45-45S400.814,241,376,241z"/>
<g>
	<path style="fill:#57555C;" d="M136,361c-41.353,0-75-33.647-75-75s33.647-75,75-75s75,33.647,75,75S177.353,361,136,361z M136,241
		c-24.814,0-45,20.186-45,45s20.186,45,45,45s45-20.186,45-45S160.814,241,136,241z"/>
	<path style="fill:#57555C;" d="M331,286c0,8.399-6.599,15-15,15H196c-8.401,0-15-6.601-15-15c0-8.401,6.599-15,15-15h120
		C324.401,271,331,277.599,331,286z"/>
	<path style="fill:#57555C;" d="M380.799,300.099c-6.94,2.779-16.072-0.814-18.898-9.3L335.2,211H203.5l-54.901,83.399
		c-4.447,6.229-12.577,8.878-21,4.2c-6.899-4.799-8.699-14.099-4.199-21l57.599-86.4V136c0-8.401,6.599-15,15-15h30
		c8.401,0,15,6.599,15,15c0,8.399-6.599,15-15,15h-15v30h114.3l-13.801-41.1l-18.9,9.6c-7.5,3.6-16.199,0.599-20.099-6.901
		c-3.6-7.2-0.599-16.199,6.901-20.099l60-30c7.2-3.6,16.199-0.601,20.099,6.899c3.6,7.2,0.599,16.201-6.901,20.101l-14.098,6.9
		l51.599,154.799C392.8,288.999,388.599,297.7,380.799,300.099z"/>
</g>
<g>
	<path style="fill:#3C3A41;" d="M331,286c0,8.399-6.599,15-15,15h-60v-30h60C324.401,271,331,277.599,331,286z"/>
	<path style="fill:#3C3A41;" d="M380.799,300.099c-6.94,2.779-16.072-0.814-18.898-9.3L335.2,211H256v-30h69.3l-13.801-41.1
		l-18.9,9.6c-7.5,3.6-16.199,0.599-20.099-6.901c-3.6-7.2-0.599-16.199,6.901-20.099l60-30c7.2-3.6,16.199-0.601,20.099,6.899
		c3.6,7.2,0.599,16.201-6.901,20.101l-14.099,6.9l51.599,154.799C392.8,288.999,388.599,297.7,380.799,300.099z"/>
</g>
<path style="fill:#FD4E26;" d="M256,0C115,0,0,114.699,0,256c0,140.7,115,256,256,256c141.301,0,256-115.6,256-256
	C512,115,396.7,0,256,0z M256,482C132.1,482.3,29.7,380.2,30,256c0-57.301,22.599-109.501,56.8-147.9L256,277.299L403.9,425.2
	C365.501,459.399,313.299,482,256,482z M425.2,403.9L108.1,86.8C146.499,52.599,198.701,30,256,30c124.2,0,226,101.8,226,226
	C482,313.599,459.401,365.499,425.2,403.9z"/>
<path style="fill:#FD3018;" d="M512,256c0,140.4-114.699,256-256,256v-30c57.299,0,109.501-22.601,147.9-56.8L256,277.299V234.7
	l169.2,169.2C459.4,365.499,482,313.6,482,256c0-124.2-101.8-226-226-226V0C396.7,0,512,115,512,256z"/>
<g>
</g>
<g>
</g>
<g>
</g>
<g>
</g>
<g>
</g>
<g>
</g>
<g>
</g>
<g>
</g>
<g>
</g>
<g>
</g>
<g>
</g>
<g>
</g>
<g>
</g>
<g>
</g>
<g>
</g>
</svg>
