<?xml version="1.0" encoding="iso-8859-1"?>
<!-- Generator: Adobe Illustrator 19.0.0, SVG Export Plug-In . SVG Version: 6.00 Build 0)  -->
<svg version="1.1" id="Capa_1" xmlns="http://www.w3.org/2000/svg" xmlns:xlink="http://www.w3.org/1999/xlink" x="0px" y="0px"
	 viewBox="0 0 512.002 512.002" style="enable-background:new 0 0 512.002 512.002;" xml:space="preserve">
<g>
	<path style="fill:#664B34;" d="M320.916,346.374l6.788-77.22c1.91-22.275-6.151-43.914-21.85-59.613
		c-0.637-0.637-1.06-1.06-1.91-1.485c-15.275-14.851-36.276-21.851-57.492-20.154l-77.22,6.788
		c-34.792,2.97-61.734,27.791-67.462,61.946c-5.728,34.155,11.454,66.614,42.853,81.04l17.819,8.062
		c0.849,0.425,1.697,0.848,2.334,1.485c2.334,1.485,4.031,3.606,5.091,5.94l8.062,17.819c14.967,32.723,48.454,48.784,81.04,42.853
		C292.914,407.897,317.735,380.955,320.916,346.374z"/>
	<path style="fill:#664B34;" d="M139.317,160.531c-17.55-17.55-17.55-46.087,0-63.637c13.946-13.946,52.459-19.527,68.369-21.285
		c9.526-1.048,17.602,7.027,16.554,16.554c-1.758,15.909-7.339,54.423-21.256,68.369
		C185.404,178.082,156.882,178.096,139.317,160.531z"/>
</g>
<g>
	<path style="fill:#59422D;" d="M351.47,245.395c-17.618-17.619-17.547-46.105,0-63.651c13.946-13.932,52.459-19.513,68.368-21.271
		c9.94-0.909,17.573,7.285,16.554,16.554c-1.758,15.909-7.339,54.423-21.285,68.369C397.556,262.945,369.021,262.945,351.47,245.395
		z"/>
	<path style="fill:#59422D;" d="M351.47,372.684c-17.55-17.55-17.55-46.102,0-63.651c13.946-13.932,52.459-19.513,68.368-21.271
		c9.852-0.934,17.582,7.205,16.554,16.554c-1.758,15.909-7.339,54.423-21.285,68.369
		C397.556,390.234,369.021,390.234,351.47,372.684z"/>
</g>
<path style="fill:#664B34;" d="M266.607,160.531c-17.55-17.55-17.55-46.087,0-63.637c13.946-13.946,52.459-19.527,68.369-21.285
	c9.506-1.053,17.604,7.008,16.554,16.554c-1.758,15.909-7.339,54.423-21.285,68.369C312.712,178.093,284.225,178.15,266.607,160.531
	z"/>
<path style="fill:#59422D;" d="M258.97,413.836c-32.609,5.935-66.081-10.149-81.04-42.853l-8.062-17.819
	c-1.06-2.334-2.757-4.455-5.091-5.94l139.168-139.168c0.849,0.425,1.273,0.848,1.91,1.485c15.699,15.699,23.761,37.337,21.85,59.613
	l-6.788,77.22C317.735,380.955,292.914,407.897,258.97,413.836z"/>
<path style="fill:#FD4E26;" d="M512,256.001c0-70.434-29.641-134.289-75.676-180.324S326.434,0.001,256,0.001
	c-140.977,0-255.995,114.758-256,256c0.003,140.808,115.131,255.998,256,256C396.135,511.996,512,398.043,512,256.001z M256,481.876
	C132.099,482.299,29.701,380.204,30.126,256.001c0-57.309,22.336-109.401,56.795-147.865l316.945,316.945
	C365.375,459.563,313.315,481.876,256,481.876z M108.135,86.922C146.623,52.442,198.689,30.124,256,30.127
	c62.159-0.214,118.378,26.033,159.11,66.764s66.978,96.95,66.764,159.11c0.003,57.587-22.433,109.51-56.795,147.865L108.135,86.922z
	"/>
<path style="fill:#FD3018;" d="M481.874,256.001c0.003,57.587-22.433,109.51-56.795,147.865L266.608,245.393l-21.214,21.214
	L403.866,425.08c-38.49,34.481-90.551,56.795-147.865,56.795c-61.979,0.212-118.576-25.231-159.615-66.259l-21.198,21.198
	c46.39,46.392,110.384,75.185,180.814,75.187c140.135-0.005,256-113.958,256-256c0-70.434-29.641-134.289-75.676-180.324
	l-21.214,21.214C455.841,137.623,482.088,193.843,481.874,256.001z"/>
<g>
</g>
<g>
</g>
<g>
</g>
<g>
</g>
<g>
</g>
<g>
</g>
<g>
</g>
<g>
</g>
<g>
</g>
<g>
</g>
<g>
</g>
<g>
</g>
<g>
</g>
<g>
</g>
<g>
</g>
</svg>
