<?xml version="1.0" encoding="iso-8859-1"?>
<!-- Generator: Adobe Illustrator 19.0.0, SVG Export Plug-In . SVG Version: 6.00 Build 0)  -->
<svg version="1.1" id="Capa_1" xmlns="http://www.w3.org/2000/svg" xmlns:xlink="http://www.w3.org/1999/xlink" x="0px" y="0px"
	 viewBox="0 0 512 512" style="enable-background:new 0 0 512 512;" xml:space="preserve">
<path style="fill:#1689FC;" d="M335.501,175.6c-1.8,3.3-5.101,5.4-8.701,5.4H286v255c0,8.401-6.599,15-15,15h-30
	c-8.401,0-15-6.599-15-15V181h-41.7c-3.6,0-6.599-2.1-8.099-5.099c-1.8-3.001-1.201-6.601,0.899-9.6l66.899-89.399
	c3.001-3.9,7.5-5.7,12.001-5.7c4.501,0,9,1.8,12.001,5.7L334.6,165.7C336.7,168.701,337,172.599,335.501,175.6z"/>
<path style="fill:#136EF1;" d="M335.501,175.6c-1.8,3.3-5.101,5.4-8.701,5.4H286v255c0,8.401-6.599,15-15,15h-15V71.201
	c4.501,0,9,1.8,12.001,5.7L334.6,165.7C336.7,168.701,337,172.599,335.501,175.6z"/>
<path style="fill:#FD4E26;" d="M256,0C115,0,0,114.699,0,256c0,140.7,115,256,256,256c141.301,0,256-115.6,256-256
	C512,115,396.7,0,256,0z M256,482C132.1,482.3,29.7,380.2,30,256c0-57.301,22.599-109.501,56.8-147.9L256,277.299L403.9,425.2
	C365.501,459.399,313.299,482,256,482z M425.2,403.9L108.1,86.8C146.499,52.599,198.701,30,256,30c124.2,0,226,101.8,226,226
	C482,313.599,459.401,365.499,425.2,403.9z"/>
<path style="fill:#FD3018;" d="M512,256c0,140.4-114.699,256-256,256v-30c57.299,0,109.501-22.601,147.9-56.8L256,277.299V234.7
	l169.2,169.2C459.4,365.499,482,313.6,482,256c0-124.2-101.8-226-226-226V0C396.7,0,512,115,512,256z"/>
<g>
</g>
<g>
</g>
<g>
</g>
<g>
</g>
<g>
</g>
<g>
</g>
<g>
</g>
<g>
</g>
<g>
</g>
<g>
</g>
<g>
</g>
<g>
</g>
<g>
</g>
<g>
</g>
<g>
</g>
</svg>
