<?xml version="1.0" encoding="iso-8859-1"?>
<!-- Generator: Adobe Illustrator 19.0.0, SVG Export Plug-In . SVG Version: 6.00 Build 0)  -->
<svg version="1.1" id="Capa_1" xmlns="http://www.w3.org/2000/svg" xmlns:xlink="http://www.w3.org/1999/xlink" x="0px" y="0px"
	 viewBox="0 0 512 512" style="enable-background:new 0 0 512 512;" xml:space="preserve">
<path style="fill:#FEDBAB;" d="M256,451c-40.8,0-72.001-36-66.301-76.5l12.9-91.501c1.201-8.099,9.001-13.799,17.1-12.9H292.3
	c8.099-0.899,15.899,4.801,17.1,12.9l12.9,91.501C328.001,415,296.8,451,256,451z"/>
<path style="fill:#FEC478;" d="M256,451V270.099h36.301c8.099-0.899,15.899,4.801,17.1,12.9l12.9,91.501
	C328.001,415,296.8,451,256,451z"/>
<path style="fill:#FD3018;" d="M256,61C162.4,61,91,171.099,91,226c0,66,83.401,75,165,75s165-9,165-75C421,171.099,349.6,61,256,61
	z"/>
<path style="fill:#E61E14;" d="M421,226c0,66-83.401,75-165,75V61C349.6,61,421,171.099,421,226z"/>
<path style="fill:#FD4E26;" d="M256,0C115,0,0,114.699,0,256c0,140.7,115,256,256,256c141.301,0,256-115.6,256-256
	C512,115,396.7,0,256,0z M256,482C132.1,482.3,29.7,380.2,30,256c0-57.301,22.599-109.501,56.8-147.9L256,277.299L403.9,425.2
	C365.501,459.399,313.299,482,256,482z M425.2,403.9L108.1,86.8C146.499,52.599,198.701,30,256,30c124.2,0,226,101.8,226,226
	C482,313.599,459.401,365.499,425.2,403.9z"/>
<path style="fill:#FD3018;" d="M512,256c0,140.4-114.699,256-256,256v-30c57.299,0,109.501-22.601,147.9-56.8L256,277.299V234.7
	l169.2,169.2C459.4,365.499,482,313.6,482,256c0-124.2-101.8-226-226-226V0C396.7,0,512,115,512,256z"/>
<g>
</g>
<g>
</g>
<g>
</g>
<g>
</g>
<g>
</g>
<g>
</g>
<g>
</g>
<g>
</g>
<g>
</g>
<g>
</g>
<g>
</g>
<g>
</g>
<g>
</g>
<g>
</g>
<g>
</g>
</svg>
