<?xml version="1.0" encoding="iso-8859-1"?>
<!-- Generator: Adobe Illustrator 19.0.0, SVG Export Plug-In . SVG Version: 6.00 Build 0)  -->
<svg version="1.1" id="Capa_1" xmlns="http://www.w3.org/2000/svg" xmlns:xlink="http://www.w3.org/1999/xlink" x="0px" y="0px"
	 viewBox="0 0 512 512" style="enable-background:new 0 0 512 512;" xml:space="preserve">
<path style="fill:#FD3018;" d="M329.2,119.2c-34.799,0-59.101,16.5-73.2,30.3c-0.601,0.599-1.199,1.199-1.8,1.8
	c-13.801-14.101-38.699-32.1-75-32.1c-50.4,0-90,45-90,102.599c0,62.401,46.8,120.401,156.599,194.5
	c3.001,2.1,6.601,3.001,10.201,2.401c2.401,0,4.799-0.901,6.599-2.401C372.4,342.2,419.2,284.2,419.2,221.8
	C419.2,164.2,379.6,119.2,329.2,119.2z"/>
<path style="fill:#E61E14;" d="M419.2,221.8c0,62.401-46.8,120.401-156.601,194.5c-1.8,1.5-4.199,2.401-6.599,2.401V149.5
	c14.099-13.801,38.401-30.3,73.2-30.3C379.6,119.2,419.2,164.2,419.2,221.8z"/>
<path style="fill:#FD4E26;" d="M256,0C115,0,0,114.699,0,256c0,140.7,115,256,256,256c141.301,0,256-115.6,256-256
	C512,115,396.7,0,256,0z M256,482C132.1,482.3,29.7,380.2,30,256c0-57.301,22.599-109.501,56.8-147.9L256,277.299L403.9,425.2
	C365.501,459.399,313.299,482,256,482z M425.2,403.9L108.1,86.8C146.499,52.599,198.701,30,256,30c124.2,0,226,101.8,226,226
	C482,313.599,459.401,365.499,425.2,403.9z"/>
<path style="fill:#FD3018;" d="M512,256c0,140.4-114.699,256-256,256v-30c57.299,0,109.501-22.601,147.9-56.8L256,277.299V234.7
	l169.2,169.2C459.4,365.499,482,313.6,482,256c0-124.2-101.8-226-226-226V0C396.7,0,512,115,512,256z"/>
<g>
</g>
<g>
</g>
<g>
</g>
<g>
</g>
<g>
</g>
<g>
</g>
<g>
</g>
<g>
</g>
<g>
</g>
<g>
</g>
<g>
</g>
<g>
</g>
<g>
</g>
<g>
</g>
<g>
</g>
</svg>
