<?xml version="1.0" encoding="iso-8859-1"?>
<!-- Generator: Adobe Illustrator 19.0.0, SVG Export Plug-In . SVG Version: 6.00 Build 0)  -->
<svg version="1.1" id="Capa_1" xmlns="http://www.w3.org/2000/svg" xmlns:xlink="http://www.w3.org/1999/xlink" x="0px" y="0px"
	 viewBox="0 0 512 512" style="enable-background:new 0 0 512 512;" xml:space="preserve">
<g>
	<path style="fill:#10BB67;" d="M271,346v60c0,8.399-6.599,15-15,15s-15-6.601-15-15v-60c0-8.401,6.599-15,15-15
		S271,337.599,271,346z"/>
	<path style="fill:#10BB67;" d="M406,181c-39.3,0-77.401,14.099-107.401,39.899c-3.3,2.701-5.099,6.301-5.4,10.201
		c-2.401,33.9-15.601,66-37.2,92.401c-21.599-26.4-34.799-58.5-37.2-92.401c-0.3-3.9-2.1-7.5-5.099-10.201
		C183.401,194.799,146.201,181,106,181c-8.401,0-15,6.599-15,15c0,52.5,25.201,102.299,67.8,132.9c2.999,2.401,6.899,3.3,10.8,2.699
		C173.2,331.3,177.1,331,181,331c35.099,0,64.799,26.1,65.099,26.1c2.701,2.699,6.301,3.9,9.901,3.9s7.2-1.201,9.901-3.9
		c0.3-0.3,29.7-26.1,65.099-26.1c3.9,0,7.8,0.3,11.4,0.599c3.9,0.601,7.8-0.298,10.8-2.699C395.799,298.299,421,248.5,421,196
		C421,187.599,414.401,181,406,181z"/>
</g>
<g>
	<path style="fill:#0CA656;" d="M421,196c0,52.5-25.201,102.299-67.8,132.9c-2.999,2.401-6.899,3.3-10.8,2.699
		C338.8,331.3,334.9,331,331,331c-35.4,0-64.799,25.8-65.099,26.1C263.2,359.799,259.6,361,256,361v-37.5
		c21.599-26.4,34.799-58.5,37.2-92.401c0.3-3.9,2.1-7.5,5.4-10.201C328.599,195.099,366.7,181,406,181
		C414.401,181,421,187.599,421,196z"/>
	<path style="fill:#0CA656;" d="M271,346v60c0,8.399-6.599,15-15,15v-90C264.401,331,271,337.599,271,346z"/>
</g>
<g>
	<path style="fill:#32D736;" d="M415.901,357.1C414.401,358.6,377.5,391,331,391c-32.999,0-60.901-16.201-75-26.1
		c-14.099,9.899-42.001,26.1-75,26.1c-46.5,0-83.401-32.401-84.901-33.9c-6.899-6-6.599-16.201,0-22.2
		c1.201-1.201,30-26.7,69-32.701C170.2,301.3,175.901,301,181,301c32.999,0,60.901,16.199,75,26.1c14.099-9.901,42.001-26.1,75-26.1
		c5.099,0,10.8,0.3,15.601,0.899c39.3,6.301,68.099,31.8,69.3,33.001C422.5,340.899,422.8,351.099,415.901,357.1z"/>
	<path style="fill:#32D736;" d="M266.499,80.799C263.8,77.8,259.9,76.3,256,76.3s-7.8,1.5-10.499,4.499
		C205,121,184.6,176.8,188.8,233.5c3.3,45.899,23.399,89.7,56.7,122.699c2.7,3.001,6.6,4.501,10.5,4.501s7.8-1.5,10.499-4.501
		c33.301-32.999,53.401-76.8,56.7-122.999c0.3-4.801,0.601-9.901,0.601-14.7C323.8,166.599,303.401,117.7,266.499,80.799z"/>
</g>
<g>
	<path style="fill:#10BB67;" d="M323.8,218.5c0,4.799-0.3,9.899-0.601,14.7c-3.3,46.199-23.399,90-56.7,122.999
		C263.8,359.2,259.9,360.7,256,360.7V76.3c3.9,0,7.8,1.5,10.499,4.499C303.401,117.7,323.8,166.599,323.8,218.5z"/>
	<path style="fill:#10BB67;" d="M415.901,357.1C414.401,358.6,377.5,391,331,391c-32.999,0-60.901-16.201-75-26.1v-37.8
		c14.099-9.901,42.001-26.1,75-26.1c5.099,0,10.8,0.3,15.601,0.899c39.3,6.301,68.099,31.8,69.3,33.001
		C422.5,340.899,422.8,351.099,415.901,357.1z"/>
</g>
<path style="fill:#FD4E26;" d="M256,0C115,0,0,114.699,0,256c0,140.7,115,256,256,256c141.301,0,256-115.6,256-256
	C512,115,396.7,0,256,0z M256,482C132.1,482.3,29.7,380.2,30,256c0-57.301,22.599-109.501,56.8-147.9L256,277.299L403.9,425.2
	C365.501,459.399,313.299,482,256,482z M425.2,403.9L108.1,86.8C146.499,52.599,198.701,30,256,30c124.2,0,226,101.8,226,226
	C482,313.599,459.401,365.499,425.2,403.9z"/>
<path style="fill:#FD3018;" d="M512,256c0,140.4-114.699,256-256,256v-30c57.299,0,109.501-22.601,147.9-56.8L256,277.299V234.7
	l169.2,169.2C459.4,365.499,482,313.6,482,256c0-124.2-101.8-226-226-226V0C396.7,0,512,115,512,256z"/>
<g>
</g>
<g>
</g>
<g>
</g>
<g>
</g>
<g>
</g>
<g>
</g>
<g>
</g>
<g>
</g>
<g>
</g>
<g>
</g>
<g>
</g>
<g>
</g>
<g>
</g>
<g>
</g>
<g>
</g>
</svg>
