<?xml version="1.0" encoding="iso-8859-1"?>
<!-- Generator: Adobe Illustrator 19.0.0, SVG Export Plug-In . SVG Version: 6.00 Build 0)  -->
<svg version="1.1" id="Capa_1" xmlns="http://www.w3.org/2000/svg" xmlns:xlink="http://www.w3.org/1999/xlink" x="0px" y="0px"
	 viewBox="0 0 512 512" style="enable-background:new 0 0 512 512;" xml:space="preserve">
<path style="fill:#1689FC;" d="M301,256v79.2c-1.5,31.8-19.2,59.099-45,73.799C242.8,416.8,227.5,421,211,421
	c-49.501,0-90-40.501-90-90v-75l30-28.2h112.5L301,256z"/>
<path style="fill:#136EF1;" d="M301,256v79.2c-1.5,31.8-19.2,59.099-45,73.799V227.8h7.5L301,256z"/>
<path style="fill:#FD3018;" d="M301,181v75H121v-75c0-49.501,40.499-90,90-90c16.199,0,31.8,4.499,45,11.999
	C282.7,118.599,301,147.7,301,181z"/>
<path style="fill:#E61E14;" d="M301,181v75h-45V102.999C282.7,118.599,301,147.7,301,181z"/>
<path style="fill:#FCBF29;" d="M331,241c-31.199,0-58.801,16.199-75,40.199C246.7,295.6,241,312.7,241,331s5.7,35.4,15,49.799
	c16.199,24,43.801,40.201,75,40.201c49.501,0,90-40.501,90-90C421,281.499,380.501,241,331,241z"/>
<path style="fill:#FE9923;" d="M421,331c0,49.499-40.499,90-90,90c-31.199,0-58.801-16.201-75-40.201v-99.6
	c16.199-24,43.801-40.199,75-40.199C380.501,241,421,281.499,421,331z"/>
<path style="fill:#FD4E26;" d="M256,0C115,0,0,114.699,0,256c0,140.7,115,256,256,256c141.301,0,256-115.6,256-256
	C512,115,396.7,0,256,0z M256,482C132.1,482.3,29.7,380.2,30,256c0-57.301,22.599-109.501,56.8-147.9L256,277.299L403.9,425.2
	C365.501,459.399,313.299,482,256,482z M425.2,403.9L108.1,86.8C146.499,52.599,198.701,30,256,30c124.2,0,226,101.8,226,226
	C482,313.599,459.401,365.499,425.2,403.9z"/>
<path style="fill:#FD3018;" d="M512,256c0,140.4-114.699,256-256,256v-30c57.299,0,109.501-22.601,147.9-56.8L256,277.299V234.7
	l169.2,169.2C459.4,365.499,482,313.6,482,256c0-124.2-101.8-226-226-226V0C396.7,0,512,115,512,256z"/>
<g>
</g>
<g>
</g>
<g>
</g>
<g>
</g>
<g>
</g>
<g>
</g>
<g>
</g>
<g>
</g>
<g>
</g>
<g>
</g>
<g>
</g>
<g>
</g>
<g>
</g>
<g>
</g>
<g>
</g>
</svg>
