<?xml version="1.0" encoding="iso-8859-1"?>
<!-- Generator: Adobe Illustrator 19.0.0, SVG Export Plug-In . SVG Version: 6.00 Build 0)  -->
<svg version="1.1" id="Capa_1" xmlns="http://www.w3.org/2000/svg" xmlns:xlink="http://www.w3.org/1999/xlink" x="0px" y="0px"
	 viewBox="0 0 512 512" style="enable-background:new 0 0 512 512;" xml:space="preserve">
<path style="fill:#57555C;" d="M376,226H136l8.699-38.701C148.299,158.5,173.8,136,204.101,136H307.9c30.3,0,55.801,22.5,59.7,52.5
	L376,226z"/>
<path style="fill:#3C3A41;" d="M376,226H256v-90h51.899c30.3,0,55.801,22.5,59.7,52.5L376,226z"/>
<path style="fill:#57555C;" d="M166,421c-24.814,0-45-20.186-45-45v-30c0-8.291,6.709-15,15-15h60c8.291,0,15,6.709,15,15v30
	C211,400.814,190.814,421,166,421z"/>
<path style="fill:#3C3A41;" d="M346,421c-24.814,0-45-20.186-45-45v-30c0-8.291,6.709-15,15-15h60c8.291,0,15,6.709,15,15v30
	C391,400.814,370.814,421,346,421z"/>
<path style="fill:#FEA832;" d="M382.301,185.799C377.199,148.9,345.399,121,307.899,121H204.101c-37.8,0-69.901,28.2-74.401,64.2
	l-8.399,37.5c-0.901,4.499,0,9,2.999,12.599c2.701,3.6,7.2,5.7,11.7,5.7h240c4.501,0,9-2.1,11.7-5.7
	c2.999-3.6,3.9-8.101,2.999-12.599L382.301,185.799z M154.6,211l4.801-20.7c2.699-22.5,21.899-39.3,44.7-39.3H307.9
	c22.8,0,42.001,16.8,44.7,39.3c0,0.599,0.3,1.199,0.3,1.5l4.5,19.2H154.6z"/>
<path style="fill:#FEDB41;" d="M421,256c0-24.901-20.099-45-45-45H136c-24.901,0-45,20.099-45,45v15l21.301,15L91,301v15
	c0,24.899,20.099,45,45,45h240c24.901,0,45-20.101,45-45v-15l-17.401-13.801L421,271V256z"/>
<path style="fill:#FE9923;" d="M390.7,222.7c0.901,4.499,0,9-2.999,12.599c-2.701,3.6-7.2,5.7-11.7,5.7H256v-30h101.4l-4.501-19.2
	c0-0.3-0.3-0.901-0.3-1.5c-2.699-22.5-21.899-39.3-44.7-39.3H256v-30h51.899c37.5,0,69.3,27.9,74.401,64.799L390.7,222.7z"/>
<path style="fill:#FCBF29;" d="M421,271l-17.401,16.199L421,301v15c0,24.899-20.099,45-45,45H256V211h120c24.901,0,45,20.099,45,45
	V271z"/>
<path style="fill:#FD4E26;" d="M256,0C115,0,0,114.699,0,256c0,140.7,115,256,256,256c141.301,0,256-115.6,256-256
	C512,115,396.7,0,256,0z M256,482C132.1,482.3,29.7,380.2,30,256c0-57.301,22.599-109.501,56.8-147.9L256,277.299L403.9,425.2
	C365.501,459.399,313.299,482,256,482z M425.2,403.9L108.1,86.8C146.499,52.599,198.701,30,256,30c124.2,0,226,101.8,226,226
	C482,313.599,459.401,365.499,425.2,403.9z"/>
<path style="fill:#FD3018;" d="M512,256c0,140.4-114.699,256-256,256v-30c57.299,0,109.501-22.601,147.9-56.8L256,277.299V234.7
	l169.2,169.2C459.4,365.499,482,313.6,482,256c0-124.2-101.8-226-226-226V0C396.7,0,512,115,512,256z"/>
<path style="fill:#994C0F;" d="M181,286c0,8.399-6.599,15-15,15H91v-30h75C174.401,271,181,277.599,181,286z"/>
<path style="fill:#713708;" d="M421,271v30h-75c-8.401,0-15-6.601-15-15c0-8.401,6.599-15,15-15H421z"/>
<g>
</g>
<g>
</g>
<g>
</g>
<g>
</g>
<g>
</g>
<g>
</g>
<g>
</g>
<g>
</g>
<g>
</g>
<g>
</g>
<g>
</g>
<g>
</g>
<g>
</g>
<g>
</g>
<g>
</g>
</svg>
