<?xml version="1.0" encoding="iso-8859-1"?>
<!-- Generator: Adobe Illustrator 19.0.0, SVG Export Plug-In . SVG Version: 6.00 Build 0)  -->
<svg version="1.1" id="Capa_1" xmlns="http://www.w3.org/2000/svg" xmlns:xlink="http://www.w3.org/1999/xlink" x="0px" y="0px"
	 viewBox="0 0 512 512" style="enable-background:new 0 0 512 512;" xml:space="preserve">
<g>
	<path style="fill:#57555C;" d="M331,181c-8.401,0-15,6.599-15,15v120c0,8.399,6.599,15,15,15c41.4,0,75-33.6,75-75
		S372.4,181,331,181z"/>
	<path style="fill:#57555C;" d="M211,181h-60c-24.901,0-45,20.099-45,45v60c0,24.899,20.099,45,45,45h60c8.401,0,15-6.601,15-15V196
		C226,187.599,219.401,181,211,181z"/>
</g>
<path style="fill:#896748;" d="M322,93.999L205.901,181v150L322,417.999c9.6,7.5,24,0.3,24-11.999V106
	C346,94.3,332.5,86.201,322,93.999z"/>
<g>
	<path style="fill:#3C3A41;" d="M106,256h120v60c0,8.399-6.599,15-15,15h-60c-24.901,0-45-20.101-45-45V256z"/>
	<path style="fill:#3C3A41;" d="M406,256c0,41.4-33.6,75-75,75c-8.401,0-15-6.601-15-15v-60H406z"/>
</g>
<path style="fill:#73553A;" d="M346,256v150c0,12.299-14.399,19.499-24,11.999L205.901,331v-75H346z"/>
<path style="fill:#FD4E26;" d="M256,0C115,0,0,114.699,0,256c0,141,115,256,256,256s256-114.701,256-256C512,115,397,0,256,0z
	 M256,482C133.001,482.3,29.7,381.099,30,256c0-54.901,20.799-107.1,56.8-148.2l317.4,317.4C363.1,461.199,310.901,482,256,482z
	 M425.2,404.2L107.8,86.8C148.9,50.8,201.1,30,256,30c122.999-0.3,226.3,100.899,226,226C482,310.899,461.201,363.1,425.2,404.2z"/>
<path style="fill:#FD3018;" d="M512,256c0,141.299-115,256-256,256S0,397,0,256h30c-0.3,125.099,103.001,226.3,226,226
	c54.901,0,107.1-20.801,148.2-56.8L235,256h42l148.2,148.2c36-41.1,56.8-93.301,56.8-148.2H512z"/>
<g>
</g>
<g>
</g>
<g>
</g>
<g>
</g>
<g>
</g>
<g>
</g>
<g>
</g>
<g>
</g>
<g>
</g>
<g>
</g>
<g>
</g>
<g>
</g>
<g>
</g>
<g>
</g>
<g>
</g>
</svg>
