<?xml version="1.0" encoding="iso-8859-1"?>
<!-- Generator: Adobe Illustrator 19.0.0, SVG Export Plug-In . SVG Version: 6.00 Build 0)  -->
<svg version="1.1" id="Capa_1" xmlns="http://www.w3.org/2000/svg" xmlns:xlink="http://www.w3.org/1999/xlink" x="0px" y="0px"
	 viewBox="0 0 512 512" style="enable-background:new 0 0 512 512;" xml:space="preserve">
<path style="fill:#896748;" d="M286,151H136c-24.901,0-45,20.099-45,45v120c0,24.901,20.099,45,45,45h150c24.901,0,45-20.099,45-45
	V196C331,171.099,310.901,151,286,151z"/>
<path style="fill:#3C3A41;" d="M406,361c-2.3,0-4.585-0.527-6.709-1.582l-90-45C304.208,311.869,301,306.684,301,301v-90
	c0-5.684,3.208-10.869,8.291-13.418l90-45c4.629-2.329,10.166-2.095,14.59,0.659C418.305,155.98,421,160.8,421,166v180
	c0,5.2-2.695,10.02-7.119,12.759C411.479,360.253,408.739,361,406,361z"/>
<path style="fill:#73553A;" d="M331,196v120c0,24.901-20.099,45-45,45h-30V151h30C310.901,151,331,171.099,331,196z"/>
<path style="fill:#FD4E26;" d="M256,0C115,0,0,114.699,0,256c0,140.7,115,256,256,256c141.301,0,256-115.6,256-256
	C512,115,396.7,0,256,0z M256,482C132.1,482.3,29.7,380.2,30,256c0-57.301,22.599-109.501,56.8-147.9L256,277.299L403.9,425.2
	C365.501,459.399,313.299,482,256,482z M425.2,403.9L108.1,86.8C146.499,52.599,198.701,30,256,30c124.2,0,226,101.8,226,226
	C482,313.599,459.401,365.499,425.2,403.9z"/>
<path style="fill:#FD3018;" d="M512,256c0,140.4-114.699,256-256,256v-30c57.299,0,109.501-22.601,147.9-56.8L256,277.299V234.7
	l169.2,169.2C459.4,365.499,482,313.6,482,256c0-124.2-101.8-226-226-226V0C396.7,0,512,115,512,256z"/>
<g>
</g>
<g>
</g>
<g>
</g>
<g>
</g>
<g>
</g>
<g>
</g>
<g>
</g>
<g>
</g>
<g>
</g>
<g>
</g>
<g>
</g>
<g>
</g>
<g>
</g>
<g>
</g>
<g>
</g>
</svg>
