<?xml version="1.0" encoding="iso-8859-1"?>
<!-- Generator: Adobe Illustrator 19.0.0, SVG Export Plug-In . SVG Version: 6.00 Build 0)  -->
<svg version="1.1" id="Capa_1" xmlns="http://www.w3.org/2000/svg" xmlns:xlink="http://www.w3.org/1999/xlink" x="0px" y="0px"
	 viewBox="0 0 512 512" style="enable-background:new 0 0 512 512;" xml:space="preserve">
<path style="fill:#73553A;" d="M410.2,215.2c6.9-9.9,10.8-21.601,10.8-34.2c0-33.001-27.001-60-60-60c-24,0-44.7,14.099-54.3,34.499
	C291.7,142.9,274.6,133.6,256,128.2c-20.4-6.899-42.299-8.699-64.501-6C100.6,134.2,56.201,214.9,60.7,284.799
	C64.9,348.399,107.199,391,166,391h120c8.401,0,15-6.601,15-15c0-8.401-6.599-15-15-15H166c-28.801,0-48.3-12.601-60-30h330
	c8.401,0,15-6.601,15-15C451,275.2,436.601,240.099,410.2,215.2z"/>
<path style="fill:#59422D;" d="M451,316c0,8.399-6.599,15-15,15H256V128.2c18.6,5.4,35.7,14.7,50.7,27.299
	C316.3,135.099,337,121,361,121c32.999,0,60,26.999,60,60c0,12.599-3.9,24.3-10.8,34.2C436.601,240.099,451,275.2,451,316z"/>
<path style="fill:#FD4E26;" d="M256,0C115,0,0,114.699,0,256c0,140.7,115,256,256,256c141.301,0,256-115.6,256-256
	C512,115,396.7,0,256,0z M256,482C132.1,482.3,29.7,380.2,30,256c0-57.301,22.599-109.501,56.8-147.9L256,277.299L403.9,425.2
	C365.501,459.399,313.299,482,256,482z M425.2,403.9L108.1,86.8C146.499,52.599,198.701,30,256,30c124.2,0,226,101.8,226,226
	C482,313.599,459.401,365.499,425.2,403.9z"/>
<path style="fill:#FD3018;" d="M512,256c0,140.4-114.699,256-256,256v-30c57.299,0,109.501-22.601,147.9-56.8L256,277.299V234.7
	l169.2,169.2C459.4,365.499,482,313.6,482,256c0-124.2-101.8-226-226-226V0C396.7,0,512,115,512,256z"/>
<circle style="fill:#B7E0F6;" cx="361" cy="265" r="15"/>
<path style="fill:#73553A;" d="M301,376c0,8.399-6.599,15-15,15h-30v-30h30C294.401,361,301,367.599,301,376z"/>
<g>
</g>
<g>
</g>
<g>
</g>
<g>
</g>
<g>
</g>
<g>
</g>
<g>
</g>
<g>
</g>
<g>
</g>
<g>
</g>
<g>
</g>
<g>
</g>
<g>
</g>
<g>
</g>
<g>
</g>
</svg>
