<?xml version="1.0" encoding="iso-8859-1"?>
<!-- Generator: Adobe Illustrator 19.0.0, SVG Export Plug-In . SVG Version: 6.00 Build 0)  -->
<svg version="1.1" id="Capa_1" xmlns="http://www.w3.org/2000/svg" xmlns:xlink="http://www.w3.org/1999/xlink" x="0px" y="0px"
	 viewBox="0 0 512 512" style="enable-background:new 0 0 512 512;" xml:space="preserve">
<g>
	<path style="fill:#3C3A41;" d="M271,256v30c0,13.2-5.7,25.199-15,33.3c-7.8,7.2-18.3,11.7-30,11.7h-30c-8.401,0-15-6.601-15-15
		c0-8.401,6.599-15,15-15h30c8.401,0,15-6.601,15-15v-30c0-8.401,6.599-15,15-15S271,247.599,271,256z"/>
	<path style="fill:#3C3A41;" d="M169.281,391h-44.063c-19.566,0-33.861-18.383-29.106-37.28l25.342-101.353
		C123.124,245.688,129.115,241,136,241h75c4.614,0,8.979,2.124,11.821,5.771c2.842,3.633,3.853,8.379,2.725,12.861l-27.158,108.633
		C195.048,381.654,183.08,391,169.281,391z"/>
</g>
<path style="fill:#664B34;" d="M406,151H136c-24.901,0-45,20.099-45,45v30c0,24.899,20.099,45,45,45h210c8.401,0,15-6.601,15-15v-15
	h45c8.401,0,15-6.601,15-15v-60C421,157.599,414.401,151,406,151z"/>
<g>
	<path style="fill:#2B292C;" d="M346,181c-8.291,0-15-6.709-15-15v-30c0-8.291,6.709-15,15-15s15,6.709,15,15v30
		C361,174.291,354.291,181,346,181z"/>
	<path style="fill:#2B292C;" d="M271,256v30c0,13.2-5.7,25.199-15,33.3V241C264.401,241,271,247.599,271,256z"/>
</g>
<path style="fill:#59422D;" d="M421,166v60c0,8.399-6.599,15-15,15h-45v15c0,8.399-6.599,15-15,15h-90V151h150
	C414.401,151,421,157.599,421,166z"/>
<path style="fill:#FD4E26;" d="M256,0C115,0,0,114.699,0,256c0,140.7,115,256,256,256c141.301,0,256-115.6,256-256
	C512,115,396.7,0,256,0z M256,482C132.1,482.3,29.7,380.2,30,256c0-57.301,22.599-109.501,56.8-147.9L256,277.299L403.9,425.2
	C365.501,459.399,313.299,482,256,482z M425.2,403.9L108.1,86.8C146.499,52.599,198.701,30,256,30c124.2,0,226,101.8,226,226
	C482,313.599,459.401,365.499,425.2,403.9z"/>
<path style="fill:#FD3018;" d="M512,256c0,140.4-114.699,256-256,256v-30c57.299,0,109.501-22.601,147.9-56.8L256,277.299V234.7
	l169.2,169.2C459.4,365.499,482,313.6,482,256c0-124.2-101.8-226-226-226V0C396.7,0,512,115,512,256z"/>
<g>
</g>
<g>
</g>
<g>
</g>
<g>
</g>
<g>
</g>
<g>
</g>
<g>
</g>
<g>
</g>
<g>
</g>
<g>
</g>
<g>
</g>
<g>
</g>
<g>
</g>
<g>
</g>
<g>
</g>
</svg>
