<?xml version="1.0" encoding="iso-8859-1"?>
<!-- Generator: Adobe Illustrator 19.0.0, SVG Export Plug-In . SVG Version: 6.00 Build 0)  -->
<svg version="1.1" id="Capa_1" xmlns="http://www.w3.org/2000/svg" xmlns:xlink="http://www.w3.org/1999/xlink" x="0px" y="0px"
	 viewBox="0 0 512 512" style="enable-background:new 0 0 512 512;" xml:space="preserve">
<path style="fill:#57555C;" d="M331,361c-8.401,0-16.8-1.201-24.901-3.3c5.7,16.199,12.601,25.499,22.5,39.899
	C335.2,407.8,328.001,421,316,421H196c-12.001,0-19.2-13.2-12.599-23.401c9.899-14.399,16.8-23.699,22.5-39.899
	c-8.101,2.098-16.5,3.3-24.901,3.3c-49.501,0-90-40.501-90-90c0-21.901,8.101-43.2,22.5-59.401l132.001-146.1
	C248.2,62.8,251.8,61,256,61c4.2,0,7.8,1.8,10.499,4.499l129.3,143.101C412,225.399,421,247.599,421,271
	C421,320.499,380.501,361,331,361z"/>
<path style="fill:#3C3A41;" d="M331,361c-8.401,0-16.8-1.201-24.901-3.3c5.7,16.199,12.601,25.499,22.5,39.899
	C335.2,407.8,328.001,421,316,421h-60V61c4.2,0,7.8,1.8,10.499,4.499l129.3,143.101C412,225.399,421,247.599,421,271
	C421,320.499,380.501,361,331,361z"/>
<path style="fill:#FD4E26;" d="M256,0C115,0,0,114.699,0,256c0,140.7,115,256,256,256c141.301,0,256-115.6,256-256
	C512,115,396.7,0,256,0z M256,482C132.1,482.3,29.7,380.2,30,256c0-57.301,22.599-109.501,56.8-147.9L256,277.299L403.9,425.2
	C365.501,459.399,313.299,482,256,482z M425.2,403.9L108.1,86.8C146.499,52.599,198.701,30,256,30c124.2,0,226,101.8,226,226
	C482,313.599,459.401,365.499,425.2,403.9z"/>
<path style="fill:#FD3018;" d="M512,256c0,140.4-114.699,256-256,256v-30c57.299,0,109.501-22.601,147.9-56.8L256,277.299V234.7
	l169.2,169.2C459.4,365.499,482,313.6,482,256c0-124.2-101.8-226-226-226V0C396.7,0,512,115,512,256z"/>
<g>
</g>
<g>
</g>
<g>
</g>
<g>
</g>
<g>
</g>
<g>
</g>
<g>
</g>
<g>
</g>
<g>
</g>
<g>
</g>
<g>
</g>
<g>
</g>
<g>
</g>
<g>
</g>
<g>
</g>
</svg>
