<?xml version="1.0" encoding="iso-8859-1"?>
<!-- Generator: Adobe Illustrator 19.0.0, SVG Export Plug-In . SVG Version: 6.00 Build 0)  -->
<svg version="1.1" id="Capa_1" xmlns="http://www.w3.org/2000/svg" xmlns:xlink="http://www.w3.org/1999/xlink" x="0px" y="0px"
	 viewBox="0 0 512 512" style="enable-background:new 0 0 512 512;" xml:space="preserve">
<rect x="166" y="166" style="fill:#CAE8F9;" width="180" height="178.2"/>
<path style="fill:#3C3A41;" d="M333.701,151H175.3L151,181v148.2l18.9,30h172.2l18.9-30V181L333.701,151z M331,329.2H181V181h150
	V329.2z"/>
<rect x="256" y="166" style="fill:#B7E0F6;" width="90" height="178.2"/>
<polygon style="fill:#2B292C;" points="361,181 361,329.2 342.1,359.2 256,359.2 256,329.2 331,329.2 331,181 256,181 256,151 
	333.701,151 "/>
<g>
	<path style="fill:#57555C;" d="M316,91H196c-24.901,0-45,20.099-45,45v45h210v-45C361,111.099,340.901,91,316,91z"/>
	<path style="fill:#57555C;" d="M151,329.2V376c0,24.899,20.099,45,45,45h120c24.901,0,45-20.101,45-45v-46.8H151z"/>
</g>
<g>
	<path style="fill:#3C3A41;" d="M361,136v45H256V91h60C340.901,91,361,111.099,361,136z"/>
	<path style="fill:#3C3A41;" d="M256,329.2h105V376c0,24.899-20.099,45-45,45h-60V329.2z"/>
</g>
<path style="fill:#FD4E26;" d="M256,0C115,0,0,114.699,0,256c0,140.7,115,256,256,256c141.301,0,256-115.6,256-256
	C512,115,396.7,0,256,0z M256,482C132.1,482.3,29.7,380.2,30,256c0-57.301,22.599-109.501,56.8-147.9L256,277.299L403.9,425.2
	C365.501,459.399,313.299,482,256,482z M425.2,403.9L108.1,86.8C146.499,52.599,198.701,30,256,30c124.2,0,226,101.8,226,226
	C482,313.599,459.401,365.499,425.2,403.9z"/>
<path style="fill:#FD3018;" d="M512,256c0,140.4-114.699,256-256,256v-30c57.299,0,109.501-22.601,147.9-56.8L256,277.299V234.7
	l169.2,169.2C459.4,365.499,482,313.6,482,256c0-124.2-101.8-226-226-226V0C396.7,0,512,115,512,256z"/>
<g>
</g>
<g>
</g>
<g>
</g>
<g>
</g>
<g>
</g>
<g>
</g>
<g>
</g>
<g>
</g>
<g>
</g>
<g>
</g>
<g>
</g>
<g>
</g>
<g>
</g>
<g>
</g>
<g>
</g>
</svg>
