<?xml version="1.0" encoding="iso-8859-1"?>
<!-- Generator: Adobe Illustrator 19.0.0, SVG Export Plug-In . SVG Version: 6.00 Build 0)  -->
<svg version="1.1" id="Capa_1" xmlns="http://www.w3.org/2000/svg" xmlns:xlink="http://www.w3.org/1999/xlink" x="0px" y="0px"
	 viewBox="0 0 512 512" style="enable-background:new 0 0 512 512;" xml:space="preserve">
<path style="fill:#FCBF29;" d="M358.299,245.499c-2.699-4.199-7.5-6.899-12.599-6.899H166.3c-5.099,0-9.901,2.701-12.599,6.899
	C151,250,150.7,255.399,152.8,260.2l89.7,182.399C245.2,447.7,250.3,451,256,451c5.7,0,10.8-3.3,13.5-8.401L359.2,260.2
	C361.3,255.399,361,250,358.299,245.499z"/>
<path style="fill:#FE9923;" d="M359.2,260.2l-89.7,182.399C266.8,447.7,261.7,451,256,451V238.599h89.7
	c5.099,0,9.901,2.701,12.599,6.899C361,250,361.3,255.399,359.2,260.2z"/>
<path style="fill:#1DE8F1;" d="M373.299,168.699c-3.898-3.9-8.099-7.2-12.599-9.899c-1.8-24.6-11.7-47.701-29.099-65.7
	C311.499,72.4,283.9,61.901,256,61.901S200.501,72.4,180.399,92.8C163,111.1,152.8,134.2,151.3,158.8
	c-4.801,2.699-9,5.999-12.599,9.899C127.301,179.799,121,195.099,121,211c0,15.899,6.301,31.199,17.701,42.299
	C149.801,264.699,165.099,271,181,271h150c15.901,0,31.199-6.301,42.299-17.701c11.4-11.1,17.701-26.4,17.701-42.299
	C391,195.099,384.699,179.799,373.299,168.699z"/>
<path style="fill:#1BD9DE;" d="M391,211c0,15.899-6.301,31.199-17.701,42.299C362.199,264.699,346.901,271,331,271h-75V61.901
	c27.9,0,55.499,10.499,75.601,31.199C349,111.099,358.9,134.2,360.7,158.8c4.501,2.699,8.701,5.999,12.599,9.899
	C384.699,179.799,391,195.099,391,211z"/>
<path style="fill:#FD4E26;" d="M256,0C115,0,0,114.699,0,256c0,140.7,115,256,256,256c141.301,0,256-115.6,256-256
	C512,115,396.7,0,256,0z M256,482C132.1,482.3,29.7,380.2,30,256c0-57.301,22.599-109.501,56.8-147.9L256,277.299L403.9,425.2
	C365.501,459.399,313.299,482,256,482z M425.2,403.9L108.1,86.8C146.499,52.599,198.701,30,256,30c124.2,0,226,101.8,226,226
	C482,313.599,459.401,365.499,425.2,403.9z"/>
<path style="fill:#FD3018;" d="M512,256c0,140.4-114.699,256-256,256v-30c57.299,0,109.501-22.601,147.9-56.8L256,277.299V234.7
	l169.2,169.2C459.4,365.499,482,313.6,482,256c0-124.2-101.8-226-226-226V0C396.7,0,512,115,512,256z"/>
<g>
</g>
<g>
</g>
<g>
</g>
<g>
</g>
<g>
</g>
<g>
</g>
<g>
</g>
<g>
</g>
<g>
</g>
<g>
</g>
<g>
</g>
<g>
</g>
<g>
</g>
<g>
</g>
<g>
</g>
</svg>
