<?xml version="1.0" encoding="iso-8859-1"?>
<!-- Generator: Adobe Illustrator 19.0.0, SVG Export Plug-In . SVG Version: 6.00 Build 0)  -->
<svg version="1.1" id="Capa_1" xmlns="http://www.w3.org/2000/svg" xmlns:xlink="http://www.w3.org/1999/xlink" x="0px" y="0px"
	 viewBox="0 0 512 512" style="enable-background:new 0 0 512 512;" xml:space="preserve">
<path style="fill:#994C0F;" d="M322.899,121.3C312.4,103.001,292.599,91,271,91c-5.099,0-10.201,0.601-15,2.1
	c-25.8,6.599-45,30-45,57.9s19.2,51.301,45,57.9c4.799,1.5,9.901,2.1,15,2.1h75c24.901,0,45,20.099,45,45c0,8.401,6.599,15,15,15
	s15-6.599,15-15v-30C421,171.099,378.999,126.099,322.899,121.3z"/>
<path style="fill:#713708;" d="M421,226v30c0,8.401-6.599,15-15,15s-15-6.599-15-15c0-24.901-20.099-45-45-45h-75
	c-5.099,0-10.201-0.601-15-2.1V93.1c4.799-1.5,9.901-2.1,15-2.1c21.599,0,41.4,12.001,51.899,30.3
	C378.999,126.099,421,171.099,421,226z"/>
<path style="fill:#FD003A;" d="M436,241h-45l-30,15.601V302.5l30,28.5h45c8.401,0,15-6.599,15-15v-60
	C451,247.599,444.401,241,436,241z"/>
<path style="fill:#FE9923;" d="M181,241h-75c-24.901,0-45,20.099-45,45s20.099,45,45,45h75l30-22.5v-42.299L181,241z"/>
<path style="fill:#CAE8F9;" d="M181,241v90h210v-90H181z"/>
<rect x="256" y="241" style="fill:#B7E0F6;" width="135" height="90"/>
<path style="fill:#FD4E26;" d="M256,0C115,0,0,114.699,0,256c0,140.7,115,256,256,256c141.301,0,256-115.6,256-256
	C512,115,396.7,0,256,0z M256,482C132.1,482.3,29.7,380.2,30,256c0-57.301,22.599-109.501,56.8-147.9L256,277.299L403.9,425.2
	C365.501,459.399,313.299,482,256,482z M425.2,403.9L108.1,86.8C146.499,52.599,198.701,30,256,30c124.2,0,226,101.8,226,226
	C482,313.599,459.401,365.499,425.2,403.9z"/>
<path style="fill:#FD3018;" d="M512,256c0,140.4-114.699,256-256,256v-30c57.299,0,109.501-22.601,147.9-56.8L256,277.299V234.7
	l169.2,169.2C459.4,365.499,482,313.6,482,256c0-124.2-101.8-226-226-226V0C396.7,0,512,115,512,256z"/>
<g>
</g>
<g>
</g>
<g>
</g>
<g>
</g>
<g>
</g>
<g>
</g>
<g>
</g>
<g>
</g>
<g>
</g>
<g>
</g>
<g>
</g>
<g>
</g>
<g>
</g>
<g>
</g>
<g>
</g>
</svg>
