<?xml version="1.0" encoding="iso-8859-1"?>
<!-- Generator: Adobe Illustrator 19.0.0, SVG Export Plug-In . SVG Version: 6.00 Build 0)  -->
<svg version="1.1" id="Capa_1" xmlns="http://www.w3.org/2000/svg" xmlns:xlink="http://www.w3.org/1999/xlink" x="0px" y="0px"
	 viewBox="0 0 512 512" style="enable-background:new 0 0 512 512;" xml:space="preserve">
<circle style="fill:#136EF1;" cx="376.66" cy="228" r="45"/>
<path style="fill:#1689FC;" d="M392.273,338.044c6.357-11.416,4.687-26.102-5.011-35.799l-99.853-99.853l-25.864-25.864
	l73.117-43.866c14.211-8.535,18.821-26.962,10.296-41.163c-8.442-14.18-26.952-18.81-41.163-10.296l-89.617,53.779
	c-11.964,7.178-19.784,19.245-21.483,33.083c-1.709,13.849,2.983,27.449,12.844,37.31l39.443,39.443l-123.09,123.09L392.273,338.044
	z"/>
<path style="fill:#136EF1;" d="M287.41,202.39l-25.865-25.864l73.118-43.867c14.209-8.535,18.823-26.96,10.298-41.162
	c-8.445-14.18-26.953-18.81-41.162-10.296L256,109.885v243.21l136.274-15.051c6.357-11.417,4.688-26.102-5.01-35.801L287.41,202.39z
	"/>
<path style="fill:#1DE8F1;" d="M482.601,337.299C449.299,430,360.399,496.7,256,497c-106.8,0-198.401-71.201-229.6-167.8
	C77.1,298.9,136,331,136,331s27.001,15,60,15s60-15,60-15s27.001-15,60-15s60,15,60,15s27.001,15,60,15
	C454.3,346,471.501,341.499,482.601,337.299z"/>
<path style="fill:#1BD9DE;" d="M482.601,337.299C449.299,430,360.399,496.7,256,497V331c0,0,27.001-15,60-15s60,15,60,15
	s27.001,15,60,15C454.3,346,471.501,341.499,482.601,337.299z"/>
<path style="fill:#FD003A;" d="M256,0C115,0,0,114.699,0,256c0,140.7,115,256,256,256c141.301,0,256-115.6,256-256
	C512,115,396.7,0,256,0z M256,482C132.1,482.3,29.7,380.2,30,256c0-57.301,22.599-109.501,56.8-147.9L256,277.299L403.9,425.2
	C365.501,459.399,313.299,482,256,482z M425.2,403.9L108.1,86.8C146.499,52.599,198.701,30,256,30c124.2,0,226,101.8,226,226
	C482,313.599,459.401,365.499,425.2,403.9z"/>
<path style="fill:#E50027;" d="M512,256c0,140.4-114.699,256-256,256v-30c57.299,0,109.501-22.601,147.9-56.8L256,277.299V234.7
	l169.2,169.2C459.4,365.499,482,313.6,482,256c0-124.2-101.8-226-226-226V0C396.7,0,512,115,512,256z"/>
<g>
</g>
<g>
</g>
<g>
</g>
<g>
</g>
<g>
</g>
<g>
</g>
<g>
</g>
<g>
</g>
<g>
</g>
<g>
</g>
<g>
</g>
<g>
</g>
<g>
</g>
<g>
</g>
<g>
</g>
</svg>
