<?xml version="1.0" encoding="iso-8859-1"?>
<!-- Generator: Adobe Illustrator 19.0.0, SVG Export Plug-In . SVG Version: 6.00 Build 0)  -->
<svg version="1.1" id="Capa_1" xmlns="http://www.w3.org/2000/svg" xmlns:xlink="http://www.w3.org/1999/xlink" x="0px" y="0px"
	 viewBox="0 0 512 512" style="enable-background:new 0 0 512 512;" xml:space="preserve">
<path style="fill:#CAE8F9;" d="M448.599,247.599C445,242.5,362.199,121,256,121S67,242.5,63.401,247.599
	c-3.301,5.101-3.301,11.7,0,16.8C67,269.5,149.801,391,256,391s189-121.5,192.599-126.601
	C451.901,259.3,451.901,252.7,448.599,247.599z"/>
<path style="fill:#B7E0F6;" d="M448.599,264.399C445,269.5,362.199,391,256,391V121c106.199,0,189,121.5,192.599,126.599
	C451.901,252.7,451.901,259.3,448.599,264.399z"/>
<path style="fill:#17ACE8;" d="M256,181c-41.4,0-75,33.6-75,75s33.6,75,75,75s75-33.6,75-75S297.4,181,256,181z"/>
<path style="fill:#1689FC;" d="M331,256c0,41.4-33.6,75-75,75V181C297.4,181,331,214.6,331,256z"/>
<path style="fill:#3C3A41;" d="M256,301c-24.814,0-45-20.186-45-45s20.186-45,45-45s45,20.186,45,45S280.814,301,256,301z"/>
<path style="fill:#2B292C;" d="M301,256c0-24.814-20.186-45-45-45v90C280.814,301,301,280.814,301,256z"/>
<path style="fill:#FD4E26;" d="M256,0C115,0,0,114.699,0,256c0,140.7,115,256,256,256c141.301,0,256-115.6,256-256
	C512,115,396.7,0,256,0z M256,482C132.1,482.3,29.7,380.2,30,256c0-57.301,22.599-109.501,56.8-147.9L256,277.299L403.9,425.2
	C365.501,459.399,313.299,482,256,482z M425.2,403.9L108.1,86.8C146.499,52.599,198.701,30,256,30c124.2,0,226,101.8,226,226
	C482,313.599,459.401,365.499,425.2,403.9z"/>
<path style="fill:#FD3018;" d="M512,256c0,140.4-114.699,256-256,256v-30c57.299,0,109.501-22.601,147.9-56.8L256,277.299V234.7
	l169.2,169.2C459.4,365.499,482,313.6,482,256c0-124.2-101.8-226-226-226V0C396.7,0,512,115,512,256z"/>
<g>
</g>
<g>
</g>
<g>
</g>
<g>
</g>
<g>
</g>
<g>
</g>
<g>
</g>
<g>
</g>
<g>
</g>
<g>
</g>
<g>
</g>
<g>
</g>
<g>
</g>
<g>
</g>
<g>
</g>
</svg>
