<?xml version="1.0" encoding="iso-8859-1"?>
<!-- Generator: Adobe Illustrator 19.0.0, SVG Export Plug-In . SVG Version: 6.00 Build 0)  -->
<svg version="1.1" id="Capa_1" xmlns="http://www.w3.org/2000/svg" xmlns:xlink="http://www.w3.org/1999/xlink" x="0px" y="0px"
	 viewBox="0 0 512 512" style="enable-background:new 0 0 512 512;" xml:space="preserve">
<path style="fill:#994C0F;" d="M296.8,86.8l-30,30c-2.999,2.999-6.899,4.501-10.8,4.501s-7.8-1.501-10.8-4.501l-30-30
	c-6-6-6-15.601,0-21.599c6-6,15.599-6,21.599,0L256,84.399L275.2,65.2c6-6,15.599-6,21.599,0C302.8,71.199,302.8,80.799,296.8,86.8z
	"/>
<path style="fill:#713708;" d="M266.8,116.8c-2.999,2.999-6.899,4.501-10.8,4.501V84.399L275.2,65.2c6-6,15.599-6,21.599,0
	c6,5.999,6,15.599,0,21.599L266.8,116.8z"/>
<path style="fill:#994C0F;" d="M116.499,332.199l-24.3,20.7l-15-30c-3.6-7.5-0.599-16.8,6.901-20.7c7.8-3.9,16.8-0.601,20.7,6.899
	L116.499,332.199z"/>
<path style="fill:#57555C;" d="M391,329.499c-67.2-7.5-119.7-64.799-119.7-133.799c0-8.401-6.899-15.3-15.3-15.3
	s-15.3,6.899-15.3,15.3c0,66-47.999,121.199-110.7,132.599L106,361h300L391,329.499z"/>
<path style="fill:#713708;" d="M434.801,322.899l-15,30c-0.3,0.3-0.3,0.601-0.601,0.901l-18.9-30.901l6.899-13.801
	c3.9-7.5,12.9-10.8,20.7-6.899C435.399,306.099,438.401,315.399,434.801,322.899z"/>
<path style="fill:#FEA832;" d="M419.5,353.5c-2.701,4.799-7.8,7.8-13.5,7.8c-66.599,0-123.9-39.6-150-96.301
	c-26.1,56.7-83.401,96.301-150,96.301c-5.7,0-10.8-3.001-13.5-7.8c-2.699-4.801-2.401-10.8,0.601-15.601L256,82l162.9,255.899
	C421.901,342.7,422.199,348.699,419.5,353.5z"/>
<path style="fill:#3C3A41;" d="M406,361H256V180.399c8.401,0,15.3,6.899,15.3,15.3c0,69,52.5,126.299,119.7,133.799L406,361z"/>
<path style="fill:#FE9923;" d="M419.5,353.5c-2.701,4.799-7.8,7.8-13.5,7.8c-66.599,0-123.9-39.6-150-96.301V82l162.9,255.899
	C421.901,342.7,422.199,348.699,419.5,353.5z"/>
<path style="fill:#FD4E26;" d="M256,0C115,0,0,114.699,0,256c0,140.7,115,256,256,256c141.301,0,256-115.6,256-256
	C512,115,396.7,0,256,0z M256,482C132.1,482.3,29.7,380.2,30,256c0-57.301,22.599-109.501,56.8-147.9L256,277.299L403.9,425.2
	C365.501,459.399,313.299,482,256,482z M425.2,403.9L108.1,86.8C146.499,52.599,198.701,30,256,30c124.2,0,226,101.8,226,226
	C482,313.599,459.401,365.499,425.2,403.9z"/>
<path style="fill:#FD3018;" d="M512,256c0,140.4-114.699,256-256,256v-30c57.299,0,109.501-22.601,147.9-56.8L256,277.299V234.7
	l169.2,169.2C459.4,365.499,482,313.6,482,256c0-124.2-101.8-226-226-226V0C396.7,0,512,115,512,256z"/>
<g>
</g>
<g>
</g>
<g>
</g>
<g>
</g>
<g>
</g>
<g>
</g>
<g>
</g>
<g>
</g>
<g>
</g>
<g>
</g>
<g>
</g>
<g>
</g>
<g>
</g>
<g>
</g>
<g>
</g>
</svg>
