<?xml version="1.0" encoding="iso-8859-1"?>
<!-- Generator: Adobe Illustrator 19.0.0, SVG Export Plug-In . SVG Version: 6.00 Build 0)  -->
<svg version="1.1" id="Capa_1" xmlns="http://www.w3.org/2000/svg" xmlns:xlink="http://www.w3.org/1999/xlink" x="0px" y="0px"
	 viewBox="0 0 512 512" style="enable-background:new 0 0 512 512;" xml:space="preserve">
<path style="fill:#FEA832;" d="M355.6,206.199c-3.9-5.099-10.8-6.899-16.8-4.799c-6,2.401-10.201,8.101-9.901,14.7l0.3,7.8
	c0.3,11.999-4.2,23.399-12.9,32.1c-3.6,3.6-7.8,6.299-12.301,8.399c13.5-51,19.2-98.699-32.699-173.399
	c-3.001-4.2-8.101-6.901-13.801-6.301c-0.599,0-0.899,0-1.5,0.3c-4.799,0.899-8.699,4.2-10.8,8.399
	c-22.8,50.101-45.601,67.202-65.7,82.5c-18.9,14.401-36.601,27.902-48.6,60.601C109.6,295.3,128.2,358.9,177.4,394.3
	c24.901,18.3,51.899,25.8,78.3,25.8h0.3c39.3,0,75.901-17.1,99.901-42.299C390.399,341.8,410.799,275.2,355.6,206.199z"/>
<path style="fill:#FE9923;" d="M355.901,377.8c-24,25.199-60.601,42.299-99.901,42.299V85c0.601-0.3,0.901-0.3,1.5-0.3
	c5.7-0.601,10.8,2.1,13.801,6.301C323.2,165.701,317.5,213.4,304,264.4c4.501-2.1,8.701-4.799,12.301-8.399
	c8.699-8.701,13.2-20.101,12.9-32.1l-0.3-7.8c-0.3-6.599,3.9-12.299,9.901-14.7c6-2.1,12.9-0.3,16.8,4.799
	C410.799,275.2,390.399,341.8,355.901,377.8z"/>
<path style="fill:#FD3018;" d="M255.707,390.092c-22.148,0-42.51-6.724-60.557-19.966c-38.408-27.642-52.793-77.168-36.035-123.398
	c8.936-24.39,20.742-33.369,38.584-46.963c18.691-14.238,40.811-31.084,62.754-70.093c30.439,52.559,25.254,86.543,14.531,127.046
	c-2.988,11.235,0.82,23.203,9.727,30.674c5.508,4.614,12.363,7.002,19.277,7.002c4.277,0,8.584-0.923,12.627-2.783
	c8.057-3.735,15.088-8.584,20.889-14.399c5.918-5.918,10.723-12.627,14.268-19.893c17.314,41.133,4.16,77.109-17.52,99.727
	c-19.746,20.713-48.955,33.047-78.252,33.047h-0.293V390.092z"/>
<path style="fill:#E61E14;" d="M337.504,277.211c-5.801,5.815-12.832,10.664-20.889,14.399c-4.043,1.86-8.35,2.783-12.627,2.783
	c-6.914,0-13.77-2.388-19.277-7.002c-8.906-7.471-12.715-19.438-9.727-30.674c10.723-40.503,15.908-74.487-14.531-127.046
	c-1.483,2.639-2.966,4.931-4.453,7.372v253.048c29.297,0,58.506-12.334,78.252-33.047c21.68-22.617,34.834-58.594,17.52-99.727
	C348.227,264.584,343.422,271.293,337.504,277.211z"/>
<path style="fill:#FEDB41;" d="M255.707,360.092c-15.82,0-29.824-4.629-42.803-14.15c-27.539-19.819-37.734-55.503-25.576-88.989
	c5.859-16.04,12.041-20.742,28.506-33.281c10.547-8.042,23.203-17.681,36.592-31.978c2.783,19.204-0.908,36.416-6.445,57.349
	c-5.947,22.354,1.699,46.436,19.453,61.333c10.781,9.038,24.492,14.019,38.555,14.019c6.68,0,13.213-1.084,19.482-3.252
	c-3.311,6.416-7.383,11.484-10.869,15.146c-14.238,14.927-35.361,23.804-56.602,23.804h-0.293V360.092z"/>
<path style="fill:#FCBF29;" d="M265.434,310.375c-3.684-3.091-6.65-6.777-9.434-10.562v60.278c21.24,0,42.363-8.877,56.602-23.804
	c3.486-3.662,7.559-8.73,10.869-15.146c-6.27,2.168-12.803,3.252-19.482,3.252C289.926,324.394,276.215,319.413,265.434,310.375z"/>
<path style="fill:#FD4E26;" d="M256,0C115,0,0,114.699,0,256c0,140.7,115,256,256,256c141.301,0,256-115.6,256-256
	C512,115,396.7,0,256,0z M256,482C132.1,482.3,29.7,380.2,30,256c0-57.301,22.599-109.501,56.8-147.9L256,277.299L403.9,425.2
	C365.501,459.399,313.299,482,256,482z M425.2,403.9L108.1,86.8C146.499,52.599,198.701,30,256,30c124.2,0,226,101.8,226,226
	C482,313.599,459.401,365.499,425.2,403.9z"/>
<path style="fill:#FD3018;" d="M512,256c0,140.4-114.699,256-256,256v-30c57.299,0,109.501-22.601,147.9-56.8L256,277.299V234.7
	l169.2,169.2C459.4,365.499,482,313.6,482,256c0-124.2-101.8-226-226-226V0C396.7,0,512,115,512,256z"/>
<g>
</g>
<g>
</g>
<g>
</g>
<g>
</g>
<g>
</g>
<g>
</g>
<g>
</g>
<g>
</g>
<g>
</g>
<g>
</g>
<g>
</g>
<g>
</g>
<g>
</g>
<g>
</g>
<g>
</g>
</svg>
