<?xml version="1.0" encoding="iso-8859-1"?>
<!-- Generator: Adobe Illustrator 19.0.0, SVG Export Plug-In . SVG Version: 6.00 Build 0)  -->
<svg version="1.1" id="Capa_1" xmlns="http://www.w3.org/2000/svg" xmlns:xlink="http://www.w3.org/1999/xlink" x="0px" y="0px"
	 viewBox="0 0 512 512" style="enable-background:new 0 0 512 512;" xml:space="preserve">
<path style="fill:#57555C;" d="M336.4,106.601C320.799,95.501,301.3,91,282.4,91H181c-8.401,0-15,6.599-15,15v300
	c0,8.399,6.599,15,15,15h30c8.401,0,15-6.601,15-15V271h56.1c58.5,0,93.9-43.801,93.9-90C376,151.3,361.901,123.999,336.4,106.601z
	 M307.301,202.299c-5.7,5.7-13.2,8.701-21.301,8.701h-60v-60h60c16.5,0,30,13.5,30,30C316,189.099,313.001,196.599,307.301,202.299z
	"/>
<path style="fill:#3C3A41;" d="M376,181c0,46.199-35.4,90-93.9,90H256v-60h30c8.101,0,15.601-3.001,21.301-8.701
	S316,189.099,316,181c0-16.5-13.5-30-30-30h-30V91h26.4c18.9,0,38.399,4.501,54,15.601C361.901,123.999,376,151.3,376,181z"/>
<path style="fill:#FD4E26;" d="M256,0C115,0,0,114.699,0,256c0,140.7,115,256,256,256c141.301,0,256-115.6,256-256
	C512,115,396.7,0,256,0z M256,482C132.1,482.3,29.7,380.2,30,256c0-57.301,22.599-109.501,56.8-147.9L256,277.299L403.9,425.2
	C365.501,459.399,313.299,482,256,482z M425.2,403.9L108.1,86.8C146.499,52.599,198.701,30,256,30c124.2,0,226,101.8,226,226
	C482,313.599,459.401,365.499,425.2,403.9z"/>
<path style="fill:#FD3018;" d="M512,256c0,140.4-114.699,256-256,256v-30c57.299,0,109.501-22.601,147.9-56.8L256,277.299V234.7
	l169.2,169.2C459.4,365.499,482,313.6,482,256c0-124.2-101.8-226-226-226V0C396.7,0,512,115,512,256z"/>
<g>
</g>
<g>
</g>
<g>
</g>
<g>
</g>
<g>
</g>
<g>
</g>
<g>
</g>
<g>
</g>
<g>
</g>
<g>
</g>
<g>
</g>
<g>
</g>
<g>
</g>
<g>
</g>
<g>
</g>
</svg>
