<?xml version="1.0" encoding="iso-8859-1"?>
<!-- Generator: Adobe Illustrator 19.0.0, SVG Export Plug-In . SVG Version: 6.00 Build 0)  -->
<svg version="1.1" id="Capa_1" xmlns="http://www.w3.org/2000/svg" xmlns:xlink="http://www.w3.org/1999/xlink" x="0px" y="0px"
	 viewBox="0 0 512 512" style="enable-background:new 0 0 512 512;" xml:space="preserve">
<path style="fill:#FCBF29;" d="M406,151v177.299c0,40.201-20.4,77.701-54.3,99.3C328.299,442.301,300.7,451,271,451
	c-5.099,0-9.901-0.3-15-0.901c-35.4-4.199-67.8-23.099-89.099-52.5L67,258.999c-9-11.4-8.101-30,4.2-40.8
	c11.398-9.6,28.799-9.901,41.1,1.5c0,0,51.299,51.301,53.699,54.001c0-9.001,0-17.701,0-17.701V121c0-16.5,13.2-30,30-30
	s30,13.5,30,30V91c0-16.5,13.2-30,30-30s30,13.5,30,30v30c0-16.5,13.2-30,30-30s30,13.5,30,30v30c0-16.5,13.2-30,30-30
	S406,134.5,406,151z"/>
<path style="fill:#FE9923;" d="M406,151v177.299c0,40.201-20.4,77.701-54.3,99.3C328.299,442.301,300.7,451,271,451
	c-5.099,0-9.901-0.3-15-0.901V61c16.8,0,30,13.5,30,30v30c0-16.5,13.2-30,30-30s30,13.5,30,30v30c0-16.5,13.2-30,30-30
	S406,134.5,406,151z"/>
<path style="fill:#FD4E26;" d="M256,0C115,0,0,114.699,0,256c0,140.7,115,256,256,256c141.301,0,256-115.6,256-256
	C512,115,396.7,0,256,0z M256,482C132.1,482.3,29.7,380.2,30,256c0-57.301,22.599-109.501,56.8-147.9L256,277.299L403.9,425.2
	C365.501,459.399,313.299,482,256,482z M425.2,403.9L108.1,86.8C146.499,52.599,198.701,30,256,30c124.2,0,226,101.8,226,226
	C482,313.599,459.401,365.499,425.2,403.9z"/>
<path style="fill:#FD3018;" d="M512,256c0,140.4-114.699,256-256,256v-30c57.299,0,109.501-22.601,147.9-56.8L256,277.299V234.7
	l169.2,169.2C459.4,365.499,482,313.6,482,256c0-124.2-101.8-226-226-226V0C396.7,0,512,115,512,256z"/>
<g>
</g>
<g>
</g>
<g>
</g>
<g>
</g>
<g>
</g>
<g>
</g>
<g>
</g>
<g>
</g>
<g>
</g>
<g>
</g>
<g>
</g>
<g>
</g>
<g>
</g>
<g>
</g>
<g>
</g>
</svg>
