<?xml version="1.0" encoding="iso-8859-1"?>

<svg version="1.1" id="Capa_1" xmlns="http://www.w3.org/2000/svg" xmlns:xlink="http://www.w3.org/1999/xlink" x="0px" y="0px"
	 viewBox="0 0 512 512" style="enable-background:new 0 0 512 512;" xml:space="preserve">
<path style="fill:#FFEDB1;" d="M293.175,83.202c-7.787-3.931-12.401-12.224-12.401-20.947c0-4.485,1.378-8.807,3.677-12.658
	c3.82-6.398,5.534-14.173,4.049-22.51c-2.503-14.048-14.397-25.226-28.575-26.86c-19.999-2.305-36.958,13.269-36.958,32.805
	c0,6.132,1.717,11.821,4.662,16.7c2.288,3.79,3.596,8.081,3.596,12.508v0.007c0,8.699-4.566,17.009-12.335,20.922
	c-22.234,11.2-38.718,32.133-43.816,57.218h161.649C331.614,115.359,315.356,94.4,293.175,83.202z"/>
<path style="fill:#FFE17D;" d="M245.522,94.48c6.677-6.256,12.335-15.099,12.335-25.845v-0.008c0-5.47-1.308-10.77-3.596-15.452
	c-2.945-6.027-4.662-13.054-4.662-20.629c0-12.926,4.893-24.408,12.485-31.885c-0.723-0.135-1.422-0.35-2.158-0.434
	c-19.999-2.305-36.958,13.269-36.958,32.805c0,6.132,1.717,11.821,4.662,16.7c2.288,3.79,3.596,8.081,3.596,12.508v0.007
	c0,8.699-4.566,17.009-12.335,20.922c-22.234,11.2-38.718,32.133-43.816,57.218h47.893
	C222.968,140.387,222.968,115.613,245.522,94.48z"/>
<path style="fill:#EDEBED;" d="M165.161,189.935v289.032c0,18.243,14.789,33.032,33.032,33.032h115.613
	c18.243,0,33.032-14.789,33.032-33.032V189.935H165.161z"/>
<g>
	<path style="fill:#DBD9DC;" d="M218.857,512h0.434C219.143,511.746,218.999,511.789,218.857,512z"/>
	<path style="fill:#DBD9DC;" d="M165.161,189.935v289.032c0,18.243,14.789,33.032,33.032,33.032h16.516V231.226
		c0-13.682,11.092-24.774,24.774-24.774h107.355v-16.516L165.161,189.935L165.161,189.935z"/>
</g>
<g>
	<path style="fill:#867E88;" d="M247.742,256H214.71c-4.565,0-8.258-3.694-8.258-8.258s3.694-8.258,8.258-8.258h33.032
		c4.565,0,8.258,3.694,8.258,8.258S252.306,256,247.742,256z"/>
	<path style="fill:#867E88;" d="M247.742,322.065H214.71c-4.565,0-8.258-3.694-8.258-8.258s3.694-8.258,8.258-8.258h33.032
		c4.565,0,8.258,3.694,8.258,8.258S252.306,322.065,247.742,322.065z"/>
</g>
<g>
	<path style="fill:#9C969E;" d="M247.742,289.032h-16.516c-4.565,0-8.258-3.694-8.258-8.258s3.694-8.258,8.258-8.258h16.516
		c4.565,0,8.258,3.694,8.258,8.258S252.306,289.032,247.742,289.032z"/>
	<path style="fill:#9C969E;" d="M247.742,355.097h-16.516c-4.565,0-8.258-3.694-8.258-8.258s3.694-8.258,8.258-8.258h16.516
		c4.565,0,8.258,3.694,8.258,8.258S252.306,355.097,247.742,355.097z"/>
	<path style="fill:#9C969E;" d="M247.742,421.161h-16.516c-4.565,0-8.258-3.694-8.258-8.258s3.694-8.258,8.258-8.258h16.516
		c4.565,0,8.258,3.694,8.258,8.258S252.306,421.161,247.742,421.161z"/>
</g>
<g>
	<path style="fill:#867E88;" d="M247.742,388.129H214.71c-4.565,0-8.258-3.694-8.258-8.258s3.694-8.258,8.258-8.258h33.032
		c4.565,0,8.258,3.694,8.258,8.258S252.306,388.129,247.742,388.129z"/>
	<path style="fill:#867E88;" d="M247.742,454.194H214.71c-4.565,0-8.258-3.694-8.258-8.258s3.694-8.258,8.258-8.258h33.032
		c4.565,0,8.258,3.694,8.258,8.258S252.306,454.194,247.742,454.194z"/>
</g>
<path style="fill:#FFD164;" d="M346.839,189.935H165.161c-4.561,0-8.258-3.697-8.258-8.258v-33.032c0-4.561,3.697-8.258,8.258-8.258
	h181.677c4.561,0,8.258,3.697,8.258,8.258v33.032C355.097,186.238,351.4,189.935,346.839,189.935z"/>
<path style="fill:#FFC350;" d="M214.71,181.677v-33.032c0-4.56,3.697-8.258,8.258-8.258h-57.806c-4.561,0-8.258,3.698-8.258,8.258
	v33.032c0,4.56,3.697,8.258,8.258,8.258h57.806C218.407,189.935,214.71,186.238,214.71,181.677z"/>
<g>
</g>
<g>
</g>
<g>
</g>
<g>
</g>
<g>
</g>
<g>
</g>
<g>
</g>
<g>
</g>
<g>
</g>
<g>
</g>
<g>
</g>
<g>
</g>
<g>
</g>
<g>
</g>
<g>
</g>
</svg>
