<?xml version="1.0" encoding="iso-8859-1"?>

<svg version="1.1" id="Capa_1" xmlns="http://www.w3.org/2000/svg" xmlns:xlink="http://www.w3.org/1999/xlink" x="0px" y="0px"
	 viewBox="0 0 512 512" style="enable-background:new 0 0 512 512;" xml:space="preserve">
<path style="fill:#E6646E;" d="M421.161,61.935H90.839c-22.804,0-41.29,18.486-41.29,41.29V293.16h412.903V103.226
	C462.452,80.421,443.965,61.935,421.161,61.935z"/>
<path style="fill:#DC4655;" d="M462.452,169.29H429.42c-18.243,0-33.032,14.789-33.032,33.032v41.29H115.613v-41.29
	c0-18.243-14.789-33.032-33.032-33.032H49.548v123.871h412.903L462.452,169.29L462.452,169.29z"/>
<path style="fill:#E6646E;" d="M495.484,185.806h-66.065c-9.121,0-16.516,7.394-16.516,16.516v57.806H99.097v-57.806
	c0-9.122-7.395-16.516-16.516-16.516H16.516C7.395,185.806,0,193.201,0,202.323v231.226c0,9.121,7.395,16.516,16.516,16.516h66.065
	c9.121,0,16.516-7.395,16.516-16.516v-74.323h313.806v74.323c0,9.121,7.395,16.516,16.516,16.516h66.065
	c9.121,0,16.516-7.395,16.516-16.516V202.323C512,193.201,504.605,185.806,495.484,185.806z"/>
<path style="fill:#DC4655;" d="M412.903,425.29H99.097v-82.58c0-9.122,7.395-16.516,16.516-16.516h280.774
	c9.122,0,16.516,7.395,16.516,16.516L412.903,425.29L412.903,425.29z"/>
<rect x="99.1" y="359.23" style="fill:#C43F4F;" width="313.81" height="16.516"/>
<g>
</g>
<g>
</g>
<g>
</g>
<g>
</g>
<g>
</g>
<g>
</g>
<g>
</g>
<g>
</g>
<g>
</g>
<g>
</g>
<g>
</g>
<g>
</g>
<g>
</g>
<g>
</g>
<g>
</g>
</svg>
