<?xml version="1.0" encoding="iso-8859-1"?>

<svg version="1.1" id="Capa_1" xmlns="http://www.w3.org/2000/svg" xmlns:xlink="http://www.w3.org/1999/xlink" x="0px" y="0px"
	 viewBox="0 0 512 512" style="enable-background:new 0 0 512 512;" xml:space="preserve">
<g>
	<path style="fill:#5D5360;" d="M358.23,462.879c-4.681-4.694-7.262-10.919-7.262-17.532V136.258C350.968,61.129,289.843,0,214.71,0
		S78.452,61.129,78.452,136.258v70.194h33.032v-70.194c0-56.919,46.306-103.226,103.226-103.226s103.226,46.306,103.226,103.226
		v309.089c0,15.435,6.012,29.952,16.931,40.879l15.273,15.27l25.602-22.465L358.23,462.879z"/>
	<path style="fill:#5D5360;" d="M214.71,66.065c-38.706,0-70.194,31.492-70.194,70.194v61.935h33.032v-61.935
		c0-20.492,16.669-37.161,37.161-37.161s37.161,16.669,37.161,37.161v39.984c0,10.575-4.601,20.657-12.331,27.635l-12.444,10.833
		l16.516,33.032l15.405-17.071c16.161-13.213,25.886-33.306,25.886-54.429v-39.984C284.903,97.556,253.415,66.065,214.71,66.065z"/>
</g>
<path style="fill:#867E88;" d="M258.189,230.028l-21.274-25.27c-2.937-3.489-8.147-3.935-11.636-0.999l-26.591,23.833l26.009,42.525
	l32.491-28.453C260.678,238.728,261.126,233.518,258.189,230.028z"/>
<path style="fill:#FFD164;" d="M201.051,211.179c-10.276-13.433-26.251-21.244-43.164-21.244h-62.92
	c-13.682,0-24.774,11.092-24.774,24.774v239.484c0,27.365,22.184,49.548,49.548,49.548h99.097c18.243,0,33.032-14.789,33.032-33.032
	v-99.097C251.871,333.732,231.01,250.347,201.051,211.179z"/>
<path style="fill:#FFC350;" d="M119.742,454.194V214.71c0-13.682,11.092-24.774,24.774-24.774c-18.466,0-49.548,0-49.548,0
	c-13.682,0-24.774,11.092-24.774,24.774v239.484c0,27.365,22.183,49.548,49.548,49.548h49.548
	C141.925,503.742,119.742,481.558,119.742,454.194z"/>
<g>
	<path style="fill:#9C969E;" d="M70.936,462.452c3.939,23.425,24.261,41.29,48.805,41.29h99.097
		c18.243,0,33.032-14.789,33.032-33.032v-8.258H70.936z"/>
	<path style="fill:#9C969E;" d="M157.746,256.982c-2.751-5.683-8.517-9.241-14.831-9.241l-27.302,0.001
		c-6.841,0-12.387,5.546-12.387,12.387v177.548h90.839C194.065,339.872,168.722,279.659,157.746,256.982z"/>
</g>
<path style="fill:#5D5360;" d="M119.742,512c-40.983,0-74.323-33.344-74.323-74.323s33.34-74.323,74.323-74.323
	s74.323,33.344,74.323,74.323S160.725,512,119.742,512z"/>
<path style="fill:#9C969E;" d="M119.742,487.226c-27.322,0-49.548-22.229-49.548-49.548s22.227-49.548,49.548-49.548
	s49.548,22.229,49.548,49.548C169.29,464.997,147.064,487.226,119.742,487.226z"/>
<path style="fill:#867E88;" d="M119.742,462.452c-13.661,0-24.774-11.115-24.774-24.774c0-13.66,11.113-24.774,24.774-24.774
	c13.661,0,24.774,11.115,24.774,24.774C144.516,451.337,133.403,462.452,119.742,462.452z"/>
<rect x="317.94" y="198.19" style="fill:#9C969E;" width="33.03" height="222.97"/>
<path style="fill:#867E88;" d="M317.935,421.161v24.185c0,15.435,6.012,29.952,16.931,40.879l15.273,15.27l25.602-22.465
	l-17.512-16.152c-4.681-4.694-7.262-10.919-7.262-17.532v-24.185L317.935,421.161L317.935,421.161z"/>
<path style="fill:#FFD164;" d="M375.742,478.968h66.065c13.682,0,24.774,11.092,24.774,24.774l0,0c0,4.561-3.697,8.258-8.258,8.258
	h-99.097c-4.561,0-8.258-3.697-8.258-8.258l0,0C350.968,490.06,362.06,478.968,375.742,478.968z"/>
<path style="fill:#FFC350;" d="M392.258,503.742c0-13.682,11.092-24.774,24.774-24.774h-41.29
	c-13.682,0-24.774,11.092-24.774,24.774c0,4.56,3.697,8.258,8.258,8.258h41.29C395.955,512,392.258,508.302,392.258,503.742z"/>
<g>
</g>
<g>
</g>
<g>
</g>
<g>
</g>
<g>
</g>
<g>
</g>
<g>
</g>
<g>
</g>
<g>
</g>
<g>
</g>
<g>
</g>
<g>
</g>
<g>
</g>
<g>
</g>
<g>
</g>
</svg>
