<?xml version="1.0" encoding="iso-8859-1"?>

<svg version="1.1" id="Capa_1" xmlns="http://www.w3.org/2000/svg" xmlns:xlink="http://www.w3.org/1999/xlink" x="0px" y="0px"
	 viewBox="0 0 512 512" style="enable-background:new 0 0 512 512;" xml:space="preserve">
<path style="fill:#C9C6CA;" d="M107.355,66.065h-41.29c-9.121,0-16.516,7.394-16.516,16.516v24.774h74.323V82.581
	C123.871,73.459,116.476,66.065,107.355,66.065z"/>
<g>
	<path style="fill:#C0BCC1;" d="M90.839,66.065H66.065c-9.121,0-16.516,7.394-16.516,16.516v24.774h24.774V82.581
		C74.323,73.459,81.717,66.065,90.839,66.065z"/>
	<path style="fill:#C0BCC1;" d="M189.935,74.323h-16.516c-9.121,0-16.516,7.394-16.516,16.516v16.516h49.548V90.839
		C206.452,81.717,199.057,74.323,189.935,74.323z"/>
</g>
<path style="fill:#AEA8AF;" d="M173.419,74.323c-9.121,0-16.516,7.394-16.516,16.516v16.516h24.774V74.323H173.419z"/>
<path style="fill:#DBD9DC;" d="M487.226,445.935H24.774C11.092,445.935,0,434.844,0,421.161v-297.29
	c0-13.682,11.092-24.774,24.774-24.774h462.452c13.682,0,24.774,11.092,24.774,24.774v297.29
	C512,434.844,500.908,445.935,487.226,445.935z"/>
<circle style="fill:#AEA8AF;" cx="165.16" cy="272.52" r="123.87"/>
<circle style="fill:#C0BCC1;" cx="165.16" cy="272.52" r="99.1"/>
<path style="fill:#5D5360;" d="M113.694,214.71c-5.085,0-9.882,2.344-13.058,6.315c-11.29,14.118-18.056,32.008-18.056,51.491
	c0,19.483,6.766,37.373,18.056,51.491c3.176,3.971,7.973,6.315,13.058,6.315h102.934c5.085,0,9.882-2.344,13.058-6.315
	c11.29-14.118,18.056-32.008,18.056-51.491c0-19.483-6.766-37.373-18.056-51.491c-3.176-3.971-7.973-6.315-13.058-6.315
	L113.694,214.71L113.694,214.71z"/>
<circle style="fill:#6F6571;" cx="165.16" cy="272.52" r="33.03"/>
<circle style="fill:#FFFFFF;" cx="189.94" cy="247.74" r="16.516"/>
<path style="fill:#FFF6D8;" d="M404.645,189.935h49.548c9.122,0,16.516-7.395,16.516-16.516v-16.516
	c0-9.122-7.395-16.516-16.516-16.516h-49.548c-9.122,0-16.516,7.395-16.516,16.516v16.516
	C388.129,182.541,395.524,189.935,404.645,189.935z"/>
<path style="fill:#C9C6CA;" d="M24.774,272.516V99.097C11.092,99.097,0,110.189,0,123.871v297.29
	c0,13.682,11.092,24.774,24.774,24.774h462.452c13.682,0,24.774-11.092,24.774-24.774H173.419
	C91.325,421.161,24.774,354.611,24.774,272.516z"/>
<rect x="417.03" y="140.39" style="fill:#FFEDB1;" width="24.774" height="49.548"/>
<g>
</g>
<g>
</g>
<g>
</g>
<g>
</g>
<g>
</g>
<g>
</g>
<g>
</g>
<g>
</g>
<g>
</g>
<g>
</g>
<g>
</g>
<g>
</g>
<g>
</g>
<g>
</g>
<g>
</g>
</svg>
