<?xml version="1.0" encoding="iso-8859-1"?>

<svg version="1.1" id="Capa_1" xmlns="http://www.w3.org/2000/svg" xmlns:xlink="http://www.w3.org/1999/xlink" x="0px" y="0px"
	 viewBox="0 0 512 512" style="enable-background:new 0 0 512 512;" xml:space="preserve">
<path style="fill:#5D5360;" d="M280.774,512h-82.581c-4.561,0-8.258-3.697-8.258-8.258V8.258c0-4.561,3.697-8.258,8.258-8.258
	h82.581c4.561,0,8.258,3.697,8.258,8.258v495.484C289.033,508.303,285.336,512,280.774,512z"/>
<g>
	<path style="fill:#6F6571;" d="M280.774,0h-74.323v74.323c0,9.122,7.395,16.516,16.516,16.516h66.065V8.258
		C289.033,3.697,285.336,0,280.774,0z"/>
	<rect x="231.23" y="90.84" style="fill:#6F6571;" width="16.516" height="16.516"/>
</g>
<rect x="231.23" style="fill:#867E88;" width="16.516" height="90.84"/>
<g>
	<path style="fill:#6F6571;" d="M280.774,512h-74.323v-74.323c0-9.122,7.395-16.516,16.516-16.516h66.065v82.581
		C289.033,508.303,285.336,512,280.774,512z"/>
	<rect x="231.23" y="404.64" style="fill:#6F6571;" width="16.516" height="16.516"/>
</g>
<rect x="231.23" y="421.16" style="fill:#867E88;" width="16.516" height="90.84"/>
<path style="fill:#C9C6CA;" d="M289.033,404.645h-99.097c-9.122,0-16.516-7.395-16.516-16.516V123.871
	c0-9.122,7.395-16.516,16.516-16.516h99.097c9.122,0,16.516,7.395,16.516,16.516v264.258
	C305.549,397.251,298.154,404.645,289.033,404.645z"/>
<g>
	<path style="fill:#C0BCC1;" d="M173.42,141.692v228.617c19.45,11.267,41.969,17.821,66.065,17.821s46.614-6.553,66.065-17.821
		V141.692c-19.45-11.267-41.969-17.821-66.065-17.821S192.87,130.424,173.42,141.692z"/>
	<path style="fill:#C0BCC1;" d="M371.614,231.226H346.84v49.548h24.774c9.121,0,16.516-7.395,16.516-16.516v-16.516
		C388.13,238.62,380.734,231.226,371.614,231.226z"/>
</g>
<path style="fill:#AEA8AF;" d="M369.213,231.226H346.84v49.548h22.373c1.526-8.032,2.401-16.297,2.401-24.774
	C371.614,247.523,370.739,239.258,369.213,231.226z"/>
<circle style="fill:#DBD9DC;" cx="239.48" cy="256" r="115.61"/>
<path style="fill:#C9C6CA;" d="M338.581,256c0-52.23-40.407-95.023-91.667-98.822c-4.226-0.313-7.43-3.959-7.43-8.197v-8.594
	c-63.851,0-115.613,51.762-115.613,115.613s51.762,115.613,115.613,115.613v-8.594c0-4.238,3.204-7.883,7.43-8.197
	C298.174,351.023,338.581,308.23,338.581,256z"/>
<circle style="fill:#FFD164;" cx="239.48" cy="256" r="82.58"/>
<circle style="fill:#FFE17D;" cx="239.48" cy="256" r="57.806"/>
<circle style="fill:#FFD164;" cx="239.48" cy="256" r="24.774"/>
<g>
	<path style="fill:#867E88;" d="M173.42,264.258h-16.516c-4.565,0-8.258-3.694-8.258-8.258s3.694-8.258,8.258-8.258h16.516
		c4.565,0,8.258,3.694,8.258,8.258S177.984,264.258,173.42,264.258z"/>
	<path style="fill:#867E88;" d="M322.065,264.258h-16.516c-4.565,0-8.258-3.694-8.258-8.258s3.694-8.258,8.258-8.258h16.516
		c4.565,0,8.258,3.694,8.258,8.258S326.63,264.258,322.065,264.258z"/>
	<path style="fill:#867E88;" d="M239.484,198.194c-4.565,0-8.258-3.694-8.258-8.258V173.42c0-4.565,3.694-8.258,8.258-8.258
		s8.258,3.694,8.258,8.258v16.516C247.743,194.5,244.049,198.194,239.484,198.194z"/>
	<path style="fill:#867E88;" d="M239.484,346.839c-4.565,0-8.258-3.694-8.258-8.258v-16.516c0-4.565,3.694-8.258,8.258-8.258
		s8.258,3.694,8.258,8.258v16.516C247.743,343.145,244.049,346.839,239.484,346.839z"/>
</g>
<path style="fill:#5D5360;" d="M239.484,264.258h-33.032c-4.565,0-8.258-3.694-8.258-8.258s3.694-8.258,8.258-8.258h28.355
	l22.371-37.282c2.339-3.911,7.411-5.177,11.331-2.831c3.911,2.347,5.177,7.419,2.831,11.331l-24.774,41.29
	C245.074,262.734,242.387,264.258,239.484,264.258z"/>
<circle style="fill:#AEA8AF;" cx="239.48" cy="256" r="8.258"/>
<g>
</g>
<g>
</g>
<g>
</g>
<g>
</g>
<g>
</g>
<g>
</g>
<g>
</g>
<g>
</g>
<g>
</g>
<g>
</g>
<g>
</g>
<g>
</g>
<g>
</g>
<g>
</g>
<g>
</g>
</svg>
