<?xml version="1.0" encoding="iso-8859-1"?>

<svg version="1.1" id="Capa_1" xmlns="http://www.w3.org/2000/svg" xmlns:xlink="http://www.w3.org/1999/xlink" x="0px" y="0px"
	 viewBox="0 0 512 512" style="enable-background:new 0 0 512 512;" xml:space="preserve">
<path style="fill:#E6646E;" d="M285.612,0h-59.223c-2.19,0-4.291,0.87-5.839,2.419l-26.76,26.759
	c-2.164,2.164-2.266,5.64-0.233,7.928l58.123,65.388c2.299,2.587,6.342,2.587,8.641,0l58.123-65.388
	c2.033-2.288,1.931-5.764-0.233-7.928l-26.76-26.759C289.902,0.87,287.802,0,285.612,0z"/>
<path style="fill:#DC4655;" d="M193.556,37.106l58.123,65.388c2.299,2.587,6.342,2.587,8.641,0l58.123-65.388
	c1.032-1.161,1.503-2.627,1.444-4.074H192.113C192.054,34.479,192.524,35.945,193.556,37.106z"/>
<path style="fill:#FFC350;" d="M256,82.581c-9.121,0-16.516,7.394-16.516,16.516v24.774h33.032V99.097
	C272.516,89.975,265.121,82.581,256,82.581z"/>
<path style="fill:#FFE17D;" d="M256,115.613c-109.459,0-198.194,88.734-198.194,198.194S146.541,512,256,512
	s198.194-88.734,198.194-198.194S365.459,115.613,256,115.613z M256,478.968c-91.216,0-165.161-73.946-165.161-165.161
	S164.784,148.645,256,148.645s165.161,73.946,165.161,165.161S347.216,478.968,256,478.968z"/>
<path style="fill:#FFD164;" d="M437.677,313.806c0-96.488-75.219-175.409-170.218-181.322C260.995,132.082,256,126.65,256,120.173
	v-4.561c-109.459,0-198.194,88.734-198.194,198.194S146.541,512,256,512v-4.561c0-6.477,4.995-11.909,11.459-12.311
	C362.458,489.216,437.677,410.294,437.677,313.806z M90.839,313.806c0-91.216,73.945-165.161,165.161-165.161
	s165.161,73.946,165.161,165.161S347.216,478.968,256,478.968S90.839,405.022,90.839,313.806z"/>
<g>
</g>
<g>
</g>
<g>
</g>
<g>
</g>
<g>
</g>
<g>
</g>
<g>
</g>
<g>
</g>
<g>
</g>
<g>
</g>
<g>
</g>
<g>
</g>
<g>
</g>
<g>
</g>
<g>
</g>
</svg>
