<?xml version="1.0" encoding="iso-8859-1"?>

<svg version="1.1" id="Capa_1" xmlns="http://www.w3.org/2000/svg" xmlns:xlink="http://www.w3.org/1999/xlink" x="0px" y="0px"
	 viewBox="0 0 512.002 512.002" style="enable-background:new 0 0 512.002 512.002;" xml:space="preserve">
<path style="fill:#FFD164;" d="M502.55,153.237l-18.559-98.982c-3.046-16.248-15.489-29.113-31.626-32.698l-0.006-0.002
	c-129.328-28.74-263.388-28.74-392.716,0l-0.006,0.002c-16.137,3.585-28.58,16.45-31.626,32.698L9.452,153.237
	c-0.7,3.735,1.239,7.466,4.7,9.039l84.946,38.612v302.855c0,4.56,3.697,8.258,8.258,8.258h297.29c4.561,0,8.258-3.698,8.258-8.258
	V200.888l84.946-38.612C501.311,160.703,503.25,156.972,502.55,153.237z"/>
<g>
	<path style="fill:#FFC350;" d="M28.011,54.255L9.452,153.237c-0.7,3.735,1.239,7.466,4.699,9.039l84.947,38.612v-73.891
		c0-10.986-3.651-21.661-10.379-30.345L39.277,32.834C33.588,38.58,29.566,45.965,28.011,54.255z"/>
	<path style="fill:#FFC350;" d="M483.991,54.255l18.559,98.982c0.7,3.735-1.239,7.466-4.699,9.039l-84.947,38.612v-73.891
		c0-10.986,3.651-21.661,10.379-30.345l49.442-63.818C478.414,38.58,482.436,45.965,483.991,54.255z"/>
	<path style="fill:#FFC350;" d="M351.843,5.122c-23.917,34.558-56.311,73.24-95.955,100.943
		c-39.614-27.712-72.01-66.484-95.86-100.93c-12.254,1.306-24.48,2.912-36.685,4.721c27.85,42.678,69.846,95.607,123.642,130
		c2.71,1.734,5.806,2.597,8.895,2.597c3.089,0,6.177-0.863,8.895-2.597c53.813-34.379,95.773-87.133,123.745-130.022
		C376.317,8.029,364.093,6.427,351.843,5.122z"/>
</g>
<path style="fill:#E1A546;" d="M351.842,5.122c-63.758-6.788-128.056-6.785-191.814,0.013c23.85,34.447,56.245,73.219,95.86,100.93
	C295.532,78.362,327.925,39.681,351.842,5.122z"/>
<path style="fill:#FFC350;" d="M123.872,305.55v-71.443c0-11.975-6.481-23.012-16.938-28.846l-7.836-4.372v302.855
	c0,4.561,3.697,8.258,8.258,8.258h297.29c4.561,0,8.258-3.697,8.258-8.258v-16.516H305.549
	C205.212,487.227,123.872,405.887,123.872,305.55z"/>
<g>
</g>
<g>
</g>
<g>
</g>
<g>
</g>
<g>
</g>
<g>
</g>
<g>
</g>
<g>
</g>
<g>
</g>
<g>
</g>
<g>
</g>
<g>
</g>
<g>
</g>
<g>
</g>
<g>
</g>
</svg>
