<?xml version="1.0" encoding="iso-8859-1"?>

<svg version="1.1" id="Capa_1" xmlns="http://www.w3.org/2000/svg" xmlns:xlink="http://www.w3.org/1999/xlink" x="0px" y="0px"
	 viewBox="0 0 512 512" style="enable-background:new 0 0 512 512;" xml:space="preserve">
<rect x="207.76" y="126.541" transform="matrix(-0.7071 -0.7071 0.7071 -0.7071 379.7965 459.7691)" style="fill:#FFC350;" width="154.718" height="49.37"/>
<g>
	<path style="fill:#FFD164;" d="M191.695,127.878L180.018,116.2c-6.45-6.45-6.45-16.907,0-23.357l46.715-46.715
		c6.45-6.45,16.907-6.45,23.357,0l11.678,11.678c6.45,6.45,6.45,16.907,0,23.357l-46.715,46.715
		C208.604,134.328,198.145,134.328,191.695,127.878z"/>
	<path style="fill:#FFD164;" d="M320.161,256.342l-11.678-11.678c-6.45-6.45-6.45-16.907,0-23.357l46.715-46.715
		c6.45-6.45,16.907-6.45,23.357,0l11.678,11.678c6.45,6.45,6.45,16.907,0,23.357l-46.715,46.715
		C337.069,262.793,326.611,262.793,320.161,256.342z"/>
</g>
<g>
	<path style="fill:#FFC350;" d="M337.336,239.168l-11.678-11.678c-6.45-6.45-6.45-16.907,0-23.357l-17.174,17.174
		c-6.45,6.45-6.45,16.907,0,23.358l11.678,11.677c6.45,6.45,16.907,6.45,23.357,0l17.175-17.174
		C354.243,245.619,343.786,245.619,337.336,239.168z"/>
	<path style="fill:#FFC350;" d="M232.227,110.704c-6.45,6.45-16.907,6.45-23.357,0l-11.678-11.678c-6.45-6.45-6.45-16.907,0-23.358
		l-17.174,17.175c-6.45,6.45-6.45,16.907,0,23.357l11.678,11.677c6.45,6.451,16.907,6.451,23.357,0L232.227,110.704z"/>
	<path style="fill:#FFC350;" d="M473.837,408.897c-1.838-7.353-8.444-12.51-16.022-12.51H334.96c-7.579,0-14.184,5.157-16.023,12.51
		l-5.131,20.522h165.161L473.837,408.897z"/>
</g>
<path style="fill:#E1A546;" d="M265.017,147.986L4.837,408.165c-6.45,6.45-6.45,16.907,0,23.357c6.45,6.451,16.907,6.451,23.357,0
	l260.179-260.179L265.017,147.986z"/>
<path style="fill:#FFD164;" d="M279.286,192.11l-35.036-35.036c-3.225-3.225-3.225-8.454,0-11.679l35.036-35.036
	c3.225-3.225,8.454-3.225,11.679,0l35.036,35.036c3.225,3.225,3.225,8.454,0,11.679l-35.036,35.036
	C287.74,195.335,282.51,195.335,279.286,192.11z"/>
<path style="fill:#6F6571;" d="M495.484,429.419H297.29c-9.121,0-16.516,7.394-16.516,16.516v16.516c0,4.56,3.697,8.258,8.258,8.258
	h214.71c4.56,0,8.258-3.698,8.258-8.258v-16.516C512,436.814,504.605,429.419,495.484,429.419z"/>
<path style="fill:#5D5360;" d="M355.096,462.452v-16.516c0-9.122,7.395-16.516,16.516-16.516H297.29
	c-9.121,0-16.516,7.394-16.516,16.516v16.516c0,4.56,3.697,8.258,8.258,8.258h74.323
	C358.794,470.71,355.096,467.012,355.096,462.452z"/>
<path style="fill:#E1A546;" d="M392.766,396.387H334.96c-7.579,0-14.184,5.157-16.023,12.51l-5.131,20.522h57.806l5.131-20.522
	C378.582,401.544,385.187,396.387,392.766,396.387z"/>
<path style="fill:#FFC350;" d="M258.548,192.225c-3.225-3.225-8.454-3.225-11.679,0L6.342,432.752
	c6.482,5.113,15.87,4.752,21.852-1.23L263.02,196.697L258.548,192.225z"/>
<path style="fill:#FFE17D;" d="M298.171,117.565l-13.147,13.147c-6.45,6.45-6.45,16.907,0,23.357l21.991,21.991L326,157.074
	c3.225-3.225,3.225-8.454,0-11.679L298.171,117.565z"/>
<g>
</g>
<g>
</g>
<g>
</g>
<g>
</g>
<g>
</g>
<g>
</g>
<g>
</g>
<g>
</g>
<g>
</g>
<g>
</g>
<g>
</g>
<g>
</g>
<g>
</g>
<g>
</g>
<g>
</g>
</svg>
