<?xml version="1.0" encoding="iso-8859-1"?>

<svg version="1.1" id="Capa_1" xmlns="http://www.w3.org/2000/svg" xmlns:xlink="http://www.w3.org/1999/xlink" x="0px" y="0px"
	 viewBox="0 0 512 512" style="enable-background:new 0 0 512 512;" xml:space="preserve">
<rect x="371.32" y="350.967" transform="matrix(-0.7071 -0.7071 0.7071 -0.7071 429.7117 896.4406)" style="fill:#AEA8AF;" width="58.389" height="16.514"/>
<path style="fill:#9C969E;" d="M385.71,332.743l-11.677,11.677l17.826,17.827c4.186-3.591,8.088-7.492,11.677-11.677L385.71,332.743
	z"/>
<path style="fill:#EDEBED;" d="M305.548,330.324H24.774C11.092,330.324,0,319.232,0,305.549V66.066
	c0-13.683,11.092-24.775,24.774-24.775h280.774c13.682,0,24.774,11.092,24.774,24.774v239.484
	C330.323,319.232,319.231,330.324,305.548,330.324z"/>
<g>
	<path style="fill:#5D5360;" d="M148.645,289.033c-4.565,0-8.258-3.694-8.258-8.258v-16.516c0-4.565,3.694-8.258,8.258-8.258
		s8.258,3.694,8.258,8.258v16.516C156.903,285.34,153.21,289.033,148.645,289.033z"/>
	<path style="fill:#5D5360;" d="M82.581,289.033c-4.565,0-8.258-3.694-8.258-8.258v-16.516c0-4.565,3.694-8.258,8.258-8.258
		c4.565,0,8.258,3.694,8.258,8.258v16.516C90.839,285.34,87.145,289.033,82.581,289.033z"/>
	<path style="fill:#5D5360;" d="M115.613,289.033c-4.565,0-8.258-3.694-8.258-8.258v-16.516c0-4.565,3.694-8.258,8.258-8.258
		c4.565,0,8.258,3.694,8.258,8.258v16.516C123.871,285.34,120.177,289.033,115.613,289.033z"/>
</g>
<g>
	<path style="fill:#6F6571;" d="M82.581,239.484c-4.565,0-8.258-3.694-8.258-8.258V90.84c0-4.565,3.694-8.258,8.258-8.258
		c4.565,0,8.258,3.694,8.258,8.258v140.387C90.839,235.79,87.145,239.484,82.581,239.484z"/>
	<path style="fill:#6F6571;" d="M115.613,239.484c-4.565,0-8.258-3.694-8.258-8.258V90.84c0-4.565,3.694-8.258,8.258-8.258
		c4.565,0,8.258,3.694,8.258,8.258v140.387C123.871,235.79,120.177,239.484,115.613,239.484z"/>
	<path style="fill:#6F6571;" d="M148.645,239.484c-4.565,0-8.258-3.694-8.258-8.258V90.84c0-4.565,3.694-8.258,8.258-8.258
		s8.258,3.694,8.258,8.258v140.387C156.903,235.79,153.21,239.484,148.645,239.484z"/>
</g>
<g>
	<path style="fill:#5D5360;" d="M181.677,289.033c-4.565,0-8.258-3.694-8.258-8.258V90.84c0-4.565,3.694-8.258,8.258-8.258
		s8.258,3.694,8.258,8.258v189.935C189.935,285.34,186.242,289.033,181.677,289.033z"/>
	<path style="fill:#5D5360;" d="M49.548,289.033c-4.565,0-8.258-3.694-8.258-8.258V90.84c0-4.565,3.694-8.258,8.258-8.258
		s8.258,3.694,8.258,8.258v189.935C57.806,285.34,54.113,289.033,49.548,289.033z"/>
</g>
<g>
	<path style="fill:#6F6571;" d="M214.71,239.484c-4.565,0-8.258-3.694-8.258-8.258V90.84c0-4.565,3.694-8.258,8.258-8.258
		c4.565,0,8.258,3.694,8.258,8.258v140.387C222.968,235.79,219.274,239.484,214.71,239.484z"/>
	<path style="fill:#6F6571;" d="M247.742,239.484c-4.565,0-8.258-3.694-8.258-8.258V90.84c0-4.565,3.694-8.258,8.258-8.258
		c4.565,0,8.258,3.694,8.258,8.258v140.387C256,235.79,252.306,239.484,247.742,239.484z"/>
</g>
<g>
	<path style="fill:#5D5360;" d="M280.774,289.033c-4.565,0-8.258-3.694-8.258-8.258V90.84c0-4.565,3.694-8.258,8.258-8.258
		s8.258,3.694,8.258,8.258v189.935C289.032,285.34,285.339,289.033,280.774,289.033z"/>
	<path style="fill:#5D5360;" d="M214.71,289.033c-4.565,0-8.258-3.694-8.258-8.258v-16.516c0-4.565,3.694-8.258,8.258-8.258
		c4.565,0,8.258,3.694,8.258,8.258v16.516C222.968,285.34,219.274,289.033,214.71,289.033z"/>
	<path style="fill:#5D5360;" d="M247.742,289.033c-4.565,0-8.258-3.694-8.258-8.258v-16.516c0-4.565,3.694-8.258,8.258-8.258
		c4.565,0,8.258,3.694,8.258,8.258v16.516C256,285.34,252.306,289.033,247.742,289.033z"/>
</g>
<circle style="fill:#C9C6CA;" cx="322.06" cy="280.771" r="90.84"/>
<path style="fill:#5D5360;" d="M507.183,465.893L507.183,465.893c-6.423,6.423-16.934,6.423-23.357,0L417.033,399.1
	c-6.423-6.423-6.423-16.934,0-23.357l0,0c6.423-6.423,16.934-6.423,23.357,0l66.793,66.793
	C513.606,448.959,513.606,459.47,507.183,465.893z"/>
<circle style="fill:#FFFFFF;" cx="322.06" cy="280.771" r="74.32"/>
<path style="fill:#EDEBED;" d="M341.565,303.942c-20.904-4.976-37.676-21.743-42.661-42.644c-1.384-5.805-1.839-11.477-1.513-16.937
	c0.433-7.253-8.015-11.751-13.475-6.957c-13.503,11.855-21.432,29.889-19.319,49.712c2.826,26.517,24.607,48.299,51.123,51.126
	c19.824,2.114,37.86-5.815,49.716-19.319c4.794-5.46,0.295-13.908-6.959-13.475C353.026,305.774,347.361,305.321,341.565,303.942z"
	/>
<path style="fill:#6F6571;" d="M417.433,375.415l70.865,70.866c6.041,6.04,15.655,6.325,22.126,1.003
	c-0.791-1.715-1.834-3.34-3.242-4.749l-66.793-66.792C434.091,369.445,423.885,369.362,417.433,375.415z"/>
<g>
</g>
<g>
</g>
<g>
</g>
<g>
</g>
<g>
</g>
<g>
</g>
<g>
</g>
<g>
</g>
<g>
</g>
<g>
</g>
<g>
</g>
<g>
</g>
<g>
</g>
<g>
</g>
<g>
</g>
</svg>
