<?xml version="1.0" encoding="iso-8859-1"?>

<svg version="1.1" id="Capa_1" xmlns="http://www.w3.org/2000/svg" xmlns:xlink="http://www.w3.org/1999/xlink" x="0px" y="0px"
	 viewBox="0 0 512 512" style="enable-background:new 0 0 512 512;" xml:space="preserve">
<path style="fill:#EDEBED;" d="M456,416H56c-8.837,0-16-7.163-16-16V112c0-8.837,7.163-16,16-16h400c8.837,0,16,7.163,16,16v288
	C472,408.837,464.837,416,456,416z"/>
<g>
	<path style="fill:#5D5360;" d="M288,376c-4.422,0-8-3.578-8-8v-16c0-4.422,3.578-8,8-8s8,3.578,8,8v16
		C296,372.422,292.422,376,288,376z"/>
	<path style="fill:#5D5360;" d="M224,376c-4.422,0-8-3.578-8-8v-16c0-4.422,3.578-8,8-8s8,3.578,8,8v16
		C232,372.422,228.422,376,224,376z"/>
	<path style="fill:#5D5360;" d="M192,376c-4.422,0-8-3.578-8-8v-16c0-4.422,3.578-8,8-8s8,3.578,8,8v16
		C200,372.422,196.422,376,192,376z"/>
	<path style="fill:#5D5360;" d="M320,376c-4.422,0-8-3.578-8-8v-16c0-4.422,3.578-8,8-8s8,3.578,8,8v16
		C328,372.422,324.422,376,320,376z"/>
	<path style="fill:#5D5360;" d="M352,376c-4.422,0-8-3.578-8-8v-16c0-4.422,3.578-8,8-8s8,3.578,8,8v16
		C360,372.422,356.422,376,352,376z"/>
	<path style="fill:#5D5360;" d="M384,376c-4.422,0-8-3.578-8-8v-16c0-4.422,3.578-8,8-8s8,3.578,8,8v16
		C392,372.422,388.422,376,384,376z"/>
	<path style="fill:#5D5360;" d="M128,376c-4.422,0-8-3.578-8-8v-16c0-4.422,3.578-8,8-8s8,3.578,8,8v16
		C136,372.422,132.422,376,128,376z"/>
	<path style="fill:#5D5360;" d="M96,376c-4.422,0-8-3.578-8-8v-16c0-4.422,3.578-8,8-8s8,3.578,8,8v16
		C104,372.422,100.422,376,96,376z"/>
	<path style="fill:#5D5360;" d="M416,376c-4.422,0-8-3.578-8-8v-16c0-4.422,3.578-8,8-8s8,3.578,8,8v16
		C424,372.422,420.422,376,416,376z"/>
	<path style="fill:#5D5360;" d="M160,376c-4.422,0-8-3.578-8-8v-16c0-4.422,3.578-8,8-8s8,3.578,8,8v16
		C168,372.422,164.422,376,160,376z"/>
</g>
<g>
	<path style="fill:#6F6571;" d="M96,328c-4.422,0-8-3.578-8-8V144c0-4.422,3.578-8,8-8s8,3.578,8,8v176
		C104,324.422,100.422,328,96,328z"/>
	<path style="fill:#6F6571;" d="M416,328c-4.422,0-8-3.578-8-8V144c0-4.422,3.578-8,8-8s8,3.578,8,8v176
		C424,324.422,420.422,328,416,328z"/>
	<path style="fill:#6F6571;" d="M128,328c-4.422,0-8-3.578-8-8V144c0-4.422,3.578-8,8-8s8,3.578,8,8v176
		C136,324.422,132.422,328,128,328z"/>
	<path style="fill:#6F6571;" d="M160,328c-4.422,0-8-3.578-8-8V144c0-4.422,3.578-8,8-8s8,3.578,8,8v176
		C168,324.422,164.422,328,160,328z"/>
	<path style="fill:#6F6571;" d="M192,328c-4.422,0-8-3.578-8-8V144c0-4.422,3.578-8,8-8s8,3.578,8,8v176
		C200,324.422,196.422,328,192,328z"/>
	<path style="fill:#6F6571;" d="M224,328c-4.422,0-8-3.578-8-8V144c0-4.422,3.578-8,8-8s8,3.578,8,8v176
		C232,324.422,228.422,328,224,328z"/>
</g>
<g>
	<path style="fill:#5D5360;" d="M256,376c-4.422,0-8-3.578-8-8V144c0-4.422,3.578-8,8-8s8,3.578,8,8v224
		C264,372.422,260.422,376,256,376z"/>
	<path style="fill:#5D5360;" d="M448,376c-4.422,0-8-3.578-8-8V144c0-4.422,3.578-8,8-8s8,3.578,8,8v224
		C456,372.422,452.422,376,448,376z"/>
	<path style="fill:#5D5360;" d="M64,376c-4.422,0-8-3.578-8-8V144c0-4.422,3.578-8,8-8s8,3.578,8,8v224
		C72,372.422,68.422,376,64,376z"/>
</g>
<g>
	<path style="fill:#6F6571;" d="M288,328c-4.422,0-8-3.578-8-8V144c0-4.422,3.578-8,8-8s8,3.578,8,8v176
		C296,324.422,292.422,328,288,328z"/>
	<path style="fill:#6F6571;" d="M320,328c-4.422,0-8-3.578-8-8V144c0-4.422,3.578-8,8-8s8,3.578,8,8v176
		C328,324.422,324.422,328,320,328z"/>
	<path style="fill:#6F6571;" d="M352,328c-4.422,0-8-3.578-8-8V144c0-4.422,3.578-8,8-8s8,3.578,8,8v176
		C360,324.422,356.422,328,352,328z"/>
	<path style="fill:#6F6571;" d="M384,328c-4.422,0-8-3.578-8-8V144c0-4.422,3.578-8,8-8s8,3.578,8,8v176
		C392,324.422,388.422,328,384,328z"/>
</g>
<g>
	<path style="fill:#E6646E;" d="M8,120c-4.422,0-8-3.578-8-8V72c0-8.82,7.18-16,16-16h40c4.422,0,8,3.578,8,8s-3.578,8-8,8H16v40
		C16,116.422,12.422,120,8,120z"/>
	<path style="fill:#E6646E;" d="M504,120c-4.422,0-8-3.578-8-8V72h-40c-4.422,0-8-3.578-8-8s3.578-8,8-8h40c8.82,0,16,7.18,16,16v40
		C512,116.422,508.422,120,504,120z"/>
	<path style="fill:#E6646E;" d="M496,456h-40c-4.422,0-8-3.578-8-8s3.578-8,8-8h40v-40c0-4.422,3.578-8,8-8s8,3.578,8,8v40
		C512,448.82,504.82,456,496,456z"/>
	<path style="fill:#E6646E;" d="M56,456H16c-8.82,0-16-7.18-16-16v-40c0-4.422,3.578-8,8-8s8,3.578,8,8v40h40c4.422,0,8,3.578,8,8
		S60.422,456,56,456z"/>
</g>
<g>
</g>
<g>
</g>
<g>
</g>
<g>
</g>
<g>
</g>
<g>
</g>
<g>
</g>
<g>
</g>
<g>
</g>
<g>
</g>
<g>
</g>
<g>
</g>
<g>
</g>
<g>
</g>
<g>
</g>
</svg>
