<?xml version="1.0" encoding="iso-8859-1"?>

<svg version="1.1" id="Capa_1" xmlns="http://www.w3.org/2000/svg" xmlns:xlink="http://www.w3.org/1999/xlink" x="0px" y="0px"
	 viewBox="0 0 512 512" style="enable-background:new 0 0 512 512;" xml:space="preserve">
<path style="fill:#FFE17D;" d="M346.839,404.645H165.161c-31.871,0-57.806-25.935-57.806-57.806V165.161
	c0-31.871,25.935-57.806,57.806-57.806h181.677c31.871,0,57.806,25.935,57.806,57.806v181.677
	C404.645,378.71,378.71,404.645,346.839,404.645z M165.161,123.871c-22.766,0-41.29,18.524-41.29,41.29v181.677
	c0,22.766,18.524,41.29,41.29,41.29h181.677c22.766,0,41.29-18.524,41.29-41.29V165.161c0-22.766-18.524-41.29-41.29-41.29
	C346.839,123.871,165.161,123.871,165.161,123.871z"/>
<path style="fill:#9C969E;" d="M388.129,165.161v181.677c0,22.766-18.524,41.29-41.29,41.29H165.161
	c-11.383,0-21.706-4.631-29.182-12.108l-11.672,11.672c10.468,10.468,24.919,16.952,40.855,16.952h181.677
	c31.871,0,57.806-25.935,57.806-57.806V165.161c0-15.935-6.484-30.387-16.952-40.855l-11.672,11.672
	C383.498,143.456,388.129,153.778,388.129,165.161z"/>
<path style="fill:#867E88;" d="M313.806,280.774h165.161c18.243,0,33.032,14.789,33.032,33.032v165.161
	C512,497.211,497.211,512,478.968,512H313.806c-18.243,0-33.032-14.789-33.032-33.032V313.806
	C280.774,295.563,295.563,280.774,313.806,280.774z"/>
<path style="fill:#6F6571;" d="M400.516,483.097c-50.169,0-90.839-40.67-90.839-90.839V281.191
	c-16.272,2.053-28.903,15.787-28.903,32.616v165.161c0,18.243,14.789,33.032,33.032,33.032h165.161
	c16.829,0,30.563-12.631,32.616-28.903H400.516z"/>
<path style="fill:#FFD164;" d="M33.033,0h165.161c18.243,0,33.032,14.789,33.032,33.032v165.161
	c0,18.243-14.789,33.032-33.032,33.032H33.033c-18.243,0.001-33.032-14.788-33.032-33.031V33.032C0.001,14.789,14.79,0,33.033,0z"/>
<g>
	<path style="fill:#FFFFFF;" d="M123.872,109.934V67.148c9.494,2.404,16.516,8.704,16.516,15.949c0,4.565,3.694,8.258,8.258,8.258
		s8.258-3.694,8.258-8.258c0-16.202-14.21-29.753-33.032-32.87v-0.678c0-4.565-3.694-8.258-8.258-8.258
		c-4.565,0-8.258,3.694-8.258,8.258v0.678c-18.823,3.117-33.032,16.668-33.032,32.87c0,21.956,15.621,31.341,33.032,38.194v42.787
		c-9.494-2.404-16.516-8.704-16.516-15.949c0-4.565-3.694-8.258-8.258-8.258c-4.565,0-8.258,3.694-8.258,8.258
		c0,16.202,14.21,29.753,33.032,32.87v0.678c0,4.565,3.694,8.258,8.258,8.258c4.565,0,8.258-3.694,8.258-8.258v-0.678
		c18.823-3.117,33.032-16.668,33.032-32.87C156.904,126.173,141.283,116.788,123.872,109.934z M90.84,83.097
		c0-7.245,7.022-13.544,16.516-15.949v36.17C94.921,97.56,90.84,92.184,90.84,83.097z M123.872,164.078v-36.17
		c12.435,5.757,16.516,11.134,16.516,20.222C140.387,155.374,133.366,161.673,123.872,164.078z"/>
	<path style="fill:#FFFFFF;" d="M454.194,417.032c0-14.835-8.795-27.567-21.393-33.521c3.073-4.592,4.877-10.1,4.877-16.027
		c0-11.486-6.786-21.347-16.516-26.004v-11.157c0-4.565-3.694-8.258-8.258-8.258s-8.258,3.694-8.258,8.258v8.258h-16.516v-8.258
		c0-4.565-3.694-8.258-8.258-8.258s-8.258,3.694-8.258,8.258v8.258h-8.258c-4.565,0-8.258,3.694-8.258,8.258
		s3.694,8.258,8.258,8.258v82.581c-4.565,0-8.258,3.694-8.258,8.258s3.694,8.258,8.258,8.258h8.258v8.258
		c0,4.565,3.694,8.258,8.258,8.258s8.258-3.694,8.258-8.258v-8.258h16.516v8.258c0,4.565,3.694,8.258,8.258,8.258
		s8.258-3.694,8.258-8.258v-8.675C439.692,451.692,454.194,436.111,454.194,417.032z M408.774,355.097
		c6.831,0,12.387,5.556,12.387,12.387s-5.556,12.387-12.387,12.387h-28.903v-24.774H408.774z M417.033,437.677h-37.161v-41.29
		h28.903h8.258c11.387,0,20.645,9.258,20.645,20.645S428.419,437.677,417.033,437.677z"/>
</g>
<path style="fill:#FFC350;" d="M119.743,202.323c-50.169,0-90.839-40.67-90.839-90.839V0.416C12.632,2.47,0.001,16.204,0.001,33.032
	v165.161c0,18.243,14.789,33.032,33.032,33.032h165.161c16.829,0,30.563-12.631,32.616-28.903H119.743V202.323z"/>
<g>
	<path style="fill:#CDBB8E;" d="M369.628,119.017L369.628,119.017c-3.597,3.597-3.157,9.579,0.993,12.52
		c3.811,2.701,7.141,6.031,9.842,9.842c2.941,4.15,8.923,4.59,12.52,0.993l0,0c2.916-2.916,3.23-7.521,0.822-10.869
		c-3.684-5.124-8.184-9.624-13.308-13.308C377.149,115.787,372.544,116.101,369.628,119.017z"/>
	<path style="fill:#CDBB8E;" d="M119.018,369.629L119.018,369.629c-2.916,2.916-3.229,7.52-0.822,10.869
		c3.683,5.125,8.184,9.625,13.308,13.308c3.349,2.407,7.953,2.093,10.869-0.823l0,0c3.596-3.596,3.156-9.579-0.993-12.52
		c-3.811-2.701-7.141-6.03-9.842-9.842C128.596,366.472,122.614,366.032,119.018,369.629z"/>
</g>
<g>
</g>
<g>
</g>
<g>
</g>
<g>
</g>
<g>
</g>
<g>
</g>
<g>
</g>
<g>
</g>
<g>
</g>
<g>
</g>
<g>
</g>
<g>
</g>
<g>
</g>
<g>
</g>
<g>
</g>
</svg>
