<?xml version="1.0" encoding="iso-8859-1"?>

<svg version="1.1" id="Capa_1" xmlns="http://www.w3.org/2000/svg" xmlns:xlink="http://www.w3.org/1999/xlink" x="0px" y="0px"
	 viewBox="0 0 512 512" style="enable-background:new 0 0 512 512;" xml:space="preserve">
<circle style="fill:#867E88;" cx="256" cy="256" r="256"/>
<path style="fill:#6F6571;" d="M423.675,361.62c22.702-35.934,34.197-79.646,29.469-126.272
	c-9.378-92.487-84.014-167.12-176.501-176.493c-46.623-4.725-90.331,6.77-126.264,29.47c-6.194,3.913-14.179-1.326-12.639-8.489
	c4.623-21.494,12.021-41.956,21.825-60.985C65.994,56.941,0.002,148.737,0,255.994C-0.003,398.062,113.94,512.004,256.008,512
	c107.257-0.003,199.051-65.994,237.142-159.567c-19.029,9.805-39.491,17.202-60.986,21.825
	C425.001,375.8,419.762,367.814,423.675,361.62z"/>
<circle style="fill:#AEA8AF;" cx="256" cy="256" r="181.68"/>
<path style="fill:#9C969E;" d="M124.896,169.933c-19.309,29.307-29.107,65.422-24.794,104.035
	c8.025,71.837,66.08,129.897,137.916,137.928c38.617,4.317,74.738-5.48,104.048-24.793c4.351-2.867,2.84-9.641-2.303-10.479
	c-104.693-17.042-187.346-99.696-204.389-204.389C134.538,167.093,127.763,165.581,124.896,169.933z"/>
<path style="fill:#6F6571;" d="M256,487.226C128.5,487.226,24.774,383.5,24.774,256S128.5,24.774,256,24.774
	S487.226,128.5,487.226,256S383.5,487.226,256,487.226z M256,41.29C137.605,41.29,41.29,137.605,41.29,256
	S137.605,470.71,256,470.71S470.71,374.395,470.71,256S374.395,41.29,256,41.29z"/>
<g>
	<path style="fill:#5D5360;" d="M435.596,373.464C397.201,431.97,331.059,470.71,256,470.71c-118.395,0-214.71-96.315-214.71-214.71
		c0-75.058,38.74-141.202,97.246-179.597c1.828-7.911,4.052-15.663,6.617-23.266C73.48,92.457,24.774,168.64,24.774,256
		C24.774,383.5,128.5,487.226,256,487.226c87.36,0,163.543-48.706,202.863-120.38C451.261,369.411,443.509,371.636,435.596,373.464z
		"/>
	<path style="fill:#5D5360;" d="M307.952,243.952c9.952-9.419,16.177-22.742,16.177-37.5c0-27.762-22.049-50.413-49.548-51.508
		v-14.556c0-5.702-4.621-10.323-10.323-10.323s-10.323,4.621-10.323,10.323v14.452h-12.387v-14.452
		c0-5.702-4.621-10.323-10.323-10.323s-10.323,4.621-10.323,10.323v14.452h-30.968c-5.702,0-10.323,4.621-10.323,10.323
		s4.621,10.323,10.323,10.323h6.194v161.032h-6.194c-5.702,0-10.323,4.621-10.323,10.323s4.621,10.323,10.323,10.323h30.968v14.452
		c0,5.702,4.621,10.323,10.323,10.323s10.323-4.621,10.323-10.323v-14.452h12.387v14.452c0,5.702,4.621,10.323,10.323,10.323
		s10.323-4.621,10.323-10.323v-14.452h6.194c33.016,0,59.871-26.855,59.871-59.871C340.645,274.056,327.339,253.871,307.952,243.952
		z M272.516,175.484c17.073,0,30.968,13.895,30.968,30.968s-13.895,30.968-30.968,30.968h-55.742v-61.935h55.742V175.484z
		 M280.774,336.516h-64v-78.452h64c21.629,0,39.226,17.597,39.226,39.226S302.403,336.516,280.774,336.516z"/>
</g>
<g>
</g>
<g>
</g>
<g>
</g>
<g>
</g>
<g>
</g>
<g>
</g>
<g>
</g>
<g>
</g>
<g>
</g>
<g>
</g>
<g>
</g>
<g>
</g>
<g>
</g>
<g>
</g>
<g>
</g>
</svg>
