<?xml version="1.0" encoding="iso-8859-1"?>

<svg version="1.1" id="Capa_1" xmlns="http://www.w3.org/2000/svg" xmlns:xlink="http://www.w3.org/1999/xlink" x="0px" y="0px"
	 viewBox="0 0 512 512" style="enable-background:new 0 0 512 512;" xml:space="preserve">
<circle style="fill:#FFD164;" cx="256" cy="256" r="256"/>
<path style="fill:#FFC350;" d="M423.675,361.62c22.702-35.934,34.197-79.646,29.469-126.272
	c-9.378-92.487-84.014-167.12-176.501-176.493c-46.623-4.725-90.331,6.77-126.264,29.47c-6.194,3.913-14.179-1.326-12.639-8.489
	c4.623-21.494,12.021-41.956,21.825-60.985C65.994,56.941,0.002,148.737,0,255.994C-0.003,398.062,113.94,512.004,256.008,512
	c107.257-0.003,199.051-65.994,237.142-159.567c-19.029,9.805-39.491,17.202-60.986,21.825
	C425.001,375.8,419.762,367.814,423.675,361.62z"/>
<circle style="fill:#FFEDB1;" cx="256" cy="256" r="181.68"/>
<path style="fill:#FFE17D;" d="M124.896,169.933c-19.309,29.307-29.107,65.422-24.794,104.035
	c8.025,71.837,66.08,129.897,137.916,137.928c38.617,4.317,74.738-5.48,104.048-24.793c4.351-2.867,2.84-9.641-2.303-10.479
	c-104.693-17.042-187.346-99.696-204.389-204.389C134.538,167.093,127.763,165.581,124.896,169.933z"/>
<path style="fill:#E1A546;" d="M285.25,256.887v-82.403c11.015,6.111,18.234,15.474,18.234,25.774
	c0,5.702,4.621,10.323,10.323,10.323s10.323-4.621,10.323-10.323c0-21.341-15.93-39.758-38.879-48.404v-11.467
	c0-5.702-4.621-10.323-10.323-10.323s-10.323,4.621-10.323,10.323v6.67c-2.825-0.282-5.684-0.477-8.605-0.477
	s-5.78,0.195-8.605,0.477v-6.67c0-5.702-4.621-10.323-10.323-10.323s-10.323,4.621-10.323,10.323v11.467
	c-22.948,8.645-38.879,27.064-38.879,48.404c0,28.502,17.002,44.008,38.879,54.855v82.403
	c-11.015-6.111-18.234-15.474-18.234-25.774c0-5.702-4.621-10.323-10.323-10.323s-10.323,4.621-10.323,10.323
	c0,21.341,15.931,39.759,38.879,48.404v11.467c0,5.702,4.621,10.323,10.323,10.323s10.323-4.621,10.323-10.323v-6.67
	c2.825,0.282,5.684,0.477,8.605,0.477c2.921,0,5.78-0.195,8.605-0.477v6.67c0,5.702,4.621,10.323,10.323,10.323
	s10.323-4.621,10.323-10.323v-11.467c22.949-8.646,38.879-27.064,38.879-48.404C324.129,283.24,307.128,267.734,285.25,256.887z
	 M256,167.226c2.932,0,5.802,0.22,8.605,0.595v80.335c-1.708-0.633-3.42-1.26-5.137-1.873c-4.305-1.538-8.327-3.04-12.073-4.536
	v-73.925C250.198,167.446,253.068,167.226,256,167.226z M208.516,200.258c0-10.3,7.219-19.663,18.234-25.774v57.052
	C214.561,223.712,208.516,214.456,208.516,200.258z M256,344.774c-2.932,0-5.802-0.22-8.605-0.595v-80.335
	c1.708,0.633,3.42,1.26,5.137,1.873c4.305,1.538,8.327,3.04,12.073,4.536v73.925C261.802,344.554,258.932,344.774,256,344.774z
	 M285.25,337.516v-57.052c12.189,7.825,18.234,17.081,18.234,31.278C303.484,322.042,296.265,331.405,285.25,337.516z"/>
<path style="fill:#FFC350;" d="M256,487.226C128.5,487.226,24.774,383.5,24.774,256S128.5,24.774,256,24.774
	S487.226,128.5,487.226,256S383.5,487.226,256,487.226z M256,41.29C137.605,41.29,41.29,137.605,41.29,256
	S137.605,470.71,256,470.71S470.71,374.395,470.71,256S374.395,41.29,256,41.29z"/>
<path style="fill:#E1A546;" d="M435.596,373.464C397.201,431.97,331.059,470.71,256,470.71c-118.395,0-214.71-96.315-214.71-214.71
	c0-75.058,38.74-141.202,97.246-179.597c1.828-7.911,4.052-15.663,6.617-23.266C73.48,92.457,24.774,168.64,24.774,256
	C24.774,383.5,128.5,487.226,256,487.226c87.36,0,163.543-48.706,202.863-120.38C451.261,369.411,443.509,371.636,435.596,373.464z"
	/>
<g>
</g>
<g>
</g>
<g>
</g>
<g>
</g>
<g>
</g>
<g>
</g>
<g>
</g>
<g>
</g>
<g>
</g>
<g>
</g>
<g>
</g>
<g>
</g>
<g>
</g>
<g>
</g>
<g>
</g>
</svg>
