<?xml version="1.0" encoding="iso-8859-1"?>

<svg version="1.1" id="Capa_1" xmlns="http://www.w3.org/2000/svg" xmlns:xlink="http://www.w3.org/1999/xlink" x="0px" y="0px"
	 viewBox="0 0 512 512" style="enable-background:new 0 0 512 512;" xml:space="preserve">
<path style="fill:#5D5360;" d="M33.032,429.419v33.032c0,4.56,3.697,8.258,8.258,8.258h16.836c5.017,0,9.763-2.28,12.897-6.199
	l28.074-35.092H33.032V429.419z"/>
<polygon style="fill:#4B3F4E;" points="33.032,454.194 79.277,454.194 99.097,429.419 33.032,429.419 "/>
<path style="fill:#5D5360;" d="M478.968,429.419v33.032c0,4.56-3.697,8.258-8.258,8.258h-16.836c-5.017,0-9.763-2.28-12.897-6.199
	l-28.074-35.092h66.065V429.419z"/>
<polygon style="fill:#4B3F4E;" points="478.968,454.194 432.723,454.194 412.903,429.419 478.968,429.419 "/>
<path style="fill:#6F6571;" d="M478.968,437.677H33.032C14.789,437.677,0,422.888,0,404.645V74.323
	C0,56.079,14.789,41.29,33.032,41.29h445.935C497.211,41.29,512,56.079,512,74.323v330.323
	C512,422.888,497.211,437.677,478.968,437.677z"/>
<path style="fill:#867E88;" d="M438.549,185.371c-5.596,2.797-9.13,8.516-9.13,14.772v78.681c0,6.256,3.534,11.975,9.13,14.772
	l23.902,11.952V173.419L438.549,185.371z"/>
<path style="fill:#9C969E;" d="M324.129,272.516c0-19.792-11.211-36.994-27.604-45.651c6.815-7.661,11.088-17.637,11.088-28.671
	c0-20.329-14.121-37.313-33.032-41.976v-7.573c0-5.702-4.621-10.323-10.323-10.323s-10.323,4.621-10.323,10.323v6.194h-12.387
	v-6.194c0-5.702-4.621-10.323-10.323-10.323s-10.323,4.621-10.323,10.323v6.194h-22.71c-5.702,0-10.323,4.621-10.323,10.323
	s4.621,10.323,10.323,10.323h6.194v128h-6.194c-5.702,0-10.323,4.621-10.323,10.323s4.621,10.323,10.323,10.323h22.71v6.194
	c0,5.702,4.621,10.323,10.323,10.323s10.323-4.621,10.323-10.323v-6.194h12.387v6.194c0,5.702,4.621,10.323,10.323,10.323
	s10.323-4.621,10.323-10.323v-6.298C302.08,322.929,324.129,300.279,324.129,272.516z M264.258,175.484
	c12.524,0,22.71,10.185,22.71,22.71c0,12.524-10.185,22.71-22.71,22.71h-39.226v-45.419L264.258,175.484L264.258,175.484z
	 M272.516,303.484h-47.484v-61.935h47.484c17.073,0,30.968,13.895,30.968,30.968C303.484,289.589,289.589,303.484,272.516,303.484z"
	/>
<g>
	<path style="fill:#5D5360;" d="M57.806,412.904c-18.243,0-33.032-14.789-33.032-33.032V42.458C10.552,46.141,0,58.948,0,74.323
		v330.323c0,18.243,14.789,33.032,33.032,33.032h445.935c15.374,0,28.18-10.552,31.865-24.774H57.806V412.904z"/>
	<path style="fill:#5D5360;" d="M454.194,396.387H57.806c-9.105,0-16.516-7.411-16.516-16.516V99.097
		c0-9.105,7.411-16.516,16.516-16.516h396.387c9.105,0,16.516,7.411,16.516,16.516v280.774
		C470.71,388.977,463.298,396.387,454.194,396.387z M57.806,99.097v280.774H454.21l-0.016-280.774L57.806,99.097L57.806,99.097z"/>
</g>
<path style="fill:#9C969E;" d="M57.806,132.129H41.29c-4.561,0-8.258,3.697-8.258,8.258v49.548c0,4.561,3.697,8.258,8.258,8.258
	h16.516c4.561,0,8.258-3.697,8.258-8.258v-49.548C66.065,135.826,62.367,132.129,57.806,132.129z"/>
<path style="fill:#867E88;" d="M49.548,189.935v-49.548c0-4.56,3.697-8.258,8.258-8.258H41.29c-4.561,0-8.258,3.698-8.258,8.258
	v49.548c0,4.56,3.697,8.258,8.258,8.258h16.516C53.245,198.194,49.548,194.496,49.548,189.935z"/>
<path style="fill:#9C969E;" d="M57.806,280.774H41.29c-4.561,0-8.258,3.697-8.258,8.258v49.548c0,4.561,3.697,8.258,8.258,8.258
	h16.516c4.561,0,8.258-3.697,8.258-8.258v-49.548C66.065,284.471,62.367,280.774,57.806,280.774z"/>
<path style="fill:#867E88;" d="M49.548,338.581v-49.548c0-4.56,3.697-8.258,8.258-8.258H41.29c-4.561,0-8.258,3.698-8.258,8.258
	v49.548c0,4.56,3.697,8.258,8.258,8.258h16.516C53.245,346.839,49.548,343.141,49.548,338.581z"/>
<g>
</g>
<g>
</g>
<g>
</g>
<g>
</g>
<g>
</g>
<g>
</g>
<g>
</g>
<g>
</g>
<g>
</g>
<g>
</g>
<g>
</g>
<g>
</g>
<g>
</g>
<g>
</g>
<g>
</g>
</svg>
