<?xml version="1.0" encoding="iso-8859-1"?>

<svg version="1.1" id="Capa_1" xmlns="http://www.w3.org/2000/svg" xmlns:xlink="http://www.w3.org/1999/xlink" x="0px" y="0px"
	 viewBox="0 0 512 512" style="enable-background:new 0 0 512 512;" xml:space="preserve">
<path style="fill:#EDEBED;" d="M410.376,38.064l-356.33,72.685h380.127l-14.068-66.307
	C419.164,40.005,414.821,37.158,410.376,38.064z"/>
<path style="fill:#DBD9DC;" d="M450.281,77.67c-0.486-4.535-4.556-7.818-9.091-7.332L63.955,110.749h389.87L450.281,77.67z"/>
<path style="fill:#FFE17D;" d="M462.452,474.104H33.032C14.789,474.104,0,459.315,0,441.072v-297.29
	c0-18.243,14.789-33.032,33.032-33.032h429.419c18.243,0,33.032,14.789,33.032,33.032v297.29
	C495.484,459.315,480.695,474.104,462.452,474.104z"/>
<path style="fill:#FFD164;" d="M289.032,457.588c-136.824,0-247.742-110.918-247.742-247.742v-99.097h-8.258
	C14.789,110.749,0,125.538,0,143.781v297.29c0,18.243,14.789,33.032,33.032,33.032h429.419c12.196,0,22.729-6.684,28.451-16.516
	L289.032,457.588L289.032,457.588z"/>
<path style="fill:#FFC350;" d="M462.452,432.814V152.039c0-4.565-3.694-8.258-8.258-8.258H0v16.516h445.935v264.258H0v16.516
	h454.194C458.758,441.072,462.452,437.378,462.452,432.814z"/>
<path style="fill:#FFD164;" d="M495.484,341.975H379.871c-9.122,0-16.516-7.395-16.516-16.516v-66.065
	c0-9.122,7.395-16.516,16.516-16.516h115.613c9.122,0,16.516,7.395,16.516,16.516v66.065
	C512,334.58,504.605,341.975,495.484,341.975z"/>
<circle style="fill:#9C969E;" cx="412.9" cy="292.43" r="20.645"/>
<path style="fill:#867E88;" d="M425.29,300.685c-11.402,0-20.645-9.244-20.645-20.645c0-2.458,0.503-4.781,1.291-6.968
	c-7.957,2.867-13.678,10.41-13.678,19.355c0,11.401,9.243,20.645,20.645,20.645c8.945,0,16.487-5.722,19.354-13.677
	C430.072,300.182,427.748,300.685,425.29,300.685z"/>
<g>
</g>
<g>
</g>
<g>
</g>
<g>
</g>
<g>
</g>
<g>
</g>
<g>
</g>
<g>
</g>
<g>
</g>
<g>
</g>
<g>
</g>
<g>
</g>
<g>
</g>
<g>
</g>
<g>
</g>
</svg>
