<?xml version="1.0" encoding="iso-8859-1"?>

<svg version="1.1" id="Capa_1" xmlns="http://www.w3.org/2000/svg" xmlns:xlink="http://www.w3.org/1999/xlink" x="0px" y="0px"
	 viewBox="0 0 512 512" style="enable-background:new 0 0 512 512;" xml:space="preserve">
<path style="fill:#EDEBED;" d="M404.645,280.776H8.258c-4.561,0-8.258-3.697-8.258-8.258V74.326c0-4.561,3.697-8.258,8.258-8.258
	h396.387c4.561,0,8.258,3.697,8.258,8.258V272.52C412.903,277.079,409.206,280.776,404.645,280.776z"/>
<g>
	<path style="fill:#C0BCC1;" d="M346.839,256.003H66.065c-4.565,0-8.258-3.694-8.258-8.258c0-13.661-11.113-24.774-24.774-24.774
		c-4.565,0-8.258-3.694-8.258-8.258v-82.581c0-4.565,3.694-8.258,8.258-8.258c13.661,0,24.774-11.113,24.774-24.774
		c0-4.565,3.694-8.258,8.258-8.258h280.774c4.565,0,8.258,3.694,8.258,8.258c0,13.661,11.113,24.774,24.774,24.774
		c4.565,0,8.258,3.694,8.258,8.258v82.581c0,4.565-3.694,8.258-8.258,8.258c-13.661,0-24.774,11.113-24.774,24.774
		C355.097,252.309,351.403,256.003,346.839,256.003z"/>
	<circle style="fill:#C0BCC1;" cx="33.03" cy="99.103" r="12.387"/>
	<circle style="fill:#C0BCC1;" cx="33.03" cy="247.743" r="12.387"/>
</g>
<path style="fill:#DBD9DC;" d="M73.492,239.486h265.919c3.29-16.153,16.048-28.911,32.202-32.202v-67.726
	c-16.153-3.29-28.911-16.048-32.202-32.202H73.492c-3.29,16.153-16.048,28.911-32.202,32.202v67.726
	C57.444,210.576,70.202,223.333,73.492,239.486z"/>
<circle style="fill:#FFD164;" cx="396.39" cy="330.323" r="115.61"/>
<circle style="fill:#FFE17D;" cx="396.39" cy="330.323" r="99.1"/>
<g>
	<path style="fill:#E1A546;" d="M421.161,217.441v79.853h16.516V222.44C432.341,220.395,426.844,218.682,421.161,217.441z"/>
	<path style="fill:#E1A546;" d="M355.097,438.212c5.337,2.044,10.833,3.757,16.516,4.999v-79.853h-16.516V438.212z"/>
</g>
<g>
	<path style="fill:#FFC350;" d="M509.272,355.099h-88.111v88.111c5.683-1.242,11.179-2.955,16.516-4.999v-66.596h66.596
		C506.318,366.279,508.03,360.783,509.272,355.099z"/>
	<path style="fill:#FFC350;" d="M283.502,305.551h88.111V217.44c-5.683,1.242-11.179,2.955-16.516,4.999v66.596h-66.596
		C286.457,294.371,284.744,299.867,283.502,305.551z"/>
</g>
<g>
	<circle style="fill:#AEA8AF;" cx="90.84" cy="173.423" r="16.516"/>
	<circle style="fill:#AEA8AF;" cx="322.06" cy="173.423" r="16.516"/>
	<path style="fill:#AEA8AF;" d="M206.452,256.003c-40.984,0-74.323-37.048-74.323-82.581s33.339-82.581,74.323-82.581
		s74.323,37.048,74.323,82.581S247.435,256.003,206.452,256.003z"/>
</g>
<path style="fill:#C0BCC1;" d="M206.452,107.358c-31.871,0-57.806,29.637-57.806,66.065s25.935,66.065,57.806,66.065
	s57.806-29.637,57.806-66.065S238.323,107.358,206.452,107.358z"/>
<path style="fill:#FFFFFF;" d="M231.226,192.003c0-17.21-14.048-23.056-21.597-26.202c-10.355-4.315-11.435-6.653-11.435-10.96
	c0-3.355,3.782-6.194,8.258-6.194c4.355,0,7.419,2.565,8.097,4.976c1.226,4.403,5.823,6.992,10.169,5.734
	c4.395-1.226,6.96-5.782,5.734-10.169c-2.093-7.489-8.116-13.286-15.742-15.754v-1.302c0-4.565-3.694-8.258-8.258-8.258
	s-8.258,3.694-8.258,8.258v1.395c-9.592,3.134-16.516,11.458-16.516,21.315c0,17.21,14.048,23.056,21.597,26.202
	c10.355,4.315,11.435,6.653,11.435,10.96c0,3.355-3.782,6.194-8.258,6.194c-4.355,0-7.419-2.565-8.097-4.976
	c-1.226-4.403-5.798-6.952-10.169-5.734c-4.395,1.226-6.96,5.782-5.734,10.169c2.093,7.489,8.116,13.286,15.742,15.754v1.302
	c0,4.565,3.694,8.258,8.258,8.258s8.258-3.694,8.258-8.258v-1.395C224.301,210.184,231.226,201.859,231.226,192.003z"/>
<circle style="fill:#C0BCC1;" cx="379.87" cy="99.103" r="12.387"/>
<path style="fill:#9C969E;" d="M363.355,322.068c-13.661,0-24.774-11.113-24.774-24.774s11.113-24.774,24.774-24.774
	c13.661,0,24.774,11.113,24.774,24.774S377.016,322.068,363.355,322.068z"/>
<path style="fill:#5D5360;" d="M363.355,289.035c-4.556,0-8.258,3.702-8.258,8.258s3.702,8.258,8.258,8.258s8.258-3.702,8.258-8.258
	S367.911,289.035,363.355,289.035z"/>
<path style="fill:#9C969E;" d="M429.419,322.068c-13.661,0-24.774-11.113-24.774-24.774s11.113-24.774,24.774-24.774
	c13.661,0,24.774,11.113,24.774,24.774S443.081,322.068,429.419,322.068z"/>
<path style="fill:#5D5360;" d="M429.419,289.035c-4.556,0-8.258,3.702-8.258,8.258s3.702,8.258,8.258,8.258s8.258-3.702,8.258-8.258
	S433.976,289.035,429.419,289.035z"/>
<path style="fill:#9C969E;" d="M363.355,388.132c-13.661,0-24.774-11.113-24.774-24.774c0-13.661,11.113-24.774,24.774-24.774
	c13.661,0,24.774,11.113,24.774,24.774S377.016,388.132,363.355,388.132z"/>
<path style="fill:#5D5360;" d="M363.355,355.099c-4.556,0-8.258,3.702-8.258,8.258s3.702,8.258,8.258,8.258s8.258-3.702,8.258-8.258
	C371.613,358.801,367.911,355.099,363.355,355.099z"/>
<path style="fill:#9C969E;" d="M429.419,388.132c-13.661,0-24.774-11.113-24.774-24.774c0-13.661,11.113-24.774,24.774-24.774
	c13.661,0,24.774,11.113,24.774,24.774C454.194,377.018,443.081,388.132,429.419,388.132z"/>
<path style="fill:#5D5360;" d="M429.419,355.099c-4.556,0-8.258,3.702-8.258,8.258s3.702,8.258,8.258,8.258s8.258-3.702,8.258-8.258
	C437.677,358.801,433.976,355.099,429.419,355.099z"/>
<g>
</g>
<g>
</g>
<g>
</g>
<g>
</g>
<g>
</g>
<g>
</g>
<g>
</g>
<g>
</g>
<g>
</g>
<g>
</g>
<g>
</g>
<g>
</g>
<g>
</g>
<g>
</g>
<g>
</g>
</svg>
