<?xml version="1.0" encoding="iso-8859-1"?>

<svg version="1.1" id="Capa_1" xmlns="http://www.w3.org/2000/svg" xmlns:xlink="http://www.w3.org/1999/xlink" x="0px" y="0px"
	 viewBox="0 0 512 512" style="enable-background:new 0 0 512 512;" xml:space="preserve">
<path style="fill:#DBD9DC;" d="M375.743,90.839V24.774C375.743,11.092,364.651,0,350.969,0h-66.065
	c-13.682,0-24.774,11.092-24.774,24.774v66.065c0,13.682-11.092,24.774-24.774,24.774v280.774c13.682,0,24.774,11.092,24.774,24.774
	v66.065c0,13.682,11.092,24.774,24.774,24.774h66.065c13.682,0,24.774-11.092,24.774-24.774v-66.065
	c0-13.682,11.092-24.774,24.774-24.774V115.613C386.835,115.613,375.743,104.521,375.743,90.839z"/>
<path style="fill:#C9C6CA;" d="M168.29,238.484c0,2.113-0.806,4.226-2.419,5.839c-6.242,6.242-6.242,17.113,0,23.355
	c3.226,3.226,3.226,8.452,0,11.677c-3.218,3.226-8.452,3.226-11.677,0c-12.484-12.468-12.484-34.242,0-46.71
	c3.226-3.226,8.46-3.226,11.677,0C167.484,234.258,168.29,236.371,168.29,238.484z"/>
<path style="fill:#DBD9DC;" d="M133.251,203.444c0,2.113-0.806,4.226-2.419,5.839c-25.758,25.758-25.758,67.677,0,93.435
	c3.226,3.226,3.226,8.452,0,11.677c-3.226,3.226-8.452,3.226-11.677,0c-32.194-32.194-32.194-84.597,0-116.79
	c3.226-3.226,8.452-3.226,11.677,0C132.445,199.218,133.251,201.331,133.251,203.444z"/>
<path style="fill:#EDEBED;" d="M98.219,168.411c0,2.113-0.806,4.226-2.419,5.839C73.961,196.089,61.936,225.121,61.936,256
	s12.024,59.911,33.863,81.75c3.226,3.226,3.226,8.452,0,11.677c-3.226,3.226-8.452,3.226-11.677,0
	C59.162,324.476,45.42,291.29,45.42,256s13.742-68.476,38.702-93.427c3.226-3.226,8.452-3.226,11.677,0
	C97.412,164.185,98.219,166.298,98.219,168.411z"/>
<g>
	<path style="fill:#C9C6CA;" d="M301.42,0h-16.516c-13.682,0-24.774,11.092-24.774,24.774v66.065
		c0,13.682-11.092,24.774-24.774,24.774h57.806V8.258C293.162,3.698,296.859,0,301.42,0z"/>
	<path style="fill:#C9C6CA;" d="M301.42,512h-16.516c-13.682,0-24.774-11.092-24.774-24.774v-66.065
		c0-13.682-11.092-24.774-24.774-24.774h57.806v107.355C293.162,508.302,296.859,512,301.42,512z"/>
</g>
<path style="fill:#DBD9DC;" d="M450.066,173.419h-24.775v66.065h24.774c9.121,0,16.516-7.395,16.516-16.516v-33.032
	C466.582,180.814,459.187,173.419,450.066,173.419z"/>
<rect x="425.291" y="173.42" style="fill:#C9C6CA;" width="24.774" height="66.06"/>
<path style="fill:#6F6571;" d="M400.517,396.387H235.355c-18.243,0-33.032-14.789-33.032-33.032v-214.71
	c0-18.243,14.789-33.032,33.032-33.032h165.161c18.243,0,33.032,14.789,33.032,33.032v214.71
	C433.549,381.598,418.76,396.387,400.517,396.387z"/>
<path style="fill:#FF8587;" d="M375.743,305.548H260.13c-9.122,0-16.516-7.395-16.516-16.516v-66.065
	c0-9.122,7.395-16.516,16.516-16.516h115.613c9.122,0,16.516,7.395,16.516,16.516v66.065
	C392.259,298.154,384.865,305.548,375.743,305.548z"/>
<path style="fill:#DBD9DC;" d="M359.227,280.774h-82.581c-4.565,0-8.258-3.694-8.258-8.258c0-4.565,3.694-8.258,8.258-8.258h82.581
	c4.565,0,8.258,3.694,8.258,8.258C367.485,277.081,363.791,280.774,359.227,280.774z"/>
<path style="fill:#FFD164;" d="M293.162,247.742h-16.516c-4.565,0-8.258-3.694-8.258-8.258s3.694-8.258,8.258-8.258h16.516
	c4.565,0,8.258,3.694,8.258,8.258S297.727,247.742,293.162,247.742z"/>
<path style="fill:#5D5360;" d="M276.646,355.097c-18.243,0-33.032-14.789-33.032-33.032V115.613h-8.258
	c-18.243,0-33.032,14.788-33.032,33.032v214.71c0,18.243,14.789,33.032,33.032,33.032h165.161c18.243,0,33.032-14.789,33.032-33.032
	v-8.258L276.646,355.097L276.646,355.097z"/>
<g>
</g>
<g>
</g>
<g>
</g>
<g>
</g>
<g>
</g>
<g>
</g>
<g>
</g>
<g>
</g>
<g>
</g>
<g>
</g>
<g>
</g>
<g>
</g>
<g>
</g>
<g>
</g>
<g>
</g>
</svg>
