<?xml version="1.0" encoding="iso-8859-1"?>

<svg version="1.1" id="Capa_1" xmlns="http://www.w3.org/2000/svg" xmlns:xlink="http://www.w3.org/1999/xlink" x="0px" y="0px"
	 viewBox="0 0 512 512" style="enable-background:new 0 0 512 512;" xml:space="preserve">
<path style="fill:#6F6571;" d="M272.517,512H57.807c-18.243,0-33.032-14.789-33.032-33.032V33.032C24.775,14.789,39.564,0,57.807,0
	h214.71c18.243,0,33.032,14.789,33.032,33.032v445.935C305.549,497.211,290.76,512,272.517,512z"/>
<path style="fill:#FFD164;" d="M247.743,239.484H82.582c-9.122,0-16.516-7.395-16.516-16.516V99.097
	c0-9.122,7.395-16.516,16.516-16.516h165.161c9.122,0,16.516,7.395,16.516,16.516v123.871
	C264.259,232.089,256.865,239.484,247.743,239.484z"/>
<rect x="82.581" y="99.1" style="fill:#FFE17D;" width="165.16" height="123.87"/>
<path style="fill:#5D5360;" d="M297.291,478.968H82.582c-18.243,0-33.032-14.789-33.032-33.032V1.167
	C35.328,4.85,24.776,17.657,24.776,33.032v445.935c0,18.243,14.789,33.032,33.032,33.032h214.71
	c18.243,0,33.032-14.789,33.032-33.032V477.8C302.895,478.488,300.16,478.968,297.291,478.968z"/>
<g>
	<path style="fill:#4B3F4E;" d="M256.001,41.29H74.324c-4.565,0-8.258-3.694-8.258-8.258s3.694-8.258,8.258-8.258h181.677
		c4.565,0,8.258,3.694,8.258,8.258S260.566,41.29,256.001,41.29z"/>
	<path style="fill:#4B3F4E;" d="M256.001,487.226H74.324c-4.565,0-8.258-3.694-8.258-8.258s3.694-8.258,8.258-8.258h181.677
		c4.565,0,8.258,3.694,8.258,8.258S260.566,487.226,256.001,487.226z"/>
</g>
<g>
	<path style="fill:#9C969E;" d="M82.582,322.065h16.516c9.122,0,16.516-7.395,16.516-16.516l0,0c0-9.122-7.395-16.516-16.516-16.516
		H82.582c-9.122,0-16.516,7.395-16.516,16.516l0,0C66.065,314.67,73.46,322.065,82.582,322.065z"/>
	<path style="fill:#9C969E;" d="M156.904,322.065h16.516c9.122,0,16.516-7.395,16.516-16.516l0,0
		c0-9.122-7.395-16.516-16.516-16.516h-16.516c-9.122,0-16.516,7.395-16.516,16.516l0,0
		C140.388,314.67,147.783,322.065,156.904,322.065z"/>
	<path style="fill:#9C969E;" d="M231.227,322.065h16.516c9.122,0,16.516-7.395,16.516-16.516l0,0
		c0-9.122-7.395-16.516-16.516-16.516h-16.516c-9.122,0-16.516,7.395-16.516,16.516l0,0
		C214.711,314.67,222.105,322.065,231.227,322.065z"/>
	<path style="fill:#9C969E;" d="M82.582,379.871h16.516c9.122,0,16.516-7.395,16.516-16.516l0,0c0-9.122-7.395-16.516-16.516-16.516
		H82.582c-9.122,0-16.516,7.395-16.516,16.516l0,0C66.065,372.476,73.46,379.871,82.582,379.871z"/>
	<path style="fill:#9C969E;" d="M156.904,379.871h16.516c9.122,0,16.516-7.395,16.516-16.516l0,0
		c0-9.122-7.395-16.516-16.516-16.516h-16.516c-9.122,0-16.516,7.395-16.516,16.516l0,0
		C140.388,372.476,147.783,379.871,156.904,379.871z"/>
	<path style="fill:#9C969E;" d="M231.227,379.871h16.516c9.122,0,16.516-7.395,16.516-16.516l0,0
		c0-9.122-7.395-16.516-16.516-16.516h-16.516c-9.122,0-16.516,7.395-16.516,16.516l0,0
		C214.711,372.476,222.105,379.871,231.227,379.871z"/>
</g>
<path style="fill:#E6646E;" d="M82.582,437.677h16.516c9.122,0,16.516-7.395,16.516-16.516l0,0c0-9.122-7.395-16.516-16.516-16.516
	H82.582c-9.122,0-16.516,7.395-16.516,16.516l0,0C66.065,430.283,73.46,437.677,82.582,437.677z"/>
<path style="fill:#F2A275;" d="M156.904,437.677h16.516c9.122,0,16.516-7.395,16.516-16.516l0,0c0-9.122-7.395-16.516-16.516-16.516
	h-16.516c-9.122,0-16.516,7.395-16.516,16.516l0,0C140.388,430.283,147.783,437.677,156.904,437.677z"/>
<path style="fill:#FFE17D;" d="M231.227,437.677h16.516c9.122,0,16.516-7.395,16.516-16.516l0,0c0-9.122-7.395-16.516-16.516-16.516
	h-16.516c-9.122,0-16.516,7.395-16.516,16.516l0,0C214.711,430.283,222.105,437.677,231.227,437.677z"/>
<path style="fill:#EDEBED;" d="M123.872,57.806v165.161c0,13.682,11.092,24.774,24.774,24.774h313.806
	c13.682,0,24.774-11.092,24.774-24.774V57.806c0-13.682-11.092-24.774-24.774-24.774H148.646
	C134.964,33.032,123.872,44.124,123.872,57.806z"/>
<path style="fill:#6F6571;" d="M437.678,53.677v173.419c0,2.28-1.849,4.129-4.129,4.129H161.033c-2.28,0-4.129-1.849-4.129-4.129
	V53.677c0-2.28,1.849-4.129,4.129-4.129h272.516C435.83,49.548,437.678,51.397,437.678,53.677z"/>
<path style="fill:#DBD9DC;" d="M474.84,132.129v16.516c0,6.839-5.548,12.387-12.387,12.387s-12.387-5.548-12.387-12.387v-16.516
	c0-6.839,5.548-12.387,12.387-12.387C469.291,119.742,474.84,125.29,474.84,132.129z"/>
<path style="fill:#5D5360;" d="M264.259,206.452c-45.608,0-82.581-36.973-82.581-82.581V49.548h-20.645
	c-2.28,0-4.129,1.849-4.129,4.129v173.419c0,2.28,1.849,4.129,4.129,4.129h272.516c2.28,0,4.129-1.849,4.129-4.129v-20.645
	L264.259,206.452L264.259,206.452z"/>
<path style="fill:#F2A275;" d="M333.598,162.403c-2.202,0-4.395-0.871-6.016-2.605c-10.266-10.919-10.234-28,0.065-38.895
	c3.129-3.323,8.371-3.452,11.677-0.323c3.315,3.137,3.46,8.363,0.323,11.677c-4.298,4.54-4.315,11.677-0.032,16.234
	c3.129,3.323,2.96,8.548-0.363,11.669C337.662,161.661,335.63,162.403,333.598,162.403z"/>
<path style="fill:#FFD164;" d="M299.614,184.306c-2.54,0-5.048-1.169-6.661-3.371c-17.831-24.258-17.823-56.855,0.008-81.105
	c2.702-3.669,7.855-4.46,11.548-1.758c3.669,2.702,4.46,7.871,1.758,11.548c-13.323,18.105-13.323,43.411-0.008,61.54
	c2.702,3.669,1.911,8.839-1.766,11.54C303.025,183.782,301.307,184.306,299.614,184.306z"/>
<path style="fill:#FFE17D;" d="M265.751,206.073c-2.613,0-5.177-1.234-6.782-3.532c-25.952-37.202-25.935-87.177,0.04-124.355
	c2.605-3.742,7.758-4.661,11.492-2.04c3.742,2.605,4.653,7.758,2.04,11.492c-22.024,31.532-22.032,73.911-0.024,105.452
	c2.605,3.742,1.694,8.887-2.048,11.5C269.025,205.589,267.38,206.073,265.751,206.073z"/>
<g>
</g>
<g>
</g>
<g>
</g>
<g>
</g>
<g>
</g>
<g>
</g>
<g>
</g>
<g>
</g>
<g>
</g>
<g>
</g>
<g>
</g>
<g>
</g>
<g>
</g>
<g>
</g>
<g>
</g>
</svg>
