<?xml version="1.0" encoding="iso-8859-1"?>

<svg version="1.1" id="Capa_1" xmlns="http://www.w3.org/2000/svg" xmlns:xlink="http://www.w3.org/1999/xlink" x="0px" y="0px"
	 viewBox="0 0 512 512" style="enable-background:new 0 0 512 512;" xml:space="preserve">
<path style="fill:#C9C6CA;" d="M273.238,120.921c-2.079,0-4.159-0.794-5.746-2.381c-6.143-6.143-16.841-6.143-22.984,0
	c-3.175,3.175-8.317,3.175-11.492,0c-3.175-3.167-3.175-8.317,0-11.492c12.27-12.286,33.698-12.286,45.968,0
	c3.175,3.175,3.175,8.325,0,11.492C277.397,120.127,275.317,120.921,273.238,120.921z"/>
<path style="fill:#DBD9DC;" d="M307.722,86.437c-2.079,0-4.159-0.794-5.746-2.381c-25.349-25.349-66.603-25.349-91.952,0
	c-3.175,3.175-8.317,3.175-11.492,0s-3.175-8.317,0-11.492c31.683-31.683,83.254-31.683,114.937,0c3.175,3.175,3.175,8.317,0,11.492
	C311.881,85.643,309.802,86.437,307.722,86.437z"/>
<path style="fill:#EDEBED;" d="M342.198,51.96c-2.079,0-4.159-0.794-5.746-2.381C314.96,28.087,286.389,16.254,256,16.254
	s-58.96,11.833-80.452,33.325c-3.175,3.175-8.317,3.175-11.492,0s-3.175-8.317,0-11.492C188.611,13.524,221.27,0,256,0
	s67.389,13.524,91.944,38.087c3.175,3.175,3.175,8.317,0,11.492C346.357,51.167,344.278,51.96,342.198,51.96z"/>
<path style="fill:#6F6571;" d="M337.27,154.413H174.73c-13.465,0-24.381,10.916-24.381,24.381v308.825
	c0,13.465,10.916,24.381,24.381,24.381h162.54c13.465,0,24.381-10.916,24.381-24.381V178.794
	C361.651,165.328,350.735,154.413,337.27,154.413z"/>
<path style="fill:#FFE17D;" d="M341.333,463.238H170.667c-2.244,0-4.063-1.819-4.063-4.064v-268.19c0-2.244,1.819-4.063,4.063-4.063
	h170.667c2.244,0,4.063,1.819,4.063,4.063v268.19C345.397,461.419,343.578,463.238,341.333,463.238z"/>
<path style="fill:#867E88;" d="M264.127,499.81h-16.254c-6.73,0-12.19-5.46-12.19-12.19s5.46-12.19,12.19-12.19h16.254
	c6.73,0,12.19,5.46,12.19,12.19S270.857,499.81,264.127,499.81z"/>
<path style="fill:#FFD164;" d="M272.254,438.857c-44.884,0-81.27-36.386-81.27-81.27V186.921h-20.317
	c-2.244,0-4.063,1.819-4.063,4.063v268.19c0,2.244,1.819,4.064,4.063,4.064h170.667c2.244,0,4.063-1.819,4.063-4.064v-20.317
	L272.254,438.857L272.254,438.857z"/>
<path style="fill:#FF8587;" d="M312.889,373.841H199.111c-8.977,0-16.254-7.277-16.254-16.254v-65.016
	c0-8.977,7.277-16.254,16.254-16.254h113.778c8.977,0,16.254,7.277,16.254,16.254v65.016
	C329.143,366.564,321.866,373.841,312.889,373.841z"/>
<path style="fill:#DBD9DC;" d="M296.635,349.46h-81.27c-4.492,0-8.127-3.635-8.127-8.127s3.635-8.127,8.127-8.127h81.27
	c4.492,0,8.127,3.635,8.127,8.127S301.127,349.46,296.635,349.46z"/>
<path style="fill:#FFD164;" d="M231.619,316.952h-16.254c-4.492,0-8.127-3.635-8.127-8.127s3.635-8.127,8.127-8.127h16.254
	c4.492,0,8.127,3.635,8.127,8.127S236.111,316.952,231.619,316.952z"/>
<g>
</g>
<g>
</g>
<g>
</g>
<g>
</g>
<g>
</g>
<g>
</g>
<g>
</g>
<g>
</g>
<g>
</g>
<g>
</g>
<g>
</g>
<g>
</g>
<g>
</g>
<g>
</g>
<g>
</g>
</svg>
