<?xml version="1.0" encoding="iso-8859-1"?>

<svg version="1.1" id="Capa_1" xmlns="http://www.w3.org/2000/svg" xmlns:xlink="http://www.w3.org/1999/xlink" x="0px" y="0px"
	 viewBox="0 0 512 512" style="enable-background:new 0 0 512 512;" xml:space="preserve">
<path style="fill:#EDEBED;" d="M371.613,512H140.387c-13.682,0-24.774-11.092-24.774-24.774V24.774
	C115.613,11.092,126.705,0,140.387,0h231.226c13.682,0,24.774,11.092,24.774,24.774v462.452
	C396.387,500.908,385.295,512,371.613,512z"/>
<path style="fill:#FFE17D;" d="M375.742,445.935H136.258c-2.28,0-4.129-1.849-4.129-4.129V37.161c0-2.28,1.849-4.129,4.129-4.129
	h239.484c2.28,0,4.129,1.849,4.129,4.129v404.645C379.871,444.087,378.022,445.935,375.742,445.935z"/>
<path style="fill:#DBD9DC;" d="M264.258,491.355h-16.516c-6.839,0-12.387-5.544-12.387-12.387s5.548-12.387,12.387-12.387h16.516
	c6.839,0,12.387,5.544,12.387,12.387S271.096,491.355,264.258,491.355z"/>
<path style="fill:#FFD164;" d="M264.258,421.161c-59.29,0-107.355-48.064-107.355-107.355V33.032h-20.645
	c-2.28,0-4.129,1.849-4.129,4.129v404.645c0,2.28,1.849,4.129,4.129,4.129h239.484c2.28,0,4.129-1.849,4.129-4.129v-20.645H264.258z
	"/>
<path style="fill:#FF8587;" d="M412.903,289.032H214.71c-9.122,0-16.516-7.395-16.516-16.516V140.387
	c0-9.122,7.395-16.516,16.516-16.516h198.194c9.122,0,16.516,7.395,16.516,16.516v132.129
	C429.419,281.638,422.025,289.032,412.903,289.032z"/>
<path style="fill:#E6646E;" d="M297.29,173.419h-99.097v99.097c0,9.121,7.395,16.516,16.516,16.516h115.613v-82.581
	C330.323,188.238,315.505,173.419,297.29,173.419z"/>
<rect x="198.19" y="156.9" style="fill:#5D5360;" width="231.23" height="33.03"/>
<path style="fill:#4B3F4E;" d="M297.29,173.419h-99.097v16.516h127.534C319.997,180.111,309.461,173.419,297.29,173.419z"/>
<path style="fill:#FF8587;" d="M297.29,355.097H99.097c-9.122,0-16.516-7.395-16.516-16.516V206.452
	c0-9.122,7.395-16.516,16.516-16.516H297.29c9.122,0,16.516,7.395,16.516,16.516v132.129
	C313.806,347.702,306.411,355.097,297.29,355.097z"/>
<path style="fill:#FFD164;" d="M140.387,272.516h-8.258c-9.122,0-16.516-7.395-16.516-16.516l0,0
	c0-9.122,7.395-16.516,16.516-16.516h8.258c9.122,0,16.516,7.395,16.516,16.516l0,0
	C156.903,265.122,149.509,272.516,140.387,272.516z"/>
<path style="fill:#5D5360;" d="M264.258,272.516L264.258,272.516c-9.122,0-16.516-7.395-16.516-16.516l0,0
	c0-9.122,7.395-16.516,16.516-16.516l0,0c9.122,0,16.516,7.395,16.516,16.516l0,0C280.773,265.122,273.38,272.516,264.258,272.516z"
	/>
<path style="fill:#AE6C73;" d="M231.226,272.516L231.226,272.516c-9.122,0-16.516-7.395-16.516-16.516l0,0
	c0-9.122,7.395-16.516,16.516-16.516l0,0c9.122,0,16.516,7.395,16.516,16.516l0,0C247.742,265.122,240.347,272.516,231.226,272.516z
	"/>
<g>
	<path style="fill:#DBD9DC;" d="M132.129,313.806h-16.516c-4.565,0-8.258-3.694-8.258-8.258c0-4.565,3.694-8.258,8.258-8.258h16.516
		c4.565,0,8.258,3.694,8.258,8.258C140.387,310.113,136.694,313.806,132.129,313.806z"/>
	<path style="fill:#DBD9DC;" d="M231.226,313.806H214.71c-4.565,0-8.258-3.694-8.258-8.258c0-4.565,3.694-8.258,8.258-8.258h16.516
		c4.565,0,8.258,3.694,8.258,8.258C239.484,310.113,235.79,313.806,231.226,313.806z"/>
	<path style="fill:#DBD9DC;" d="M181.677,313.806h-16.516c-4.565,0-8.258-3.694-8.258-8.258c0-4.565,3.694-8.258,8.258-8.258h16.516
		c4.565,0,8.258,3.694,8.258,8.258C189.935,310.113,186.242,313.806,181.677,313.806z"/>
	<path style="fill:#DBD9DC;" d="M280.773,313.806h-16.516c-4.565,0-8.258-3.694-8.258-8.258c0-4.565,3.694-8.258,8.258-8.258h16.516
		c4.565,0,8.258,3.694,8.258,8.258C289.032,310.113,285.339,313.806,280.773,313.806z"/>
</g>
<path style="fill:#FFC350;" d="M136.258,239.484h-4.129c-9.121,0-16.516,7.394-16.516,16.516c0,9.121,7.395,16.516,16.516,16.516
	h4.129V239.484z"/>
<g>
</g>
<g>
</g>
<g>
</g>
<g>
</g>
<g>
</g>
<g>
</g>
<g>
</g>
<g>
</g>
<g>
</g>
<g>
</g>
<g>
</g>
<g>
</g>
<g>
</g>
<g>
</g>
<g>
</g>
</svg>
