<?xml version="1.0" encoding="iso-8859-1"?>

<svg version="1.1" id="Capa_1" xmlns="http://www.w3.org/2000/svg" xmlns:xlink="http://www.w3.org/1999/xlink" x="0px" y="0px"
	 viewBox="0 0 512 512" style="enable-background:new 0 0 512 512;" xml:space="preserve">
<path style="fill:#EDEBED;" d="M487.226,49.548H24.774C11.092,49.548,0,60.64,0,74.323V470.71c0,13.682,11.092,24.774,24.774,24.774
	h462.452c13.682,0,24.774-11.092,24.774-24.774V74.323C512,60.64,500.908,49.548,487.226,49.548z"/>
<path style="fill:#FFFFFF;" d="M487.226,478.968H24.774c-4.561,0-8.258-3.697-8.258-8.258V140.387c0-4.561,3.697-8.258,8.258-8.258
	h462.452c4.561,0,8.258,3.697,8.258,8.258V470.71C495.484,475.27,491.787,478.968,487.226,478.968z"/>
<path style="fill:#C9C6CA;" d="M416.142,302.893l-28.013-5.602l-20.209-40.418c-2.798-5.596-8.517-9.13-14.773-9.13H297.29v123.871
	h102.354c3.261,0,6.449-0.965,9.162-2.774l13.259-8.84c4.594-3.063,7.354-8.22,7.354-13.741V319.09
	C429.419,311.215,423.862,304.437,416.142,302.893z"/>
<rect x="297.29" y="355.1" style="fill:#AEA8AF;" width="82.58" height="16.516"/>
<path style="fill:#DBD9DC;" d="M367.92,256.871c-2.798-5.595-8.517-9.13-14.773-9.13H297.29v66.065h131.235
	c-1.85-5.465-6.469-9.731-12.383-10.914l-28.013-5.602L367.92,256.871z"/>
<path style="fill:#E6646E;" d="M487.226,49.548H24.774C11.092,49.548,0,60.64,0,74.323v41.29h512v-41.29
	C512,60.64,500.908,49.548,487.226,49.548z"/>
<g>
	<path style="fill:#DC4655;" d="M33.032,49.548v24.774c0,13.66,11.113,24.774,24.774,24.774h16.516
		c13.661,0,24.774-11.114,24.774-24.774V49.548H33.032z"/>
	<path style="fill:#DC4655;" d="M412.903,49.548v24.774c0,13.66,11.113,24.774,24.774,24.774h16.516
		c13.661,0,24.774-11.114,24.774-24.774V49.548H412.903z"/>
</g>
<path style="fill:#FFD164;" d="M74.323,82.581H57.806c-4.561,0-8.258-3.697-8.258-8.258V24.774c0-4.561,3.697-8.258,8.258-8.258
	h16.516c4.561,0,8.258,3.697,8.258,8.258v49.548C82.581,78.883,78.883,82.581,74.323,82.581z"/>
<path style="fill:#FFE17D;" d="M74.323,82.581L74.323,82.581c-4.561,0-8.258-3.697-8.258-8.258V24.774
	c0-4.561,3.697-8.258,8.258-8.258l0,0c4.561,0,8.258,3.697,8.258,8.258v49.548C82.581,78.883,78.883,82.581,74.323,82.581z"/>
<path style="fill:#FFD164;" d="M454.194,82.581h-16.516c-4.561,0-8.258-3.697-8.258-8.258V24.774c0-4.561,3.697-8.258,8.258-8.258
	h16.516c4.561,0,8.258,3.697,8.258,8.258v49.548C462.452,78.883,458.754,82.581,454.194,82.581z"/>
<path style="fill:#FFE17D;" d="M454.194,82.581L454.194,82.581c-4.561,0-8.258-3.697-8.258-8.258V24.774
	c0-4.561,3.697-8.258,8.258-8.258l0,0c4.561,0,8.258,3.697,8.258,8.258v49.548C462.452,78.883,458.754,82.581,454.194,82.581z"/>
<path style="fill:#E6646E;" d="M115.613,371.613H297.29c4.561,0,8.258-3.697,8.258-8.258V231.226c0-4.561-3.697-8.258-8.258-8.258
	H115.613c-4.561,0-8.258,3.697-8.258,8.258v132.129C107.355,367.916,111.052,371.613,115.613,371.613z"/>
<path style="fill:#DC4655;" d="M115.613,371.613H297.29c4.561,0,8.258-3.697,8.258-8.258v-8.258H107.355v8.258
	C107.355,367.916,111.052,371.613,115.613,371.613z"/>
<g>
	<path style="fill:#FFE17D;" d="M269.21,282.427l-33.032-24.774c-3.645-2.742-8.823-1.992-11.556,1.649
		c-2.742,3.649-2,8.827,1.653,11.56l13.211,9.911h-90.84c-4.565,0-8.258,3.698-8.258,8.258s3.694,8.258,8.258,8.258h90.84
		l-13.211,9.911c-3.653,2.734-4.395,7.911-1.653,11.56c1.621,2.161,4.097,3.302,6.613,3.302c1.726,0,3.46-0.536,4.944-1.653
		l33.032-24.774c2.081-1.556,3.306-4.004,3.306-6.605S271.29,283.984,269.21,282.427z"/>
	<path style="fill:#FFE17D;" d="M412.903,322.065c-4.565,0-8.258,3.698-8.258,8.258s3.694,8.258,8.258,8.258h16.516v-16.516H412.903
		z"/>
</g>
<circle style="fill:#5D5360;" cx="173.42" cy="379.87" r="24.774"/>
<circle style="fill:#C9C6CA;" cx="173.42" cy="379.87" r="8.258"/>
<circle style="fill:#5D5360;" cx="379.87" cy="379.87" r="24.774"/>
<circle style="fill:#C9C6CA;" cx="379.87" cy="379.87" r="8.258"/>
<polygon style="fill:#5D5360;" points="305.548,264.258 305.548,297.29 388.129,297.29 371.613,264.258 "/>
<g>
</g>
<g>
</g>
<g>
</g>
<g>
</g>
<g>
</g>
<g>
</g>
<g>
</g>
<g>
</g>
<g>
</g>
<g>
</g>
<g>
</g>
<g>
</g>
<g>
</g>
<g>
</g>
<g>
</g>
</svg>
