<?xml version="1.0" encoding="iso-8859-1"?>

<svg version="1.1" id="Capa_1" xmlns="http://www.w3.org/2000/svg" xmlns:xlink="http://www.w3.org/1999/xlink" x="0px" y="0px"
	 viewBox="0 0 512 512" style="enable-background:new 0 0 512 512;" xml:space="preserve">
<path style="fill:#E6646E;" d="M333.544,96.75c-0.413-8.666-7.559-15.48-16.236-15.48H88.242c-8.677,0-15.823,6.814-16.236,15.48
	L57.301,405.575c-0.441,9.27,6.955,17.028,16.236,17.028h258.478c9.281,0,16.677-7.758,16.236-17.028L333.544,96.75z"/>
<path style="fill:#DC4655;" d="M183.149,390.095c-46.402,0-83.385-38.786-81.178-85.135l10.652-223.69h-24.38
	c-8.676,0-15.823,6.814-16.236,15.481L57.301,405.575c-0.441,9.27,6.955,17.028,16.236,17.028h258.477
	c9.281,0,16.678-7.758,16.236-17.028l-0.737-15.48H183.149z"/>
<path style="fill:#FFE17D;" d="M267.791,121.905h-16.254V65.016c0-26.889-21.873-48.762-48.762-48.762s-48.762,21.873-48.762,48.762
	v56.889h-16.254V65.016C137.76,29.167,166.926,0,202.775,0s65.016,29.167,65.016,65.016V121.905z"/>
<path style="fill:#AEA8AF;" d="M438.458,446.984H243.41c-8.977,0-16.254-7.277-16.254-16.254V300.698
	c0-8.977,7.277-16.254,16.254-16.254h195.048c8.977,0,16.254,7.277,16.254,16.254V430.73
	C454.712,439.707,447.435,446.984,438.458,446.984z"/>
<path style="fill:#9C969E;" d="M373.442,333.206H227.156v97.524c0,8.976,7.277,16.254,16.254,16.254h162.54v-81.27
	C405.95,347.79,391.367,333.206,373.442,333.206z"/>
<rect x="227.157" y="316.95" style="fill:#5D5360;" width="227.56" height="32.508"/>
<path style="fill:#4B3F4E;" d="M373.442,333.206H227.156v16.254h174.271C395.788,339.792,385.42,333.206,373.442,333.206z"/>
<g>
	<circle style="fill:#FFC350;" cx="145.887" cy="121.91" r="16.254"/>
	<circle style="fill:#FFC350;" cx="259.667" cy="121.91" r="16.254"/>
</g>
<path style="fill:#AEA8AF;" d="M373.442,512H178.395c-8.977,0-16.254-7.277-16.254-16.254V365.714
	c0-8.977,7.277-16.254,16.254-16.254h195.048c8.977,0,16.254,7.277,16.254,16.254v130.032C389.696,504.723,382.419,512,373.442,512z
	"/>
<path style="fill:#FFD164;" d="M219.029,430.73h-8.127c-8.977,0-16.254-7.277-16.254-16.254l0,0c0-8.977,7.277-16.254,16.254-16.254
	h8.127c8.977,0,16.254,7.277,16.254,16.254l0,0C235.283,423.453,228.006,430.73,219.029,430.73z"/>
<path style="fill:#FFE17D;" d="M340.934,430.73L340.934,430.73c-8.977,0-16.254-7.277-16.254-16.254l0,0
	c0-8.977,7.277-16.254,16.254-16.254l0,0c8.977,0,16.254,7.277,16.254,16.254l0,0C357.188,423.453,349.911,430.73,340.934,430.73z"
	/>
<path style="fill:#E6646E;" d="M308.426,430.73L308.426,430.73c-8.977,0-16.254-7.277-16.254-16.254l0,0
	c0-8.977,7.277-16.254,16.254-16.254l0,0c8.977,0,16.254,7.277,16.254,16.254l0,0C324.68,423.453,317.403,430.73,308.426,430.73z"/>
<g>
	<path style="fill:#DBD9DC;" d="M210.902,471.365h-16.254c-4.492,0-8.127-3.635-8.127-8.127s3.635-8.127,8.127-8.127h16.254
		c4.492,0,8.127,3.635,8.127,8.127S215.395,471.365,210.902,471.365z"/>
	<path style="fill:#DBD9DC;" d="M308.426,471.365h-16.254c-4.492,0-8.127-3.635-8.127-8.127s3.635-8.127,8.127-8.127h16.254
		c4.492,0,8.127,3.635,8.127,8.127S312.918,471.365,308.426,471.365z"/>
	<path style="fill:#DBD9DC;" d="M259.664,471.365H243.41c-4.492,0-8.127-3.635-8.127-8.127s3.635-8.127,8.127-8.127h16.254
		c4.492,0,8.127,3.635,8.127,8.127S264.156,471.365,259.664,471.365z"/>
	<path style="fill:#DBD9DC;" d="M357.188,471.365h-16.254c-4.492,0-8.127-3.635-8.127-8.127s3.635-8.127,8.127-8.127h16.254
		c4.492,0,8.127,3.635,8.127,8.127S361.68,471.365,357.188,471.365z"/>
</g>
<path style="fill:#FFC350;" d="M214.966,398.222h-4.063c-8.977,0-16.254,7.277-16.254,16.254c0,8.976,7.277,16.254,16.254,16.254
	h4.063V398.222z"/>
<g>
</g>
<g>
</g>
<g>
</g>
<g>
</g>
<g>
</g>
<g>
</g>
<g>
</g>
<g>
</g>
<g>
</g>
<g>
</g>
<g>
</g>
<g>
</g>
<g>
</g>
<g>
</g>
<g>
</g>
</svg>
