<?xml version="1.0" encoding="iso-8859-1"?>

<svg version="1.1" id="Capa_1" xmlns="http://www.w3.org/2000/svg" xmlns:xlink="http://www.w3.org/1999/xlink" x="0px" y="0px"
	 viewBox="0 0 512 512" style="enable-background:new 0 0 512 512;" xml:space="preserve">
<path style="fill:#6F6571;" d="M293.161,512H78.452c-18.243,0-33.032-14.789-33.032-33.032V33.032C45.419,14.789,60.208,0,78.452,0
	h214.71c18.243,0,33.032,14.789,33.032,33.032v445.935C326.194,497.211,311.405,512,293.161,512z"/>
<path style="fill:#FFD164;" d="M268.387,239.484H103.226c-9.122,0-16.516-7.395-16.516-16.516V99.097
	c0-9.122,7.395-16.516,16.516-16.516h165.161c9.122,0,16.516,7.395,16.516,16.516v123.871
	C284.903,232.089,277.509,239.484,268.387,239.484z"/>
<rect x="103.23" y="99.1" style="fill:#FFE17D;" width="165.16" height="123.87"/>
<path style="fill:#5D5360;" d="M317.935,478.968h-214.71c-18.243,0-33.032-14.789-33.032-33.032V1.167
	C55.971,4.85,45.419,17.657,45.419,33.032v445.935c0,18.243,14.789,33.032,33.032,33.032h214.71
	c18.243,0,33.032-14.789,33.032-33.032V477.8C323.539,478.488,320.804,478.968,317.935,478.968z"/>
<g>
	<path style="fill:#4B3F4E;" d="M276.645,41.29H94.968c-4.565,0-8.258-3.694-8.258-8.258s3.694-8.258,8.258-8.258h181.677
		c4.565,0,8.258,3.694,8.258,8.258S281.21,41.29,276.645,41.29z"/>
	<path style="fill:#4B3F4E;" d="M276.645,487.226H94.968c-4.565,0-8.258-3.694-8.258-8.258s3.694-8.258,8.258-8.258h181.677
		c4.565,0,8.258,3.694,8.258,8.258S281.21,487.226,276.645,487.226z"/>
</g>
<g>
	<path style="fill:#9C969E;" d="M103.226,322.065h16.516c9.122,0,16.516-7.395,16.516-16.516l0,0
		c0-9.122-7.395-16.516-16.516-16.516h-16.516c-9.122,0-16.516,7.395-16.516,16.516l0,0
		C86.71,314.67,94.104,322.065,103.226,322.065z"/>
	<path style="fill:#9C969E;" d="M177.548,322.065h16.516c9.122,0,16.516-7.395,16.516-16.516l0,0
		c0-9.122-7.395-16.516-16.516-16.516h-16.516c-9.122,0-16.516,7.395-16.516,16.516l0,0
		C161.032,314.67,168.427,322.065,177.548,322.065z"/>
	<path style="fill:#9C969E;" d="M251.871,322.065h16.516c9.122,0,16.516-7.395,16.516-16.516l0,0
		c0-9.122-7.395-16.516-16.516-16.516h-16.516c-9.122,0-16.516,7.395-16.516,16.516l0,0
		C235.355,314.67,242.749,322.065,251.871,322.065z"/>
	<path style="fill:#9C969E;" d="M103.226,379.871h16.516c9.122,0,16.516-7.395,16.516-16.516l0,0
		c0-9.122-7.395-16.516-16.516-16.516h-16.516c-9.122,0-16.516,7.395-16.516,16.516l0,0
		C86.71,372.476,94.104,379.871,103.226,379.871z"/>
	<path style="fill:#9C969E;" d="M177.548,379.871h16.516c9.122,0,16.516-7.395,16.516-16.516l0,0
		c0-9.122-7.395-16.516-16.516-16.516h-16.516c-9.122,0-16.516,7.395-16.516,16.516l0,0
		C161.032,372.476,168.427,379.871,177.548,379.871z"/>
	<path style="fill:#9C969E;" d="M251.871,379.871h16.516c9.122,0,16.516-7.395,16.516-16.516l0,0
		c0-9.122-7.395-16.516-16.516-16.516h-16.516c-9.122,0-16.516,7.395-16.516,16.516l0,0
		C235.355,372.476,242.749,379.871,251.871,379.871z"/>
</g>
<path style="fill:#E6646E;" d="M103.226,437.677h16.516c9.122,0,16.516-7.395,16.516-16.516l0,0c0-9.122-7.395-16.516-16.516-16.516
	h-16.516c-9.122,0-16.516,7.395-16.516,16.516l0,0C86.71,430.283,94.104,437.677,103.226,437.677z"/>
<path style="fill:#F2A275;" d="M177.548,437.677h16.516c9.122,0,16.516-7.395,16.516-16.516l0,0c0-9.122-7.395-16.516-16.516-16.516
	h-16.516c-9.122,0-16.516,7.395-16.516,16.516l0,0C161.032,430.283,168.427,437.677,177.548,437.677z"/>
<path style="fill:#FFE17D;" d="M251.871,437.677h16.516c9.122,0,16.516-7.395,16.516-16.516l0,0c0-9.122-7.395-16.516-16.516-16.516
	h-16.516c-9.122,0-16.516,7.395-16.516,16.516l0,0C235.355,430.283,242.749,437.677,251.871,437.677z"/>
<path style="fill:#FF8587;" d="M450.065,256H202.323c-9.122,0-16.516-7.395-16.516-16.516V82.581
	c0-9.122,7.395-16.516,16.516-16.516h247.742c9.122,0,16.516,7.395,16.516,16.516v156.903C466.581,248.605,459.186,256,450.065,256z
	"/>
<path style="fill:#E6646E;" d="M210.581,165.161V66.065h-8.258c-9.122,0-16.516,7.395-16.516,16.516v156.903
	c0,9.122,7.395,16.516,16.516,16.516h247.742c9.122,0,16.516-7.395,16.516-16.516v-8.258H276.645
	C240.159,231.226,210.581,201.648,210.581,165.161z"/>
<path style="fill:#FFD164;" d="M268.387,165.161h-33.032c-4.561,0-8.258-3.697-8.258-8.258v-24.774c0-4.561,3.697-8.258,8.258-8.258
	h33.032c4.561,0,8.258,3.697,8.258,8.258v24.774C276.645,161.464,272.948,165.161,268.387,165.161z"/>
<path style="fill:#5D5360;" d="M404.645,165.161L404.645,165.161c-11.402,0-20.645-9.243-20.645-20.645l0,0
	c0-11.402,9.243-20.645,20.645-20.645l0,0c11.402,0,20.645,9.243,20.645,20.645l0,0C425.29,155.918,416.047,165.161,404.645,165.161
	z"/>
<path style="fill:#AE6C73;" d="M363.355,165.161L363.355,165.161c-11.402,0-20.645-9.243-20.645-20.645l0,0
	c0-11.402,9.243-20.645,20.645-20.645l0,0c11.402,0,20.645,9.243,20.645,20.645l0,0C384,155.918,374.757,165.161,363.355,165.161z"
	/>
<g>
	<path style="fill:#DBD9DC;" d="M309.677,214.71h-24.774c-4.565,0-8.258-3.694-8.258-8.258s3.694-8.258,8.258-8.258h24.774
		c4.565,0,8.258,3.694,8.258,8.258S314.242,214.71,309.677,214.71z"/>
	<path style="fill:#DBD9DC;" d="M425.29,214.71h-24.774c-4.565,0-8.258-3.694-8.258-8.258s3.694-8.258,8.258-8.258h24.774
		c4.565,0,8.258,3.694,8.258,8.258S429.855,214.71,425.29,214.71z"/>
	<path style="fill:#DBD9DC;" d="M251.871,214.71h-24.774c-4.565,0-8.258-3.694-8.258-8.258s3.694-8.258,8.258-8.258h24.774
		c4.565,0,8.258,3.694,8.258,8.258S256.435,214.71,251.871,214.71z"/>
	<path style="fill:#DBD9DC;" d="M367.484,214.71H342.71c-4.565,0-8.258-3.694-8.258-8.258s3.694-8.258,8.258-8.258h24.774
		c4.565,0,8.258,3.694,8.258,8.258S372.048,214.71,367.484,214.71z"/>
</g>
<rect x="243.61" y="123.87" style="fill:#FFC350;" width="16.516" height="41.29"/>
<g>
</g>
<g>
</g>
<g>
</g>
<g>
</g>
<g>
</g>
<g>
</g>
<g>
</g>
<g>
</g>
<g>
</g>
<g>
</g>
<g>
</g>
<g>
</g>
<g>
</g>
<g>
</g>
<g>
</g>
</svg>
