<?xml version="1.0" encoding="iso-8859-1"?>

<svg version="1.1" id="Capa_1" xmlns="http://www.w3.org/2000/svg" xmlns:xlink="http://www.w3.org/1999/xlink" x="0px" y="0px"
	 viewBox="0 0 511.99 511.99" style="enable-background:new 0 0 511.99 511.99;" xml:space="preserve">
<path style="fill:#FF8587;" d="M371.618,313.803H24.775C11.092,313.803,0,302.711,0,289.029V57.8
	c0-13.683,11.092-24.775,24.775-24.775h346.844c13.683,0,24.775,11.092,24.775,24.775v231.229
	C396.393,302.711,385.301,313.803,371.618,313.803z"/>
<path style="fill:#E6646E;" d="M24.775,123.865v-90.84C11.092,33.025,0,44.117,0,57.8v231.229c0,13.683,11.092,24.775,24.775,24.775
	h346.844c13.683,0,24.775-11.092,24.775-24.775H189.938C98.721,289.029,24.775,215.082,24.775,123.865z"/>
<path style="fill:#FFD164;" d="M99.098,173.414H66.065c-9.122,0-16.516-7.395-16.516-16.516v-16.516
	c0-9.122,7.395-16.516,16.516-16.516h33.033c9.122,0,16.516,7.395,16.516,16.516v16.516
	C115.615,166.02,108.22,173.414,99.098,173.414z"/>
<g>
	<path style="fill:#DBD9DC;" d="M99.098,222.963H49.549c-4.565,0-8.258-3.698-8.258-8.258s3.694-8.258,8.258-8.258h49.549
		c4.565,0,8.258,3.698,8.258,8.258S103.663,222.963,99.098,222.963z"/>
	<path style="fill:#DBD9DC;" d="M181.68,222.963h-49.549c-4.565,0-8.258-3.698-8.258-8.258s3.694-8.258,8.258-8.258h49.549
		c4.565,0,8.258,3.698,8.258,8.258S186.245,222.963,181.68,222.963z"/>
	<path style="fill:#DBD9DC;" d="M214.713,264.254H49.549c-4.565,0-8.258-3.698-8.258-8.258s3.694-8.258,8.258-8.258h165.164
		c4.565,0,8.258,3.698,8.258,8.258S219.277,264.254,214.713,264.254z"/>
	<path style="fill:#DBD9DC;" d="M264.262,222.963h-49.549c-4.565,0-8.258-3.698-8.258-8.258s3.694-8.258,8.258-8.258h49.549
		c4.565,0,8.258,3.698,8.258,8.258S268.827,222.963,264.262,222.963z"/>
	<path style="fill:#DBD9DC;" d="M346.844,222.963h-49.549c-4.565,0-8.258-3.698-8.258-8.258s3.694-8.258,8.258-8.258h49.549
		c4.565,0,8.258,3.698,8.258,8.258S351.408,222.963,346.844,222.963z"/>
</g>
<circle style="fill:#AE6C73;" cx="247.75" cy="115.606" r="33.03"/>
<circle style="fill:#5D5360;" cx="313.81" cy="115.606" r="33.03"/>
<rect x="74.32" y="123.866" style="fill:#FFC350;" width="16.516" height="49.549"/>
<circle style="fill:#FFE17D;" cx="396.38" cy="363.355" r="115.61"/>
<path style="fill:#FFD164;" d="M429.418,445.934c-63.852,0-115.615-51.762-115.615-115.615c0-23.475,7.042-45.283,19.063-63.519
	c-31.366,20.677-52.096,56.174-52.096,96.551c0,63.852,51.762,115.615,115.615,115.615c40.378,0,75.874-20.73,96.552-52.096
	C474.701,438.892,452.892,445.934,429.418,445.934z"/>
<path style="fill:#5D5360;" d="M421.16,322.061h-52.768l15.728-9.436c3.911-2.347,5.177-7.419,2.831-11.331
	c-2.347-3.903-7.411-5.186-11.331-2.831l-41.291,24.775c-2.484,1.492-4.008,4.177-4.008,7.081s1.524,5.589,4.008,7.081
	l41.291,24.775c1.331,0.798,2.798,1.177,4.242,1.177c2.806,0,5.54-1.427,7.089-4.008c2.347-3.911,1.081-8.984-2.831-11.331
	l-15.728-9.436h52.768c18.218,0,33.033,14.815,33.033,33.033s-14.815,33.033-33.033,33.033h-57.807
	c-4.565,0-8.258,3.694-8.258,8.258s3.694,8.258,8.258,8.258h57.807c27.323,0,49.549-22.226,49.549-49.549
	S448.483,322.061,421.16,322.061z"/>
<g>
</g>
<g>
</g>
<g>
</g>
<g>
</g>
<g>
</g>
<g>
</g>
<g>
</g>
<g>
</g>
<g>
</g>
<g>
</g>
<g>
</g>
<g>
</g>
<g>
</g>
<g>
</g>
<g>
</g>
</svg>
