<?xml version="1.0" encoding="iso-8859-1"?>

<svg version="1.1" id="Capa_1" xmlns="http://www.w3.org/2000/svg" xmlns:xlink="http://www.w3.org/1999/xlink" x="0px" y="0px"
	 viewBox="0 0 512.001 512.001" style="enable-background:new 0 0 512.001 512.001;" xml:space="preserve">
<path style="fill:#AEA8AF;" d="M487.225,359.228H140.382c-13.683,0-24.775-11.092-24.775-24.775V103.225
	c0-13.683,11.092-24.775,24.775-24.775h346.844c13.683,0,24.775,11.092,24.775,24.775v231.229
	C512,348.136,500.908,359.228,487.225,359.228z"/>
<path style="fill:#9C969E;" d="M371.618,136.257H115.607v198.196c0,13.683,11.092,24.775,24.775,24.775H412.91v-181.68
	C412.909,154.781,394.386,136.257,371.618,136.257z"/>
<rect x="115.61" y="119.741" style="fill:#5D5360;" width="396.39" height="49.549"/>
<path style="fill:#4B3F4E;" d="M371.618,136.257H115.607v33.033h296.468C408.238,150.466,391.559,136.257,371.618,136.257z"/>
<path style="fill:#AEA8AF;" d="M371.618,433.552H24.775C11.092,433.552,0,422.46,0,408.777V177.548
	c0-13.683,11.092-24.775,24.775-24.775h346.844c13.683,0,24.775,11.092,24.775,24.775v231.229
	C396.393,422.46,385.301,433.552,371.618,433.552z"/>
<path style="fill:#9C969E;" d="M24.775,243.614v-90.84C11.092,152.774,0,163.866,0,177.548v231.229
	c0,13.683,11.092,24.775,24.775,24.775h346.844c13.683,0,24.775-11.092,24.775-24.775H189.938
	C98.721,408.777,24.775,334.831,24.775,243.614z"/>
<path style="fill:#FFD164;" d="M99.098,293.163H66.065c-9.122,0-16.516-7.395-16.516-16.516v-16.516
	c0-9.122,7.395-16.516,16.516-16.516h33.033c9.122,0,16.516,7.395,16.516,16.516v16.516
	C115.615,285.768,108.22,293.163,99.098,293.163z"/>
<g>
	<path style="fill:#DBD9DC;" d="M99.098,342.712H49.549c-4.565,0-8.258-3.698-8.258-8.258s3.694-8.258,8.258-8.258h49.549
		c4.565,0,8.258,3.698,8.258,8.258S103.663,342.712,99.098,342.712z"/>
	<path style="fill:#DBD9DC;" d="M181.68,342.712h-49.549c-4.565,0-8.258-3.698-8.258-8.258s3.694-8.258,8.258-8.258h49.549
		c4.565,0,8.258,3.698,8.258,8.258S186.245,342.712,181.68,342.712z"/>
	<path style="fill:#DBD9DC;" d="M214.713,384.003H49.549c-4.565,0-8.258-3.698-8.258-8.258s3.694-8.258,8.258-8.258h165.164
		c4.565,0,8.258,3.698,8.258,8.258S219.277,384.003,214.713,384.003z"/>
	<path style="fill:#DBD9DC;" d="M264.262,342.712h-49.549c-4.565,0-8.258-3.698-8.258-8.258s3.694-8.258,8.258-8.258h49.549
		c4.565,0,8.258,3.698,8.258,8.258S268.827,342.712,264.262,342.712z"/>
	<path style="fill:#DBD9DC;" d="M346.844,342.712h-49.549c-4.565,0-8.258-3.698-8.258-8.258s3.694-8.258,8.258-8.258h49.549
		c4.565,0,8.258,3.698,8.258,8.258S351.408,342.712,346.844,342.712z"/>
</g>
<circle style="fill:#FFE17D;" cx="313.81" cy="235.351" r="33.03"/>
<circle style="fill:#E6646E;" cx="247.75" cy="235.351" r="33.03"/>
<rect x="74.32" y="243.611" style="fill:#FFC350;" width="16.516" height="49.549"/>
<g>
</g>
<g>
</g>
<g>
</g>
<g>
</g>
<g>
</g>
<g>
</g>
<g>
</g>
<g>
</g>
<g>
</g>
<g>
</g>
<g>
</g>
<g>
</g>
<g>
</g>
<g>
</g>
<g>
</g>
</svg>
