<?xml version="1.0" encoding="iso-8859-1"?>

<svg version="1.1" id="Capa_1" xmlns="http://www.w3.org/2000/svg" xmlns:xlink="http://www.w3.org/1999/xlink" x="0px" y="0px"
	 viewBox="0 0 512 512" style="enable-background:new 0 0 512 512;" xml:space="preserve">
<rect x="24.774" y="136.26" style="fill:#EDEBED;" width="462.45" height="289.03"/>
<path style="fill:#DBD9DC;" d="M64,233.29c25.464,0,48.984-11.98,64-31.636c15.016,19.656,38.536,31.636,64,31.636
	s48.984-11.98,64-31.636c15.016,19.656,38.536,31.636,64,31.636s48.984-11.98,64-31.636c15.016,19.656,38.536,31.636,64,31.636
	c14.241,0,27.607-3.752,39.226-10.266v-86.766H24.774v86.766C36.393,229.538,49.759,233.29,64,233.29z"/>
<path style="fill:#FFE17D;" d="M466.581,384H45.419c-2.28,0-4.129-1.849-4.129-4.129V136.258h429.42v243.613
	C470.71,382.151,468.861,384,466.581,384z"/>
<path style="fill:#FFD164;" d="M64,233.29c25.464,0,48.984-11.98,64-31.636c15.016,19.656,38.536,31.636,64,31.636
	s48.984-11.98,64-31.636c15.016,19.656,38.536,31.636,64,31.636s48.984-11.98,64-31.636c15.016,19.656,38.536,31.636,64,31.636
	c7.89,0,15.499-1.19,22.71-3.315v-93.718H41.29v93.718C48.501,232.101,56.11,233.29,64,233.29z"/>
<path style="fill:#DBD9DC;" d="M495.484,458.323H16.516C7.395,458.323,0,450.928,0,441.806V425.29c0-4.561,3.697-8.258,8.258-8.258
	h495.484c4.561,0,8.258,3.697,8.258,8.258v16.516C512,450.928,504.605,458.323,495.484,458.323z"/>
<g>
	<path style="fill:#C9C6CA;" d="M280.774,433.548h-49.548c-4.565,0-8.258-3.698-8.258-8.258s0-8.258,0-8.258h66.065
		c0,0,0,3.698,0,8.258S285.339,433.548,280.774,433.548z"/>
	<path style="fill:#C9C6CA;" d="M16.516,458.323h478.968c9.121,0,16.516-7.395,16.516-16.516H0
		C0,450.928,7.395,458.323,16.516,458.323z"/>
</g>
<path style="fill:#5D5360;" d="M204.742,285.806l-55.121-47.903c-2.419-2.097-5.742-2.581-8.645-1.234
	c-2.903,1.331-4.71,4.145-4.702,7.339l0.161,73.024c0.008,3.306,2,6.242,5.073,7.468c0.984,0.387,2,0.581,3.008,0.581
	c2.161,0,4.266-0.871,5.823-2.508l14.074-14.823l21.329,46.653c1.387,3.032,4.379,4.823,7.516,4.823c1.145,0,2.315-0.242,3.427-0.75
	c4.145-1.895,5.968-6.79,4.073-10.944l-21.309-46.611l20.406-0.986c3.306-0.161,6.137-2.29,7.218-5.419
	C208.153,291.387,207.234,287.968,204.742,285.806z"/>
<path style="fill:#E6646E;" d="M512,152.774c0,35.346-28.654,64-64,64c-26.29,0-48.878-15.852-58.727-38.519
	c-2.036-4.686-8.511-4.686-10.547,0c-9.849,22.667-32.436,38.519-58.727,38.519s-48.878-15.852-58.727-38.519
	c-2.036-4.686-8.511-4.686-10.547,0c-9.849,22.667-32.436,38.519-58.727,38.519s-48.878-15.852-58.727-38.519
	c-2.036-4.686-8.511-4.686-10.547,0C112.878,200.922,90.29,216.774,64,216.774c-35.346,0-64-28.654-64-64l37.055-88.933
	c2.564-6.155,8.578-10.164,15.246-10.164h407.398c6.668,0,12.681,4.009,15.246,10.164L512,152.774z"/>
<path style="fill:#DC4655;" d="M64,216.774c26.29,0,48.878-15.853,58.727-38.52c2.036-4.685,8.511-4.685,10.546,0
	c9.849,22.667,32.436,38.52,58.727,38.52s48.878-15.853,58.727-38.52c2.036-4.685,8.511-4.685,10.546,0
	c9.849,22.667,32.436,38.52,58.727,38.52s48.878-15.853,58.727-38.52c2.036-4.685,8.511-4.685,10.546,0
	c9.849,22.667,32.436,38.52,58.727,38.52c35.346,0,64-28.653,64-64H0C0,188.121,28.654,216.774,64,216.774z"/>
<g>
</g>
<g>
</g>
<g>
</g>
<g>
</g>
<g>
</g>
<g>
</g>
<g>
</g>
<g>
</g>
<g>
</g>
<g>
</g>
<g>
</g>
<g>
</g>
<g>
</g>
<g>
</g>
<g>
</g>
</svg>
