<?xml version="1.0" encoding="iso-8859-1"?>

<svg version="1.1" id="Capa_1" xmlns="http://www.w3.org/2000/svg" xmlns:xlink="http://www.w3.org/1999/xlink" x="0px" y="0px"
	 viewBox="0 0 512 512" style="enable-background:new 0 0 512 512;" xml:space="preserve">
<path style="fill:#E6646E;" d="M329.108,281.312H118.141C52.894,281.312,0,228.418,0,163.171l0,0
	C0,97.923,52.894,45.03,118.141,45.03h210.967c65.247,0,118.141,52.894,118.141,118.141l0,0
	C447.249,228.418,394.355,281.312,329.108,281.312z"/>
<path style="fill:#DC4655;" d="M185.65,247.557c-65.248,0-118.141-52.894-118.141-118.141l0,0c0-32.418,13.076-61.768,34.218-83.115
	C44.27,54.31,0,103.509,0,163.171c0,65.247,52.894,118.141,118.141,118.141h210.966c32.17,0,61.3-12.897,82.605-33.755H185.65z"/>
<g>
	<path style="fill:#FFFFFF;" d="M152.193,159.587c5.005-5.889,8.141-13.414,8.141-21.732c0-18.616-15.138-33.755-33.755-33.755
		H92.825c-4.664,0-8.439,3.774-8.439,8.439v50.632v50.632c0,4.664,3.774,8.439,8.439,8.439h42.193
		c18.616,0,33.755-15.138,33.755-33.755C168.773,176.167,162.073,165.481,152.193,159.587z M101.264,120.977h25.316
		c9.304,0,16.877,7.573,16.877,16.877s-7.573,16.877-16.877,16.877h-25.316V120.977z M135.018,205.364h-33.755v-33.755h33.755
		c9.304,0,16.877,7.573,16.877,16.877C151.896,197.791,144.322,205.364,135.018,205.364z"/>
	<path style="fill:#FFFFFF;" d="M253.16,104.1c-4.664,0-8.439,3.774-8.439,8.439v71.729c0,11.636-9.461,21.097-21.097,21.097
		s-21.097-9.461-21.097-21.097v-71.729c0-4.664-3.774-8.439-8.439-8.439c-4.664,0-8.439,3.774-8.439,8.439v71.729
		c0,20.94,17.034,37.974,37.974,37.974s37.974-17.034,37.974-37.974v-71.729C261.598,107.874,257.824,104.1,253.16,104.1z"/>
	<path style="fill:#FFFFFF;" d="M358.61,105.213c-4.055-2.332-9.205-0.906-11.512,3.14L320.669,154.6l-26.428-46.248
		c-2.316-4.046-7.466-5.472-11.513-3.14c-4.046,2.316-5.455,7.466-3.14,11.512l32.642,57.124v39.954
		c0,4.664,3.774,8.439,8.439,8.439s8.439-3.774,8.439-8.439v-39.954l32.642-57.124C364.065,112.679,362.656,107.528,358.61,105.213z
		"/>
</g>
<path style="fill:#5D5360;" d="M509.477,330.005L390.614,226.734c-4.73-4.109-12.099-0.741-12.085,5.524l0.348,157.458
	c0.015,6.579,8.042,9.782,12.581,5.021l40.138-42.109l50.024,109.414c1.417,3.099,4.475,4.928,7.681,4.928
	c1.17,0,2.365-0.247,3.502-0.766c4.236-1.937,6.098-6.939,4.162-11.183l-50.021-109.406l58.097-2.811
	C511.613,342.486,514.443,334.32,509.477,330.005z"/>
<path style="fill:#6F6571;" d="M447.056,345.609l57.987-2.805c6.571-0.318,9.4-8.484,4.434-12.799L394.084,229.749L447.056,345.609z
	"/>
<g>
</g>
<g>
</g>
<g>
</g>
<g>
</g>
<g>
</g>
<g>
</g>
<g>
</g>
<g>
</g>
<g>
</g>
<g>
</g>
<g>
</g>
<g>
</g>
<g>
</g>
<g>
</g>
<g>
</g>
</svg>
