<?xml version="1.0" encoding="iso-8859-1"?>

<svg version="1.1" id="Capa_1" xmlns="http://www.w3.org/2000/svg" xmlns:xlink="http://www.w3.org/1999/xlink" x="0px" y="0px"
	 viewBox="0 0 512 512" style="enable-background:new 0 0 512 512;" xml:space="preserve">
<path style="fill:#EDEBED;" d="M371.613,33.031H24.774C11.092,33.031,0,44.123,0,57.805v280.774
	c0,13.682,11.092,24.774,24.774,24.774h346.839c13.682,0,24.774-11.092,24.774-24.774V57.805
	C396.387,44.123,385.295,33.031,371.613,33.031z"/>
<path style="fill:#DBD9DC;" d="M371.613,33.031H24.774C11.092,33.031,0,44.123,0,57.805v49.548h396.387V57.805
	C396.387,44.123,385.295,33.031,371.613,33.031z"/>
<g>
	<path style="fill:#FFFFFF;" d="M272.516,74.322H115.613c-4.565,0-8.258-3.694-8.258-8.258c0-4.565,3.694-8.258,8.258-8.258h156.903
		c4.565,0,8.258,3.694,8.258,8.258S277.081,74.322,272.516,74.322z"/>
	<path style="fill:#FFFFFF;" d="M363.355,74.322h-57.806c-4.565,0-8.258-3.694-8.258-8.258c0-4.565,3.694-8.258,8.258-8.258h57.806
		c4.565,0,8.258,3.694,8.258,8.258S367.919,74.322,363.355,74.322z"/>
	<path style="fill:#FFFFFF;" d="M371.613,346.838H24.774c-4.561,0-8.258-3.697-8.258-8.258V107.354c0-4.561,3.697-8.258,8.258-8.258
		h346.839c4.561,0,8.258,3.697,8.258,8.258V338.58C379.871,343.14,376.174,346.838,371.613,346.838z"/>
</g>
<path style="fill:#DC4655;" d="M33.073,74.322c-4.565,0-8.298-3.694-8.298-8.258c0-4.565,3.653-8.258,8.218-8.258h0.081
	c4.565,0,8.258,3.694,8.258,8.258C41.331,70.628,37.637,74.322,33.073,74.322z"/>
<path style="fill:#FFE17D;" d="M82.621,74.322c-4.565,0-8.298-3.694-8.298-8.258c0-4.565,3.653-8.258,8.218-8.258h0.081
	c4.565,0,8.258,3.694,8.258,8.258C90.879,70.628,87.185,74.322,82.621,74.322z"/>
<path style="fill:#F2A275;" d="M57.847,74.322c-4.565,0-8.298-3.694-8.298-8.258c0-4.565,3.653-8.258,8.218-8.258h0.081
	c4.565,0,8.258,3.694,8.258,8.258C66.105,70.628,62.411,74.322,57.847,74.322z"/>
<circle style="fill:#FFE17D;" cx="396.39" cy="363.359" r="115.61"/>
<path style="fill:#FFD164;" d="M429.419,445.934c-63.851,0-115.613-51.762-115.613-115.613c0-23.474,7.042-45.283,19.063-63.518
	c-31.365,20.676-52.095,56.173-52.095,96.55c0,63.851,51.762,115.613,115.613,115.613c40.377,0,75.873-20.73,96.55-52.095
	C474.702,438.893,452.893,445.934,429.419,445.934z"/>
<path style="fill:#6F6571;" d="M437.677,355.096h-16.516v-24.774c0-13.661-11.113-24.774-24.774-24.774
	c-13.661,0-24.774,11.113-24.774,24.774v24.774h-16.516v-24.774c0-22.766,18.524-41.29,41.29-41.29
	c22.766,0,41.29,18.524,41.29,41.29L437.677,355.096L437.677,355.096z"/>
<path style="fill:#FFD164;" d="M355.097,181.676h-66.065c-4.565,0-8.258-3.694-8.258-8.258s3.694-8.258,8.258-8.258h66.065
	c4.565,0,8.258,3.694,8.258,8.258S359.661,181.676,355.097,181.676z"/>
<path style="fill:#C9C6CA;" d="M305.548,247.741h-16.516c-4.565,0-8.258-3.694-8.258-8.258s3.694-8.258,8.258-8.258h16.516
	c4.565,0,8.258,3.694,8.258,8.258S310.113,247.741,305.548,247.741z"/>
<path style="fill:#9C969E;" d="M330.323,214.709h-41.29c-4.565,0-8.258-3.694-8.258-8.258s3.694-8.258,8.258-8.258h41.29
	c4.565,0,8.258,3.694,8.258,8.258S334.887,214.709,330.323,214.709z"/>
<path style="fill:#FFE17D;" d="M222.968,297.289H74.323c-9.122,0-16.516-7.395-16.516-16.516V165.16
	c0-9.122,7.395-16.516,16.516-16.516h148.645c9.122,0,16.516,7.395,16.516,16.516v115.613
	C239.484,289.895,232.089,297.289,222.968,297.289z"/>
<path style="fill:#FFC350;" d="M247.739,247.741h-57.806c-4.561,0-8.258-3.697-8.258-8.258v-33.032c0-4.561,3.697-8.258,8.258-8.258
	h57.806c4.561,0,8.258,3.697,8.258,8.258v33.032C255.997,244.044,252.3,247.741,247.739,247.741z"/>
<path style="fill:#5D5360;" d="M206.452,231.225c-4.565,0-8.298-3.694-8.298-8.258s3.645-8.258,8.21-8.258h0.089
	c4.565,0,8.258,3.694,8.258,8.258S211.016,231.225,206.452,231.225z"/>
<path style="fill:#FFD164;" d="M148.645,272.515c-36.486,0-66.065-29.578-66.065-66.065v-57.806h-8.258
	c-9.122,0-16.516,7.395-16.516,16.516v115.613c0,9.122,7.395,16.516,16.516,16.516h148.645c9.122,0,16.516-7.395,16.516-16.516
	v-8.258H148.645z"/>
<path style="fill:#9C969E;" d="M429.416,421.16h-66.065c-4.561,0-8.258-3.697-8.258-8.258v-57.806c0-4.561,3.697-8.258,8.258-8.258
	h66.065c4.561,0,8.258,3.697,8.258,8.258v57.806C437.674,417.463,433.977,421.16,429.416,421.16z"/>
<path style="fill:#5D5360;" d="M396.387,396.386c-4.565,0-8.258-3.694-8.258-8.258v-8.258c0-4.565,3.694-8.258,8.258-8.258
	s8.258,3.694,8.258,8.258v8.258C404.645,392.693,400.952,396.386,396.387,396.386z"/>
<path style="fill:#867E88;" d="M396.387,404.644c-13.682,0-24.774-11.092-24.774-24.774v-33.032h-8.261
	c-4.561,0-8.258,3.697-8.258,8.258v57.806c0,4.561,3.697,8.258,8.258,8.258h66.065c4.561,0,8.258-3.697,8.258-8.258v-8.258H396.387z
	"/>
<g>
</g>
<g>
</g>
<g>
</g>
<g>
</g>
<g>
</g>
<g>
</g>
<g>
</g>
<g>
</g>
<g>
</g>
<g>
</g>
<g>
</g>
<g>
</g>
<g>
</g>
<g>
</g>
<g>
</g>
</svg>
