<?xml version="1.0" encoding="iso-8859-1"?>

<svg version="1.1" id="Capa_1" xmlns="http://www.w3.org/2000/svg" xmlns:xlink="http://www.w3.org/1999/xlink" x="0px" y="0px"
	 viewBox="0 0 512 512" style="enable-background:new 0 0 512 512;" xml:space="preserve">
<path style="fill:#EDEBED;" d="M487.226,470.71H24.774C11.092,470.71,0,459.618,0,445.935V66.065
	C0,52.382,11.092,41.29,24.774,41.29h462.452C500.908,41.29,512,52.382,512,66.065v379.871
	C512,459.618,500.908,470.71,487.226,470.71z"/>
<path style="fill:#DBD9DC;" d="M512,115.613H0V66.065C0,52.382,11.092,41.29,24.774,41.29h462.452
	C500.908,41.29,512,52.382,512,66.065V115.613z"/>
<path style="fill:#5D5360;" d="M487.226,454.194H24.774c-4.561,0-8.258-3.697-8.258-8.258V115.613c0-4.561,3.697-8.258,8.258-8.258
	h462.452c4.561,0,8.258,3.697,8.258,8.258v330.323C495.484,450.496,491.787,454.194,487.226,454.194z"/>
<path style="fill:#DC4655;" d="M33.032,82.581c-4.565,0-8.298-3.694-8.298-8.258c0-4.565,3.653-8.258,8.218-8.258h0.081
	c4.565,0,8.258,3.694,8.258,8.258C41.29,78.887,37.597,82.581,33.032,82.581z"/>
<path style="fill:#FFE17D;" d="M82.581,82.581c-4.565,0-8.298-3.694-8.298-8.258c0-4.565,3.653-8.258,8.218-8.258h0.081
	c4.565,0,8.258,3.694,8.258,8.258C90.839,78.887,87.145,82.581,82.581,82.581z"/>
<path style="fill:#F2A275;" d="M57.806,82.581c-4.565,0-8.298-3.694-8.298-8.258c0-4.565,3.653-8.258,8.218-8.258h0.081
	c4.565,0,8.258,3.694,8.258,8.258C66.065,78.887,62.371,82.581,57.806,82.581z"/>
<g>
	<path style="fill:#FFFFFF;" d="M478.968,82.581h-74.323c-4.565,0-8.258-3.694-8.258-8.258c0-4.565,3.694-8.258,8.258-8.258h74.323
		c4.565,0,8.258,3.694,8.258,8.258C487.226,78.887,483.532,82.581,478.968,82.581z"/>
	<path style="fill:#FFFFFF;" d="M371.613,82.581h-256c-4.565,0-8.258-3.694-8.258-8.258c0-4.565,3.694-8.258,8.258-8.258h256
		c4.565,0,8.258,3.694,8.258,8.258C379.871,78.887,376.177,82.581,371.613,82.581z"/>
</g>
<path style="fill:#BE9656;" d="M363.355,251.871c0-14.835-8.795-27.567-21.394-33.521c3.073-4.592,4.878-10.1,4.878-16.027
	c0-11.486-6.787-21.347-16.516-26.004v-11.157c0-4.565-3.694-8.258-8.258-8.258s-8.258,3.694-8.258,8.258v8.258H297.29v-8.258
	c0-4.565-3.694-8.258-8.258-8.258s-8.258,3.694-8.258,8.258v8.258h-8.258c-4.565,0-8.258,3.694-8.258,8.258s3.694,8.258,8.258,8.258
	v82.581c-4.565,0-8.258,3.694-8.258,8.258s3.694,8.258,8.258,8.258h8.258v8.258c0,4.565,3.694,8.258,8.258,8.258
	s8.258-3.694,8.258-8.258v-8.258h16.516v8.258c0,4.565,3.694,8.258,8.258,8.258s8.258-3.694,8.258-8.258v-8.675
	C348.852,286.53,363.355,270.95,363.355,251.871z M317.935,189.935c6.831,0,12.387,5.556,12.387,12.387s-5.556,12.387-12.387,12.387
	h-28.903v-24.774L317.935,189.935L317.935,189.935z M326.194,272.516h-37.161v-41.29h37.161c11.387,0,20.645,9.258,20.645,20.645
	S337.581,272.516,326.194,272.516z"/>
<path style="fill:#FFE17D;" d="M198.194,165.161H74.323c-9.121,0-16.516,7.394-16.516,16.516v99.097
	c0,9.121,7.395,16.516,16.516,16.516h123.871c9.121,0,16.516-7.395,16.516-16.516v-99.097
	C214.71,172.555,207.315,165.161,198.194,165.161z"/>
<path style="fill:#FFC350;" d="M222.968,256h-57.806c-4.561,0-8.258-3.697-8.258-8.258V214.71c0-4.561,3.697-8.258,8.258-8.258
	h57.806c4.561,0,8.258,3.697,8.258,8.258v33.032C231.226,252.303,227.529,256,222.968,256z"/>
<path style="fill:#5D5360;" d="M181.677,239.484c-4.565,0-8.298-3.694-8.298-8.258c0-4.565,3.653-8.258,8.218-8.258h0.081
	c4.565,0,8.258,3.694,8.258,8.258C189.935,235.79,186.242,239.484,181.677,239.484z"/>
<g>
	<path style="fill:#9C969E;" d="M99.097,355.097H74.323c-4.565,0-8.258-3.694-8.258-8.258s3.694-8.258,8.258-8.258h24.774
		c4.565,0,8.258,3.694,8.258,8.258S103.661,355.097,99.097,355.097z"/>
	<path style="fill:#9C969E;" d="M99.097,421.161H74.323c-4.565,0-8.258-3.694-8.258-8.258s3.694-8.258,8.258-8.258h24.774
		c4.565,0,8.258,3.694,8.258,8.258S103.661,421.161,99.097,421.161z"/>
	<path style="fill:#9C969E;" d="M99.097,388.129H74.323c-4.565,0-8.258-3.694-8.258-8.258s3.694-8.258,8.258-8.258h24.774
		c4.565,0,8.258,3.694,8.258,8.258S103.661,388.129,99.097,388.129z"/>
</g>
<g>
	<path style="fill:#6F6571;" d="M239.484,355.097H132.129c-4.565,0-8.258-3.694-8.258-8.258s3.694-8.258,8.258-8.258h107.355
		c4.565,0,8.258,3.694,8.258,8.258S244.048,355.097,239.484,355.097z"/>
	<path style="fill:#6F6571;" d="M214.71,421.161h-82.581c-4.565,0-8.258-3.694-8.258-8.258s3.694-8.258,8.258-8.258h82.581
		c4.565,0,8.258,3.694,8.258,8.258S219.274,421.161,214.71,421.161z"/>
	<path style="fill:#6F6571;" d="M214.71,388.129h-82.581c-4.565,0-8.258-3.694-8.258-8.258s3.694-8.258,8.258-8.258h82.581
		c4.565,0,8.258,3.694,8.258,8.258S219.274,388.129,214.71,388.129z"/>
</g>
<g>
	<path style="fill:#9C969E;" d="M313.806,355.097h-24.774c-4.565,0-8.258-3.694-8.258-8.258s3.694-8.258,8.258-8.258h24.774
		c4.565,0,8.258,3.694,8.258,8.258S318.371,355.097,313.806,355.097z"/>
	<path style="fill:#9C969E;" d="M313.806,421.161h-24.774c-4.565,0-8.258-3.694-8.258-8.258s3.694-8.258,8.258-8.258h24.774
		c4.565,0,8.258,3.694,8.258,8.258S318.371,421.161,313.806,421.161z"/>
	<path style="fill:#9C969E;" d="M313.806,388.129h-24.774c-4.565,0-8.258-3.694-8.258-8.258s3.694-8.258,8.258-8.258h24.774
		c4.565,0,8.258,3.694,8.258,8.258S318.371,388.129,313.806,388.129z"/>
</g>
<path style="fill:#6F6571;" d="M454.194,355.097H346.839c-4.565,0-8.258-3.694-8.258-8.258s3.694-8.258,8.258-8.258h107.355
	c4.565,0,8.258,3.694,8.258,8.258S458.758,355.097,454.194,355.097z"/>
<path style="fill:#FFD164;" d="M454.194,206.452h-66.065c-4.565,0-8.258-3.694-8.258-8.258c0-4.565,3.694-8.258,8.258-8.258h66.065
	c4.565,0,8.258,3.694,8.258,8.258S458.758,206.452,454.194,206.452z"/>
<path style="fill:#BE9656;" d="M429.419,239.484h-41.29c-4.565,0-8.258-3.694-8.258-8.258c0-4.565,3.694-8.258,8.258-8.258h41.29
	c4.565,0,8.258,3.694,8.258,8.258S433.984,239.484,429.419,239.484z"/>
<path style="fill:#867E88;" d="M429.419,272.516h-41.29c-4.565,0-8.258-3.694-8.258-8.258s3.694-8.258,8.258-8.258h41.29
	c4.565,0,8.258,3.694,8.258,8.258S433.984,272.516,429.419,272.516z"/>
<g>
	<path style="fill:#6F6571;" d="M429.419,421.161h-82.581c-4.565,0-8.258-3.694-8.258-8.258s3.694-8.258,8.258-8.258h82.581
		c4.565,0,8.258,3.694,8.258,8.258S433.984,421.161,429.419,421.161z"/>
	<path style="fill:#6F6571;" d="M429.419,388.129h-82.581c-4.565,0-8.258-3.694-8.258-8.258s3.694-8.258,8.258-8.258h82.581
		c4.565,0,8.258,3.694,8.258,8.258S433.984,388.129,429.419,388.129z"/>
</g>
<path style="fill:#FFD164;" d="M74.323,231.226v-66.065c-9.121,0-16.516,7.394-16.516,16.516v99.097
	c0,9.122,7.395,16.516,16.516,16.516h123.871c9.121,0,16.516-7.395,16.516-16.516h-90.839
	C96.506,280.774,74.323,258.591,74.323,231.226z"/>
<g>
</g>
<g>
</g>
<g>
</g>
<g>
</g>
<g>
</g>
<g>
</g>
<g>
</g>
<g>
</g>
<g>
</g>
<g>
</g>
<g>
</g>
<g>
</g>
<g>
</g>
<g>
</g>
<g>
</g>
</svg>
