<?xml version="1.0" encoding="iso-8859-1"?>

<svg version="1.1" id="Capa_1" xmlns="http://www.w3.org/2000/svg" xmlns:xlink="http://www.w3.org/1999/xlink" x="0px" y="0px"
	 viewBox="0 0 511.998 511.998" style="enable-background:new 0 0 511.998 511.998;" xml:space="preserve">
<path style="fill:#EDEBED;" d="M371.613,37.16H24.774C11.092,37.16,0,48.252,0,61.934v280.775c0,13.682,11.092,24.774,24.774,24.774
	h346.839c13.682,0,24.774-11.092,24.774-24.774V61.934C396.387,48.252,385.295,37.16,371.613,37.16z"/>
<path style="fill:#DBD9DC;" d="M371.613,37.16H24.774C11.092,37.16,0,48.252,0,61.934v49.548h396.387V61.934
	C396.387,48.252,385.295,37.16,371.613,37.16z"/>
<g>
	<path style="fill:#FFFFFF;" d="M272.516,78.451H115.613c-4.565,0-8.258-3.694-8.258-8.258s3.694-8.258,8.258-8.258h156.903
		c4.565,0,8.258,3.694,8.258,8.258S277.081,78.451,272.516,78.451z"/>
	<path style="fill:#FFFFFF;" d="M363.355,78.451h-57.806c-4.565,0-8.258-3.694-8.258-8.258s3.694-8.258,8.258-8.258h57.806
		c4.565,0,8.258,3.694,8.258,8.258S367.919,78.451,363.355,78.451z"/>
	<path style="fill:#FFFFFF;" d="M371.613,350.967H24.774c-4.561,0-8.258-3.697-8.258-8.258V111.483c0-4.561,3.697-8.258,8.258-8.258
		h346.839c4.561,0,8.258,3.697,8.258,8.258v231.226C379.871,347.269,376.174,350.967,371.613,350.967z"/>
</g>
<path style="fill:#DC4655;" d="M33.073,78.451c-4.565,0-8.298-3.694-8.298-8.258s3.653-8.258,8.218-8.258h0.081
	c4.565,0,8.258,3.694,8.258,8.258S37.637,78.451,33.073,78.451z"/>
<path style="fill:#FFE17D;" d="M82.621,78.451c-4.565,0-8.298-3.694-8.298-8.258s3.653-8.258,8.218-8.258h0.081
	c4.565,0,8.258,3.694,8.258,8.258S87.185,78.451,82.621,78.451z"/>
<path style="fill:#F2A275;" d="M57.847,78.451c-4.565,0-8.298-3.694-8.298-8.258s3.653-8.258,8.218-8.258h0.081
	c4.565,0,8.258,3.694,8.258,8.258S62.411,78.451,57.847,78.451z"/>
<path style="fill:#6F6571;" d="M156.903,326.193h-82.58c-9.122,0-16.516-7.395-16.516-16.516V161.031
	c0-9.122,7.395-16.516,16.516-16.516h82.581c9.122,0,16.516,7.395,16.516,16.516v148.645
	C173.419,318.798,166.025,326.193,156.903,326.193z"/>
<path style="fill:#867E88;" d="M119.742,317.934h-8.258c-4.565,0-8.258-3.694-8.258-8.258s3.694-8.258,8.258-8.258h8.258
	c4.565,0,8.258,3.694,8.258,8.258S124.306,317.934,119.742,317.934z"/>
<g>
	<path style="fill:#FFD164;" d="M231.226,177.547h107.355c4.561,0,8.258-3.697,8.258-8.258v-16.516c0-4.561-3.697-8.258-8.258-8.258
		H231.226c-4.561,0-8.258,3.697-8.258,8.258v16.516C222.968,173.85,226.665,177.547,231.226,177.547z"/>
	<path style="fill:#FFD164;" d="M388.681,436.337l-57.211,35.918c-12.609,7.916-28.431-3.58-24.799-18.017l16.48-65.51
		l-51.839-43.312c-11.425-9.545-5.381-28.146,9.472-29.153l67.396-4.57l25.173-62.686c5.548-13.815,25.105-13.815,30.653,0
		l25.173,62.686l67.396,4.57c14.853,1.007,20.897,19.607,9.472,29.153l-51.839,43.312l16.48,65.51
		c3.632,14.438-12.19,25.933-24.799,18.017L388.681,436.337z"/>
</g>
<path style="fill:#FFC350;" d="M463.361,425.102c-71.916-2.881-133.073-47.531-159.833-110.382l-22.742,1.542
	c-14.853,1.007-20.897,19.607-9.472,29.153l51.839,43.311l-16.48,65.51c-3.632,14.438,12.19,25.933,24.799,18.018l57.211-35.918
	l57.211,35.918c12.608,7.916,28.431-3.58,24.798-18.018L463.361,425.102z"/>
<path style="fill:#867E88;" d="M322.065,218.838h-90.839c-4.565,0-8.258-3.694-8.258-8.258s3.694-8.258,8.258-8.258h90.839
	c4.565,0,8.258,3.694,8.258,8.258S326.629,218.838,322.065,218.838z"/>
<path style="fill:#9C969E;" d="M297.29,251.87h-66.065c-4.565,0-8.258-3.694-8.258-8.258s3.694-8.258,8.258-8.258h66.065
	c4.565,0,8.258,3.694,8.258,8.258S301.855,251.87,297.29,251.87z"/>
<path style="fill:#FFD164;" d="M152.774,293.16H78.452c-2.28,0-4.129-1.849-4.129-4.129V165.16c0-2.28,1.849-4.129,4.129-4.129
	h74.323c2.28,0,4.129,1.849,4.129,4.129v123.871C156.903,291.312,155.055,293.16,152.774,293.16z"/>
<path style="fill:#FFC350;" d="M140.387,276.644c-27.365,0-49.548-22.184-49.548-49.548v-66.065H78.452
	c-2.28,0-4.129,1.849-4.129,4.129v123.871c0,2.28,1.849,4.129,4.129,4.129h74.323c2.28,0,4.129-1.849,4.129-4.129v-12.387H140.387z"
	/>
<g>
</g>
<g>
</g>
<g>
</g>
<g>
</g>
<g>
</g>
<g>
</g>
<g>
</g>
<g>
</g>
<g>
</g>
<g>
</g>
<g>
</g>
<g>
</g>
<g>
</g>
<g>
</g>
<g>
</g>
</svg>
