<?xml version="1.0" encoding="iso-8859-1"?>

<svg version="1.1" id="Capa_1" xmlns="http://www.w3.org/2000/svg" xmlns:xlink="http://www.w3.org/1999/xlink" x="0px" y="0px"
	 viewBox="0 0 512 512" style="enable-background:new 0 0 512 512;" xml:space="preserve">
<path style="fill:#EDEBED;" d="M371.613,34.028H24.774C11.092,34.028,0,45.119,0,58.802v280.774
	c0,13.682,11.092,24.774,24.774,24.774h346.839c13.682,0,24.774-11.092,24.774-24.774V58.802
	C396.387,45.119,385.295,34.028,371.613,34.028z"/>
<path style="fill:#DBD9DC;" d="M371.613,34.028H24.774C11.092,34.028,0,45.119,0,58.802v49.548h396.387V58.802
	C396.387,45.119,385.295,34.028,371.613,34.028z"/>
<g>
	<path style="fill:#FFFFFF;" d="M272.516,75.318H115.613c-4.565,0-8.258-3.694-8.258-8.258c0-4.565,3.694-8.258,8.258-8.258h156.903
		c4.565,0,8.258,3.694,8.258,8.258C280.774,71.624,277.081,75.318,272.516,75.318z"/>
	<path style="fill:#FFFFFF;" d="M363.355,75.318h-57.806c-4.565,0-8.258-3.694-8.258-8.258c0-4.565,3.694-8.258,8.258-8.258h57.806
		c4.565,0,8.258,3.694,8.258,8.258C371.613,71.624,367.919,75.318,363.355,75.318z"/>
	<path style="fill:#FFFFFF;" d="M371.613,347.834H24.774c-4.561,0-8.258-3.697-8.258-8.258V108.35c0-4.561,3.697-8.258,8.258-8.258
		h346.839c4.561,0,8.258,3.697,8.258,8.258v231.226C379.871,344.137,376.174,347.834,371.613,347.834z"/>
</g>
<path style="fill:#DC4655;" d="M33.073,75.318c-4.565,0-8.298-3.694-8.298-8.258c0-4.565,3.653-8.258,8.218-8.258h0.081
	c4.565,0,8.258,3.694,8.258,8.258C41.331,71.624,37.637,75.318,33.073,75.318z"/>
<path style="fill:#FFE17D;" d="M82.621,75.318c-4.565,0-8.298-3.694-8.298-8.258c0-4.565,3.653-8.258,8.218-8.258h0.081
	c4.565,0,8.258,3.694,8.258,8.258C90.879,71.624,87.185,75.318,82.621,75.318z"/>
<path style="fill:#F2A275;" d="M57.847,75.318c-4.565,0-8.298-3.694-8.298-8.258c0-4.565,3.653-8.258,8.218-8.258h0.081
	c4.565,0,8.258,3.694,8.258,8.258C66.105,71.624,62.411,75.318,57.847,75.318z"/>
<path style="fill:#E6646E;" d="M239.484,174.415h107.355c4.561,0,8.258-3.697,8.258-8.258v-16.516c0-4.561-3.697-8.258-8.258-8.258
	H239.484c-4.561,0-8.258,3.697-8.258,8.258v16.516C231.226,170.717,234.923,174.415,239.484,174.415z"/>
<path style="fill:#867E88;" d="M330.323,215.705h-90.839c-4.565,0-8.258-3.694-8.258-8.258c0-4.565,3.694-8.258,8.258-8.258h90.839
	c4.565,0,8.258,3.694,8.258,8.258C338.581,212.012,334.887,215.705,330.323,215.705z"/>
<path style="fill:#9C969E;" d="M305.548,248.737h-66.065c-4.565,0-8.258-3.694-8.258-8.258c0-4.565,3.694-8.258,8.258-8.258h66.065
	c4.565,0,8.258,3.694,8.258,8.258C313.806,245.044,310.113,248.737,305.548,248.737z"/>
<path style="fill:#E6646E;" d="M104.936,155.48l27.193,27.193l27.193-27.193c3.225-3.225,3.225-8.454,0-11.679l-8.258-8.258
	c-1.549-1.549-3.649-2.419-5.839-2.419h-26.191c-2.19,0-4.291,0.87-5.839,2.419l-8.258,8.258
	C101.711,147.026,101.711,152.255,104.936,155.48z"/>
<path style="fill:#DC4655;" d="M132.129,182.673l27.193-27.194c1.612-1.612,2.419-3.726,2.419-5.839h-59.223
	c0,2.113,0.806,4.227,2.418,5.839L132.129,182.673z"/>
<path style="fill:#FFE17D;" d="M132.129,323.06c-40.984,0-74.323-33.339-74.323-74.323s33.339-74.323,74.323-74.323
	s74.323,33.339,74.323,74.323S173.113,323.06,132.129,323.06z M132.129,190.931c-31.871,0-57.806,25.935-57.806,57.806
	s25.935,57.806,57.806,57.806s57.806-25.935,57.806-57.806S164,190.931,132.129,190.931z"/>
<path style="fill:#E6646E;" d="M444.565,273.512c-15.007,0-28.866,4.904-40.068,13.195c-4.523,3.348-10.543,3.348-15.066,0
	c-11.202-8.291-25.061-13.195-40.068-13.195c-37.243,0-67.435,30.192-67.435,67.435c0,49.279,55.244,108.068,107.745,135.257
	c4.554,2.358,10.029,2.358,14.583,0C456.756,449.014,512,390.226,512,340.946C512,303.703,481.808,273.512,444.565,273.512z"/>
<path style="fill:#DC4655;" d="M340.929,336.623c0-23.714,9.532-45.185,24.946-60.851c-5.308-1.344-10.787-2.26-16.513-2.26
	c-37.243,0-67.435,30.192-67.435,67.435c0,49.279,55.243,108.068,107.745,135.257c4.554,2.358,10.029,2.358,14.583,0
	c4.643-2.405,9.3-5.136,13.946-8.006C374.909,430.134,340.929,380.463,340.929,336.623z"/>
<g>
</g>
<g>
</g>
<g>
</g>
<g>
</g>
<g>
</g>
<g>
</g>
<g>
</g>
<g>
</g>
<g>
</g>
<g>
</g>
<g>
</g>
<g>
</g>
<g>
</g>
<g>
</g>
<g>
</g>
</svg>
