<?xml version="1.0" encoding="iso-8859-1"?>

<svg version="1.1" id="Capa_1" xmlns="http://www.w3.org/2000/svg" xmlns:xlink="http://www.w3.org/1999/xlink" x="0px" y="0px"
	 viewBox="0 0 512 512" style="enable-background:new 0 0 512 512;" xml:space="preserve">
<path style="fill:#EDEBED;" d="M371.613,33.031H24.774C11.092,33.031,0,44.123,0,57.805v280.774
	c0,13.682,11.092,24.774,24.774,24.774h346.839c13.682,0,24.774-11.092,24.774-24.774V57.805
	C396.387,44.123,385.295,33.031,371.613,33.031z"/>
<path style="fill:#DBD9DC;" d="M371.613,33.031H24.774C11.092,33.031,0,44.123,0,57.805v49.548h396.387V57.805
	C396.387,44.123,385.295,33.031,371.613,33.031z"/>
<g>
	<path style="fill:#FFFFFF;" d="M272.516,74.322H115.613c-4.565,0-8.258-3.694-8.258-8.258c0-4.565,3.694-8.258,8.258-8.258h156.903
		c4.565,0,8.258,3.694,8.258,8.258S277.081,74.322,272.516,74.322z"/>
	<path style="fill:#FFFFFF;" d="M363.355,74.322h-57.806c-4.565,0-8.258-3.694-8.258-8.258c0-4.565,3.694-8.258,8.258-8.258h57.806
		c4.565,0,8.258,3.694,8.258,8.258S367.919,74.322,363.355,74.322z"/>
	<path style="fill:#FFFFFF;" d="M371.613,346.838H24.774c-4.561,0-8.258-3.697-8.258-8.258V107.354c0-4.561,3.697-8.258,8.258-8.258
		h346.839c4.561,0,8.258,3.697,8.258,8.258V338.58C379.871,343.14,376.174,346.838,371.613,346.838z"/>
</g>
<path style="fill:#DC4655;" d="M33.073,74.322c-4.565,0-8.298-3.694-8.298-8.258c0-4.565,3.653-8.258,8.218-8.258h0.081
	c4.565,0,8.258,3.694,8.258,8.258C41.331,70.628,37.637,74.322,33.073,74.322z"/>
<path style="fill:#FFE17D;" d="M82.621,74.322c-4.565,0-8.298-3.694-8.298-8.258c0-4.565,3.653-8.258,8.218-8.258h0.081
	c4.565,0,8.258,3.694,8.258,8.258C90.879,70.628,87.185,74.322,82.621,74.322z"/>
<path style="fill:#F2A275;" d="M57.847,74.322c-4.565,0-8.298-3.694-8.298-8.258c0-4.565,3.653-8.258,8.218-8.258h0.081
	c4.565,0,8.258,3.694,8.258,8.258C66.105,70.628,62.411,74.322,57.847,74.322z"/>
<path style="fill:#EDEBED;" d="M355.392,191.065l-8.005-32.021c-1.774-7.097-7.632-12.438-14.863-13.549
	c-44.268-6.81-89.317-6.81-133.585,0c-7.23,1.112-13.089,6.453-14.863,13.549l-8.005,32.021c-0.689,2.753,0.628,5.616,3.167,6.885
	l31.99,15.995v102.062c0,3.345,2.711,6.056,6.056,6.056h96.895c3.345,0,6.056-2.712,6.056-6.056V213.945l31.99-15.995
	C354.764,196.68,356.081,193.818,355.392,191.065z"/>
<g>
	<path style="fill:#DBD9DC;" d="M347.254,159.043l8.005,32.021c0.688,2.754-0.628,5.616-3.167,6.885l-31.99,15.995v-27.662
		c0-5.231,1.655-10.327,4.729-14.559l16.181-22.278C344.001,151.874,346.28,155.146,347.254,159.043z"/>
	<path style="fill:#DBD9DC;" d="M223.113,142.537c-0.001,0-0.001,0.001-0.002,0.001c8.409,13.798,21.781,31.415,39.952,41.775
		c0.841,0.48,1.769,0.72,2.698,0.72s1.858-0.24,2.699-0.72c18.169-10.359,31.537-27.972,39.947-41.77c0,0,0,0-0.001,0
		C280.038,139.774,251.48,139.772,223.113,142.537z"/>
</g>
<path style="fill:#C9C6CA;" d="M263.063,184.314c0.841,0.48,1.769,0.72,2.698,0.72s1.858-0.24,2.699-0.72
	c18.169-10.359,31.537-27.972,39.947-41.77c0,0,0,0-0.001,0c-6.28-0.613-12.571-1.038-18.865-1.379
	c-6.019,8.718-13.969,18.281-23.779,25.284c-9.814-7.006-17.76-16.569-23.779-25.288c-6.295,0.341-12.589,0.764-18.869,1.377
	c-0.001,0-0.001,0.001-0.002,0.001C231.52,156.337,244.892,173.954,263.063,184.314z"/>
<path style="fill:#DBD9DC;" d="M227.441,248.428v-11.169c0-9.746-5.714-18.587-14.601-22.589l-1.611-0.726v102.062
	c0,3.345,2.712,6.056,6.056,6.056h96.894c3.345,0,6.056-2.711,6.056-6.056v-9.773h-34.988
	C253.322,306.235,227.441,280.354,227.441,248.428z"/>
<circle style="fill:#E6646E;" cx="396.39" cy="363.359" r="115.61"/>
<path style="fill:#DC4655;" d="M429.419,445.934c-63.851,0-115.613-51.762-115.613-115.613c0-23.474,7.042-45.283,19.063-63.518
	c-31.365,20.676-52.095,56.173-52.095,96.55c0,63.851,51.762,115.613,115.613,115.613c40.377,0,75.873-20.73,96.55-52.095
	C474.702,438.893,452.893,445.934,429.419,445.934z"/>
<g>
	<path style="fill:#FFFFFF;" d="M355.097,412.902c-2.113,0-4.226-0.806-5.839-2.419c-3.226-3.226-3.226-8.452,0-11.677
		l82.581-82.581c3.226-3.226,8.452-3.226,11.677,0c3.226,3.226,3.226,8.452,0,11.677l-82.581,82.581
		C359.323,412.096,357.21,412.902,355.097,412.902z"/>
	<path style="fill:#FFFFFF;" d="M363.355,355.096c-13.661,0-24.774-11.113-24.774-24.774s11.113-24.774,24.774-24.774
		c13.661,0,24.774,11.113,24.774,24.774S377.016,355.096,363.355,355.096z M363.355,322.064c-4.556,0-8.258,3.702-8.258,8.258
		s3.702,8.258,8.258,8.258s8.258-3.702,8.258-8.258C371.613,325.765,367.911,322.064,363.355,322.064z"/>
	<path style="fill:#FFFFFF;" d="M429.419,421.16c-13.661,0-24.774-11.113-24.774-24.774c0-13.661,11.113-24.774,24.774-24.774
		c13.661,0,24.774,11.113,24.774,24.774C454.194,410.047,443.081,421.16,429.419,421.16z M429.419,388.128
		c-4.556,0-8.258,3.702-8.258,8.258s3.702,8.258,8.258,8.258s8.258-3.702,8.258-8.258S433.976,388.128,429.419,388.128z"/>
</g>
<path style="fill:#FFE17D;" d="M289.328,191.065l-8.005-32.021c-1.774-7.097-7.632-12.438-14.863-13.549
	c-44.268-6.81-89.317-6.81-133.585,0c-7.23,1.112-13.089,6.453-14.863,13.549l-8.005,32.021c-0.689,2.753,0.628,5.616,3.167,6.885
	l31.99,15.995v102.062c0,3.345,2.711,6.056,6.056,6.056h96.895c3.345,0,6.056-2.712,6.056-6.056V213.945l31.99-15.995
	C288.7,196.68,290.016,193.818,289.328,191.065z"/>
<g>
	<path style="fill:#FFD164;" d="M281.19,159.043l8.005,32.021c0.688,2.754-0.628,5.616-3.167,6.885l-31.99,15.995v-27.662
		c0-5.231,1.656-10.327,4.729-14.559l16.181-22.278C277.936,151.874,280.216,155.146,281.19,159.043z"/>
	<path style="fill:#FFD164;" d="M157.048,142.537l-0.002,0.001c8.409,13.798,21.781,31.415,39.952,41.775
		c0.841,0.48,1.769,0.72,2.698,0.72s1.858-0.24,2.699-0.72c18.169-10.359,31.537-27.972,39.947-41.77c-0.001,0-0.001,0-0.001,0
		C213.974,139.774,185.416,139.772,157.048,142.537z"/>
</g>
<path style="fill:#FFC350;" d="M196.998,184.314c0.841,0.48,1.769,0.72,2.698,0.72s1.858-0.24,2.699-0.72
	c18.169-10.359,31.537-27.972,39.947-41.77c-0.001,0-0.001,0-0.001,0c-6.28-0.613-12.572-1.038-18.866-1.379
	c-6.019,8.718-13.969,18.281-23.779,25.284c-9.814-7.006-17.76-16.569-23.779-25.288c-6.295,0.341-12.589,0.764-18.869,1.377
	l-0.002,0.001C165.455,156.337,178.828,173.954,196.998,184.314z"/>
<path style="fill:#FFD164;" d="M161.376,248.428v-11.169c0-9.746-5.714-18.587-14.601-22.589l-1.611-0.726v102.062
	c0,3.345,2.712,6.056,6.056,6.056h96.894c3.345,0,6.056-2.711,6.056-6.056v-9.773h-34.988
	C187.257,306.235,161.376,280.354,161.376,248.428z"/>
<path style="fill:#E6646E;" d="M222.919,191.065l-8.005-32.021c-1.774-7.097-7.632-12.438-14.863-13.549
	c-44.268-6.81-89.317-6.81-133.585,0c-7.23,1.112-13.089,6.453-14.863,13.549l-8.005,32.021c-0.689,2.753,0.628,5.616,3.167,6.885
	l31.99,15.995v102.062c0,3.345,2.711,6.056,6.056,6.056h96.895c3.345,0,6.056-2.712,6.056-6.056V213.945l31.99-15.995
	C222.291,196.68,223.608,193.818,222.919,191.065z"/>
<g>
	<path style="fill:#DC4655;" d="M51.603,159.043l-8.005,32.021c-0.688,2.754,0.628,5.616,3.167,6.885l31.99,15.995v-27.662
		c0-5.231-1.656-10.327-4.729-14.559l-16.181-22.278C54.857,151.874,52.578,155.146,51.603,159.043z"/>
	<path style="fill:#DC4655;" d="M214.781,159.043l8.005,32.021c0.688,2.754-0.628,5.616-3.167,6.885l-31.99,15.995v-27.662
		c0-5.231,1.656-10.327,4.729-14.559l16.181-22.278C211.528,151.874,213.807,155.146,214.781,159.043z"/>
</g>
<path style="fill:#C43F4F;" d="M90.64,142.537c-0.001,0-0.001,0.001-0.002,0.001c8.409,13.798,21.781,31.415,39.952,41.775
	c0.841,0.48,1.769,0.72,2.698,0.72s1.858-0.24,2.699-0.72c18.169-10.359,31.537-27.972,39.947-41.77c-0.001,0-0.001,0-0.001,0
	C147.565,139.774,119.007,139.772,90.64,142.537z"/>
<g>
	<path style="fill:#DC4655;" d="M130.59,184.314c0.841,0.48,1.769,0.72,2.698,0.72s1.858-0.24,2.699-0.72
		c18.169-10.359,31.537-27.972,39.947-41.77c-0.001,0-0.001,0-0.001,0c-6.28-0.613-12.572-1.038-18.866-1.379
		c-6.019,8.718-13.969,18.281-23.779,25.284c-9.814-7.006-17.76-16.569-23.779-25.288c-6.295,0.341-12.589,0.764-18.869,1.377
		c-0.001,0-0.001,0.001-0.002,0.001C99.047,156.337,112.419,173.954,130.59,184.314z"/>
	<path style="fill:#DC4655;" d="M94.968,248.428v-11.169c0-9.746-5.714-18.587-14.601-22.589l-1.611-0.726v102.062
		c0,3.345,2.712,6.056,6.056,6.056h96.894c3.345,0,6.056-2.711,6.056-6.056v-9.773h-34.988
		C120.849,306.235,94.968,280.354,94.968,248.428z"/>
</g>
<g>
</g>
<g>
</g>
<g>
</g>
<g>
</g>
<g>
</g>
<g>
</g>
<g>
</g>
<g>
</g>
<g>
</g>
<g>
</g>
<g>
</g>
<g>
</g>
<g>
</g>
<g>
</g>
<g>
</g>
</svg>
