<?xml version="1.0" encoding="iso-8859-1"?>

<svg version="1.1" id="Capa_1" xmlns="http://www.w3.org/2000/svg" xmlns:xlink="http://www.w3.org/1999/xlink" x="0px" y="0px"
	 viewBox="0 0 512 512" style="enable-background:new 0 0 512 512;" xml:space="preserve">
<path style="fill:#EDEBED;" d="M487.226,470.71H24.774C11.092,470.71,0,459.618,0,445.935V66.065
	C0,52.382,11.092,41.29,24.774,41.29h462.452C500.908,41.29,512,52.382,512,66.065v379.871
	C512,459.618,500.908,470.71,487.226,470.71z"/>
<path style="fill:#DBD9DC;" d="M512,115.613H0V66.065C0,52.382,11.092,41.29,24.774,41.29h462.452
	C500.908,41.29,512,52.382,512,66.065V115.613z"/>
<path style="fill:#FFFFFF;" d="M487.226,454.194H24.774c-4.561,0-8.258-3.697-8.258-8.258V115.613c0-4.561,3.697-8.258,8.258-8.258
	h462.452c4.561,0,8.258,3.697,8.258,8.258v330.323C495.484,450.496,491.787,454.194,487.226,454.194z"/>
<path style="fill:#DC4655;" d="M33.032,82.581c-4.565,0-8.298-3.694-8.298-8.258c0-4.565,3.653-8.258,8.218-8.258h0.081
	c4.565,0,8.258,3.694,8.258,8.258C41.29,78.887,37.597,82.581,33.032,82.581z"/>
<path style="fill:#FFE17D;" d="M82.581,82.581c-4.565,0-8.298-3.694-8.298-8.258c0-4.565,3.653-8.258,8.218-8.258h0.081
	c4.565,0,8.258,3.694,8.258,8.258C90.839,78.887,87.145,82.581,82.581,82.581z"/>
<path style="fill:#F2A275;" d="M57.806,82.581c-4.565,0-8.298-3.694-8.298-8.258c0-4.565,3.653-8.258,8.218-8.258h0.081
	c4.565,0,8.258,3.694,8.258,8.258C66.065,78.887,62.371,82.581,57.806,82.581z"/>
<g>
	<path style="fill:#FFFFFF;" d="M478.968,82.581h-74.323c-4.565,0-8.258-3.694-8.258-8.258c0-4.565,3.694-8.258,8.258-8.258h74.323
		c4.565,0,8.258,3.694,8.258,8.258C487.226,78.887,483.532,82.581,478.968,82.581z"/>
	<path style="fill:#FFFFFF;" d="M371.613,82.581h-256c-4.565,0-8.258-3.694-8.258-8.258c0-4.565,3.694-8.258,8.258-8.258h256
		c4.565,0,8.258,3.694,8.258,8.258C379.871,78.887,376.177,82.581,371.613,82.581z"/>
</g>
<path style="fill:#E6646E;" d="M378.264,234.268l-10.916-43.664c-2.419-9.678-10.408-16.961-20.268-18.477
	c-60.365-9.288-121.796-9.288-182.161,0c-9.86,1.516-17.848,8.798-20.268,18.477l-10.916,43.664
	c-0.939,3.755,0.856,7.658,4.318,9.389l43.623,21.811v139.176c0,4.56,3.697,8.258,8.258,8.258h132.129
	c4.561,0,8.258-3.698,8.258-8.258V265.469l43.624-21.811C377.408,241.926,379.203,238.023,378.264,234.268z"/>
<path style="fill:#C43F4F;" d="M197.881,168.096c11.467,18.817,29.702,42.84,54.479,56.967c1.147,0.655,2.413,0.981,3.679,0.981
	c1.267,0,2.533-0.326,3.68-0.981c24.776-14.127,43.006-38.144,54.473-56.96C275.509,164.325,236.565,164.324,197.881,168.096z"/>
<g>
	<path style="fill:#9C969E;" d="M90.839,338.581c-2.113,0-4.226-0.806-5.839-2.419l-41.29-41.29c-3.226-3.226-3.226-8.452,0-11.677
		L85,241.903c3.226-3.226,8.452-3.226,11.677,0c3.226,3.226,3.226,8.452,0,11.677l-35.452,35.452l35.452,35.452
		c3.226,3.226,3.226,8.452,0,11.677C95.065,337.774,92.952,338.581,90.839,338.581z"/>
	<path style="fill:#9C969E;" d="M421.161,338.581c-2.113,0-4.226-0.806-5.839-2.419c-3.226-3.226-3.226-8.452,0-11.677
		l35.452-35.452l-35.452-35.452c-3.226-3.226-3.226-8.452,0-11.677c3.226-3.226,8.452-3.226,11.677,0l41.29,41.29
		c3.226,3.226,3.226,8.452,0,11.677L427,336.161C425.387,337.774,423.274,338.581,421.161,338.581z"/>
</g>
<g>
	<path style="fill:#DC4655;" d="M144.652,190.604l-10.916,43.665c-0.939,3.755,0.856,7.658,4.318,9.389l43.623,21.811v-24.77
		c0-6.191-1.74-12.257-5.021-17.507l-26.707-42.733C147.471,183.334,145.61,186.768,144.652,190.604z"/>
	<path style="fill:#DC4655;" d="M367.348,190.604l10.916,43.665c0.939,3.755-0.856,7.658-4.318,9.389l-43.624,21.811v-24.77
		c0-6.191,1.74-12.257,5.021-17.507l26.707-42.733C364.529,183.334,366.39,186.768,367.348,190.604z"/>
	<path style="fill:#DC4655;" d="M198.194,330.323v-46.897c0-6.616-3.949-12.594-10.034-15.191l-6.482-2.766v139.176
		c0,4.561,3.697,8.258,8.258,8.258h132.129c4.561,0,8.258-3.697,8.258-8.258v-8.258h-66.065
		C227.772,396.387,198.194,366.809,198.194,330.323z"/>
	<path style="fill:#DC4655;" d="M295.502,166.676c-9.353,14.051-22.67,30.364-39.463,41.291
		c-16.789-10.923-30.129-27.25-39.484-41.306c-6.228,0.411-12.457,0.829-18.674,1.434c11.467,18.817,29.702,42.84,54.479,56.967
		c1.147,0.655,2.413,0.981,3.679,0.981c1.267,0,2.533-0.326,3.68-0.981c24.776-14.127,43.006-38.144,54.473-56.96
		C307.97,167.495,301.735,167.091,295.502,166.676z"/>
</g>
<g>
</g>
<g>
</g>
<g>
</g>
<g>
</g>
<g>
</g>
<g>
</g>
<g>
</g>
<g>
</g>
<g>
</g>
<g>
</g>
<g>
</g>
<g>
</g>
<g>
</g>
<g>
</g>
<g>
</g>
</svg>
