<?xml version="1.0" encoding="iso-8859-1"?>

<svg version="1.1" id="Capa_1" xmlns="http://www.w3.org/2000/svg" xmlns:xlink="http://www.w3.org/1999/xlink" x="0px" y="0px"
	 viewBox="0 0 512 512" style="enable-background:new 0 0 512 512;" xml:space="preserve">
<path style="fill:#EDEBED;" d="M487.226,470.71H24.774C11.092,470.71,0,459.618,0,445.935V66.065
	C0,52.382,11.092,41.29,24.774,41.29h462.452C500.908,41.29,512,52.382,512,66.065v379.871
	C512,459.618,500.908,470.71,487.226,470.71z"/>
<path style="fill:#DBD9DC;" d="M512,115.613H0V66.065C0,52.382,11.092,41.29,24.774,41.29h462.452
	C500.908,41.29,512,52.382,512,66.065V115.613z"/>
<path style="fill:#FFFFFF;" d="M487.226,454.194H24.774c-4.561,0-8.258-3.697-8.258-8.258V115.613c0-4.561,3.697-8.258,8.258-8.258
	h462.452c4.561,0,8.258,3.697,8.258,8.258v330.323C495.484,450.496,491.787,454.194,487.226,454.194z"/>
<rect x="57.806" y="222.97" style="fill:#FFEDB1;" width="198.19" height="132.13"/>
<path style="fill:#FFE17D;" d="M256,222.968H57.806v47.665c1.457,0.414,2.87,0.927,4.389,1.191c2.65,0.46,5.342,0.693,8,0.693
	c10.724,0,20.901-3.782,28.911-10.39c8.021,6.604,18.208,10.39,28.894,10.39c10.706,0,20.888-3.784,28.903-10.391
	c8.016,6.607,18.198,10.391,28.903,10.391c10.684,0,20.872-3.787,28.893-10.391c8.011,6.609,18.186,10.391,28.912,10.391
	c2.658,0,5.35-0.233,8.002-0.693c1.518-0.263,2.931-0.777,4.387-1.191V222.968z"/>
<path style="fill:#FFFFFF;" d="M136.258,313.806h-41.29c-2.28,0-4.129-1.849-4.129-4.129v-86.71h49.548v86.71
	C140.387,311.958,138.538,313.806,136.258,313.806z"/>
<rect x="107.36" y="222.97" style="fill:#FFF6D8;" width="16.516" height="74.32"/>
<path style="fill:#FFFFFF;" d="M218.839,313.806h-41.29c-2.28,0-4.129-1.849-4.129-4.129v-86.71h49.548v86.71
	C222.968,311.958,221.119,313.806,218.839,313.806z"/>
<rect x="189.94" y="222.97" style="fill:#FFF6D8;" width="16.516" height="74.32"/>
<path style="fill:#DC4655;" d="M33.032,82.581c-4.565,0-8.298-3.694-8.298-8.258c0-4.565,3.653-8.258,8.218-8.258h0.081
	c4.565,0,8.258,3.694,8.258,8.258C41.29,78.887,37.597,82.581,33.032,82.581z"/>
<path style="fill:#FFE17D;" d="M82.581,82.581c-4.565,0-8.298-3.694-8.298-8.258c0-4.565,3.653-8.258,8.218-8.258h0.081
	c4.565,0,8.258,3.694,8.258,8.258C90.839,78.887,87.145,82.581,82.581,82.581z"/>
<path style="fill:#F2A275;" d="M57.806,82.581c-4.565,0-8.298-3.694-8.298-8.258c0-4.565,3.653-8.258,8.218-8.258h0.081
	c4.565,0,8.258,3.694,8.258,8.258C66.065,78.887,62.371,82.581,57.806,82.581z"/>
<g>
	<path style="fill:#FFFFFF;" d="M478.968,82.581h-74.323c-4.565,0-8.258-3.694-8.258-8.258c0-4.565,3.694-8.258,8.258-8.258h74.323
		c4.565,0,8.258,3.694,8.258,8.258C487.226,78.887,483.532,82.581,478.968,82.581z"/>
	<path style="fill:#FFFFFF;" d="M371.613,82.581h-256c-4.565,0-8.258-3.694-8.258-8.258c0-4.565,3.694-8.258,8.258-8.258h256
		c4.565,0,8.258,3.694,8.258,8.258C379.871,78.887,376.177,82.581,371.613,82.581z"/>
</g>
<path style="fill:#DBD9DC;" d="M264.258,363.355H49.548c-4.565,0-8.258-3.694-8.258-8.258s3.694-8.258,8.258-8.258h214.71
	c4.565,0,8.258,3.694,8.258,8.258S268.823,363.355,264.258,363.355z"/>
<path style="fill:#E6646E;" d="M454.194,198.194H322.065c-4.561,0-8.258-3.697-8.258-8.258v-24.774c0-4.561,3.697-8.258,8.258-8.258
	h132.129c4.561,0,8.258,3.697,8.258,8.258v24.774C462.452,194.496,458.754,198.194,454.194,198.194z"/>
<path style="fill:#FFE17D;" d="M421.161,264.258h-99.097c-4.561,0-8.258-3.697-8.258-8.258v-16.516c0-4.561,3.697-8.258,8.258-8.258
	h99.097c4.561,0,8.258,3.697,8.258,8.258V256C429.419,260.561,425.722,264.258,421.161,264.258z"/>
<g>
	<path style="fill:#867E88;" d="M181.677,429.419h-74.323c-4.565,0-8.258-3.694-8.258-8.258s3.694-8.258,8.258-8.258h74.323
		c4.565,0,8.258,3.694,8.258,8.258S186.242,429.419,181.677,429.419z"/>
	<path style="fill:#867E88;" d="M214.71,396.387H107.355c-4.565,0-8.258-3.694-8.258-8.258s3.694-8.258,8.258-8.258H214.71
		c4.565,0,8.258,3.694,8.258,8.258S219.274,396.387,214.71,396.387z"/>
</g>
<g>
	<path style="fill:#5D5360;" d="M74.323,396.387h-8.258c-4.565,0-8.258-3.694-8.258-8.258s3.694-8.258,8.258-8.258h8.258
		c4.565,0,8.258,3.694,8.258,8.258S78.887,396.387,74.323,396.387z"/>
	<path style="fill:#5D5360;" d="M74.323,429.419h-8.258c-4.565,0-8.258-3.694-8.258-8.258s3.694-8.258,8.258-8.258h8.258
		c4.565,0,8.258,3.694,8.258,8.258S78.887,429.419,74.323,429.419z"/>
</g>
<path style="fill:#FFE17D;" d="M330.323,313.806h-8.258c-4.565,0-8.258-3.694-8.258-8.258c0-4.565,3.694-8.258,8.258-8.258h8.258
	c4.565,0,8.258,3.694,8.258,8.258C338.581,310.113,334.887,313.806,330.323,313.806z"/>
<g>
	<path style="fill:#867E88;" d="M429.419,313.806h-66.065c-4.565,0-8.258-3.694-8.258-8.258c0-4.565,3.694-8.258,8.258-8.258h66.065
		c4.565,0,8.258,3.694,8.258,8.258C437.677,310.113,433.984,313.806,429.419,313.806z"/>
	<path style="fill:#867E88;" d="M412.903,346.839h-49.548c-4.565,0-8.258-3.694-8.258-8.258s3.694-8.258,8.258-8.258h49.548
		c4.565,0,8.258,3.694,8.258,8.258S417.468,346.839,412.903,346.839z"/>
</g>
<g>
	<path style="fill:#9C969E;" d="M462.452,396.387H322.065c-4.565,0-8.258-3.694-8.258-8.258s3.694-8.258,8.258-8.258h140.387
		c4.565,0,8.258,3.694,8.258,8.258S467.016,396.387,462.452,396.387z"/>
	<path style="fill:#9C969E;" d="M462.452,429.419H322.065c-4.565,0-8.258-3.694-8.258-8.258s3.694-8.258,8.258-8.258h140.387
		c4.565,0,8.258,3.694,8.258,8.258S467.016,429.419,462.452,429.419z"/>
</g>
<path style="fill:#FFE17D;" d="M330.323,346.839h-8.258c-4.565,0-8.258-3.694-8.258-8.258s3.694-8.258,8.258-8.258h8.258
	c4.565,0,8.258,3.694,8.258,8.258S334.887,346.839,330.323,346.839z"/>
<g>
	<path style="fill:#FFF6D8;" d="M99.106,262.126c8.021,6.604,18.208,10.39,28.894,10.39c4.264,0,8.393-0.755,12.387-1.895v-47.653
		H90.839v44.44C93.758,265.911,96.57,264.218,99.106,262.126z"/>
	<path style="fill:#FFF6D8;" d="M185.806,272.516c10.684,0,20.872-3.787,28.893-10.391c2.537,2.093,5.349,3.786,8.268,5.282v-44.44
		h-49.548v47.653C177.413,271.761,181.542,272.516,185.806,272.516z"/>
</g>
<path style="fill:#E6646E;" d="M226.649,156.903H87.158c-2.847,0-5.494,1.467-7.003,3.881L41.29,222.968v2.493
	c0,15.651,11.719,29.679,27.349,30.498c16.669,0.873,30.458-12.385,30.458-28.862C99.097,243.059,112.037,256,128,256
	s28.903-12.941,28.903-28.903c0,15.963,12.941,28.903,28.903,28.903s28.903-12.941,28.903-28.903
	c0,16.478,13.789,29.735,30.458,28.862c15.629-0.819,27.349-14.847,27.349-30.498v-2.493l-38.865-62.183
	C232.143,158.37,229.496,156.903,226.649,156.903z"/>
<path style="fill:#DC4655;" d="M65.017,255.551c13.032,2.261,24.834-4.216,30.514-14.537c1.587-2.883,5.71-2.484,7.34,0.375
	C107.846,250.116,117.236,256,128,256c10.845,0,20.295-5.973,25.24-14.809c1.659-2.964,5.668-2.964,7.327,0
	c4.945,8.836,14.395,14.809,25.24,14.809c10.764,0,20.154-5.884,25.128-14.611c1.63-2.859,5.753-3.258,7.34-0.375
	c5.68,10.321,17.483,16.798,30.514,14.537c14.099-2.446,23.727-15.78,23.727-30.09v-2.493H41.29v2.493
	C41.29,239.77,50.918,253.105,65.017,255.551z"/>
<g>
</g>
<g>
</g>
<g>
</g>
<g>
</g>
<g>
</g>
<g>
</g>
<g>
</g>
<g>
</g>
<g>
</g>
<g>
</g>
<g>
</g>
<g>
</g>
<g>
</g>
<g>
</g>
<g>
</g>
</svg>
