<?xml version="1.0" encoding="iso-8859-1"?>

<svg version="1.1" id="Capa_1" xmlns="http://www.w3.org/2000/svg" xmlns:xlink="http://www.w3.org/1999/xlink" x="0px" y="0px"
	 viewBox="0 0 512 512" style="enable-background:new 0 0 512 512;" xml:space="preserve">
<path style="fill:#FFE17D;" d="M271.839,349.46c0-40.396,32.748-73.143,73.143-73.143c0.55,0,1.082,0.07,1.629,0.082l-8.984-179.688
	c-0.433-8.65-7.572-15.442-16.234-15.442H108.507c-8.662,0-15.802,6.792-16.234,15.442L77.644,389.283
	c-0.464,9.284,6.938,17.066,16.234,17.066h205.178C282.468,392.94,271.839,372.451,271.839,349.46z"/>
<path style="fill:#FFD164;" d="M276.09,373.841h-46.35c-65.069,0-116.885-54.472-113.636-119.46l8.656-173.112h-16.253
	c-8.662,0-15.802,6.792-16.234,15.442L77.644,389.283c-0.464,9.284,6.938,17.066,16.234,17.066h205.178
	C288.646,397.934,280.646,386.709,276.09,373.841z"/>
<path style="fill:#FF8087;" d="M279.966,113.778h-16.254V65.016c0-26.889-21.873-48.762-48.762-48.762s-48.762,21.873-48.762,48.762
	v48.762h-16.254V65.016C149.934,29.167,179.101,0,214.95,0s65.016,29.167,65.016,65.016V113.778z"/>
<g>
	<path style="fill:#E6646E;" d="M340.659,260.165c-52.836,2.489-91.593,52.243-83.977,104.586
		c8.257,56.741,60.584,88.169,70.444,132.744c1.866,8.437,9.218,14.505,17.858,14.505c8.572,0,15.983-5.955,17.814-14.329
		c10.603-48.52,71.579-81.428,71.579-148.21C434.378,298.654,391.996,257.748,340.659,260.165z M344.982,406.349
		c-31.419,0-56.889-25.47-56.889-56.889s25.47-56.889,56.889-56.889s56.889,25.47,56.889,56.889
		C401.87,380.879,376.4,406.349,344.982,406.349z"/>
	<circle style="fill:#E6646E;" cx="158.061" cy="121.91" r="16.254"/>
	<circle style="fill:#E6646E;" cx="271.841" cy="121.91" r="16.254"/>
</g>
<path style="fill:#DC4655;" d="M417.363,360.169c5.749-40.527-21.755-75.852-59.2-82.667c-4.199-0.764-4.996-6.382-1.252-8.433
	c4.162-2.281,8.731-4.488,12.497-5.577c-13.226-3.752-27.655-4.631-42.649-1.594c-44.039,8.921-74.256,50.849-70.871,95.655
	c4.623,61.2,60.688,93.357,71.16,139.594c1.63,7.196,7.311,13.231,14.571,14.547c9.933,1.801,19.112-4.57,21.179-14.024
	c1.379-6.308,3.638-12.345,6.474-18.234c-8.326-17.28-21.745-33.314-34.261-50.716c-2.049-2.849,0.182-6.703,3.678-6.395
	c9.965,0.878,20.511-0.269,31.404-4.266C395.028,408.911,413.633,386.465,417.363,360.169z M401.87,349.46
	c0,31.419-25.47,56.889-56.889,56.889s-56.889-25.47-56.889-56.889s25.47-56.889,56.889-56.889S401.87,318.041,401.87,349.46z"/>
<g>
</g>
<g>
</g>
<g>
</g>
<g>
</g>
<g>
</g>
<g>
</g>
<g>
</g>
<g>
</g>
<g>
</g>
<g>
</g>
<g>
</g>
<g>
</g>
<g>
</g>
<g>
</g>
<g>
</g>
</svg>
