<?xml version="1.0" encoding="iso-8859-1"?>

<svg version="1.1" id="Capa_1" xmlns="http://www.w3.org/2000/svg" xmlns:xlink="http://www.w3.org/1999/xlink" x="0px" y="0px"
	 viewBox="0 0 512 512" style="enable-background:new 0 0 512 512;" xml:space="preserve">
<polygon style="fill:#AEA8AF;" points="226.065,265.29 176.516,314.839 198.194,334.452 245.677,286.968 "/>
<path style="fill:#9C969E;" d="M208.496,282.859c6.32,7.422,13.223,14.325,20.645,20.645l16.536-16.536l-19.613-21.677
	L208.496,282.859z"/>
<path style="fill:#DC4655;" d="M7.256,504.744L7.256,504.744c-9.675-9.675-9.675-25.361,0-35.036l163.501-163.501
	c3.225-3.225,8.454-3.225,11.679,0l23.357,23.357c3.225,3.225,3.225,8.454,0,11.679L42.292,504.744
	C32.617,514.419,16.931,514.419,7.256,504.744z"/>
<path style="fill:#E6646E;" d="M205.793,329.564l-12.68-12.68L38.528,471.468c-9.675,9.675-9.675,25.361,0,35.036
	c0.251,0.25,0.546,0.42,0.804,0.657c1.02-0.745,2.039-1.497,2.96-2.418l163.501-163.501
	C209.019,338.017,209.019,332.789,205.793,329.564z"/>
<path style="fill:#AEA8AF;" d="M182.436,306.206c-3.225-3.225-8.454-3.225-11.678,0l-23.114,23.114l35.036,35.036l23.114-23.114
	c3.225-3.225,3.225-8.454,0-11.679L182.436,306.206z"/>
<path style="fill:#C9C6CA;" d="M205.793,329.564l-12.68-12.68l-28.954,28.954l18.52,18.52l23.114-23.114
	C209.019,338.017,209.019,332.789,205.793,329.564z"/>
<circle style="fill:#DBD9DC;" cx="346.84" cy="165.16" r="165.16"/>
<circle style="fill:#C9C6CA;" cx="346.84" cy="165.16" r="140.39"/>
<circle style="fill:#FFFFFF;" cx="346.84" cy="165.16" r="123.87"/>
<path style="fill:#EDEBED;" d="M384.732,199.335c-35.185-8.775-63.292-36.881-72.067-72.067c-3.489-13.99-3.773-27.518-1.628-40.228
	c1.138-6.746-6.085-11.874-12.073-8.565c-33.881,18.724-55.648,56.652-50.46,99.153c5.424,44.426,41.439,80.443,85.866,85.867
	c42.502,5.19,80.431-16.578,99.155-50.459c3.309-5.987-1.82-13.211-8.565-12.073C412.25,203.107,398.722,202.823,384.732,199.335z"
	/>
<path style="fill:#E6646E;" d="M404.645,247.742H290.032c-4.751,0-8.523-4-8.244-8.743l7.287-123.871
	c0.257-4.365,3.871-7.773,8.244-7.773h100.04c4.372,0,7.987,3.408,8.244,7.773l7.287,123.871
	C413.168,243.742,409.396,247.742,404.645,247.742z"/>
<path style="fill:#DC4655;" d="M366.355,222.968c-28.509,0-51.137-23.998-49.463-52.458l3.715-63.155h-23.288
	c-4.373,0-7.987,3.408-8.244,7.773l-7.287,123.871c-0.279,4.743,3.492,8.743,8.244,8.743h114.613c4.751,0,8.523-4,8.244-8.743
	l-0.943-16.031L366.355,222.968L366.355,222.968z"/>
<path style="fill:#FFE17D;" d="M371.613,132.129c-4.565,0-8.258-3.694-8.258-8.258V90.839c0-9.105-7.411-16.516-16.516-16.516
	c-9.105,0-16.516,7.411-16.516,16.516v33.032c0,4.565-3.694,8.258-8.258,8.258s-8.258-3.694-8.258-8.258V90.839
	c0-18.218,14.815-33.032,33.032-33.032s33.032,14.815,33.032,33.032v33.032C379.871,128.435,376.177,132.129,371.613,132.129z"/>
<g>
	<circle style="fill:#FFC350;" cx="322.56" cy="123.87" r="8.258"/>
	<circle style="fill:#FFC350;" cx="372.11" cy="123.87" r="8.258"/>
</g>
<g>
</g>
<g>
</g>
<g>
</g>
<g>
</g>
<g>
</g>
<g>
</g>
<g>
</g>
<g>
</g>
<g>
</g>
<g>
</g>
<g>
</g>
<g>
</g>
<g>
</g>
<g>
</g>
<g>
</g>
</svg>
