<?xml version="1.0" encoding="iso-8859-1"?>

<svg version="1.1" id="Capa_1" xmlns="http://www.w3.org/2000/svg" xmlns:xlink="http://www.w3.org/1999/xlink" x="0px" y="0px"
	 viewBox="0 0 512 512" style="enable-background:new 0 0 512 512;" xml:space="preserve">
<path style="fill:#FFE17D;" d="M495.06,266.867l-57.383-19.128l-35.182-91.474c-3.68-9.567-12.872-15.881-23.123-15.881H8.258
	c-4.561,0-8.258,3.697-8.258,8.258V371.61c0,4.561,3.697,8.258,8.258,8.258H470.71l25.717-10.287
	C505.833,365.82,512,356.709,512,346.579V290.37C512,279.708,505.176,270.24,495.06,266.867z"/>
<path style="fill:#FFD164;" d="M0,313.805v57.806c0,4.561,3.697,8.258,8.258,8.258H470.71l25.717-10.287
	C505.833,365.82,512,356.709,512,346.579v-32.775H0z"/>
<path style="fill:#867E88;" d="M305.548,181.675v49.548c0,9.122,7.395,16.516,16.516,16.516h115.613l-28.586-74.323h-95.285
	C309.246,173.417,305.548,177.115,305.548,181.675z"/>
<path style="fill:#FFEDB1;" d="M512,322.063h-16.516c-4.561,0-8.258-3.697-8.258-8.258v-8.258c0-4.561,3.697-8.258,8.258-8.258H512
	V322.063z"/>
<path style="fill:#FFC350;" d="M481.12,355.095c-2.04,0-3.96-0.808-5.494-2.153c-10.149-8.905-23.383-14.363-37.949-14.363
	s-27.8,5.458-37.949,14.363c-1.533,1.345-3.454,2.153-5.494,2.153H150.797c-2.04,0-3.96-0.808-5.494-2.153
	c-10.149-8.905-23.383-14.363-37.949-14.363s-27.8,5.458-37.949,14.363c-1.533,1.345-3.454,2.153-5.494,2.153H0v16.516
	c0,4.561,3.697,8.258,8.258,8.258H470.71l25.717-10.287c6.647-2.659,11.621-8.014,14-14.487H481.12z"/>
<circle style="fill:#5D5360;" cx="107.36" cy="396.388" r="41.29"/>
<circle style="fill:#C9C6CA;" cx="107.36" cy="396.388" r="24.774"/>
<circle style="fill:#AEA8AF;" cx="107.36" cy="396.388" r="8.258"/>
<circle style="fill:#5D5360;" cx="437.68" cy="396.388" r="41.29"/>
<circle style="fill:#C9C6CA;" cx="437.68" cy="396.388" r="24.774"/>
<circle style="fill:#AEA8AF;" cx="437.68" cy="396.388" r="8.258"/>
<path style="fill:#E6646E;" d="M238.735,313.805H91.588c-4.843,0-8.647-4.149-8.227-8.973l15.08-173.419
	c0.371-4.267,3.944-7.543,8.227-7.543h116.987c4.284,0,7.856,3.275,8.227,7.543l15.08,173.419
	C247.381,309.656,243.578,313.805,238.735,313.805z"/>
<path style="fill:#FFE17D;" d="M189.935,156.901c-4.565,0-8.258-3.694-8.258-8.258v-41.29c0-9.105-7.411-16.516-16.516-16.516
	c-9.105,0-16.516,7.411-16.516,16.516v41.29c0,4.565-3.694,8.258-8.258,8.258s-8.258-3.694-8.258-8.258v-41.29
	c0-18.218,14.815-33.032,33.032-33.032s33.032,14.815,33.032,33.032v41.29C198.194,153.208,194.5,156.901,189.935,156.901z"/>
<path style="fill:#DC4655;" d="M177.915,289.031c-33.902,0-60.526-29.04-57.589-62.814l8.9-102.347h-22.558
	c-4.283,0-7.856,3.275-8.227,7.542l-15.08,173.419c-0.42,4.825,3.384,8.974,8.227,8.974h147.146c4.843,0,8.647-4.149,8.227-8.974
	l-1.374-15.8H177.915L177.915,289.031z"/>
<g>
	<circle style="fill:#FFC350;" cx="140.39" cy="148.648" r="8.258"/>
	<circle style="fill:#FFC350;" cx="189.94" cy="148.648" r="8.258"/>
</g>
<path style="fill:#6F6571;" d="M415.444,189.933l-6.352-16.516h-95.285c-4.561,0-8.258,3.697-8.258,8.258v8.258h56.917
	c3.555,0,6.71,2.275,7.834,5.647l17.385,52.16h17.403l-19.267-57.806L415.444,189.933L415.444,189.933z"/>
<g>
</g>
<g>
</g>
<g>
</g>
<g>
</g>
<g>
</g>
<g>
</g>
<g>
</g>
<g>
</g>
<g>
</g>
<g>
</g>
<g>
</g>
<g>
</g>
<g>
</g>
<g>
</g>
<g>
</g>
</svg>
