<?xml version="1.0" encoding="iso-8859-1"?>

<svg version="1.1" id="Capa_1" xmlns="http://www.w3.org/2000/svg" xmlns:xlink="http://www.w3.org/1999/xlink" x="0px" y="0px"
	 viewBox="0 0 512 512" style="enable-background:new 0 0 512 512;" xml:space="preserve">
<path style="fill:#EDEBED;" d="M421.161,181.676c-3.476,0-6.891,0.238-10.264,0.618c-7.128-28.792-33.064-50.166-64.058-50.166
	c-1.614,0-3.196,0.127-4.78,0.242c-24.789-39.761-68.786-66.306-119.091-66.306c-57.219,0-106.353,34.282-128.219,83.383
	C41.409,155.697,0,200.981,0,255.999c0,59.29,48.065,107.355,107.355,107.355h313.806c50.169,0,90.839-40.669,90.839-90.839
	S471.331,181.676,421.161,181.676z"/>
<path style="fill:#E2E0E3;" d="M239.484,338.581c-59.29,0-107.355-48.065-107.355-107.355c0-55.018,41.409-100.302,94.749-106.552
	c8.999-20.209,22.673-37.843,39.574-51.674c-13.688-4.476-28.29-6.934-43.484-6.934c-57.219,0-106.353,34.282-128.219,83.383
	C41.409,155.697,0,200.981,0,255.999c0,59.29,48.065,107.355,107.355,107.355h313.806c24.105,0,45.956-9.454,62.218-24.774H239.484
	L239.484,338.581z"/>
<path style="fill:#E6646E;" d="M329,445.935H166.477c-9.621,0-17.205-8.19-16.467-17.783l13.975-181.677
	c0.662-8.605,7.837-15.249,16.467-15.249h134.572c8.63,0,15.806,6.645,16.467,15.249l13.975,181.677
	C346.206,437.745,338.621,445.935,329,445.935z"/>
<path style="fill:#FFC350;" d="M280.774,264.258c-4.565,0-8.258-3.694-8.258-8.258v-41.29c0-13.661-11.113-24.774-24.774-24.774
	s-24.774,11.113-24.774,24.774v41.29c0,4.565-3.694,8.258-8.258,8.258c-4.565,0-8.258-3.694-8.258-8.258v-41.29
	c0-22.766,18.524-41.29,41.29-41.29s41.29,18.524,41.29,41.29v41.29C289.032,260.565,285.339,264.258,280.774,264.258z"/>
<path style="fill:#DC4655;" d="M268.876,412.903c-43.294,0-77.424-36.857-74.104-80.023l7.82-101.655h-22.14
	c-8.63,0-15.806,6.645-16.468,15.249L150.01,428.153c-0.738,9.592,6.847,17.783,16.467,17.783H329
	c9.621,0,17.205-8.19,16.468-17.783l-1.173-15.249L268.876,412.903L268.876,412.903z"/>
<g>
	<circle style="fill:#FFE17D;" cx="214.71" cy="255.999" r="8.258"/>
	<circle style="fill:#FFE17D;" cx="280.77" cy="255.999" r="8.258"/>
</g>
<g>
</g>
<g>
</g>
<g>
</g>
<g>
</g>
<g>
</g>
<g>
</g>
<g>
</g>
<g>
</g>
<g>
</g>
<g>
</g>
<g>
</g>
<g>
</g>
<g>
</g>
<g>
</g>
<g>
</g>
</svg>
