<?xml version="1.0" encoding="iso-8859-1"?>

<svg version="1.1" id="Capa_1" xmlns="http://www.w3.org/2000/svg" xmlns:xlink="http://www.w3.org/1999/xlink" x="0px" y="0px"
	 viewBox="0 0 512 512" style="enable-background:new 0 0 512 512;" xml:space="preserve">
<path style="fill:#E6646E;" d="M274.22,7.479L274.22,7.479c12.44-12.275,33.213-8.985,41.251,6.534l0,0
	c6.527,12.6,21.967,17.617,34.654,11.26l0,0c15.625-7.83,34.364,1.718,37.213,18.961l0,0c2.314,14.001,15.448,23.543,29.478,21.417
	l0,0c17.28-2.618,32.151,12.253,29.533,29.533l0,0c-2.126,14.03,7.417,27.165,21.417,29.478l0,0
	c17.243,2.849,26.791,21.589,18.961,37.213l0,0c-6.358,12.687-1.341,28.127,11.26,34.654l0,0
	c15.519,8.038,18.809,28.811,6.534,41.251l0,0c-9.967,10.101-9.967,26.336,0,36.437l0,0c12.275,12.44,8.985,33.213-6.534,41.251l0,0
	c-12.6,6.527-17.617,21.967-11.26,34.654l0,0c7.83,15.625-1.718,34.364-18.961,37.213l0,0
	c-14.001,2.314-23.543,15.448-21.417,29.478l0,0c2.618,17.28-12.253,32.151-29.533,29.533l0,0
	c-14.03-2.126-27.165,7.417-29.478,21.417l0,0c-2.849,17.243-21.589,26.791-37.213,18.961l0,0
	c-12.687-6.358-28.127-1.341-34.654,11.26l0,0c-8.038,15.518-28.811,18.809-41.251,6.534l0,0c-10.101-9.967-26.336-9.967-36.437,0
	l0,0c-12.44,12.275-33.213,8.985-41.251-6.534l0,0c-6.527-12.6-21.967-17.617-34.654-11.26l0,0
	c-15.625,7.83-34.364-1.718-37.213-18.961l0,0c-2.314-14.001-15.448-23.543-29.478-21.417l0,0
	c-17.28,2.618-32.151-12.253-29.533-29.533l0,0c2.126-14.03-7.417-27.165-21.417-29.478l0,0
	c-17.243-2.849-26.791-21.589-18.961-37.213l0,0c6.358-12.687,1.341-28.127-11.26-34.654l0,0
	c-15.518-8.038-18.809-28.811-6.534-41.251l0,0c9.967-10.101,9.967-26.336,0-36.437l0,0c-12.275-12.44-8.985-33.213,6.534-41.251
	l0,0c12.6-6.527,17.617-21.967,11.26-34.654l0,0c-7.83-15.625,1.718-34.364,18.961-37.213l0,0
	c14.001-2.314,23.543-15.448,21.417-29.478l0,0c-2.618-17.28,12.253-32.151,29.533-29.533l0,0
	c14.03,2.126,27.165-7.417,29.478-21.417l0,0c2.849-17.243,21.589-26.791,37.213-18.961l0,0c12.687,6.358,28.127,1.341,34.654-11.26
	l0,0c8.038-15.518,28.811-18.809,41.251-6.534l0,0C247.883,17.446,264.119,17.446,274.22,7.479z"/>
<path style="fill:#DC4655;" d="M487.616,352.596c-17.78,12.706-37.46,22.875-58.438,30.289
	c26.093-35.551,41.533-79.407,41.533-126.885c0-118.581-96.129-214.71-214.71-214.71c-47.478,0-91.333,15.441-126.884,41.532
	c7.413-20.977,17.583-40.656,30.288-58.436c-15.073-5.743-32.04,3.497-34.742,19.848c-2.314,14.001-15.448,23.543-29.478,21.417
	c-17.28-2.618-32.151,12.254-29.533,29.533c2.126,14.031-7.417,27.165-21.417,29.479h-0.001
	c-17.243,2.849-26.791,21.589-18.961,37.213c6.358,12.687,1.341,28.128-11.26,34.654c-15.519,8.038-18.808,28.811-6.534,41.252
	c9.967,10.101,9.967,26.336,0,36.438c-12.275,12.44-8.985,33.213,6.534,41.251c12.6,6.527,17.617,21.967,11.26,34.654
	c-7.83,15.625,1.718,34.364,18.961,37.214h0.001c14.001,2.314,23.543,15.448,21.417,29.478
	c-2.618,17.28,12.253,32.151,29.533,29.533c14.03-2.126,27.165,7.417,29.478,21.417c2.849,17.243,21.589,26.791,37.213,18.961h0.001
	c12.686-6.357,28.127-1.341,34.654,11.26c8.038,15.518,28.811,18.808,41.252,6.533c10.101-9.967,26.336-9.967,36.438,0
	c12.441,12.275,33.213,8.985,41.251-6.533c6.527-12.601,21.967-17.617,34.654-11.26h0.001c15.624,7.83,34.363-1.718,37.213-18.961
	c2.314-14,15.449-23.543,29.479-21.417c17.279,2.618,32.151-12.253,29.532-29.533c-2.126-14.03,7.417-27.165,21.417-29.478
	C484.118,384.636,493.358,367.669,487.616,352.596z"/>
<circle style="fill:#FFEDB1;" cx="256.001" cy="256" r="198.19"/>
<path style="fill:#FFE17D;" d="M347.565,395.597c-123.217-9.641-221.52-107.944-231.161-231.161
	c-0.331-4.233-3.765-7.533-8.011-7.533l0,0c-2.807,0-5.46,1.422-6.937,3.809C81.313,193.28,71.042,232.591,75.259,274.59
	c8.529,84.939,77.221,153.627,162.161,162.152c41.996,4.215,81.303-6.057,113.869-26.198c2.387-1.477,3.809-4.13,3.809-6.937l0,0
	C355.098,399.362,351.798,395.928,347.565,395.597z"/>
<g>
	<path style="fill:#DC4655;" d="M188.267,190.185c-4.565,0-8.258,3.694-8.258,8.258v80.629l-42.161-84.323
		c-1.71-3.427-5.589-5.202-9.282-4.347c-3.726,0.887-6.363,4.21-6.363,8.04v115.613c0,4.565,3.694,8.258,8.258,8.258
		c4.565,0,8.258-3.694,8.258-8.258v-80.629l42.161,84.323c1.419,2.847,4.315,4.565,7.387,4.565c0.629,0,1.266-0.073,1.895-0.218
		c3.726-0.887,6.363-4.21,6.363-8.04V198.444C196.525,193.879,192.832,190.185,188.267,190.185z"/>
	<path style="fill:#DC4655;" d="M270.848,206.702c4.565,0,8.258-3.694,8.258-8.258s-3.694-8.258-8.258-8.258H221.3
		c-4.565,0-8.258,3.694-8.258,8.258v115.613c0,4.565,3.694,8.258,8.258,8.258h49.548c4.565,0,8.258-3.694,8.258-8.258
		s-3.694-8.258-8.258-8.258h-41.29v-41.29h24.774c4.565,0,8.258-3.694,8.258-8.258c0-4.564-3.694-8.258-8.258-8.258h-24.774v-41.29
		h41.29V206.702z"/>
	<path style="fill:#DC4655;" d="M396.453,190.371c-4.5-1-8.855,1.887-9.806,6.339l-16.702,77.935l-16.702-77.935
		c-0.815-3.806-4.177-6.524-8.073-6.524c-3.895,0-7.258,2.718-8.073,6.524l-16.702,77.935l-16.702-77.935
		c-0.96-4.46-5.323-7.339-9.806-6.339c-4.46,0.952-7.298,5.347-6.339,9.806l24.774,115.613c0.815,3.806,4.177,6.524,8.073,6.524
		c3.895,0,7.258-2.718,8.073-6.524l16.702-77.935l16.702,77.935c0.815,3.806,4.177,6.524,8.073,6.524
		c3.895,0,7.258-2.718,8.073-6.524l24.774-115.613C403.751,195.718,400.912,191.323,396.453,190.371z"/>
</g>
<g>
</g>
<g>
</g>
<g>
</g>
<g>
</g>
<g>
</g>
<g>
</g>
<g>
</g>
<g>
</g>
<g>
</g>
<g>
</g>
<g>
</g>
<g>
</g>
<g>
</g>
<g>
</g>
<g>
</g>
</svg>
