<?xml version="1.0" encoding="iso-8859-1"?>

<svg version="1.1" id="Capa_1" xmlns="http://www.w3.org/2000/svg" xmlns:xlink="http://www.w3.org/1999/xlink" x="0px" y="0px"
	 viewBox="0 0 511.998 511.998" style="enable-background:new 0 0 511.998 511.998;" xml:space="preserve">
<path style="fill:#DBD9DC;" d="M487.226,129.701H165.161v239.484c0,13.682,11.092,24.774,24.774,24.774h173.419l68.483,68.483
	c5.202,5.202,14.097,1.518,14.097-5.84v-62.643h41.29c13.682,0,24.774-11.092,24.774-24.774v-214.71
	C512,140.793,500.908,129.701,487.226,129.701z"/>
<path style="fill:#C9C6CA;" d="M264.258,344.411L264.258,344.411c0-9.122,7.395-16.516,16.516-16.516h41.29
	c22.804,0,41.29-18.486,41.29-41.29V129.701H165.161v239.484c0,13.682,11.092,24.774,24.774,24.774h173.419l68.483,68.483
	c5.202,5.202,14.097,1.518,14.097-5.839v-62.644h41.29c13.682,0,24.774-11.092,24.774-24.774v-8.258H280.774
	C271.653,360.927,264.258,353.532,264.258,344.411z"/>
<path style="fill:#E6646E;" d="M322.065,47.12H24.774C11.092,47.12,0,58.212,0,71.895v214.71c0,13.682,11.092,24.774,24.774,24.774
	h41.29v62.644c0,7.357,8.895,11.042,14.097,5.839l68.483-68.483h173.419c13.682,0,24.774-11.092,24.774-24.774V71.895
	C346.839,58.212,335.747,47.12,322.065,47.12z"/>
<g>
	<path style="fill:#FFFFFF;" d="M173.419,228.798c-5.702,0-10.323,0.79-10.323-4.911c0-12.734,8.524-23.75,21.218-27.419
		c19.944-5.75,31.734-25.629,27.435-46.25c-3.073-14.734-15.04-26.702-29.774-29.774c-12.121-2.524-23.935,0.274-33.282,7.879
		c-9.218,7.492-14.5,18.589-14.5,30.452c0,5.702-4.621,10.323-10.323,10.323c-5.702,0-10.323-4.621-10.323-10.323
		c0-18.105,8.065-35.04,22.121-46.468c14.048-11.435,32.476-15.831,50.516-12.073c22.661,4.726,41.048,23.113,45.774,45.774
		c6.524,31.298-11.492,61.524-41.919,70.298c-3.766,1.089-6.298,4.137-6.298,7.581C183.742,229.588,179.121,228.798,173.419,228.798
		z"/>
	<path style="fill:#FFFFFF;" d="M173.419,268.193c-5.702,0-10.363-4.621-10.363-10.323s4.573-10.323,10.274-10.323h0.089
		c5.702,0,10.323,4.621,10.323,10.323S179.121,268.193,173.419,268.193z"/>
</g>
<path style="fill:#DC4655;" d="M33.032,146.217V47.12h-8.258C11.092,47.12,0,58.212,0,71.895v214.71
	c0,13.682,11.092,24.774,24.774,24.774h41.29v62.644c0,7.357,8.895,11.042,14.098,5.839l68.483-68.483h173.419
	c13.682,0,24.774-11.092,24.774-24.774v-8.258H165.161C92.188,278.346,33.032,219.19,33.032,146.217z"/>
<g>
</g>
<g>
</g>
<g>
</g>
<g>
</g>
<g>
</g>
<g>
</g>
<g>
</g>
<g>
</g>
<g>
</g>
<g>
</g>
<g>
</g>
<g>
</g>
<g>
</g>
<g>
</g>
<g>
</g>
</svg>
