<?xml version="1.0" encoding="iso-8859-1"?>

<svg version="1.1" id="Capa_1" xmlns="http://www.w3.org/2000/svg" xmlns:xlink="http://www.w3.org/1999/xlink" x="0px" y="0px"
	 viewBox="0 0 512 512" style="enable-background:new 0 0 512 512;" xml:space="preserve">
<path style="fill:#6F6571;" d="M256,0C130.524,0,28.444,102.08,28.444,227.556v16.254h16.254v-16.254
	C44.698,111.04,139.484,16.254,256,16.254s211.302,94.786,211.302,211.302v105.651c0,80.659-65.627,146.286-146.286,146.286h-24.381
	v16.254h24.381c89.627,0,162.54-72.913,162.54-162.54V227.556C483.556,102.08,381.476,0,256,0z"/>
<path style="fill:#FFE17D;" d="M16.375,240.733c-7.236,1.809-12.312,8.311-12.312,15.769v55.887c0,7.458,5.076,13.96,12.312,15.768
	l20.196,5.049v-97.522L16.375,240.733z"/>
<polygon style="fill:#FFD164;" points="20.317,329.142 36.571,333.206 36.571,235.683 20.317,239.747 "/>
<path style="fill:#4B3F4E;" d="M284.445,512h-24.381c-11.221,0-20.317-9.096-20.317-20.317l0,0c0-11.221,9.096-20.317,20.317-20.317
	h24.381c11.221,0,20.317,9.096,20.317,20.317l0,0C304.762,502.904,295.666,512,284.445,512z"/>
<path style="fill:#5D5360;" d="M60.952,349.461h-8.127c-8.977,0-16.254-7.277-16.254-16.254v-97.524
	c0-8.977,7.277-16.254,16.254-16.254h8.127c8.977,0,16.254,7.277,16.254,16.254v97.524
	C77.206,342.184,69.929,349.461,60.952,349.461z"/>
<path style="fill:#6F6571;" d="M65.016,341.334L65.016,341.334c-6.733,0-12.191-5.458-12.191-12.19v-89.397
	c0-6.733,5.458-12.19,12.19-12.19l0,0c6.733,0,12.19,5.458,12.19,12.19v89.397C77.206,335.876,71.748,341.334,65.016,341.334z"/>
<path style="fill:#FFE17D;" d="M495.625,328.157c7.236-1.809,12.312-8.311,12.312-15.769v-55.887c0-7.458-5.076-13.96-12.312-15.768
	l-20.196-5.049v97.522L495.625,328.157z"/>
<polygon style="fill:#FFD164;" points="491.683,239.747 475.429,235.684 475.429,333.206 491.683,329.143 "/>
<path style="fill:#5D5360;" d="M459.175,349.461h-8.127c-8.977,0-16.254-7.277-16.254-16.254v-97.524
	c0-8.977,7.277-16.254,16.254-16.254h8.127c8.977,0,16.254,7.277,16.254,16.254v97.524
	C475.429,342.184,468.152,349.461,459.175,349.461z"/>
<path style="fill:#6F6571;" d="M463.238,341.334L463.238,341.334c-6.733,0-12.191-5.458-12.191-12.19v-89.397
	c0-6.733,5.458-12.19,12.19-12.19l0,0c6.733,0,12.19,5.458,12.19,12.19v89.397C475.429,335.876,469.971,341.334,463.238,341.334z"/>
<path style="fill:#5D5360;" d="M284.444,471.365h-24.381c-1.392,0-2.75,0.143-4.064,0.41v7.718c0,8.977,7.277,16.254,16.254,16.254
	h24.381c2.766,0,5.381-0.562,7.86-1.41c0.116-0.878,0.267-1.745,0.267-2.654C304.762,480.462,295.666,471.365,284.444,471.365z"/>
<g>
</g>
<g>
</g>
<g>
</g>
<g>
</g>
<g>
</g>
<g>
</g>
<g>
</g>
<g>
</g>
<g>
</g>
<g>
</g>
<g>
</g>
<g>
</g>
<g>
</g>
<g>
</g>
<g>
</g>
</svg>
