<?xml version="1.0" encoding="iso-8859-1"?>

<svg version="1.1" id="Capa_1" xmlns="http://www.w3.org/2000/svg" xmlns:xlink="http://www.w3.org/1999/xlink" x="0px" y="0px"
	 viewBox="0 0 512 512" style="enable-background:new 0 0 512 512;" xml:space="preserve">
<circle style="fill:#FFF6D8;" cx="256" cy="256" r="200"/>
<g>
	<path style="fill:#FFE17D;" d="M487.359,146.281c-1.891-3.992-6.688-5.688-10.656-3.797c-3.992,1.898-5.695,6.672-3.797,10.656
		C488.227,185.398,496,220,496,256c0,132.336-107.664,240-240,240c-70.126,0-135.178-29.796-180.826-82.224l27.725,9.24
		c4.219,1.406,8.727-0.867,10.117-5.055c1.398-4.195-0.867-8.727-5.055-10.117L54.82,390.125c-2.625-0.891-5.523-0.336-7.656,1.445
		c-2.133,1.773-3.188,4.523-2.797,7.273l8.852,62c0.57,3.992,3.992,6.867,7.914,6.867c0.375,0,0.758-0.023,1.141-0.078
		c4.375-0.625,7.414-4.68,6.789-9.055l-4.703-32.929C112.984,480.715,181.815,512,256,512c141.156,0,256-114.844,256-256
		C512,217.609,503.711,180.688,487.359,146.281z"/>
	<path style="fill:#FFE17D;" d="M467.633,113.156l-8.852-62c-0.625-4.375-4.664-7.445-9.055-6.789
		c-4.375,0.625-7.414,4.68-6.789,9.055l4.685,32.806C398.979,31.245,329.95,0,256,0C114.844,0,0,114.844,0,256
		c0,38.391,8.289,75.313,24.641,109.719c1.367,2.883,4.242,4.57,7.234,4.57c1.148,0,2.32-0.25,3.422-0.773
		c3.992-1.898,5.695-6.672,3.797-10.656C23.773,326.602,16,292,16,256C16,123.664,123.664,16,256,16
		c69.922,0,135.133,29.835,180.806,82.217l-27.704-9.233c-4.227-1.398-8.719,0.867-10.117,5.055
		c-1.398,4.195,0.867,8.727,5.055,10.117l53.141,17.719c0.828,0.281,1.68,0.414,2.531,0.414c1.844,0,3.664-0.641,5.125-1.859
		C466.969,118.656,468.023,115.906,467.633,113.156z"/>
</g>
<g>
	<path style="fill:#DC4655;" d="M202.867,276.055c20.813-19.648,42.336-39.969,42.336-71c0-25.945-23.148-47.055-51.602-47.055
		S142,179.109,142,205.055c0,5.523,4.477,10,10,10s10-4.477,10-10C162,190.141,176.18,178,193.602,178s31.602,12.141,31.602,27.055
		c0,22.406-16.711,38.188-36.063,56.453C167.047,282.375,142,306.016,142,344c0,5.523,4.477,10,10,10h83.203c5.523,0,10-4.477,10-10
		s-4.477-10-10-10h-72.398C166.719,310.188,184.344,293.547,202.867,276.055z"/>
	<path style="fill:#DC4655;" d="M360,286h-6V168c0-5.523-4.477-10-10-10s-10,4.477-10,10v118h-57.953l21.781-116.156
		c1.016-5.43-2.555-10.656-7.984-11.672c-5.453-1.023-10.656,2.563-11.672,7.984l-24,128c-0.547,2.922,0.234,5.938,2.133,8.227
		c1.899,2.289,4.718,3.617,7.695,3.617h70v38c0,5.523,4.477,10,10,10s10-4.477,10-10v-38h6c5.523,0,10-4.477,10-10
		S365.523,286,360,286z"/>
</g>
<g>
	<path style="fill:#FFD164;" d="M256,88c-4.422,0-8-3.578-8-8V48c0-4.422,3.578-8,8-8s8,3.578,8,8v32C264,84.422,260.422,88,256,88z
		"/>
	<path style="fill:#FFD164;" d="M256,472c-4.422,0-8-3.578-8-8v-32c0-4.422,3.578-8,8-8s8,3.578,8,8v32
		C264,468.422,260.422,472,256,472z"/>
	<path style="fill:#FFD164;" d="M464,264h-32c-4.422,0-8-3.578-8-8s3.578-8,8-8h32c4.422,0,8,3.578,8,8S468.422,264,464,264z"/>
	<path style="fill:#FFD164;" d="M80,264H48c-4.422,0-8-3.578-8-8s3.578-8,8-8h32c4.422,0,8,3.578,8,8S84.422,264,80,264z"/>
</g>
<path style="fill:#F2A275;" d="M458.781,51.156c-0.625-4.375-4.664-7.445-9.055-6.789c-4.375,0.625-7.414,4.68-6.789,9.055
	l4.685,32.806c-39.736-44.914-93.095-73.906-151.608-83.043c-3.62-0.565-7.284,1.461-8.585,4.886
	c-0.019,0.051-0.039,0.102-0.058,0.153c-1.814,4.797,1.209,9.958,6.275,10.753c55.377,8.688,105.807,36.402,143.158,79.241
	L409.1,88.985c-4.227-1.398-8.719,0.867-10.117,5.055c-1.398,4.195,0.867,8.727,5.055,10.117l53.141,17.719
	c0.828,0.281,1.68,0.414,2.531,0.414c1.844,0,3.664-0.641,5.125-1.859c2.133-1.773,3.188-4.523,2.797-7.273L458.781,51.156z"/>
<path style="fill:#DC4655;" d="M423.277,72.723L423.277,72.723c-3.224,3.224-3.095,8.429,0.193,11.588
	c4.611,4.43,9.086,9.032,13.336,13.906l-27.704-9.233c-4.227-1.398-8.719,0.867-10.117,5.055c-1.398,4.195,0.867,8.727,5.055,10.117
	l53.141,17.719c0.828,0.281,1.68,0.414,2.531,0.414c1.844,0,3.664-0.641,5.125-1.859c2.133-1.773,3.188-4.523,2.797-7.273l-8.852-62
	c-0.625-4.375-4.664-7.445-9.055-6.789c-4.375,0.625-7.414,4.68-6.789,9.055l4.685,32.806c-4.201-4.748-8.57-9.295-13.076-13.669
	C431.409,69.512,426.37,69.63,423.277,72.723z"/>
<path style="fill:#FFE17D;" d="M44.367,398.844l8.852,62c0.625,4.375,4.664,7.445,9.055,6.789c4.375-0.625,7.414-4.68,6.789-9.055
	l-4.685-32.806C113.021,480.755,182.05,512,256,512c141.156,0,256-114.844,256-256c0-38.391-8.289-75.313-24.641-109.719
	c-1.367-2.883-4.242-4.57-7.234-4.57c-1.148,0-2.32,0.25-3.422,0.773c-3.992,1.898-5.695,6.672-3.797,10.656
	C488.227,185.398,496,220,496,256c0,132.336-107.664,240-240,240c-69.922,0-135.133-29.835-180.806-82.217l27.704,9.233
	c4.227,1.398,8.719-0.867,10.117-5.055c1.398-4.195-0.867-8.727-5.055-10.117l-53.14-17.719c-0.828-0.281-1.68-0.414-2.531-0.414
	c-1.844,0-3.664,0.641-5.125,1.859C45.031,393.344,43.977,396.094,44.367,398.844z"/>
<path style="fill:#F2A275;" d="M53.219,460.844c0.625,4.375,4.664,7.445,9.055,6.789c4.375-0.625,7.414-4.68,6.789-9.055
	l-4.685-32.806c39.736,44.914,93.095,73.906,151.608,83.043c3.62,0.565,7.284-1.461,8.585-4.886
	c0.019-0.051,0.039-0.102,0.058-0.153c1.814-4.797-1.209-9.958-6.275-10.753c-55.377-8.688-105.807-36.402-143.158-79.241
	l27.704,9.233c4.227,1.398,8.719-0.867,10.117-5.055c1.398-4.195-0.867-8.727-5.055-10.117L54.82,390.125
	c-0.828-0.281-1.68-0.414-2.531-0.414c-1.844,0-3.664,0.641-5.125,1.859c-2.133,1.773-3.188,4.523-2.797,7.273L53.219,460.844z"/>
<path style="fill:#DC4655;" d="M88.723,439.277L88.723,439.277c3.224-3.224,3.095-8.429-0.193-11.588
	c-4.611-4.43-9.086-9.032-13.336-13.906l27.704,9.233c4.227,1.398,8.719-0.867,10.117-5.055c1.398-4.195-0.867-8.727-5.055-10.117
	l-53.14-17.719c-0.828-0.281-1.68-0.414-2.531-0.414c-1.844,0-3.664,0.641-5.125,1.859c-2.133,1.773-3.188,4.523-2.797,7.273
	l8.852,62c0.625,4.375,4.664,7.445,9.055,6.789c4.375-0.625,7.414-4.68,6.789-9.055l-4.685-32.806
	c4.201,4.748,8.57,9.295,13.076,13.669C80.591,442.488,85.63,442.37,88.723,439.277z"/>
<g>
</g>
<g>
</g>
<g>
</g>
<g>
</g>
<g>
</g>
<g>
</g>
<g>
</g>
<g>
</g>
<g>
</g>
<g>
</g>
<g>
</g>
<g>
</g>
<g>
</g>
<g>
</g>
<g>
</g>
</svg>
