<?xml version="1.0" encoding="iso-8859-1"?>

<svg version="1.1" id="Capa_1" xmlns="http://www.w3.org/2000/svg" xmlns:xlink="http://www.w3.org/1999/xlink" x="0px" y="0px"
	 viewBox="0 0 512 512" style="enable-background:new 0 0 512 512;" xml:space="preserve">
<path style="fill:#FFF6D8;" d="M256,82.581c-95.627,0-173.419,77.796-173.419,173.419S160.373,429.419,256,429.419
	S429.419,351.624,429.419,256S351.627,82.581,256,82.581z"/>
<path style="fill:#FFE17D;" d="M256,487.226C128.5,487.226,24.774,383.5,24.774,256S128.5,24.774,256,24.774
	S487.226,128.5,487.226,256S383.5,487.226,256,487.226z M256,41.29C137.605,41.29,41.29,137.609,41.29,256
	S137.605,470.71,256,470.71S470.71,374.391,470.71,256S374.395,41.29,256,41.29z"/>
<path style="fill:#E6646E;" d="M325.07,355.097H186.93c-7.265,0-12.97-6.223-12.341-13.46l14.362-165.161
	c0.557-6.401,5.915-11.314,12.341-11.314h109.416c6.425,0,11.784,4.913,12.341,11.314l14.362,165.161
	C338.04,348.874,332.334,355.097,325.07,355.097z"/>
<path style="fill:#FFE17D;" d="M280.774,189.935c-4.565,0-8.258-3.698-8.258-8.258v-33.032c0-9.109-7.411-16.516-16.516-16.516
	s-16.516,7.407-16.516,16.516v33.032c0,4.56-3.694,8.258-8.258,8.258c-4.565,0-8.258-3.698-8.258-8.258v-33.032
	c0-18.214,14.815-33.032,33.032-33.032s33.032,14.819,33.032,33.032v33.032C289.032,186.238,285.339,189.935,280.774,189.935z"/>
<path style="fill:#DC4655;" d="M262.368,330.323c-33.902,0-60.526-29.04-57.589-62.814l8.9-102.347h-12.386
	c-6.425,0-11.784,4.913-12.341,11.314l-14.362,165.16c-0.629,7.237,5.076,13.46,12.341,13.46H325.07
	c7.265,0,12.97-6.223,12.341-13.46l-0.984-11.314h-74.059V330.323z"/>
<g>
	<circle style="fill:#FFC350;" cx="231.23" cy="181.68" r="8.258"/>
	<circle style="fill:#FFC350;" cx="280.77" cy="181.68" r="8.258"/>
</g>
<circle style="fill:#E6646E;" cx="256" cy="33.03" r="33.03"/>
<path style="fill:#DC4655;" d="M272.516,49.548c-18.243,0-33.032-14.789-33.032-33.032c0-4.841,1.099-9.404,2.97-13.546
	c-11.47,5.179-19.486,16.66-19.486,30.063c0,18.243,14.789,33.032,33.032,33.032c13.402,0,24.883-8.016,30.063-19.485
	C281.92,48.45,277.357,49.548,272.516,49.548z"/>
<circle style="fill:#E6646E;" cx="256" cy="478.97" r="33.03"/>
<path style="fill:#DC4655;" d="M272.516,495.484c-18.243,0-33.032-14.789-33.032-33.032c0-4.841,1.099-9.404,2.97-13.546
	c-11.47,5.179-19.486,16.66-19.486,30.063C222.968,497.211,237.757,512,256,512c13.402,0,24.883-8.016,30.063-19.485
	C281.92,494.386,277.357,495.484,272.516,495.484z"/>
<circle style="fill:#E6646E;" cx="62.904" cy="144.52" r="33.03"/>
<path style="fill:#DC4655;" d="M79.42,161.032c-18.243,0-33.032-14.789-33.032-33.032c0-4.841,1.099-9.404,2.97-13.546
	c-11.47,5.179-19.486,16.66-19.486,30.062c0,18.243,14.789,33.032,33.032,33.032c13.402,0,24.883-8.016,30.063-19.485
	C88.824,159.934,84.261,161.032,79.42,161.032z"/>
<circle style="fill:#E6646E;" cx="449.1" cy="367.48" r="33.03"/>
<path style="fill:#DC4655;" d="M465.612,384c-18.243,0-33.032-14.789-33.032-33.032c0-4.841,1.099-9.404,2.97-13.546
	c-11.47,5.179-19.486,16.66-19.486,30.063c0,18.243,14.789,33.032,33.032,33.032c13.402,0,24.883-8.016,30.063-19.485
	C475.016,382.902,470.453,384,465.612,384z"/>
<circle style="fill:#E6646E;" cx="62.904" cy="367.48" r="33.03"/>
<path style="fill:#DC4655;" d="M79.42,384c-18.243,0-33.032-14.789-33.032-33.032c0-4.841,1.099-9.404,2.97-13.546
	c-11.47,5.179-19.486,16.66-19.486,30.063c0,18.243,14.789,33.032,33.032,33.032c13.402,0,24.883-8.016,30.063-19.485
	C88.824,382.902,84.261,384,79.42,384z"/>
<circle style="fill:#E6646E;" cx="449.1" cy="144.52" r="33.03"/>
<path style="fill:#DC4655;" d="M465.612,161.032c-18.243,0-33.032-14.789-33.032-33.032c0-4.841,1.099-9.404,2.97-13.546
	c-11.47,5.179-19.486,16.66-19.486,30.062c0,18.243,14.789,33.032,33.032,33.032c13.402,0,24.883-8.016,30.063-19.485
	C475.016,159.934,470.453,161.032,465.612,161.032z"/>
<g>
</g>
<g>
</g>
<g>
</g>
<g>
</g>
<g>
</g>
<g>
</g>
<g>
</g>
<g>
</g>
<g>
</g>
<g>
</g>
<g>
</g>
<g>
</g>
<g>
</g>
<g>
</g>
<g>
</g>
</svg>
