<?xml version="1.0" encoding="iso-8859-1"?>

<svg version="1.1" id="Capa_1" xmlns="http://www.w3.org/2000/svg" xmlns:xlink="http://www.w3.org/1999/xlink" x="0px" y="0px"
	 viewBox="0 0 512 512" style="enable-background:new 0 0 512 512;" xml:space="preserve">
<path style="fill:#AEA8AF;" d="M500.706,310.03l-63.029-21.01l-29.079-79.967c-2.373-6.527-8.577-10.872-15.522-10.872H297.29
	v206.452h173.42l25.717-10.287c9.406-3.762,15.573-12.872,15.573-23.002v-45.645C512,318.59,507.451,312.279,500.706,310.03z"/>
<polygon style="fill:#6F6571;" points="297.29,231.214 297.29,289.021 437.677,289.021 416.657,231.214 "/>
<path style="fill:#5D5360;" d="M422.663,247.731l-6.006-16.516H297.29v16.516h77.77c3.473,0,6.574,2.173,7.761,5.436l13.036,35.854
	h17.569l-15.013-41.29L422.663,247.731L422.663,247.731z"/>
<g>
	<path style="fill:#9C969E;" d="M511.98,371.602c0.001-0.087,0.02-0.17,0.02-0.257v-24.517H297.29v24.774H511.98z"/>
	<rect x="297.29" y="379.86" style="fill:#9C969E;" width="140.39" height="24.774"/>
</g>
<path style="fill:#FFE17D;" d="M512,355.085h-16.516c-4.561,0-8.258-3.697-8.258-8.258v-8.258c0-4.561,3.697-8.258,8.258-8.258H512
	V355.085z"/>
<path style="fill:#E6646E;" d="M305.548,165.15H8.258c-4.561,0-8.258,3.697-8.258,8.258v53.677c0,2.28,1.849,4.129,4.129,4.129
	h4.129v132.129c0,4.56,3.697,8.258,8.258,8.258H297.29c4.561,0,8.258-3.698,8.258-8.258V231.214h4.129
	c2.28,0,4.129-1.849,4.129-4.129v-53.677C313.806,168.847,310.109,165.15,305.548,165.15z"/>
<path style="fill:#DC4655;" d="M305.548,247.731v-16.516H8.258v132.129c0,4.561,3.697,8.258,8.258,8.258H297.29
	c4.561,0,8.258-3.697,8.258-8.258v-16.516H115.613c-45.608,0-82.581-36.973-82.581-82.581v-8.258c0-4.561,3.697-8.258,8.258-8.258
	L305.548,247.731L305.548,247.731z"/>
<path style="fill:#FFE17D;" d="M255.774,83.416c-1.46-10.411-6.895-19.629-15.29-25.952c-17.331-13.04-42.065-9.597-55.129,7.75
	c-9.856,13.09-21.057,45.924-28.452,70.115c-7.394-24.191-18.596-57.025-28.452-70.115c-13.056-17.347-37.798-20.79-55.129-7.75
	c-8.395,6.323-13.831,15.54-15.29,25.952c-1.468,10.419,1.218,20.774,7.54,29.169c15.605,20.718,80.105,55.887,87.411,59.831
	l0.096-0.076c1.202,0.635,2.486,1.068,3.823,1.068c1.347,0,2.694-0.331,3.919-0.992c7.306-3.944,71.806-39.113,87.411-59.831
	C254.556,104.19,257.242,93.835,255.774,83.416z M78.766,102.65c-3.677-4.879-5.226-10.887-4.379-16.927
	c0.847-6.048,4-11.395,8.871-15.065c4.113-3.097,8.935-4.589,13.726-4.589c6.935,0,13.79,3.129,18.274,9.081
	c8.815,11.702,20.71,47.669,28.234,73.008C120.266,134.714,87.54,114.303,78.766,102.65z M235.04,102.65
	c-8.774,11.645-41.5,32.065-64.726,45.508c7.524-25.339,19.419-61.298,28.234-73.008c7.581-10.065,21.935-12.073,32-4.492
	c4.871,3.669,8.024,9.016,8.871,15.065C240.266,91.763,238.718,97.771,235.04,102.65z"/>
<path style="fill:#FFD164;" d="M156.903,173.408c-3.637,0-6.847-2.379-7.903-5.863c-6.984-23.065-17.815-37.145-32.194-41.847
	c-24.96-8.202-53.742,13.177-54.032,13.395c-3.661,2.75-8.823,2.008-11.565-1.629c-2.742-3.645-2.008-8.823,1.629-11.565
	c1.468-1.105,36.056-26.677,69.097-15.903c14.661,4.79,26.371,15.758,34.968,32.702c8.597-16.944,20.306-27.911,34.968-32.702
	c33.065-10.766,67.637,14.798,69.097,15.903c3.637,2.734,4.363,7.903,1.637,11.548c-2.734,3.653-7.919,4.379-11.556,1.653
	c-0.282-0.21-29.29-21.516-54.105-13.387c-14.355,4.718-25.161,18.79-32.137,41.831C163.75,171.029,160.54,173.408,156.903,173.408z
	"/>
<rect x="140.39" y="165.15" style="fill:#FFE17D;" width="33.03" height="206.45"/>
<rect x="140.39" y="346.83" style="fill:#FFD164;" width="33.03" height="24.774"/>
<path style="fill:#867E88;" d="M16.516,371.602c-4.561,0-8.258,3.697-8.258,8.258v16.516c0,4.56,3.697,8.258,8.258,8.258H470.71
	l25.717-10.287c9.325-3.73,15.449-12.72,15.553-22.745H16.516z"/>
<circle style="fill:#5D5360;" cx="107.36" cy="421.15" r="41.29"/>
<circle style="fill:#C9C6CA;" cx="107.36" cy="421.15" r="24.774"/>
<circle style="fill:#AEA8AF;" cx="107.36" cy="421.15" r="8.258"/>
<circle style="fill:#5D5360;" cx="437.68" cy="421.15" r="41.29"/>
<circle style="fill:#C9C6CA;" cx="437.68" cy="421.15" r="24.774"/>
<circle style="fill:#AEA8AF;" cx="437.68" cy="421.15" r="8.258"/>
<g>
</g>
<g>
</g>
<g>
</g>
<g>
</g>
<g>
</g>
<g>
</g>
<g>
</g>
<g>
</g>
<g>
</g>
<g>
</g>
<g>
</g>
<g>
</g>
<g>
</g>
<g>
</g>
<g>
</g>
</svg>
