<?xml version="1.0" encoding="iso-8859-1"?>

<svg version="1.1" id="Capa_1" xmlns="http://www.w3.org/2000/svg" xmlns:xlink="http://www.w3.org/1999/xlink" x="0px" y="0px"
	 viewBox="0 0 512 512" style="enable-background:new 0 0 512 512;" xml:space="preserve">
<path style="fill:#FFE17D;" d="M379.172,6.845c-15.008-11.294-36.365-8.278-47.65,6.706c-7.793,10.345-16.534,35.181-22.698,54.926
	c-6.164-19.744-14.906-44.581-22.698-54.926c-11.278-14.976-32.651-18-47.65-6.706c-14.984,11.286-17.992,32.666-6.706,47.658
	c13.159,17.46,67.087,46.873,73.198,50.166c1.206,0.651,2.532,0.976,3.857,0.976c1.316,0,2.579-0.426,3.762-1.051l0.095,0.075
	c6.111-3.294,60.039-32.706,73.198-50.166C397.164,39.512,394.156,18.131,379.172,6.845z M244.752,44.726
	c-5.897-7.833-4.325-19,3.5-24.897c3.198-2.405,6.952-3.571,10.675-3.571c5.397,0,10.73,2.444,14.214,7.071
	c6.905,9.159,16.159,36.627,22.413,57.373C276.562,69.607,251.618,53.837,244.752,44.726z M372.895,44.726
	c-6.865,9.111-31.809,24.881-50.801,35.976c6.254-20.746,15.508-48.214,22.413-57.373c3.484-4.635,8.817-7.071,14.214-7.071
	c3.722,0,7.476,1.167,10.675,3.571C377.22,25.726,378.791,36.893,372.895,44.726z"/>
<circle style="fill:#5D5360;" cx="430.73" cy="487.611" r="24.381"/>
<path style="fill:#AEA8AF;" d="M422.601,430.724v56.889c0,4.488,3.635,8.127,8.127,8.127s8.127-3.639,8.127-8.127v-56.889H422.601z"
	/>
<circle style="fill:#5D5360;" cx="154.41" cy="487.611" r="24.381"/>
<path style="fill:#AEA8AF;" d="M146.285,430.724v56.889c0,4.488,3.635,8.127,8.127,8.127s8.127-3.639,8.127-8.127v-56.889H146.285z"
	/>
<path style="fill:#C0BCC1;" d="M455.108,438.851H149.277c-10.714,0-20.73-5.27-26.793-14.103
	c-6.071-8.833-7.389-20.079-3.548-30.079l27.889-72.515c1.611-4.19,6.309-6.278,10.508-4.667c4.183,1.611,6.278,6.317,4.667,10.508
	l-27.889,72.515c-1.952,5.071-1.31,10.556,1.77,15.032c3.079,4.484,7.96,7.056,13.397,7.056h305.831
	c4.492,0,8.127,3.635,8.127,8.127S459.6,438.851,455.108,438.851z"/>
<path style="fill:#C9C6CA;" d="M451.116,333.2H169.039c-21.817,0-41.135-14.682-46.984-35.706L66.904,99.107
	c-1.119-4.04-3.278-7.738-6.246-10.706L72.15,76.908c4.944,4.944,8.548,11.111,10.421,17.849l12.063,43.397H503.87
	c2.349,0,4.579,1.016,6.119,2.786c1.548,1.762,2.254,4.111,1.936,6.436L491.378,298.05C488.64,318.089,471.33,333.2,451.116,333.2z
	 M99.15,154.408l38.571,138.737c3.889,14.016,16.77,23.801,31.317,23.801h282.078c12.127,0,22.516-9.063,24.151-21.087
	l19.294-141.452H99.15V154.408z"/>
<path style="fill:#E6646E;" d="M49.459,88.695L4.761,43.997c-6.348-6.348-6.348-16.639,0-22.986l0,0
	c6.348-6.348,16.639-6.348,22.986,0l44.698,44.698c6.348,6.348,6.348,16.639,0,22.986l0,0
	C66.098,95.043,55.806,95.043,49.459,88.695z"/>
<path style="fill:#FF8087;" d="M27.747,21.01c-0.415-0.415-0.887-0.729-1.334-1.09c-0.447,0.361-0.919,0.675-1.334,1.09l0,0
	c-6.347,6.348-6.347,16.639,0,22.986l44.699,44.698c0.415,0.415,0.887,0.729,1.334,1.09c0.447-0.361,0.919-0.675,1.334-1.09l0,0
	c6.347-6.347,6.347-16.639,0-22.986L27.747,21.01z"/>
<path style="fill:#E6646E;" d="M422.601,316.947H195.046c-4.488,0-8.127-3.639-8.127-8.127V105.646c0-4.488,3.639-8.127,8.127-8.127
	H422.6c4.488,0,8.127,3.639,8.127,8.127v203.173C430.728,313.308,427.089,316.947,422.601,316.947z"/>
<g>
	<path style="fill:#FFE17D;" d="M260.062,264.122c-2.079,0-4.159-0.794-5.746-2.381c-3.175-3.175-3.175-8.317,0-11.492
		l97.523-97.523c3.175-3.175,8.317-3.175,11.492,0c3.175,3.175,3.175,8.317,0,11.492l-97.523,97.523
		C264.221,263.328,262.141,264.122,260.062,264.122z"/>
	<path style="fill:#FFE17D;" d="M272.252,199.106c-15.682,0-28.444-12.762-28.444-28.444s12.762-28.444,28.444-28.444
		s28.444,12.762,28.444,28.444S287.935,199.106,272.252,199.106z M272.252,158.471c-6.722,0-12.19,5.468-12.19,12.19
		s5.468,12.19,12.19,12.19c6.722,0,12.19-5.468,12.19-12.19S278.975,158.471,272.252,158.471z"/>
	<path style="fill:#FFE17D;" d="M345.395,272.248c-15.682,0-28.444-12.762-28.444-28.444s12.762-28.444,28.444-28.444
		s28.444,12.762,28.444,28.444S361.077,272.248,345.395,272.248z M345.395,231.614c-6.722,0-12.19,5.468-12.19,12.19
		s5.468,12.19,12.19,12.19s12.19-5.468,12.19-12.19S352.117,231.614,345.395,231.614z"/>
</g>
<path style="fill:#DC4655;" d="M292.57,292.566c-44.884,0-81.269-36.386-81.269-81.269V97.519h-16.254
	c-4.488,0-8.127,3.639-8.127,8.127v203.173c0,4.488,3.639,8.127,8.127,8.127h227.554c4.488,0,8.127-3.639,8.127-8.127v-16.254
	H292.57V292.566z"/>
<g>
</g>
<g>
</g>
<g>
</g>
<g>
</g>
<g>
</g>
<g>
</g>
<g>
</g>
<g>
</g>
<g>
</g>
<g>
</g>
<g>
</g>
<g>
</g>
<g>
</g>
<g>
</g>
<g>
</g>
</svg>
