<?xml version="1.0" encoding="iso-8859-1"?>

<svg version="1.1" id="Capa_1" xmlns="http://www.w3.org/2000/svg" xmlns:xlink="http://www.w3.org/1999/xlink" x="0px" y="0px"
	 viewBox="0 0 512 512" style="enable-background:new 0 0 512 512;" xml:space="preserve">
<path style="fill:#FFF6D8;" d="M320,328H48c-4.418,0-8-3.582-8-8V112c0-4.418,3.582-8,8-8h272c4.418,0,8,3.582,8,8v208
	C328,324.418,324.418,328,320,328z"/>
<g>
	<path style="fill:#EDEBED;" d="M40,368H24c-13.234,0-24-10.766-24-24v-16c0-4.422,3.578-8,8-8s8,3.578,8,8v16c0,4.414,3.586,8,8,8
		h16c4.422,0,8,3.578,8,8S44.422,368,40,368z"/>
	<path style="fill:#EDEBED;" d="M8,112c-4.422,0-8-3.578-8-8V88c0-13.234,10.766-24,24-24h16c4.422,0,8,3.578,8,8s-3.578,8-8,8H24
		c-4.414,0-8,3.586-8,8v16C16,108.422,12.422,112,8,112z"/>
	<path style="fill:#EDEBED;" d="M344,368h-16c-4.422,0-8-3.578-8-8s3.578-8,8-8h16c4.414,0,8-3.586,8-8v-16c0-4.422,3.578-8,8-8
		s8,3.578,8,8v16C368,357.234,357.234,368,344,368z"/>
	<path style="fill:#EDEBED;" d="M8,304c-4.422,0-8-3.578-8-8v-32c0-4.422,3.578-8,8-8s8,3.578,8,8v32C16,300.422,12.422,304,8,304z"
		/>
	<path style="fill:#EDEBED;" d="M8,240c-4.422,0-8-3.578-8-8v-32c0-4.422,3.578-8,8-8s8,3.578,8,8v32C16,236.422,12.422,240,8,240z"
		/>
	<path style="fill:#EDEBED;" d="M8,176c-4.422,0-8-3.578-8-8v-32c0-4.422,3.578-8,8-8s8,3.578,8,8v32C16,172.422,12.422,176,8,176z"
		/>
	<path style="fill:#EDEBED;" d="M360,304c-4.422,0-8-3.578-8-8v-32c0-4.422,3.578-8,8-8s8,3.578,8,8v32
		C368,300.422,364.422,304,360,304z"/>
	<path style="fill:#EDEBED;" d="M360,240c-4.422,0-8-3.578-8-8v-32c0-4.422,3.578-8,8-8s8,3.578,8,8v32
		C368,236.422,364.422,240,360,240z"/>
	<path style="fill:#EDEBED;" d="M360,176c-4.422,0-8-3.578-8-8v-32c0-4.422,3.578-8,8-8s8,3.578,8,8v32
		C368,172.422,364.422,176,360,176z"/>
	<path style="fill:#EDEBED;" d="M360,112c-4.422,0-8-3.578-8-8V88c0-4.414-3.586-8-8-8h-16c-4.422,0-8-3.578-8-8s3.578-8,8-8h16
		c13.234,0,24,10.766,24,24v16C368,108.422,364.422,112,360,112z"/>
	<path style="fill:#EDEBED;" d="M104,80H72c-4.422,0-8-3.578-8-8s3.578-8,8-8h32c4.422,0,8,3.578,8,8S108.422,80,104,80z"/>
	<path style="fill:#EDEBED;" d="M168,80h-32c-4.422,0-8-3.578-8-8s3.578-8,8-8h32c4.422,0,8,3.578,8,8S172.422,80,168,80z"/>
	<path style="fill:#EDEBED;" d="M232,80h-32c-4.422,0-8-3.578-8-8s3.578-8,8-8h32c4.422,0,8,3.578,8,8S236.422,80,232,80z"/>
	<path style="fill:#EDEBED;" d="M296,80h-32c-4.422,0-8-3.578-8-8s3.578-8,8-8h32c4.422,0,8,3.578,8,8S300.422,80,296,80z"/>
	<path style="fill:#EDEBED;" d="M104,368H72c-4.422,0-8-3.578-8-8s3.578-8,8-8h32c4.422,0,8,3.578,8,8S108.422,368,104,368z"/>
	<path style="fill:#EDEBED;" d="M168,368h-32c-4.422,0-8-3.578-8-8s3.578-8,8-8h32c4.422,0,8,3.578,8,8S172.422,368,168,368z"/>
	<path style="fill:#EDEBED;" d="M232,368h-32c-4.422,0-8-3.578-8-8s3.578-8,8-8h32c4.422,0,8,3.578,8,8S236.422,368,232,368z"/>
	<path style="fill:#EDEBED;" d="M296,368h-32c-4.422,0-8-3.578-8-8s3.578-8,8-8h32c4.422,0,8,3.578,8,8S300.422,368,296,368z"/>
</g>
<g>
	<path style="fill:#DC4655;" d="M124,284c-2.047,0-4.094-0.781-5.656-2.344c-3.125-3.125-3.125-8.188,0-11.313l120-120
		c3.125-3.125,8.188-3.125,11.313,0s3.125,8.188,0,11.313l-120,120C128.094,283.219,126.047,284,124,284z"/>
	<path style="fill:#DC4655;" d="M144,208c-17.648,0-32-14.352-32-32s14.352-32,32-32s32,14.352,32,32S161.648,208,144,208z M144,160
		c-8.82,0-16,7.18-16,16s7.18,16,16,16s16-7.18,16-16S152.82,160,144,160z"/>
	<path style="fill:#DC4655;" d="M224,288c-17.648,0-32-14.352-32-32s14.352-32,32-32s32,14.352,32,32S241.648,288,224,288z M224,240
		c-8.82,0-16,7.18-16,16s7.18,16,16,16s16-7.18,16-16S232.82,240,224,240z"/>
</g>
<g>
	<path style="fill:#C0BCC1;" d="M476,376h-24c-9.295,0-17.696,3.634-24.09,9.438L276.227,284.32
		c-3.695-2.453-8.656-1.453-11.094,2.219c-2.453,3.68-1.461,8.641,2.219,11.094L418.675,398.51C416.979,402.684,416,407.225,416,412
		c0,19.852,16.148,36,36,36h24c19.852,0,36-16.148,36-36S495.852,376,476,376z M476,432h-24c-11.031,0-20-8.969-20-20
		s8.969-20,20-20h24c11.031,0,20,8.969,20,20S487.031,432,476,432z"/>
	<path style="fill:#C0BCC1;" d="M512,308c0-19.852-16.148-36-36-36h-24c-19.852,0-36,16.148-36,36c0,4.775,0.979,9.316,2.675,13.49
		L267.352,422.367c-3.68,2.453-4.672,7.414-2.219,11.094c2.438,3.672,7.398,4.672,11.094,2.219L427.91,334.563
		C434.304,340.366,442.705,344,452,344h24C495.852,344,512,327.852,512,308z M496,308c0,11.031-8.969,20-20,20h-24
		c-11.031,0-20-8.969-20-20s8.969-20,20-20h24C487.031,288,496,296.969,496,308z"/>
</g>
<circle style="fill:#AEA8AF;" cx="376" cy="360" r="16"/>
<g>
</g>
<g>
</g>
<g>
</g>
<g>
</g>
<g>
</g>
<g>
</g>
<g>
</g>
<g>
</g>
<g>
</g>
<g>
</g>
<g>
</g>
<g>
</g>
<g>
</g>
<g>
</g>
<g>
</g>
</svg>
