<?xml version="1.0" encoding="iso-8859-1"?>

<svg version="1.1" id="Capa_1" xmlns="http://www.w3.org/2000/svg" xmlns:xlink="http://www.w3.org/1999/xlink" x="0px" y="0px"
	 viewBox="0 0 512 512" style="enable-background:new 0 0 512 512;" xml:space="preserve">
<path style="fill:#DC4655;" d="M272.899,8.675L272.899,8.675c12.381-12.216,33.053-8.942,41.053,6.502l0,0
	c6.495,12.54,21.862,17.533,34.487,11.206l0,0c15.549-7.792,34.199,1.71,37.034,18.87l0,0c2.302,13.933,15.374,23.43,29.337,21.314
	l0,0c17.196-2.606,31.996,12.194,29.391,29.391l0,0c-2.116,13.963,7.381,27.034,21.314,29.337l0,0
	c17.16,2.836,26.662,21.485,18.87,37.034l0,0c-6.327,12.626-1.334,27.992,11.206,34.487l0,0c15.444,8,18.718,28.672,6.502,41.053
	l0,0c-9.919,10.052-9.919,26.21,0,36.262l0,0c12.216,12.38,8.942,33.053-6.502,41.053l0,0c-12.54,6.495-17.533,21.862-11.206,34.487
	l0,0c7.792,15.549-1.71,34.199-18.87,37.034l0,0c-13.933,2.302-23.43,15.374-21.314,29.337l0,0
	c2.606,17.196-12.194,31.996-29.391,29.391l0,0c-13.963-2.116-27.034,7.381-29.337,21.314l0,0
	c-2.836,17.16-21.485,26.662-37.034,18.87l0,0c-12.626-6.327-27.992-1.334-34.487,11.206l0,0c-8,15.444-28.672,18.718-41.053,6.502
	l0,0c-10.052-9.919-26.21-9.919-36.262,0l0,0c-12.38,12.216-33.053,8.942-41.053-6.502l0,0
	c-6.495-12.54-21.862-17.533-34.487-11.206l0,0c-15.549,7.792-34.199-1.71-37.034-18.87l0,0
	c-2.302-13.933-15.374-23.43-29.337-21.314l0,0c-17.196,2.606-31.996-12.194-29.391-29.391l0,0
	c2.116-13.963-7.381-27.034-21.314-29.337l0,0c-17.16-2.836-26.662-21.485-18.87-37.034l0,0
	c6.327-12.626,1.334-27.992-11.206-34.487l0,0c-15.444-8-18.718-28.672-6.502-41.053l0,0c9.919-10.052,9.919-26.21,0-36.262l0,0
	c-12.216-12.38-8.942-33.053,6.502-41.053l0,0c12.54-6.495,17.533-21.862,11.206-34.487l0,0c-7.792-15.549,1.71-34.199,18.87-37.034
	l0,0c13.933-2.302,23.43-15.374,21.314-29.337l0,0c-2.606-17.196,12.194-31.996,29.391-29.391l0,0
	c13.963,2.116,27.034-7.381,29.337-21.314l0,0c2.836-17.16,21.485-26.662,37.034-18.87l0,0c12.626,6.327,27.992,1.334,34.487-11.206
	l0,0c8-15.444,28.672-18.718,41.053-6.502l0,0C246.69,18.594,262.847,18.594,272.899,8.675z"/>
<path style="fill:#C43F4F;" d="M485.268,352.131c-17.695,12.645-37.279,22.765-58.156,30.143
	c25.967-35.379,41.332-79.025,41.332-126.274c0-118.01-95.666-213.676-213.676-213.676c-47.249,0-90.894,15.366-126.273,41.332
	c7.378-20.876,17.498-40.461,30.143-58.155c-15.001-5.716-31.886,3.481-34.575,19.752c-2.302,13.934-15.374,23.43-29.336,21.314
	C77.53,63.961,62.731,78.762,65.336,95.958c2.116,13.963-7.381,27.035-21.314,29.337l0,0c-17.16,2.836-26.662,21.485-18.87,37.034
	c6.327,12.626,1.334,27.992-11.205,34.487c-15.444,8-18.718,28.672-6.502,41.053c9.919,10.052,9.919,26.209,0,36.262
	c-12.216,12.38-8.942,33.053,6.502,41.053c12.54,6.495,17.533,21.862,11.205,34.487c-7.792,15.55,1.71,34.199,18.87,37.035l0,0
	c13.933,2.302,23.43,15.374,21.314,29.336c-2.606,17.197,12.194,31.996,29.391,29.391c13.963-2.116,27.034,7.381,29.336,21.314
	c2.836,17.16,21.485,26.662,37.034,18.87h0.001c12.625-6.327,27.992-1.334,34.487,11.206c8,15.443,28.672,18.718,41.053,6.502
	c10.053-9.919,26.209-9.919,36.262,0c12.381,12.216,33.053,8.942,41.053-6.502c6.495-12.54,21.862-17.533,34.487-11.206l0,0
	c15.549,7.792,34.198-1.71,37.034-18.87c2.302-13.933,15.374-23.43,29.337-21.314c17.196,2.606,31.996-12.194,29.39-29.391
	c-2.116-13.963,7.382-27.034,21.314-29.336C481.787,384.017,490.983,367.132,485.268,352.131z"/>
<circle style="fill:#FF8587;" cx="254.77" cy="256" r="197.24"/>
<path style="fill:#E6646E;" d="M345.891,394.925C223.268,385.331,125.438,287.5,115.843,164.877
	c-0.33-4.213-3.747-7.497-7.973-7.497l0,0c-2.794,0-5.434,1.415-6.903,3.791c-20.046,32.411-30.268,71.533-26.071,113.33
	c8.488,84.53,76.85,152.888,161.38,161.372c41.794,4.195,80.911-6.027,113.321-26.072c2.376-1.469,3.791-4.11,3.791-6.903l0,0
	C353.388,398.672,350.104,395.255,345.891,394.925z"/>
<g>
	<path style="fill:#FFFFFF;" d="M394.889,315.583c-2.632,0-5.257-1.003-7.263-3.01c-4.013-4.013-4.013-10.514,0-14.527
		L494.26,191.412c4.013-4.013,10.514-4.013,14.527,0c4.013,4.013,4.013,10.514,0,14.527L402.152,312.573
		C400.146,314.58,397.521,315.583,394.889,315.583z"/>
	<path style="fill:#FFFFFF;" d="M407.216,249.836c-16.99,0-30.819-13.828-30.819-30.819s13.828-30.819,30.819-30.819
		s30.819,13.828,30.819,30.819S424.207,249.836,407.216,249.836z M407.216,208.745c-5.666,0-10.273,4.607-10.273,10.273
		s4.607,10.273,10.273,10.273s10.273-4.607,10.273-10.273C417.489,213.351,412.883,208.745,407.216,208.745z"/>
	<path style="fill:#FFFFFF;" d="M481.181,323.801c-16.99,0-30.819-13.828-30.819-30.819s13.828-30.819,30.819-30.819
		c16.99,0,30.819,13.828,30.819,30.819S498.172,323.801,481.181,323.801z M481.181,282.71c-5.666,0-10.273,4.607-10.273,10.273
		c0,5.666,4.607,10.273,10.273,10.273c5.666,0,10.273-4.607,10.273-10.273C491.454,287.316,486.847,282.71,481.181,282.71z"/>
	<path style="fill:#FFFFFF;" d="M300.378,356.674c-30.586,0-55.474-24.888-55.474-55.474v-90.402
		c0-30.586,24.888-55.474,55.474-55.474s55.474,24.888,55.474,55.474V301.2C355.852,331.787,330.964,356.674,300.378,356.674z
		 M300.378,175.871c-19.262,0-34.928,15.666-34.928,34.928v90.402c0,19.262,15.666,34.928,34.928,34.928
		c19.262,0,34.928-15.666,34.928-34.928v-90.402C335.306,191.538,319.64,175.871,300.378,175.871z"/>
	<path style="fill:#FFFFFF;" d="M177.103,356.674c-30.586,0-55.474-24.888-55.474-55.474c0-5.674,4.599-10.273,10.273-10.273
		c5.674,0,10.273,4.599,10.273,10.273c0,19.262,15.666,34.928,34.928,34.928s34.928-15.666,34.928-34.928v-16.437
		c0-19.262-15.666-34.928-34.928-34.928h-36.982c-2.921,0-5.706-1.244-7.657-3.419c-1.95-2.183-2.873-5.08-2.552-7.986l8.218-73.965
		c0.578-5.209,4.976-9.141,10.209-9.141h65.747c5.674,0,10.273,4.599,10.273,10.273s-4.599,10.273-10.273,10.273h-56.549
		l-5.939,53.419h25.506c30.586,0,55.474,24.888,55.474,55.474V301.2C232.577,331.787,207.689,356.674,177.103,356.674z"/>
</g>
<g>
</g>
<g>
</g>
<g>
</g>
<g>
</g>
<g>
</g>
<g>
</g>
<g>
</g>
<g>
</g>
<g>
</g>
<g>
</g>
<g>
</g>
<g>
</g>
<g>
</g>
<g>
</g>
<g>
</g>
</svg>
