<?xml version="1.0" encoding="iso-8859-1"?>

<svg version="1.1" id="Capa_1" xmlns="http://www.w3.org/2000/svg" xmlns:xlink="http://www.w3.org/1999/xlink" x="0px" y="0px"
	 viewBox="0 0 512 512" style="enable-background:new 0 0 512 512;" xml:space="preserve">
<path style="fill:#DC4655;" d="M1.354,171.492c1.679,2.518,4.64,3.895,7.632,3.571l45.367-4.964
	c4.458-0.491,7.664-4.489,7.181-8.939s-4.568-7.64-8.939-7.181l-17.468,1.913c37.873-13.937,129.694-8.686,246.235,29.932
	c103.885,34.417,190.574,83.925,215.696,123.196c2.423,3.769,7.427,4.861,11.203,2.462c3.769-2.415,4.869-7.435,2.462-11.203
	c-27.41-42.826-115.437-93.79-224.263-129.847c-75.153-24.9-146.228-37.941-198.673-37.941c-22.102,0-40.794,2.37-55.185,7.09
	l4.743-8.546c2.177-3.911,0.76-8.852-3.151-11.021c-1.243-0.697-2.597-1.021-3.927-1.021c-2.85,0-5.613,1.504-7.094,4.173
	L1.022,163.068C-0.451,165.72-0.324,168.966,1.354,171.492z"/>
<circle style="fill:#E2E0E3;" cx="252.28" cy="256" r="194.58"/>
<path style="fill:#C9C6CA;" d="M317.135,385.72c-107.463,0-194.58-87.116-194.58-194.58c0-37.11,10.398-71.787,28.425-101.295
	C95.039,124.022,57.695,185.646,57.695,256c0,107.463,87.116,194.58,194.58,194.58c70.354,0,131.978-37.344,166.154-93.285
	C388.922,375.322,354.244,385.72,317.135,385.72z"/>
<path style="fill:#FFFFFF;" d="M359.445,156.47c17.855-3.531,35.034-7.942,51.447-13.104c-3.299-4.637-6.787-9.124-10.471-13.447
	c-14.798,4.386-30.253,8.141-46.26,11.193c-11.23-29.82-26.705-54.384-44.909-71.195c-18.023-5.512-37.149-8.496-56.977-8.496
	s-38.954,2.984-56.977,8.496c-18.204,16.812-33.679,41.375-44.909,71.195c-16.007-3.052-31.462-6.807-46.261-11.193
	c-3.683,4.323-7.171,8.811-10.47,13.447c16.412,5.163,33.592,9.573,51.446,13.104c-8.51,27.421-13.6,58.465-14.324,91.422H57.9
	c-0.11,2.692-0.205,5.388-0.205,8.107c0,2.719,0.095,5.416,0.205,8.107h72.881c0.723,32.957,5.814,64.001,14.324,91.422
	c-17.854,3.531-35.034,7.942-51.446,13.104c3.299,4.637,6.787,9.124,10.47,13.447c14.799-4.386,30.254-8.141,46.261-11.193
	c11.23,29.82,26.705,54.384,44.909,71.195c18.023,5.512,37.149,8.496,56.977,8.496c19.828,0,38.954-2.984,56.977-8.496
	c18.204-16.812,33.679-41.375,44.909-71.195c16.007,3.052,31.462,6.807,46.26,11.193c3.684-4.323,7.172-8.81,10.471-13.447
	c-16.413-5.163-33.592-9.573-51.447-13.104c8.51-27.421,13.6-58.465,14.324-91.422h72.88c0.111-2.692,0.206-5.388,0.206-8.107
	c0-2.719-0.095-5.416-0.206-8.107h-72.88C373.045,214.936,367.955,183.891,359.445,156.47z M244.167,449.947
	c-32.157-4.543-60.308-35.817-77.946-81.809c24.923-3.947,51.028-6.239,77.946-6.622V449.947z M244.167,345.305
	c-28.784,0.404-56.695,2.943-83.304,7.361c-8.192-26.299-13.157-56.425-13.874-88.558h97.179v81.197H244.167z M244.167,247.893
	h-97.179c0.718-32.133,5.682-62.259,13.874-88.558c26.609,4.417,54.52,6.957,83.304,7.361v81.197H244.167z M244.167,150.484
	c-26.918-0.383-53.022-2.675-77.946-6.622c17.637-45.992,45.789-77.266,77.946-81.809V150.484z M260.382,62.053
	c32.157,4.543,60.308,35.817,77.946,81.809c-24.923,3.947-51.028,6.239-77.946,6.622L260.382,62.053L260.382,62.053z
	 M260.382,449.947v-88.431c26.918,0.383,53.022,2.675,77.946,6.622C320.691,414.13,292.539,445.404,260.382,449.947z
	 M343.686,352.665c-26.609-4.417-54.52-6.957-83.304-7.361v-81.197h97.179C356.843,296.241,351.879,326.367,343.686,352.665z
	 M260.382,247.893v-81.197c28.784-0.404,56.695-2.943,83.304-7.361c8.192,26.299,13.156,56.425,13.875,88.558L260.382,247.893
	L260.382,247.893z"/>
<path style="fill:#EDEBED;" d="M330.979,385.175c-17.63,36.571-42.591,60.815-70.597,64.772v-72.66
	c-5.517-1.68-10.918-3.62-16.215-5.765v78.425c-32.157-4.543-60.308-35.817-77.946-81.809c18.726-2.966,38.119-4.995,58.023-5.985
	c-7.989-4.349-15.63-9.25-22.892-14.636c-13.781,1.236-27.296,2.958-40.489,5.148c-6.141-19.713-10.466-41.577-12.551-64.824
	c-7.287-12.694-13.198-26.271-17.498-40.557c-0.005,0.206-0.029,0.403-0.034,0.609H57.9c-0.11,2.692-0.205,5.388-0.205,8.107
	s0.095,5.416,0.205,8.107h72.881c0.723,32.957,5.814,64.001,14.324,91.422c-17.854,3.531-35.034,7.942-51.446,13.104
	c3.299,4.637,6.787,9.124,10.47,13.447c14.799-4.386,30.254-8.141,46.261-11.193c11.23,29.82,26.705,54.384,44.909,71.195
	c18.023,5.512,37.149,8.496,56.977,8.496c19.828,0,38.954-2.984,56.977-8.496c15.661-14.463,29.282-34.69,39.938-59.038
	C343.207,384.037,337.133,384.742,330.979,385.175z"/>
<path style="fill:#E2E0E3;" d="M130.31,136.773c-8.912-2.089-17.683-4.335-26.182-6.854c-3.683,4.323-7.171,8.811-10.47,13.447
	c10.584,3.329,21.594,6.215,32.791,8.885C127.514,147.005,128.833,141.856,130.31,136.773z"/>
<path style="fill:#DBD9DC;" d="M377.841,376.01c7.68,1.862,15.212,3.887,22.58,6.071c3.684-4.323,7.172-8.81,10.471-13.447
	c-2.829-0.89-5.806-1.625-8.681-2.469C394.372,369.982,386.227,373.258,377.841,376.01z"/>
<path style="fill:#E6646E;" d="M510.646,335.642c-1.678-2.518-4.64-3.895-7.632-3.571l-45.367,4.964
	c-4.458,0.491-7.664,4.489-7.181,8.939c0.483,4.45,4.568,7.64,8.939,7.181l17.468-1.913C439,365.179,347.179,359.928,230.638,321.31
	C126.751,286.894,40.063,237.386,14.941,198.115c-2.423-3.769-7.427-4.861-11.203-2.462c-3.769,2.415-4.869,7.435-2.462,11.203
	c27.41,42.826,115.437,93.79,224.263,129.847c75.153,24.9,146.228,37.941,198.673,37.941c22.102,0,40.794-2.37,55.185-7.09
	l-4.743,8.546c-2.177,3.911-0.76,8.852,3.151,11.021c1.243,0.697,2.597,1.021,3.927,1.021c2.85,0,5.613-1.504,7.094-4.173
	l22.153-39.904C512.451,341.414,512.324,338.168,510.646,335.642z"/>
<g>
</g>
<g>
</g>
<g>
</g>
<g>
</g>
<g>
</g>
<g>
</g>
<g>
</g>
<g>
</g>
<g>
</g>
<g>
</g>
<g>
</g>
<g>
</g>
<g>
</g>
<g>
</g>
<g>
</g>
</svg>
