<?xml version="1.0" encoding="iso-8859-1"?>

<svg version="1.1" id="Capa_1" xmlns="http://www.w3.org/2000/svg" xmlns:xlink="http://www.w3.org/1999/xlink" x="0px" y="0px"
	 viewBox="0 0 512 512" style="enable-background:new 0 0 512 512;" xml:space="preserve">
<path style="fill:#FFE17D;" d="M429.419,355.097H16.516C7.395,355.097,0,347.702,0,338.581V57.806
	C0,48.685,7.395,41.29,16.516,41.29h412.903c9.122,0,16.516,7.395,16.516,16.516V338.58
	C445.935,347.702,438.541,355.097,429.419,355.097z"/>
<path style="fill:#FFD164;" d="M16.516,355.097h412.903c9.121,0,16.516-7.395,16.516-16.516V57.806c0-0.092-0.026-0.177-0.027-0.269
	L274.557,222.769c-28.79,27.763-74.389,27.763-103.179,0L0.027,57.538C0.026,57.63,0,57.714,0,57.806V338.58
	C0,347.702,7.395,355.097,16.516,355.097z"/>
<path style="fill:#FFC350;" d="M445.935,57.806c0-0.092-0.026-0.177-0.027-0.269L274.557,222.769
	c-14.395,13.881-32.992,20.822-51.59,20.822s-37.195-6.941-51.59-20.822L0.027,57.538C0.026,57.63,0,57.714,0,57.806v22.649
	L127.986,203.87L0,327.112v11.468c0,3.29,0.988,6.339,2.647,8.914l137.238-132.15l20.029,19.314
	c17.019,16.411,39.412,25.449,63.054,25.449s46.036-9.038,63.054-25.449l20.029-19.314l137.237,132.151
	c1.659-2.575,2.647-5.624,2.647-8.915v-11.466L317.949,203.871L445.935,80.455V57.806z"/>
<circle style="fill:#EDEBED;" cx="396.39" cy="355.1" r="115.61"/>
<path style="fill:#E2E0E3;" d="M429.419,437.677c-63.851,0-115.613-51.762-115.613-115.613c0-23.474,7.042-45.283,19.063-63.518
	c-31.365,20.676-52.095,56.173-52.095,96.55c0,63.851,51.762,115.613,115.613,115.613c40.377,0,75.873-20.73,96.55-52.095
	C474.702,430.636,452.893,437.677,429.419,437.677z"/>
<path style="fill:#FFC350;" d="M384,406.71c-2.645,0-5.282-1.008-7.298-3.024l-41.29-41.29c-4.032-4.032-4.032-10.565,0-14.597
	s10.565-4.032,14.597,0L384,381.79l62.895-62.895c4.032-4.032,10.565-4.032,14.597,0s4.032,10.565,0,14.597l-70.194,70.194
	C389.282,405.702,386.645,406.71,384,406.71z"/>
<g>
</g>
<g>
</g>
<g>
</g>
<g>
</g>
<g>
</g>
<g>
</g>
<g>
</g>
<g>
</g>
<g>
</g>
<g>
</g>
<g>
</g>
<g>
</g>
<g>
</g>
<g>
</g>
<g>
</g>
</svg>
