<?xml version="1.0" encoding="iso-8859-1"?>

<svg version="1.1" id="Capa_1" xmlns="http://www.w3.org/2000/svg" xmlns:xlink="http://www.w3.org/1999/xlink" x="0px" y="0px"
	 viewBox="0 0 512 512" style="enable-background:new 0 0 512 512;" xml:space="preserve">
<path style="fill:#E6646E;" d="M255.886,0C139.079-0.002,54.872,110.93,78.648,225.292
	c24.869,119.617,146.169,182.672,159.524,270.917c1.355,8.956,8.648,15.791,17.706,15.791h0.004c9.066,0,16.356-6.847,17.714-15.81
	c14.906-98.378,163.964-165.454,163.964-314.513C437.56,81.341,356.222,0.002,255.886,0z"/>
<path style="fill:#DC4655;" d="M411.931,198.282c9.126-88.833-55.946-164.33-140.725-172.564c-3.978-0.386-7.065-3.608-7.065-7.604
	l0,0c0-3.206,1.961-6.143,4.97-7.252c7.808-2.878,15.887-5.228,24.215-6.98c-17.755-3.721-36.451-4.889-55.711-2.973
	C130.256,11.589,58.849,112.255,77.36,218.544c21.598,124.019,147.202,187.772,160.81,277.658
	c1.356,8.958,8.647,15.798,17.707,15.798h0.33c8.891,0,16.038-6.726,17.346-15.52c0.034-0.229,0.069-0.457,0.104-0.686
	c6.458-41.575-3.522-84.003-30.617-116.19c-5.267-6.257-10.601-12.59-15.913-19.034c-8.05-9.765-0.088-24.206,12.496-22.858
	c17.542,1.879,35.977,0.792,54.962-4.051C357.688,317.566,405.276,263.063,411.931,198.282z"/>
<circle style="fill:#FF8087;" cx="255.88" cy="181.68" r="140.39"/>
<circle style="fill:#EDEBED;" cx="255.88" cy="181.68" r="123.87"/>
<circle style="fill:#FFFFFF;" cx="255.88" cy="181.68" r="99.1"/>
<circle style="fill:#EDEBED;" cx="255.88" cy="181.68" r="33.03"/>
<path style="fill:#6F6571;" d="M330.205,189.935h-74.323c-4.565,0-8.258-3.694-8.258-8.258v-74.323c0-4.565,3.694-8.258,8.258-8.258
	c4.564,0,8.258,3.694,8.258,8.258v66.065h66.065c4.565,0,8.258,3.694,8.258,8.258S334.77,189.935,330.205,189.935z"/>
<circle style="fill:#AEA8AF;" cx="255.88" cy="181.68" r="16.516"/>
<g>
</g>
<g>
</g>
<g>
</g>
<g>
</g>
<g>
</g>
<g>
</g>
<g>
</g>
<g>
</g>
<g>
</g>
<g>
</g>
<g>
</g>
<g>
</g>
<g>
</g>
<g>
</g>
<g>
</g>
</svg>
