<?xml version="1.0" encoding="iso-8859-1"?>

<svg version="1.1" id="Capa_1" xmlns="http://www.w3.org/2000/svg" xmlns:xlink="http://www.w3.org/1999/xlink" x="0px" y="0px"
	 viewBox="0 0 512 512" style="enable-background:new 0 0 512 512;" xml:space="preserve">
<path style="fill:#FFE17D;" d="M247.742,512H8.258C3.697,512,0,508.303,0,503.742V264.258C0,259.697,3.697,256,8.258,256H256
	v247.742C256,508.303,252.303,512,247.742,512z"/>
<path style="fill:#FFD164;" d="M140.387,487.226c-63.851,0-115.613-51.762-115.613-115.613V256H8.258C3.697,256,0,259.697,0,264.258
	v239.484C0,508.303,3.697,512,8.258,512h239.484c4.561,0,8.258-3.697,8.258-8.258v-16.516H140.387z"/>
<path style="fill:#FF8087;" d="M107.355,256v74.323c0,4.561,3.697,8.258,8.258,8.258h24.774c4.561,0,8.258-3.697,8.258-8.258V256
	H107.355z"/>
<path style="fill:#FFF6D8;" d="M82.581,470.71H41.29c-4.565,0-8.258-3.694-8.258-8.258c0-4.565,3.694-8.258,8.258-8.258h41.29
	c4.565,0,8.258,3.694,8.258,8.258C90.839,467.016,87.145,470.71,82.581,470.71z"/>
<path style="fill:#FFFFFF;" d="M107.355,437.677H41.29c-4.565,0-8.258-3.694-8.258-8.258s3.694-8.258,8.258-8.258h66.065
	c4.565,0,8.258,3.694,8.258,8.258S111.919,437.677,107.355,437.677z"/>
<path style="fill:#FFE17D;" d="M503.742,512H264.258c-4.561,0-8.258-3.697-8.258-8.258V256h247.742c4.561,0,8.258,3.697,8.258,8.258
	v239.484C512,508.303,508.303,512,503.742,512z"/>
<path style="fill:#FFD164;" d="M396.387,487.226c-63.851,0-115.613-51.762-115.613-115.613V256H256v247.742
	c0,4.561,3.697,8.258,8.258,8.258h239.484c4.561,0,8.258-3.697,8.258-8.258v-16.516H396.387z"/>
<path style="fill:#FF8087;" d="M363.355,256v74.323c0,4.561,3.697,8.258,8.258,8.258h24.774c4.561,0,8.258-3.697,8.258-8.258V256
	H363.355z"/>
<path style="fill:#FFF6D8;" d="M338.581,470.71h-41.29c-4.565,0-8.258-3.694-8.258-8.258c0-4.565,3.694-8.258,8.258-8.258h41.29
	c4.565,0,8.258,3.694,8.258,8.258S343.145,470.71,338.581,470.71z"/>
<path style="fill:#FFFFFF;" d="M363.355,437.677H297.29c-4.565,0-8.258-3.694-8.258-8.258s3.694-8.258,8.258-8.258h66.065
	c4.565,0,8.258,3.694,8.258,8.258S367.919,437.677,363.355,437.677z"/>
<path style="fill:#FFE17D;" d="M375.742,256H136.258c-4.561,0-8.258-3.697-8.258-8.258V8.258C128,3.697,131.697,0,136.258,0h239.484
	C380.303,0,384,3.697,384,8.258v239.484C384,252.303,380.303,256,375.742,256z"/>
<path style="fill:#FFD164;" d="M268.387,231.226c-63.851,0-115.613-51.762-115.613-115.613V0h-16.516C131.697,0,128,3.697,128,8.258
	v239.484c0,4.561,3.697,8.258,8.258,8.258h239.484c4.561,0,8.258-3.697,8.258-8.258v-16.516L268.387,231.226L268.387,231.226z"/>
<path style="fill:#FF8087;" d="M235.355,0v74.323c0,4.561,3.697,8.258,8.258,8.258h24.774c4.561,0,8.258-3.697,8.258-8.258V0
	H235.355z"/>
<path style="fill:#FFF6D8;" d="M210.581,214.71h-41.29c-4.565,0-8.258-3.694-8.258-8.258s3.694-8.258,8.258-8.258h41.29
	c4.565,0,8.258,3.694,8.258,8.258S215.145,214.71,210.581,214.71z"/>
<path style="fill:#FFFFFF;" d="M235.355,181.677H169.29c-4.565,0-8.258-3.694-8.258-8.258s3.694-8.258,8.258-8.258h66.065
	c4.565,0,8.258,3.694,8.258,8.258S239.919,181.677,235.355,181.677z"/>
<g>
</g>
<g>
</g>
<g>
</g>
<g>
</g>
<g>
</g>
<g>
</g>
<g>
</g>
<g>
</g>
<g>
</g>
<g>
</g>
<g>
</g>
<g>
</g>
<g>
</g>
<g>
</g>
<g>
</g>
</svg>
