<?xml version="1.0" encoding="iso-8859-1"?>

<svg version="1.1" id="Capa_1" xmlns="http://www.w3.org/2000/svg" xmlns:xlink="http://www.w3.org/1999/xlink" x="0px" y="0px"
	 viewBox="0 0 512 512" style="enable-background:new 0 0 512 512;" xml:space="preserve">
<polygon style="fill:#FFC350;" points="221.325,21.382 47.626,100.994 221.325,180.606 395.024,100.994 "/>
<polygon style="fill:#FFD164;" points="395.024,100.994 395.024,303.643 221.325,383.255 221.325,180.606 "/>
<path style="fill:#FFE17D;" d="M395.024,100.994l-173.699,79.612l47.357,81.184c1.875,3.215,5.884,4.483,9.267,2.933l160.477-73.552
	c3.889-1.782,5.392-6.531,3.236-10.226L395.024,100.994z"/>
<polygon style="fill:#FFC350;" points="47.626,100.994 47.626,303.643 221.325,383.255 221.325,180.606 "/>
<path style="fill:#FFD164;" d="M47.626,100.994l173.699,79.612l-47.357,81.184c-1.875,3.215-5.884,4.483-9.267,2.933L4.224,191.171
	c-3.889-1.782-5.392-6.531-3.236-10.226L47.626,100.994z"/>
<polygon style="fill:#FFE17D;" points="47.626,100.994 221.325,180.606 221.325,21.382 "/>
<circle style="fill:#E6646E;" cx="395.73" cy="374.348" r="116.27"/>
<path style="fill:#DC4655;" d="M428.95,457.394c-64.214,0-116.27-52.056-116.27-116.27c0-23.608,7.082-45.54,19.171-63.879
	c-31.544,20.794-52.391,56.492-52.391,97.099c0,64.214,52.056,116.27,116.27,116.27c40.606,0,76.304-20.848,97.099-52.391
	C474.49,450.312,452.557,457.394,428.95,457.394z"/>
<g>
	<path style="fill:#FFFFFF;" d="M394.457,425.468c-5.734,0-10.381-2.571-10.381-8.305c0-12.133,8.118-22.624,20.195-26.103
		c17.932-5.17,28.548-23.07,24.68-41.63c-2.766-13.252-13.528-24.015-26.78-26.776c-10.908-2.275-21.549,0.243-29.96,7.084
		c-8.297,6.744-13.05,16.732-13.05,27.405c0,5.734-4.647,10.381-10.381,10.381s-10.381-4.647-10.381-10.381
		c0-16.951,7.551-32.81,20.714-43.512c13.163-10.698,30.381-14.838,47.291-11.302c21.217,4.42,38.443,21.647,42.871,42.863
		c6.107,29.311-10.771,57.604-39.254,65.82c-2.579,0.742-5.183,2.932-5.183,6.152C404.838,422.897,400.191,425.468,394.457,425.468z
		"/>
	<path style="fill:#FFFFFF;" d="M394.538,457.321c-5.734,0-10.422-4.647-10.422-10.381s4.607-10.381,10.341-10.381h0.081
		c5.734,0,10.381,4.647,10.381,10.381S400.272,457.321,394.538,457.321z"/>
</g>
<g>
</g>
<g>
</g>
<g>
</g>
<g>
</g>
<g>
</g>
<g>
</g>
<g>
</g>
<g>
</g>
<g>
</g>
<g>
</g>
<g>
</g>
<g>
</g>
<g>
</g>
<g>
</g>
<g>
</g>
</svg>
