<?xml version="1.0" encoding="iso-8859-1"?>

<svg version="1.1" id="Capa_1" xmlns="http://www.w3.org/2000/svg" xmlns:xlink="http://www.w3.org/1999/xlink" x="0px" y="0px"
	 viewBox="0 0 512 512" style="enable-background:new 0 0 512 512;" xml:space="preserve">
<path style="fill:#DBD9DC;" d="M321.016,495.746h-8.127c-26.889,0-48.762-21.873-48.762-48.762V243.81h-16.254v203.174
	c0,26.889-21.873,48.762-48.762,48.762h-8.127c-4.492,0-8.127,3.639-8.127,8.127s3.635,8.127,8.127,8.127h130.032
	c4.492,0,8.127-3.639,8.127-8.127S325.508,495.746,321.016,495.746z"/>
<path style="fill:#C9C6CA;" d="M247.874,275.906c2.698,0.179,5.384,0.412,8.127,0.412c2.743,0,5.429-0.233,8.127-0.412V243.81
	h-16.254L247.874,275.906L247.874,275.906z"/>
<path style="fill:#EDEBED;" d="M353.524,0h-62.097c-4.002,0-7.66,2.261-9.45,5.84l-41.779,83.557h51.865
	c2.817,0,5.429,1.46,6.913,3.853c1.484,2.397,1.619,5.389,0.357,7.909l-48.762,97.524c-1.429,2.849-4.294,4.492-7.278,4.492
	c-1.222,0-2.46-0.274-3.627-0.857c-4.016-2.008-5.643-6.889-3.635-10.905l42.881-85.762h-51.865c-2.817,0-5.429-1.46-6.913-3.853
	c-1.484-2.397-1.619-5.389-0.357-7.909L263.782,5.88c1.351-2.701-0.613-5.88-3.634-5.88H158.477c-4.488,0-8.127,3.639-8.127,8.127
	v143.302c0,56.888,43.718,105.838,100.543,108.514c60.671,2.857,110.758-45.487,110.758-105.53V8.127
	C361.651,3.639,358.012,0,353.524,0z"/>
<path style="fill:#DBD9DC;" d="M296.635,235.683c-58.349,0-105.651-47.302-105.651-105.651V0h-32.508
	c-4.489,0-8.127,3.638-8.127,8.127v146.286c0,58.349,47.302,105.651,105.651,105.651c28.421,0,54.166-11.28,73.155-29.535
	C318.904,233.845,307.99,235.683,296.635,235.683z"/>
<g>
</g>
<g>
</g>
<g>
</g>
<g>
</g>
<g>
</g>
<g>
</g>
<g>
</g>
<g>
</g>
<g>
</g>
<g>
</g>
<g>
</g>
<g>
</g>
<g>
</g>
<g>
</g>
<g>
</g>
</svg>
