<?xml version="1.0" encoding="iso-8859-1"?>

<svg version="1.1" id="Capa_1" xmlns="http://www.w3.org/2000/svg" xmlns:xlink="http://www.w3.org/1999/xlink" x="0px" y="0px"
	 viewBox="0 0 512 512" style="enable-background:new 0 0 512 512;" xml:space="preserve">
<path style="fill:#FFE17D;" d="M256,40c-98.311,0-179.365,64.653-190.656,148.018c-0.674,4.98,4.673,8.692,8.975,6.096
	C84.469,187.993,101.147,184,120.001,184c23.754,0,44.053,6.338,52.193,15.284c2.185,2.401,5.789,2.926,8.251,0.809
	C191.339,190.722,221.053,184,256,184s64.662,6.723,75.557,16.093c2.461,2.117,6.066,1.592,8.251-0.809
	C347.947,190.338,368.246,184,392,184c18.854,0,35.532,3.993,45.68,10.114c4.303,2.595,9.65-1.117,8.975-6.096
	C435.365,104.652,354.311,40,256,40z"/>
<path style="fill:#867E88;" d="M312,440c-4.422,0-8,3.582-8,8v28c0,11.027-8.969,20-20,20s-20-8.973-20-20V56h-16v420
	c0,19.852,16.148,36,36,36s36-16.148,36-36v-28C320,443.582,316.422,440,312,440z"/>
<path style="fill:#6F6571;" d="M248.001,200.2c2.637-0.085,5.221-0.201,8-0.201s5.363,0.116,8,0.201V56h-16V200.2z"/>
<path style="fill:#C9C6CA;" d="M256,0c-4.422,0-8,3.582-8,8v48h16V8C264,3.582,260.422,0,256,0z"/>
<path style="fill:#FFC350;" d="M65.345,188.017c-0.675,4.979,4.672,8.691,8.975,6.096C84.469,187.993,101.147,184,120.001,184
	c23.754,0,44.053,6.338,52.193,15.284c2.185,2.401,5.79,2.926,8.25,0.809C191.339,190.722,221.053,184,256,184V40
	C157.689,40,76.636,104.652,65.345,188.017z"/>
<path style="fill:#FFD164;" d="M256,40c-43.116,0-78.168,71.681-79.84,161.365c1.5,0.183,3.038-0.201,4.284-1.273
	C191.339,190.722,221.053,184,256,184s64.662,6.723,75.557,16.093c1.246,1.072,2.784,1.456,4.284,1.273
	C334.168,111.681,299.116,40,256,40z"/>
<g>
</g>
<g>
</g>
<g>
</g>
<g>
</g>
<g>
</g>
<g>
</g>
<g>
</g>
<g>
</g>
<g>
</g>
<g>
</g>
<g>
</g>
<g>
</g>
<g>
</g>
<g>
</g>
<g>
</g>
</svg>
