<?xml version="1.0" encoding="iso-8859-1"?>

<svg version="1.1" id="Capa_1" xmlns="http://www.w3.org/2000/svg" xmlns:xlink="http://www.w3.org/1999/xlink" x="0px" y="0px"
	 viewBox="0 0 512 512" style="enable-background:new 0 0 512 512;" xml:space="preserve">
<path style="fill:#EDEBED;" d="M503.172,454.356c-164.781-12.26-329.562-12.26-494.343,0c-5.197,0.387-9.4-4.042-8.765-9.214
	c15.471-126.095,15.471-252.189,0-378.284c-0.635-5.172,3.568-9.601,8.765-9.214c164.781,12.26,329.562,12.26,494.343,0
	c5.197-0.387,9.4,4.042,8.765,9.214c-15.471,126.095-15.471,252.189,0,378.284C512.572,450.314,508.369,454.743,503.172,454.356z"/>
<path style="fill:#DBD9DC;" d="M239.485,379.871c-91.216,0-165.161-73.945-165.161-165.161V61.838
	c-21.829-1.194-43.658-2.57-65.487-4.194c-5.2-0.387-9.406,4.043-8.771,9.218c15.47,126.091,15.471,252.182,0,378.272
	c-0.635,5.176,3.571,9.608,8.771,9.221c164.776-12.259,329.553-12.259,494.329,0c5.206,0.387,9.406-4.051,8.77-9.232
	c-2.668-21.751-4.705-43.501-6.453-65.252L239.485,379.871L239.485,379.871z"/>
<g>
	<path style="fill:#FF8087;" d="M437.678,396.387H74.324c-9.122,0-16.516-7.395-16.516-16.516V214.71
		c0-9.122,7.395-16.516,16.516-16.516h363.355c9.122,0,16.516,7.395,16.516,16.516v165.161
		C454.195,388.993,446.8,396.387,437.678,396.387z"/>
	<circle style="fill:#FF8087;" cx="429.421" cy="123.87" r="24.774"/>
</g>
<g>
	<path style="fill:#FFFFFF;" d="M371.614,272.516h-16.516c-4.561,0-8.258-3.697-8.258-8.258V256c0-4.561,3.697-8.258,8.258-8.258
		h16.516c4.561,0,8.258,3.697,8.258,8.258v8.258C379.872,268.819,376.175,272.516,371.614,272.516z"/>
	<path style="fill:#FFFFFF;" d="M421.162,272.516h-16.516c-4.561,0-8.258-3.697-8.258-8.258V256c0-4.561,3.697-8.258,8.258-8.258
		h16.516c4.561,0,8.258,3.697,8.258,8.258v8.258C429.42,268.819,425.723,272.516,421.162,272.516z"/>
</g>
<path style="fill:#E6646E;" d="M74.324,214.71v-16.516c-9.121,0-16.516,7.394-16.516,16.516v165.161
	c0,9.122,7.395,16.516,16.516,16.516h363.355c9.121,0,16.516-7.395,16.516-16.516h-214.71
	C148.269,379.871,74.324,305.926,74.324,214.71z"/>
<g>
	<path style="fill:#FFFFFF;" d="M239.485,309.677H99.098c-4.561,0-8.258-3.697-8.258-8.258v-8.258c0-4.561,3.697-8.258,8.258-8.258
		h140.387c4.561,0,8.258,3.697,8.258,8.258v8.258C247.743,305.98,244.046,309.677,239.485,309.677z"/>
	<path style="fill:#FFFFFF;" d="M239.485,272.516H99.098c-4.561,0-8.258-3.697-8.258-8.258V256c0-4.561,3.697-8.258,8.258-8.258
		h140.387c4.561,0,8.258,3.697,8.258,8.258v8.258C247.743,268.819,244.046,272.516,239.485,272.516z"/>
	<path style="fill:#FFFFFF;" d="M239.485,346.839H99.098c-4.561,0-8.258-3.697-8.258-8.258v-8.258c0-4.561,3.697-8.258,8.258-8.258
		h140.387c4.561,0,8.258,3.697,8.258,8.258v8.258C247.743,343.141,244.046,346.839,239.485,346.839z"/>
</g>
<g>
	<path style="fill:#EDEBED;" d="M99.098,309.677h5.396c-4.619-6.553-8.728-13.465-12.37-20.672
		c-0.742,1.239-1.284,2.607-1.284,4.156v8.258C90.84,305.98,94.537,309.677,99.098,309.677z"/>
	<path style="fill:#EDEBED;" d="M90.84,330.323v8.258c0,4.56,3.697,8.258,8.258,8.258h41.591
		c-9.731-7.288-18.661-15.556-26.563-24.774H99.098C94.537,322.065,90.84,325.762,90.84,330.323z"/>
</g>
<g>
</g>
<g>
</g>
<g>
</g>
<g>
</g>
<g>
</g>
<g>
</g>
<g>
</g>
<g>
</g>
<g>
</g>
<g>
</g>
<g>
</g>
<g>
</g>
<g>
</g>
<g>
</g>
<g>
</g>
</svg>
