<?xml version="1.0" encoding="iso-8859-1"?>

<svg version="1.1" id="Capa_1" xmlns="http://www.w3.org/2000/svg" xmlns:xlink="http://www.w3.org/1999/xlink" x="0px" y="0px"
	 viewBox="0 0 512 512" style="enable-background:new 0 0 512 512;" xml:space="preserve">
<path style="fill:#AEA8AF;" d="M503.873,341.331H97.524v16.254h406.349c4.492,0,8.127-3.639,8.127-8.127
	S508.365,341.331,503.873,341.331z"/>
<circle style="fill:#5D5360;" cx="154.41" cy="471.368" r="24.381"/>
<path style="fill:#AEA8AF;" d="M146.286,414.474v56.889c0,4.488,3.635,8.127,8.127,8.127s8.127-3.639,8.127-8.127v-56.889H146.286z"
	/>
<circle style="fill:#5D5360;" cx="446.98" cy="471.368" r="24.381"/>
<path style="fill:#AEA8AF;" d="M438.857,414.474v56.889c0,4.488,3.635,8.127,8.127,8.127s8.127-3.639,8.127-8.127v-56.889H438.857z"
	/>
<path style="fill:#C0BCC1;" d="M471.365,422.601H129.968c-22.365,0-40.595-18.194-40.635-40.556l-0.516-252.119
	c-0.024-8.639-3.405-16.774-9.524-22.889L55.206,82.95c-3.175-3.175-3.175-8.317,0-11.492c3.175-3.175,8.317-3.175,11.492,0
	l24.087,24.087c9.175,9.175,14.246,21.369,14.286,34.341l0.516,252.127c0.024,13.417,10.96,24.333,24.381,24.333h341.397
	c4.492,0,8.127,3.639,8.127,8.127S475.857,422.601,471.365,422.601z"/>
<path style="fill:#867E88;" d="M49.459,88.698L4.761,43.999c-6.348-6.348-6.348-16.639,0-22.987l0,0
	c6.348-6.348,16.639-6.348,22.987,0L72.446,65.71c6.348,6.348,6.348,16.639,0,22.987l0,0C66.098,95.045,55.807,95.045,49.459,88.698
	z"/>
<path style="fill:#9C969E;" d="M27.747,21.012c-0.415-0.415-0.887-0.729-1.334-1.09c-0.447,0.361-0.919,0.675-1.334,1.09l0,0
	c-6.347,6.348-6.347,16.639,0,22.987l44.699,44.698c0.415,0.415,0.887,0.729,1.334,1.09c0.447-0.361,0.919-0.675,1.334-1.09l0,0
	c6.347-6.347,6.347-16.639,0-22.987L27.747,21.012z"/>
<path style="fill:#FFE17D;" d="M495.746,341.331H138.159c-4.488,0-8.127-3.639-8.127-8.127v-56.889c0-4.488,3.639-8.127,8.127-8.127
	h357.587c4.488,0,8.127,3.639,8.127,8.127v56.889C503.873,337.693,500.234,341.331,495.746,341.331z"/>
<path style="fill:#FFD164;" d="M170.667,325.077c-13.465,0-24.381-10.916-24.381-24.381v-32.508h-8.127
	c-4.488,0-8.127,3.639-8.127,8.127v56.889c0,4.488,3.639,8.127,8.127,8.127h357.587c4.488,0,8.127-3.639,8.127-8.127v-8.127H170.667
	z"/>
<path style="fill:#FFE17D;" d="M479.492,203.173H154.413c-4.488,0-8.127-3.639-8.127-8.127v-48.762c0-4.488,3.639-8.127,8.127-8.127
	h325.079c4.488,0,8.127,3.639,8.127,8.127v48.762C487.619,199.534,483.98,203.173,479.492,203.173z"/>
<path style="fill:#FFD164;" d="M186.921,186.919c-13.465,0-24.381-10.916-24.381-24.381v-24.381h-8.127
	c-4.488,0-8.127,3.639-8.127,8.127v48.762c0,4.488,3.639,8.127,8.127,8.127h325.079c4.488,0,8.127-3.639,8.127-8.127v-8.127H186.921
	z"/>
<path style="fill:#FF8087;" d="M463.238,268.188h-349.46c-4.488,0-8.127-3.639-8.127-8.127v-48.762c0-4.488,3.639-8.127,8.127-8.127
	h349.46c4.488,0,8.127,3.639,8.127,8.127v48.762C471.365,264.55,467.727,268.188,463.238,268.188z"/>
<path style="fill:#E6646E;" d="M146.286,251.935c-13.465,0-24.381-10.916-24.381-24.381v-24.381h-8.127
	c-4.488,0-8.127,3.639-8.127,8.127v48.762c0,4.488,3.639,8.127,8.127,8.127h349.46c4.488,0,8.127-3.639,8.127-8.127v-8.127H146.286z
	"/>
<g>
</g>
<g>
</g>
<g>
</g>
<g>
</g>
<g>
</g>
<g>
</g>
<g>
</g>
<g>
</g>
<g>
</g>
<g>
</g>
<g>
</g>
<g>
</g>
<g>
</g>
<g>
</g>
<g>
</g>
</svg>
