<?xml version="1.0" encoding="iso-8859-1"?>

<svg version="1.1" id="Capa_1" xmlns="http://www.w3.org/2000/svg" xmlns:xlink="http://www.w3.org/1999/xlink" x="0px" y="0px"
	 viewBox="0 0 512 512" style="enable-background:new 0 0 512 512;" xml:space="preserve">
<path style="fill:#AEA8AF;" d="M371.618,314.394H24.775C11.092,314.394,0,303.302,0,289.62V58.39
	c0-13.683,11.092-24.775,24.775-24.775h346.844c13.683,0,24.775,11.092,24.775,24.775v231.23
	C396.393,303.302,385.301,314.394,371.618,314.394z"/>
<path style="fill:#9C969E;" d="M24.775,124.456v-90.84C11.092,33.616,0,44.708,0,58.39v231.23c0,13.683,11.092,24.775,24.775,24.775
	h346.844c13.683,0,24.775-11.092,24.775-24.775H189.938C98.721,289.62,24.775,215.673,24.775,124.456z"/>
<path style="fill:#FFD164;" d="M99.098,174.005H66.065c-9.122,0-16.516-7.395-16.516-16.516v-16.516
	c0-9.122,7.395-16.516,16.516-16.516h33.033c9.122,0,16.516,7.395,16.516,16.516v16.516
	C115.615,166.61,108.22,174.005,99.098,174.005z"/>
<g>
	<path style="fill:#DBD9DC;" d="M99.098,223.554H49.549c-4.565,0-8.258-3.698-8.258-8.258s3.694-8.258,8.258-8.258h49.549
		c4.565,0,8.258,3.698,8.258,8.258S103.663,223.554,99.098,223.554z"/>
	<path style="fill:#DBD9DC;" d="M181.68,223.554h-49.549c-4.565,0-8.258-3.698-8.258-8.258s3.694-8.258,8.258-8.258h49.549
		c4.565,0,8.258,3.698,8.258,8.258S186.245,223.554,181.68,223.554z"/>
	<path style="fill:#DBD9DC;" d="M214.713,264.845H49.549c-4.565,0-8.258-3.698-8.258-8.258s3.694-8.258,8.258-8.258h165.164
		c4.565,0,8.258,3.698,8.258,8.258S219.277,264.845,214.713,264.845z"/>
	<path style="fill:#DBD9DC;" d="M264.262,223.554h-49.549c-4.565,0-8.258-3.698-8.258-8.258s3.694-8.258,8.258-8.258h49.549
		c4.565,0,8.258,3.698,8.258,8.258S268.827,223.554,264.262,223.554z"/>
	<path style="fill:#DBD9DC;" d="M346.844,223.554h-49.549c-4.565,0-8.258-3.698-8.258-8.258s3.694-8.258,8.258-8.258h49.549
		c4.565,0,8.258,3.698,8.258,8.258S351.408,223.554,346.844,223.554z"/>
</g>
<circle style="fill:#FFE17D;" cx="313.81" cy="116.2" r="33.03"/>
<circle style="fill:#E6646E;" cx="247.75" cy="116.2" r="33.03"/>
<path style="fill:#EDEBED;" d="M506.007,279.673l-105.073-30.046c-2.968-0.849-6.114-0.849-9.082,0L286.78,279.673
	c-3.569,1.021-6.034,4.245-5.992,7.957c0.3,26.541,8.248,130.997,111.481,189.661c2.503,1.422,5.678,1.461,8.212,0.096
	C503.96,421.644,511.73,314.547,512,287.622C512.037,283.911,509.575,280.693,506.007,279.673z"/>
<path style="fill:#DBD9DC;" d="M391.852,249.627L286.78,279.672c-3.567,1.02-6.034,4.249-5.993,7.958
	c0.3,26.543,8.25,130.996,111.481,189.66c1.26,0.716,2.691,1.078,4.124,1.09V248.991
	C394.864,248.991,393.336,249.203,391.852,249.627z"/>
<path style="fill:#FFD164;" d="M477.114,299.238l-75.805-21.676c-3.214-0.919-6.621-0.919-9.835,0l-75.768,21.666
	c-4.347,1.243-7.094,5.484-6.401,9.951c5.556,35.823,23.773,93.844,82.343,135.225c3.038,2.147,7.231,2.184,10.3,0.082
	c58.152-39.844,76.115-98.964,81.572-135.334C484.188,304.695,481.446,300.476,477.114,299.238z"/>
<path style="fill:#FFE17D;" d="M396.927,426.109c-44.483-33.659-61.974-77.846-68.589-111.891l68.053-19.46l68.136,19.483
	C458.022,348.994,440.798,393.694,396.927,426.109z"/>
<rect x="74.32" y="124.46" style="fill:#FFC350;" width="16.516" height="49.549"/>
<g>
</g>
<g>
</g>
<g>
</g>
<g>
</g>
<g>
</g>
<g>
</g>
<g>
</g>
<g>
</g>
<g>
</g>
<g>
</g>
<g>
</g>
<g>
</g>
<g>
</g>
<g>
</g>
<g>
</g>
</svg>
