<?xml version="1.0" encoding="iso-8859-1"?>

<svg version="1.1" id="Capa_1" xmlns="http://www.w3.org/2000/svg" xmlns:xlink="http://www.w3.org/1999/xlink" x="0px" y="0px"
	 viewBox="0 0 512 512" style="enable-background:new 0 0 512 512;" xml:space="preserve">
<path style="fill:#C0BCC1;" d="M384.691,256.592v-16.516H308.32l5.458-65.384l-16.452-1.371l-5.573,66.755h-77.041v-66.07h-16.516
	v66.07h-77.041l-5.573-66.755l-16.452,1.371l5.458,65.384h-76.37v16.516h77.749l4.136,49.545H41.291v16.516h70.191l4.883,58.493
	l16.452-1.371l-4.768-57.122h70.148v57.807h16.516v-57.807h70.148l-4.768,57.122l16.452,1.371l4.883-58.493h70.191v-16.516h-68.812
	l4.136-49.545H384.691z M126.669,306.137l-4.136-49.545h75.663v49.545H126.669z M286.24,306.137h-71.527v-49.545h75.663
	L286.24,306.137z"/>
<path style="fill:#C9C6CA;" d="M388.24,172.7l-29.694,185.599c-1.29,8.057-8.145,13.903-16.307,13.903H70.678
	c-8.161,0-15.024-5.851-16.315-13.907L24.67,172.7l-16.307,2.613l29.694,185.595c2.581,16.117,16.307,27.811,32.621,27.811h271.56
	c16.323,0,30.041-11.698,32.613-27.811l29.694-185.595L388.24,172.7z"/>
<path style="fill:#EDEBED;" d="M506.007,312.707l-105.073-30.046c-2.968-0.849-6.114-0.849-9.082,0L286.78,312.706
	c-3.569,1.021-6.034,4.245-5.992,7.957c0.3,26.541,8.248,130.997,111.481,189.661c2.503,1.422,5.678,1.461,8.212,0.096
	C503.96,454.678,511.73,347.58,512,320.656C512.037,316.944,509.575,313.727,506.007,312.707z"/>
<path style="fill:#DBD9DC;" d="M391.852,282.661L286.78,312.706c-3.567,1.02-6.034,4.249-5.993,7.958
	c0.3,26.543,8.25,130.996,111.481,189.66c1.26,0.716,2.691,1.078,4.124,1.09v-229.39
	C394.864,282.024,393.336,282.237,391.852,282.661z"/>
<path style="fill:#FFD164;" d="M477.114,332.271l-75.805-21.676c-3.214-0.919-6.621-0.919-9.835,0l-75.768,21.666
	c-4.347,1.243-7.094,5.484-6.401,9.951c5.556,35.823,23.773,93.844,82.343,135.225c3.038,2.147,7.231,2.184,10.3,0.082
	c58.152-39.844,76.115-98.964,81.572-135.334C484.188,337.728,481.446,333.51,477.114,332.271z"/>
<path style="fill:#E6646E;" d="M396.393,182.264H16.516C7.395,182.264,0,174.87,0,165.747l0,0c0-9.122,7.395-16.516,16.516-16.516
	h379.877c9.122,0,16.516,7.395,16.516,16.516l0,0C412.909,174.87,405.515,182.264,396.393,182.264z"/>
<path style="fill:#FFE17D;" d="M112.351,172.374L112.351,172.374c8.16,4.077,18.08,0.768,22.157-7.392l70.201-140.496
	c4.077-8.16,0.768-18.08-7.392-22.157l0,0c-8.16-4.077-18.08-0.768-22.157,7.392l-70.201,140.496
	C100.881,158.378,104.191,168.298,112.351,172.374z"/>
<path style="fill:#FFD164;" d="M121.475,150.217L191.676,9.722c1.493-2.988,3.779-5.308,6.466-6.871
	c-0.285-0.164-0.527-0.373-0.825-0.522c-8.16-4.077-18.08-0.767-22.157,7.392l-70.201,140.497c-4.077,8.16-0.768,18.08,7.392,22.157
	c5.172,2.584,11.041,2.183,15.691-0.522C120.524,167.523,117.547,158.081,121.475,150.217z"/>
<path style="fill:#FFE17D;" d="M215.592,2.329L215.592,2.329c8.16-4.077,18.08-0.768,22.157,7.392l70.201,140.496
	c4.077,8.16,0.768,18.08-7.392,22.157l0,0c-8.16,4.077-18.08,0.768-22.157-7.392L208.2,24.486
	C204.123,16.327,207.432,6.407,215.592,2.329z"/>
<path style="fill:#FFD164;" d="M224.716,24.487l70.201,140.497c1.493,2.988,3.779,5.308,6.466,6.871
	c-0.285,0.164-0.527,0.373-0.825,0.522c-8.16,4.077-18.08,0.767-22.157-7.392L208.2,24.487c-4.077-8.16-0.768-18.08,7.392-22.157
	c5.172-2.584,11.041-2.183,15.691,0.522C223.766,7.181,220.788,16.624,224.716,24.487z"/>
<g>
	<path style="fill:#FF8087;" d="M388.135,149.232H325.12c0.724,2.761,1.043,5.556,1.01,8.327c-0.055,4.597,4.037,8.189,8.635,8.189
		h53.37c4.561,0,8.258-3.698,8.258-8.258C396.393,152.928,392.696,149.232,388.135,149.232z"/>
	<path style="fill:#FF8087;" d="M165.947,165.747h81.015c6.138,0,10.131-6.458,7.387-11.949l-2.282-4.567h-91.226l-2.282,4.567
		C155.817,159.288,159.809,165.747,165.947,165.747z"/>
	<path style="fill:#FF8087;" d="M87.79,149.232H24.775c-4.561,0-8.258,3.697-8.258,8.258c0,4.561,3.697,8.258,8.258,8.258h53.37
		c4.598,0,8.69-3.592,8.635-8.189C86.747,154.786,87.066,151.993,87.79,149.232z"/>
</g>
<path style="fill:#FFE17D;" d="M396.927,459.142c-44.483-33.659-61.974-77.846-68.589-111.891l68.053-19.46l68.136,19.483
	C458.022,382.028,440.798,426.727,396.927,459.142z"/>
<g>
</g>
<g>
</g>
<g>
</g>
<g>
</g>
<g>
</g>
<g>
</g>
<g>
</g>
<g>
</g>
<g>
</g>
<g>
</g>
<g>
</g>
<g>
</g>
<g>
</g>
<g>
</g>
<g>
</g>
</svg>
