<?xml version="1.0" encoding="iso-8859-1"?>

<svg version="1.1" id="Capa_1" xmlns="http://www.w3.org/2000/svg" xmlns:xlink="http://www.w3.org/1999/xlink" x="0px" y="0px"
	 viewBox="0 0 512 512" style="enable-background:new 0 0 512 512;" xml:space="preserve">
<path style="fill:#FFE17D;" d="M251.72,0.083c-54.9,2.134-100.42,47.3-102.956,102.183c-2.135,46.19,24.953,86.282,64.335,103.472
	c5.993,2.616,9.869,8.513,9.869,15.052v282.937c0,6.805,7.769,10.69,13.213,6.606l46.245-34.684
	c4.159-3.119,6.606-8.014,6.606-13.213v-24.759l-8.258-16.531l8.258-16.501l-8.258-16.516l8.258-16.516v-16.516l-8.258-16.516
	l8.259-16.52V220.789c0-6.529,3.857-12.431,9.842-15.041c37.943-16.548,64.48-54.353,64.48-98.393
	C363.356,46.644,312.961-2.296,251.72,0.083z M255.797,90.839c-13.682,0-24.774-11.092-24.774-24.774s11.092-24.774,24.774-24.774
	c13.682,0,24.774,11.092,24.774,24.774S269.479,90.839,255.797,90.839z"/>
<path style="fill:#FFC350;" d="M255.999,454.194c-4.565,0-8.258-3.698-8.258-8.258V256c0-4.56,3.694-8.258,8.258-8.258
	c4.564,0,8.258,3.698,8.258,8.258v189.936C264.257,450.496,260.563,454.194,255.999,454.194z"/>
<g>
	<path style="fill:#FFD164;" d="M255.797,16.516c-50.169,0-90.839,40.67-90.839,90.839s40.67,90.839,90.839,90.839
		s90.839-40.67,90.839-90.839S305.966,16.516,255.797,16.516z M255.797,90.839c-13.682,0-24.774-11.092-24.774-24.774
		s11.092-24.774,24.774-24.774c13.682,0,24.774,11.092,24.774,24.774S269.479,90.839,255.797,90.839z"/>
	<path style="fill:#FFD164;" d="M247.539,245.565c0-13.613-10.984-24.642-24.571-24.754v282.916c0,6.805,7.769,10.69,13.213,6.606
		l11.357-8.518v-256.25H247.539z"/>
</g>
<g>
</g>
<g>
</g>
<g>
</g>
<g>
</g>
<g>
</g>
<g>
</g>
<g>
</g>
<g>
</g>
<g>
</g>
<g>
</g>
<g>
</g>
<g>
</g>
<g>
</g>
<g>
</g>
<g>
</g>
</svg>
