<?xml version="1.0" encoding="iso-8859-1"?>

<svg version="1.1" id="Capa_1" xmlns="http://www.w3.org/2000/svg" xmlns:xlink="http://www.w3.org/1999/xlink" x="0px" y="0px"
	 viewBox="0 0 512.004 512.004" style="enable-background:new 0 0 512.004 512.004;" xml:space="preserve">
<path style="fill:#FFE17D;" d="M384.038,43.563c-1.889-13.383-8.869-25.229-19.66-33.363c-10.798-8.138-24.086-11.589-37.493-9.691
	c-13.375,1.885-25.225,8.865-33.351,19.656c-13.055,17.324-27.938,62.967-37.532,95.81c-9.594-32.843-24.477-78.486-37.533-95.811
	c-8.126-10.79-19.976-17.77-33.351-19.656c-13.415-1.889-26.703,1.565-37.493,9.691c-10.79,8.134-17.77,19.98-19.66,33.363
	c-1.881,13.383,1.565,26.695,9.699,37.489c20.118,26.703,103.752,76.172,113.222,81.725c1.581,0.933,3.352,1.391,5.114,1.391
	c1.752,0,3.451-0.572,5.009-1.471l0.106,0.08c9.47-5.553,93.104-55.022,113.222-81.725
	C382.473,70.258,385.919,56.946,384.038,43.563z M153.823,68.87c-4.877-6.474-6.941-14.462-5.81-22.489
	c1.122-8.027,5.312-15.138,11.786-20.015c5.32-4.008,11.66-6.118,18.205-6.118c1.423,0,2.862,0.103,4.292,0.304
	c8.031,1.126,15.138,5.316,20.015,11.79v0.004c11.683,15.509,27.517,65.504,37.295,99.942
	C209.205,113.391,165.514,84.392,153.823,68.87z M358.181,68.87c-11.691,15.513-55.382,44.517-85.784,63.417
	c9.778-34.434,25.604-84.424,37.295-99.942v-0.004c4.877-6.474,11.984-10.664,20.015-11.79c1.439-0.206,2.87-0.304,4.292-0.304
	c6.545,0,12.885,2.111,18.205,6.118c6.474,4.877,10.664,11.988,11.786,20.015C365.121,54.408,363.058,62.396,358.181,68.87z"/>
<path style="fill:#E6646E;" d="M434.084,155.836H77.92c-4.471,0-8.095,3.624-8.095,8.095v68.804c0,2.235,1.812,4.047,4.047,4.047
	h4.047v267.123c0,4.47,3.624,8.095,8.095,8.095h339.975c4.471,0,8.095-3.624,8.095-8.095V236.782h4.047
	c2.235,0,4.047-1.812,4.047-4.047v-68.804C442.179,159.46,438.555,155.836,434.084,155.836z"/>
<path style="fill:#DC4655;" d="M434.084,252.972v-16.189H77.92v267.123c0,4.471,3.624,8.095,8.095,8.095H425.99
	c4.471,0,8.095-3.624,8.095-8.095v-16.189H231.718c-71.529,0-129.514-57.985-129.514-129.514v-97.136
	c0-4.471,3.624-8.095,8.095-8.095L434.084,252.972L434.084,252.972z"/>
<path style="fill:#FFD164;" d="M383.374,107.181c-1.81-1.316-44.655-31.987-85.239-18.561
	c-17.638,5.831-31.729,18.864-42.133,38.765c-10.404-19.901-24.495-32.933-42.133-38.765
	c-40.544-13.399-83.428,17.249-85.239,18.561c-4.522,3.284-5.518,9.612-2.229,14.134c3.273,4.514,9.612,5.522,14.134,2.229
	c0.364-0.261,36.149-25.9,66.978-15.711c17.335,5.731,30.402,22.296,38.829,49.24l0.179-0.056c0.961,3.052,3.175,5.661,6.461,6.688
	c1.004,0.316,2.024,0.466,3.02,0.466c4.308,0,8.3-2.775,9.66-7.099c8.419-26.904,21.454-43.465,38.758-49.216
	c30.663-10.197,66.71,15.442,67.065,15.699c4.522,3.277,10.838,2.273,14.118-2.241C388.892,116.794,387.895,110.466,383.374,107.181
	z"/>
<rect x="239.812" y="155.84" style="fill:#FFE17D;" width="32.379" height="356.16"/>
<rect x="239.812" y="487.72" style="fill:#FFD164;" width="32.379" height="24.284"/>
<g>
</g>
<g>
</g>
<g>
</g>
<g>
</g>
<g>
</g>
<g>
</g>
<g>
</g>
<g>
</g>
<g>
</g>
<g>
</g>
<g>
</g>
<g>
</g>
<g>
</g>
<g>
</g>
<g>
</g>
</svg>
