<?xml version="1.0" encoding="iso-8859-1"?>

<svg version="1.1" id="Capa_1" xmlns="http://www.w3.org/2000/svg" xmlns:xlink="http://www.w3.org/1999/xlink" x="0px" y="0px"
	 viewBox="0 0 511.999 511.999" style="enable-background:new 0 0 511.999 511.999;" xml:space="preserve">
<path style="fill:#9C969E;" d="M404.645,33.032h-297.29c-18.243,0-33.032,14.789-33.032,33.032v412.903
	c0,18.243,14.789,33.032,33.032,33.032h297.29c18.243,0,33.032-14.789,33.032-33.032V66.065
	C437.677,47.821,422.889,33.032,404.645,33.032z"/>
<path style="fill:#867E88;" d="M396.428,462.452H115.654c-13.682,0-24.774-11.092-24.774-24.774V74.323
	c0-13.682,11.092-24.774,24.774-24.774h280.774c13.682,0,24.774,11.092,24.774,24.774v363.355
	C421.203,451.36,410.111,462.452,396.428,462.452z"/>
<path style="fill:#FFFFFF;" d="M396.428,445.935H115.654c-4.561,0-8.258-3.697-8.258-8.258V74.323c0-4.561,3.697-8.258,8.258-8.258
	h280.774c4.561,0,8.258,3.697,8.258,8.258v363.355C404.686,442.238,400.989,445.935,396.428,445.935z"/>
<circle style="fill:#E6646E;" cx="181.68" cy="148.65" r="20.645"/>
<path style="fill:#5D5360;" d="M346.84,140.387H231.227c-4.565,0-8.258-3.698-8.258-8.258s3.694-8.258,8.258-8.258H346.84
	c4.565,0,8.258,3.698,8.258,8.258C355.098,136.69,351.404,140.387,346.84,140.387z"/>
<path style="fill:#867E88;" d="M239.485,173.419h-8.258c-4.565,0-8.258-3.698-8.258-8.258s3.694-8.258,8.258-8.258h8.258
	c4.565,0,8.258,3.698,8.258,8.258S244.049,173.419,239.485,173.419z"/>
<path style="fill:#9C969E;" d="M305.549,173.419h-33.032c-4.565,0-8.258-3.698-8.258-8.258s3.694-8.258,8.258-8.258h33.032
	c4.565,0,8.258,3.698,8.258,8.258S310.114,173.419,305.549,173.419z"/>
<circle style="fill:#E6646E;" cx="181.68" cy="222.97" r="20.645"/>
<path style="fill:#5D5360;" d="M346.84,214.71H231.227c-4.565,0-8.258-3.698-8.258-8.258s3.694-8.258,8.258-8.258H346.84
	c4.565,0,8.258,3.698,8.258,8.258S351.404,214.71,346.84,214.71z"/>
<path style="fill:#867E88;" d="M239.485,247.742h-8.258c-4.565,0-8.258-3.698-8.258-8.258s3.694-8.258,8.258-8.258h8.258
	c4.565,0,8.258,3.698,8.258,8.258S244.049,247.742,239.485,247.742z"/>
<path style="fill:#9C969E;" d="M305.549,247.742h-33.032c-4.565,0-8.258-3.698-8.258-8.258s3.694-8.258,8.258-8.258h33.032
	c4.565,0,8.258,3.698,8.258,8.258S310.114,247.742,305.549,247.742z"/>
<circle style="fill:#FFD164;" cx="181.68" cy="297.29" r="20.645"/>
<path style="fill:#5D5360;" d="M346.84,289.032H231.227c-4.565,0-8.258-3.698-8.258-8.258s3.694-8.258,8.258-8.258H346.84
	c4.565,0,8.258,3.698,8.258,8.258S351.404,289.032,346.84,289.032z"/>
<path style="fill:#867E88;" d="M239.485,322.065h-8.258c-4.565,0-8.258-3.698-8.258-8.258s3.694-8.258,8.258-8.258h8.258
	c4.565,0,8.258,3.698,8.258,8.258S244.049,322.065,239.485,322.065z"/>
<path style="fill:#9C969E;" d="M305.549,322.065h-33.032c-4.565,0-8.258-3.698-8.258-8.258s3.694-8.258,8.258-8.258h33.032
	c4.565,0,8.258,3.698,8.258,8.258S310.114,322.065,305.549,322.065z"/>
<circle style="fill:#C9C6CA;" cx="181.68" cy="371.61" r="20.645"/>
<path style="fill:#5D5360;" d="M346.84,363.355H231.227c-4.565,0-8.258-3.698-8.258-8.258s3.694-8.258,8.258-8.258H346.84
	c4.565,0,8.258,3.698,8.258,8.258S351.404,363.355,346.84,363.355z"/>
<path style="fill:#867E88;" d="M239.485,396.387h-8.258c-4.565,0-8.258-3.698-8.258-8.258s3.694-8.258,8.258-8.258h8.258
	c4.565,0,8.258,3.698,8.258,8.258S244.049,396.387,239.485,396.387z"/>
<path style="fill:#9C969E;" d="M305.549,396.387h-33.032c-4.565,0-8.258-3.698-8.258-8.258s3.694-8.258,8.258-8.258h33.032
	c4.565,0,8.258,3.698,8.258,8.258S310.114,396.387,305.549,396.387z"/>
<path style="fill:#DBD9DC;" d="M256,0c-50.169,0-90.839,8.896-90.839,19.871v46.194c0,4.56,3.697,8.258,8.258,8.258H338.58
	c4.561,0,8.258-3.698,8.258-8.258V19.871C346.839,8.896,306.169,0,256,0z M256.04,33.032c-4.561,0-8.258-3.698-8.258-8.258
	c0-4.561,3.697-8.258,8.258-8.258c4.561,0,8.258,3.697,8.258,8.258C264.299,29.335,260.602,33.032,256.04,33.032z"/>
<path style="fill:#C9C6CA;" d="M338.622,74.323H173.461c-4.561,0-8.258-3.697-8.258-8.258V49.548H346.88v16.516
	C346.88,70.625,343.183,74.323,338.622,74.323z"/>
<g>
</g>
<g>
</g>
<g>
</g>
<g>
</g>
<g>
</g>
<g>
</g>
<g>
</g>
<g>
</g>
<g>
</g>
<g>
</g>
<g>
</g>
<g>
</g>
<g>
</g>
<g>
</g>
<g>
</g>
</svg>
