<?xml version="1.0" encoding="iso-8859-1"?>

<svg version="1.1" id="Capa_1" xmlns="http://www.w3.org/2000/svg" xmlns:xlink="http://www.w3.org/1999/xlink" x="0px" y="0px"
	 viewBox="0 0 512 512" style="enable-background:new 0 0 512 512;" xml:space="preserve">
<circle style="fill:#FFC350;" cx="256" cy="256" r="256"/>
<path style="fill:#E1A546;" d="M165.82,346.18c-84.287-84.287-97.507-212.725-39.67-310.869
	C107.885,46.076,90.667,59.294,74.981,74.98c-99.974,99.976-99.974,262.064,0,362.039s262.064,99.975,362.038,0
	c15.686-15.686,28.904-32.902,39.668-51.166l0.001-0.004C378.544,443.687,250.106,430.468,165.82,346.18z"/>
<path style="fill:#6F6571;" d="M437.019,437.019c1.959-1.959,3.811-3.982,5.692-5.987l-93.139-93.139
	c45.6-42.683,103.496-64.873,161.917-66.575c0.328-5.503,0.508-11.009,0.482-16.52c-62.816,1.602-125.126,25.408-174.076,71.418
	L267.679,256L442.711,80.968c-1.881-2.005-3.733-4.028-5.692-5.987c-1.959-1.959-3.982-3.811-5.987-5.692L256,244.321
	l-70.216-70.216c46.009-48.951,69.815-111.262,71.417-174.077c-5.51-0.025-11.017,0.154-16.519,0.483
	c-1.702,58.421-23.893,116.317-66.576,161.917L80.968,69.289c-2.005,1.881-4.028,3.733-5.987,5.692s-3.81,3.982-5.692,5.987
	l93.139,93.139c-45.6,42.683-103.496,64.874-161.917,66.576c-0.328,5.503-0.508,11.009-0.483,16.519
	c62.816-1.602,125.126-25.408,174.077-71.417L244.321,256L69.289,431.032c1.881,2.005,3.733,4.028,5.692,5.987
	s3.982,3.811,5.987,5.692L256,267.679l70.216,70.216c-46.01,48.951-69.815,111.261-71.418,174.076
	c5.511,0.026,11.017-0.154,16.52-0.482c1.701-58.421,23.892-116.318,66.575-161.917l93.139,93.139
	C433.038,440.83,435.061,438.978,437.019,437.019z"/>
<g>
	<path style="fill:#5D5360;" d="M102.017,90.338L80.968,69.289c-2.005,1.881-4.028,3.733-5.987,5.692s-3.81,3.982-5.692,5.987
		l27.852,27.852C98.536,102.613,100.154,96.448,102.017,90.338z"/>
	<path style="fill:#5D5360;" d="M96.439,218.389c-30.417,13.905-63.089,21.336-95.928,22.293
		c-0.328,5.503-0.508,11.009-0.483,16.519c34.325-0.875,68.482-8.43,100.408-22.566C98.925,229.256,97.592,223.839,96.439,218.389z"
		/>
	<path style="fill:#5D5360;" d="M80.968,442.711l90.815-90.815c-2.003-1.88-4.007-3.759-5.963-5.715
		c-1.957-1.957-3.835-3.96-5.715-5.963L69.29,431.033c1.881,2.005,3.733,4.028,5.692,5.987S78.963,440.83,80.968,442.711z"/>
	<path style="fill:#5D5360;" d="M437.019,437.019c1.959-1.959,3.811-3.982,5.692-5.987l-21.049-21.049
		c-6.109,1.863-12.275,3.481-18.482,4.875l27.853,27.853C433.038,440.83,435.061,438.978,437.019,437.019z"/>
	<path style="fill:#5D5360;" d="M277.364,411.563c-14.136,31.926-21.69,66.082-22.566,100.408c5.511,0.026,11.017-0.154,16.52-0.482
		c0.957-32.839,8.388-65.513,22.292-95.928C288.161,414.407,282.744,413.075,277.364,411.563z"/>
</g>
<g>
</g>
<g>
</g>
<g>
</g>
<g>
</g>
<g>
</g>
<g>
</g>
<g>
</g>
<g>
</g>
<g>
</g>
<g>
</g>
<g>
</g>
<g>
</g>
<g>
</g>
<g>
</g>
<g>
</g>
</svg>
