<?xml version="1.0" encoding="iso-8859-1"?>

<svg version="1.1" id="Capa_1" xmlns="http://www.w3.org/2000/svg" xmlns:xlink="http://www.w3.org/1999/xlink" x="0px" y="0px"
	 viewBox="0 0 512 512" style="enable-background:new 0 0 512 512;" xml:space="preserve">
<path style="fill:#867E88;" d="M462.452,53.677H49.548c-13.682,0-24.774,11.092-24.774,24.774V425.29h462.452V78.452
	C487.226,64.769,476.134,53.677,462.452,53.677z"/>
<path style="fill:#FFFFFF;" d="M466.581,384H45.419c-2.28,0-4.129-1.849-4.129-4.129V90.839c0-2.28,1.849-4.129,4.129-4.129H466.58
	c2.28,0,4.129,1.849,4.129,4.129v289.032C470.71,382.151,468.861,384,466.581,384z"/>
<path style="fill:#6F6571;" d="M495.484,458.323H16.516C7.395,458.323,0,450.928,0,441.806V425.29c0-4.561,3.697-8.258,8.258-8.258
	h495.484c4.561,0,8.258,3.697,8.258,8.258v16.516C512,450.928,504.605,458.323,495.484,458.323z"/>
<path style="fill:#5D5360;" d="M280.774,433.548h-49.548c-4.565,0-8.258-3.698-8.258-8.258s0-8.258,0-8.258h66.065
	c0,0,0,3.698,0,8.258S285.339,433.548,280.774,433.548z"/>
<path style="fill:#E6646E;" d="M329.538,342.71H182.462c-4.856,0-8.664-4.17-8.224-9.006l15.015-165.161
	c0.387-4.254,3.953-7.51,8.224-7.51h117.046c4.271,0,7.837,3.257,8.224,7.51l15.015,165.161
	C338.202,338.54,334.394,342.71,329.538,342.71z"/>
<path style="fill:#FFE17D;" d="M280.774,194.065c-4.565,0-8.258-3.698-8.258-8.258v-41.29c0-9.109-7.411-16.516-16.516-16.516
	s-16.516,7.407-16.516,16.516v41.29c0,4.56-3.694,8.258-8.258,8.258c-4.565,0-8.258-3.698-8.258-8.258v-41.29
	c0-18.214,14.815-33.032,33.032-33.032s33.032,14.819,33.032,33.032v41.29C289.032,190.367,285.339,194.065,280.774,194.065z"/>
<path style="fill:#DC4655;" d="M265.89,317.935c-33.992,0-60.646-29.188-57.569-63.04l8.533-93.863h-19.378
	c-4.271,0-7.837,3.257-8.224,7.51l-15.015,165.161c-0.44,4.836,3.368,9.006,8.224,9.006h147.075c4.856,0,8.664-4.17,8.224-9.006
	l-1.433-15.768L265.89,317.935L265.89,317.935z"/>
<g>
	<circle style="fill:#FFC350;" cx="231.23" cy="185.81" r="8.258"/>
	<circle style="fill:#FFC350;" cx="280.77" cy="185.81" r="8.258"/>
</g>
<path style="fill:#EDEBED;" d="M222.968,367.484c-91.216,0-165.161-73.945-165.161-165.161V86.71H45.419
	c-2.28,0-4.129,1.849-4.129,4.129v289.032c0,2.28,1.849,4.129,4.129,4.129H466.58c2.28,0,4.129-1.849,4.129-4.129v-12.387H222.968z"
	/>
<path style="fill:#5D5360;" d="M16.516,458.323h478.968c9.121,0,16.516-7.395,16.516-16.516H0
	C0,450.928,7.395,458.323,16.516,458.323z"/>
<g>
</g>
<g>
</g>
<g>
</g>
<g>
</g>
<g>
</g>
<g>
</g>
<g>
</g>
<g>
</g>
<g>
</g>
<g>
</g>
<g>
</g>
<g>
</g>
<g>
</g>
<g>
</g>
<g>
</g>
</svg>
