<?xml version="1.0" encoding="iso-8859-1"?>

<svg version="1.1" id="Capa_1" xmlns="http://www.w3.org/2000/svg" xmlns:xlink="http://www.w3.org/1999/xlink" x="0px" y="0px"
	 viewBox="0 0 512 512" style="enable-background:new 0 0 512 512;" xml:space="preserve">
<g>
	<path style="fill:#1DE8F1;" d="M353.511,332.045c-8.999,11.399-23.998,15.6-37.198,9.299c-14.1-6.599-44.697-10.198-60.296-10.198
		s-46.196,3.6-60.296,10.198c-12.598,6-27.597,2.701-36.297-8.398c-13.499-16.499-6.601-37.198,8.999-44.997
		c23.098-11.099,62.395-16.799,87.593-16.799c25.198,0,64.497,5.7,87.293,16.799C360.109,296.046,365.21,317.646,353.511,332.045z"
		/>
	<path style="fill:#1DE8F1;" d="M429.106,236.951c-10.5,12.899-26.698,15.9-39.597,8.1c-35.097-21.9-91.195-33.598-133.491-33.598
		c-41.998,0-98.095,11.399-133.491,33.598c0,0,0,0-0.3,0c-12.298,7.799-28.797,5.099-38.097-6.601
		c-12.899-16.499-7.799-35.398,6.299-44.096c44.997-28.198,111.894-42.897,165.59-42.897s120.593,14.699,165.59,42.897
		C436.306,203.353,439.605,223.452,429.106,236.951z"/>
	<path style="fill:#1DE8F1;" d="M505.639,142.757c-10.5,13.199-27.597,15.6-40.198,7.2
		c-56.396-38.097-140.129-58.495-209.424-58.495s-152.891,20.098-209.286,58.495h-0.3c-12.3,8.4-29.399,6-38.997-5.7
		c-12.6-15.898-8.1-34.497,5.4-43.796c67.496-45.598,162.489-69.596,243.183-69.596s175.526,23.998,243.021,69.596
		C513.439,110.06,516.137,129.558,505.639,142.757z"/>
</g>
<path style="fill:#17ACE8;" d="M256.017,361.144c-32.997,0-59.996,26.997-59.996,59.996c0,32.997,26.999,59.996,59.996,59.996
	s59.996-26.999,59.996-59.996C316.013,388.14,289.014,361.144,256.017,361.144z"/>
<g>
	<path style="fill:#1BD9DE;" d="M353.511,332.045c-8.999,11.399-23.998,15.6-37.198,9.299c-14.1-6.599-44.697-10.198-60.296-10.198
		V271.15c25.199,0,64.497,5.7,87.293,16.799C360.109,296.046,365.21,317.646,353.511,332.045z"/>
	<path style="fill:#1BD9DE;" d="M429.106,236.951c-10.5,12.899-26.698,15.9-39.597,8.1c-35.097-21.9-91.195-33.598-133.491-33.598
		v-59.996c53.696,0,120.593,14.699,165.59,42.897C436.306,203.353,439.605,223.452,429.106,236.951z"/>
	<path style="fill:#1BD9DE;" d="M505.639,142.757c-10.5,13.199-27.597,15.6-40.198,7.2
		c-56.396-38.097-140.129-58.495-209.424-58.495V30.864c80.695,0,175.526,23.998,243.021,69.596
		C513.439,110.06,516.137,129.558,505.639,142.757z"/>
</g>
<path style="fill:#1689FC;" d="M316.013,421.14c0,32.997-26.999,59.996-59.996,59.996V361.144
	C289.014,361.144,316.013,388.14,316.013,421.14z"/>
<g>
</g>
<g>
</g>
<g>
</g>
<g>
</g>
<g>
</g>
<g>
</g>
<g>
</g>
<g>
</g>
<g>
</g>
<g>
</g>
<g>
</g>
<g>
</g>
<g>
</g>
<g>
</g>
<g>
</g>
</svg>
