<?xml version="1.0" encoding="iso-8859-1"?>

<svg version="1.1" id="Capa_1" xmlns="http://www.w3.org/2000/svg" xmlns:xlink="http://www.w3.org/1999/xlink" x="0px" y="0px"
	 viewBox="0 0 512 512" style="enable-background:new 0 0 512 512;" xml:space="preserve">
<rect x="181" y="362" style="fill:#08469C;" width="150" height="90"/>
<rect x="256" y="362" style="fill:#063E8B;" width="75" height="90"/>
<path style="fill:#0F60CF;" d="M512,45v255l-30,32H30L0,300V45C0,20.099,20.099,0,45,0h422C491.901,0,512,20.099,512,45z"/>
<path style="fill:#0A4EAF;" d="M512,45v255l-30,32H256V0h211C491.901,0,512,20.099,512,45z"/>
<path style="fill:#CAE8F9;" d="M482,45v287H30V45c0-8.401,6.599-15,15-15h422C475.401,30,482,36.599,482,45z"/>
<path style="fill:#B7E0F6;" d="M482,45v287H256V30h211C475.401,30,482,36.599,482,45z"/>
<path style="fill:#0F60CF;" d="M512,300v47c0,24.901-20.099,45-45,45H45c-24.901,0-45-20.099-45-45v-47H512z"/>
<path style="fill:#0A4EAF;" d="M512,300v47c0,24.901-20.099,45-45,45H256v-92H512z"/>
<path style="fill:#136EF1;" d="M406,90v150c0,5.099-2.701,9.899-7.2,12.9c-4.2,2.699-9.901,2.999-14.399,0.601l-90-45V121.5l90-45
	c4.499-2.1,9.899-2.1,14.399,0.601C403.299,80.099,406,84.899,406,90z"/>
<path style="fill:#0F60CF;" d="M346,422H166c-24.901,0-45,20.099-45,45v30c0,8.399,6.599,15,15,15h240c8.401,0,15-6.601,15-15v-30
	C391,442.099,370.901,422,346,422z"/>
<path style="fill:#17ACE8;" d="M271,75H151c-24.901,0-45,20.099-45,45v90c0,24.899,20.099,45,45,45h120c24.901,0,45-20.101,45-45
	v-90C316,95.099,295.901,75,271,75z"/>
<path style="fill:#0A4EAF;" d="M391,467v30c0,8.399-6.599,15-15,15H256v-90h90C370.901,422,391,442.099,391,467z"/>
<path style="fill:#1689FC;" d="M256,255h15c24.902,0,45-20.101,45-45v-90c0-24.901-20.098-45-45-45h-15V255z"/>
<g>
</g>
<g>
</g>
<g>
</g>
<g>
</g>
<g>
</g>
<g>
</g>
<g>
</g>
<g>
</g>
<g>
</g>
<g>
</g>
<g>
</g>
<g>
</g>
<g>
</g>
<g>
</g>
<g>
</g>
</svg>
