<?xml version="1.0" encoding="iso-8859-1"?>

<svg version="1.1" id="Capa_1" xmlns="http://www.w3.org/2000/svg" xmlns:xlink="http://www.w3.org/1999/xlink" x="0px" y="0px"
	 viewBox="0 0 512 512" style="enable-background:new 0 0 512 512;" xml:space="preserve">
<path style="fill:#AA3DC8;" d="M256,270c-82.8,0-150,67.2-150,150v47c0,24.899,20.099,45,45,45h210c24.901,0,45-20.101,45-45v-47
	C406,337.2,338.8,270,256,270z"/>
<path style="fill:#9332B0;" d="M406,420v47c0,24.899-20.099,45-45,45H256V270C338.8,270,406,337.2,406,420z"/>
<path style="fill:#1DE8F1;" d="M436,180c0,99.3-80.7,180-180,180c-8.401,0-15-6.601-15-15c0-8.401,6.599-15,15-15
	c82.8,0,150-67.2,150-150c0-81.301-66.301-148.801-147.599-150H256c-40.201,0-77.1,15.3-105.3,43.2
	C121.901,101.4,106,139.499,106,180v15c0,8.399-6.599,15-15,15s-15-6.601-15-15v-15c0-48.6,19.2-94.2,53.699-128.401
	C163.599,18.3,207.7,0.3,256,0h2.999C356.499,1.5,436,82.2,436,180z"/>
<path style="fill:#1BD9DE;" d="M436,180c0,99.3-80.7,180-180,180v-30c82.8,0,150-67.2,150-150c0-81.301-66.301-148.801-147.599-150
	H256V0h2.999C356.499,1.5,436,82.2,436,180z"/>
<path style="fill:#136EF1;" d="M391,240h-30c-8.291,0-15-6.709-15-15v-90c0-8.291,6.709-15,15-15h30c24.814,0,45,20.186,45,45v30
	C436,219.814,415.814,240,391,240z"/>
<path style="fill:#1689FC;" d="M151,240h-30c-24.814,0-45-20.186-45-45v-30c0-24.814,20.186-45,45-45h30c8.291,0,15,6.709,15,15v90
	C166,233.291,159.291,240,151,240z"/>
<path style="fill:#B758CE;" d="M256,60c-66.301,0-120,53.699-120,120c0,66.299,53.699,120,120,120s120-53.701,120-120
	C376,113.699,322.301,60,256,60z"/>
<path style="fill:#AA3DC8;" d="M376,180c0,66.299-53.699,120-120,120V60C322.301,60,376,113.699,376,180z"/>
<g>
</g>
<g>
</g>
<g>
</g>
<g>
</g>
<g>
</g>
<g>
</g>
<g>
</g>
<g>
</g>
<g>
</g>
<g>
</g>
<g>
</g>
<g>
</g>
<g>
</g>
<g>
</g>
<g>
</g>
</svg>
