<?xml version="1.0" encoding="iso-8859-1"?>

<svg version="1.1" id="Capa_1" xmlns="http://www.w3.org/2000/svg" xmlns:xlink="http://www.w3.org/1999/xlink" x="0px" y="0px"
	 viewBox="0 0 512 512" style="enable-background:new 0 0 512 512;" xml:space="preserve">
<path style="fill:#B7E0F6;" d="M376,0H136c-24.901,0-45,20.099-45,45v422c0,24.899,20.099,45,45,45h240c24.901,0,45-20.101,45-45V45
	C421,20.099,400.901,0,376,0z"/>
<path style="fill:#A4D9F5;" d="M421,45v422c0,24.899-20.099,45-45,45H256V0h120C400.901,0,421,20.099,421,45z"/>
<path style="fill:#1689FC;" d="M316,452c-24.814,0-45-20.186-45-45s20.186-45,45-45s45,20.186,45,45S340.814,452,316,452z"/>
<path style="fill:#B7E0F6;" d="M361,257c0,8.399-6.599,15-15,15H166c-8.401,0-15-6.601-15-15c0-8.401,6.599-16,15-16h180
	C354.401,241,361,248.599,361,257z"/>
<g>
	<circle style="fill:#0A4EAF;" cx="346" cy="317" r="15"/>
	<circle style="fill:#0A4EAF;" cx="286" cy="317" r="15"/>
</g>
<g>
	<circle style="fill:#0F60CF;" cx="226" cy="317" r="15"/>
	<circle style="fill:#0F60CF;" cx="166" cy="317" r="15"/>
	<circle style="fill:#0F60CF;" cx="166" cy="377" r="15"/>
	<circle style="fill:#0F60CF;" cx="226" cy="377" r="15"/>
	<circle style="fill:#0F60CF;" cx="226" cy="437" r="15"/>
	<circle style="fill:#0F60CF;" cx="166" cy="437" r="15"/>
	<path style="fill:#0F60CF;" d="M256,60c-41.4,0-75,33.6-75,75s33.6,75,75,75s75-33.6,75-75S297.4,60,256,60z"/>
</g>
<path style="fill:#0A4EAF;" d="M331,135c0,41.4-33.6,75-75,75V60C297.4,60,331,93.6,331,135z"/>
<path style="fill:#17ACE8;" d="M256,90c-24.901,0-45,20.099-45,45c0,24.899,20.099,45,45,45s45-20.101,45-45
	C301,110.099,280.901,90,256,90z"/>
<path style="fill:#1689FC;" d="M301,135c0,24.899-20.099,45-45,45V90C280.901,90,301,110.099,301,135z"/>
<path style="fill:#1DE8F1;" d="M271,135c0,8.399-6.599,15-15,15s-15-6.601-15-15c0-8.401,6.599-15,15-15S271,126.599,271,135z"/>
<path style="fill:#1BD9DE;" d="M271,135c0,8.399-6.599,15-15,15v-30C264.401,120,271,126.599,271,135z"/>
<path style="fill:#A4D9F5;" d="M361,257c0,8.399-6.599,15-15,15h-90v-31h90C354.401,241,361,248.599,361,257z"/>
<g>
</g>
<g>
</g>
<g>
</g>
<g>
</g>
<g>
</g>
<g>
</g>
<g>
</g>
<g>
</g>
<g>
</g>
<g>
</g>
<g>
</g>
<g>
</g>
<g>
</g>
<g>
</g>
<g>
</g>
</svg>
