<?xml version="1.0" encoding="iso-8859-1"?>

<svg version="1.1" id="Capa_1" xmlns="http://www.w3.org/2000/svg" xmlns:xlink="http://www.w3.org/1999/xlink" x="0px" y="0px"
	 viewBox="0 0 512 512" style="enable-background:new 0 0 512 512;" xml:space="preserve">
<path style="fill:#0A4EAF;" d="M360.082,180.07c0,5.701-0.3,11.703-0.601,17.703l-62.713-51.311
	c-10.802-54.913-53.413-86.42-116.726-86.42c-21.604,0-60.915,4.201-88.52,31.507c-18.304,18.003-31.507,45.611-31.507,88.52
	c0,76.517,19.803,109.225,28.206,139.232c5.1,17.102-2.1,30.606-14.104,37.208c-14.102,7.802-32.105,2.4-39.908-11.403
	C12.302,295.896,0,236.783,0,180.07C0,122.157,19.505,78.947,49.81,49.84c34.209-33.908,82.221-49.81,130.23-49.81
	C269.761,0.029,360.082,55.841,360.082,180.07z"/>
<path style="fill:#0F60CF;" d="M88.22,319.302c5.1,17.102-2.1,30.606-14.104,37.208c-14.102,7.802-32.105,2.4-39.908-11.403
	C12.302,295.896,0,236.783,0,180.07C0,122.157,19.505,78.947,49.81,49.84L91.52,91.549c-18.304,18.003-31.507,45.611-31.507,88.52
	C60.014,256.587,79.817,289.295,88.22,319.302z"/>
<path style="fill:#1689FC;" d="M485.211,327.128c-46.209-54.012-83.119-96.647-129.33-150.659
	c-43.21-50.411-119.426-51.313-164.436-6.302l-10.501,10.802l-10.803,10.503c-46.209,46.209-43.21,122.128,6.302,164.436
	c54.012,46.209,96.622,83.144,150.634,129.355c21.005,18.003,46.811,26.706,72.919,26.706c28.806,0,57.612-10.803,79.217-32.708
	C520.618,438.154,523.019,371.239,485.211,327.128z"/>
<path style="fill:#17ACE8;" d="M479.209,479.263c-21.604,21.904-50.411,32.708-79.217,32.708c-26.108,0-51.913-8.703-72.919-26.706
	c-54.012-46.211-96.622-83.146-150.634-129.355c-49.512-42.309-52.512-118.227-6.302-164.436l10.803-10.503l287.765,287.792
	L479.209,479.263z"/>
<path style="fill:#A4D9F5;" d="M439.9,366.437L310.271,215.478c-19.204-22.505-54.312-25.207-76.518-3.002l-10.502,10.803
	l-10.802,10.501c-21.306,21.306-20.405,56.413,3.601,77.117l150.035,128.755c20.705,17.705,51.911,16.205,70.816-2.7
	C456.104,417.75,457.305,386.842,439.9,366.437z"/>
<path style="fill:#B7E0F6;" d="M436.9,436.954c-18.904,18.904-50.11,20.405-70.816,2.7L216.049,310.899
	c-24.005-20.705-24.907-55.813-3.601-77.117l10.802-10.501L436.9,436.954z"/>
<path style="fill:#0F60CF;" d="M286.865,286.894c-5.701,6.001-15.303,6.001-21.306,0c-5.701-5.701-5.701-15.303,0-21.306
	c6.001-5.701,15.605-5.701,21.306,0C292.866,271.591,292.866,281.193,286.865,286.894z"/>
<g>
</g>
<g>
</g>
<g>
</g>
<g>
</g>
<g>
</g>
<g>
</g>
<g>
</g>
<g>
</g>
<g>
</g>
<g>
</g>
<g>
</g>
<g>
</g>
<g>
</g>
<g>
</g>
<g>
</g>
</svg>
