<?xml version="1.0" encoding="iso-8859-1"?>

<svg version="1.1" id="Capa_1" xmlns="http://www.w3.org/2000/svg" xmlns:xlink="http://www.w3.org/1999/xlink" x="0px" y="0px"
	 viewBox="0 0 512 512" style="enable-background:new 0 0 512 512;" xml:space="preserve">
<path style="fill:#1DE8F1;" d="M451,0H61C36.099,0,16,20.099,16,45v331c0,24.899,20.099,45,45,45h126.899l55.501,84.399
	c2.999,4.2,7.5,6.601,12.599,6.601s9.6-2.401,12.599-6.601L324.101,421H451c24.901,0,45-20.101,45-45V45C496,20.099,475.901,0,451,0
	z"/>
<path style="fill:#CAE8F9;" d="M418.9,98.2c-2.999-4.799-8.699-7.5-14.399-7.2c-17.1,1.8-38.401,2.999-45.901,2.1
	c-18.3-14.399-40.8-18.9-64.799-12.301C278.2,85,265.3,93.1,256,104.2c-10.201,12.299-16.199,27.9-17.401,46.199
	c-38.399-6-70.499-24.6-97.8-56.1c-3.6-3.9-8.399-5.7-13.499-5.099c-5.101,0.601-9.6,3.9-11.7,8.699
	c-11.1,24-12.001,46.8-2.401,68.101c-5.099,3.3-7.5,8.699-7.2,13.799c1.5,21.901,9.6,39.6,23.699,53.401
	c-2.1,3.6-2.399,8.101-0.899,12.001C135.398,262.9,146.2,276.1,161.2,284.799c-14.702,5.402-30.3,7.5-47.701,6.601
	c-5.7-0.3-11.1,2.401-14.099,7.5c-2.7,4.799-2.7,10.799,0.6,15.6c11.4,17.399,77.1,42.599,142.2,29.399
	c4.801-0.901,9.3-2.1,13.801-3.3c78.3-23.101,132.001-94.501,132.599-176.4c2.1-5.4,17.1-30.3,30-50.099
	C421.601,109.3,421.901,103.001,418.9,98.2z"/>
<path style="fill:#1BD9DE;" d="M496,45v331c0,24.899-20.099,45-45,45H324.101L268.6,505.399c-2.999,4.2-7.5,6.601-12.599,6.601V0
	h195C475.901,0,496,20.099,496,45z"/>
<path style="fill:#B7E0F6;" d="M418.599,114.101c-12.9,19.799-27.9,44.7-30,50.099C388.001,246.099,334.3,317.5,256,340.6V104.2
	c9.3-11.1,22.2-19.2,37.8-23.401c24-6.599,46.5-2.098,64.799,12.301c7.5,0.899,28.801-0.3,45.901-2.1c5.7-0.3,11.4,2.401,14.399,7.2
	C421.901,103.001,421.601,109.3,418.599,114.101z"/>
<g>
</g>
<g>
</g>
<g>
</g>
<g>
</g>
<g>
</g>
<g>
</g>
<g>
</g>
<g>
</g>
<g>
</g>
<g>
</g>
<g>
</g>
<g>
</g>
<g>
</g>
<g>
</g>
<g>
</g>
</svg>
