<?xml version="1.0" encoding="iso-8859-1"?>

<svg version="1.1" id="Capa_1" xmlns="http://www.w3.org/2000/svg" xmlns:xlink="http://www.w3.org/1999/xlink" x="0px" y="0px"
	 viewBox="0 0 512 512" style="enable-background:new 0 0 512 512;" xml:space="preserve">
<path style="fill:#FE52A2;" d="M360,75.974v90l-180,127.8l-6.599,4.799l-90,60c-4.801,3.001-10.801,3.301-15.601,0.601
	c-4.801-2.701-7.8-7.8-7.8-13.2v-45H45c-24.901,0-45-20.099-45-45v-180c0-24.901,20.099-45,45-45h270
	C339.901,30.974,360,51.074,360,75.974z"/>
<path style="fill:#FE318F;" d="M360,75.974v90l-180,127.8v-262.8h135C339.901,30.974,360,51.074,360,75.974z"/>
<path style="fill:#FEA832;" d="M467,150.974H197c-24.901,0-45,20.099-45,45v180c0,24.901,20.099,45,45,45h145.499l86.1,57.599
	c4.801,3.001,10.801,3.301,15.601,0.601c4.801-2.701,7.8-7.8,7.8-13.2v-45h15c24.901,0,45-20.099,45-45v-180
	C512,171.074,491.901,150.974,467,150.974z"/>
<path style="fill:#FE9923;" d="M512,195.974v180c0,24.901-20.099,45-45,45h-15v45c0,5.4-2.999,10.499-7.8,13.2
	c-4.799,2.701-10.8,2.401-15.601-0.601l-86.1-57.599H332v-270h135C491.901,150.974,512,171.074,512,195.974z"/>
<g>
	<path style="fill:#994C0F;" d="M452,255.974c0,8.401-6.599,15-15,15H227c-8.401,0-15-6.599-15-15s6.599-15,15-15h210
		C445.401,240.974,452,247.573,452,255.974z"/>
	<path style="fill:#994C0F;" d="M362,315.974c0,8.401-6.599,15-15,15H227c-8.401,0-15-6.599-15-15s6.599-15,15-15h120
		C355.401,300.974,362,307.573,362,315.974z"/>
</g>
<g>
	<path style="fill:#713708;" d="M362,315.974c0,8.401-6.599,15-15,15h-15v-30h15C355.401,300.974,362,307.573,362,315.974z"/>
	<path style="fill:#713708;" d="M452,255.974c0,8.401-6.599,15-15,15H332v-30h105C445.401,240.974,452,247.573,452,255.974z"/>
</g>
<g>
</g>
<g>
</g>
<g>
</g>
<g>
</g>
<g>
</g>
<g>
</g>
<g>
</g>
<g>
</g>
<g>
</g>
<g>
</g>
<g>
</g>
<g>
</g>
<g>
</g>
<g>
</g>
<g>
</g>
</svg>
