<?xml version="1.0" encoding="iso-8859-1"?>

<svg version="1.1" id="Capa_1" xmlns="http://www.w3.org/2000/svg" xmlns:xlink="http://www.w3.org/1999/xlink" x="0px" y="0px"
	 viewBox="0 0 512 512" style="enable-background:new 0 0 512 512;" xml:space="preserve">
<path style="fill:#1689FC;" d="M202.973,224.184l-84.858-84.858c-5.859-5.859-5.859-15.352,0-21.211s15.352-5.859,21.211,0
	l84.858,84.858c5.859,5.859,5.859,15.352,0,21.211C218.324,230.043,208.832,230.043,202.973,224.184z"/>
<path style="fill:#136EF1;" d="M372.675,393.886l-84.858-84.858c-5.859-5.859-5.859-15.352,0-21.211s15.352-5.859,21.211,0
	l84.858,84.858c5.859,5.859,5.859,15.352,0,21.211C388.026,399.745,378.534,399.745,372.675,393.886z"/>
<path style="fill:#1689FC;" d="M196,271H76c-8.291,0-15-6.709-15-15s6.709-15,15-15h120c8.291,0,15,6.709,15,15
	C211,264.291,204.291,271,196,271z"/>
<path style="fill:#136EF1;" d="M436,271H316c-8.291,0-15-6.709-15-15s6.709-15,15-15h120c8.291,0,15,6.709,15,15
	C451,264.291,444.291,271,436,271z"/>
<path style="fill:#1689FC;" d="M118.114,393.886c-5.859-5.859-5.859-15.352,0-21.211l84.858-84.858
	c5.859-5.859,15.352-5.859,21.211,0s5.859,15.352,0,21.211l-84.858,84.858C133.466,399.745,123.974,399.745,118.114,393.886z"/>
<path style="fill:#136EF1;" d="M287.816,224.184c-5.859-5.859-5.859-15.352,0-21.211l84.858-84.858
	c5.859-5.859,15.352-5.859,21.211,0s5.859,15.352,0,21.211l-84.858,84.858C303.168,230.043,293.676,230.043,287.816,224.184z"/>
<path style="fill:#1689FC;" d="M271,76v120c0,8.401-6.599,15-15,15s-15-6.599-15-15V76c0-8.401,6.599-15,15-15S271,67.599,271,76z"
	/>
<path style="fill:#136EF1;" d="M271,76v120c0,8.401-6.599,15-15,15V61C264.401,61,271,67.599,271,76z"/>
<path style="fill:#1689FC;" d="M271,316v120c0,8.401-6.599,15-15,15s-15-6.599-15-15V316c0-8.401,6.599-15,15-15
	S271,307.599,271,316z"/>
<path style="fill:#136EF1;" d="M271,316v120c0,8.401-6.599,15-15,15V301C264.401,301,271,307.599,271,316z"/>
<path style="fill:#17ACE8;" d="M256,181c-41.4,0-75,33.6-75,75s33.6,75,75,75s75-33.6,75-75S297.4,181,256,181z"/>
<g>
	<path style="fill:#1DE8F1;" d="M256,0c-24.901,0-45,21.099-45,46s20.099,45,45,45s45-20.099,45-45S280.901,0,256,0z"/>
	<path style="fill:#1DE8F1;" d="M256,421c-24.901,0-45,20.099-45,45s20.099,46,45,46s45-21.099,45-46S280.901,421,256,421z"/>
	<path style="fill:#1DE8F1;" d="M75.692,139.325c-17.549-17.549-17.549-46.084,0-63.633s46.084-17.549,63.633,0
		s17.549,46.084,0,63.633C121.776,156.875,93.242,156.875,75.692,139.325z"/>
</g>
<path style="fill:#1BD9DE;" d="M372.675,436.308c-17.549-17.549-17.549-46.084,0-63.633s46.084-17.549,63.633,0
	s17.549,46.084,0,63.633C418.758,453.857,390.224,453.857,372.675,436.308z"/>
<path style="fill:#1DE8F1;" d="M46,301c-24.814,0-46-20.186-46-45s21.186-45,46-45s45,20.186,45,45S70.814,301,46,301z"/>
<path style="fill:#1BD9DE;" d="M466,301c-24.814,0-45-20.186-45-45s20.186-45,45-45s46,20.186,46,45S490.814,301,466,301z"/>
<path style="fill:#1DE8F1;" d="M75.692,436.308c-17.549-17.549-17.549-46.084,0-63.633s46.084-17.549,63.633,0
	s17.549,46.084,0,63.633S93.242,453.857,75.692,436.308z"/>
<path style="fill:#1BD9DE;" d="M372.675,139.325c-17.549-17.549-17.549-46.084,0-63.633s46.084-17.549,63.633,0
	s17.549,46.084,0,63.633C418.758,156.875,390.224,156.875,372.675,139.325z"/>
<path style="fill:#1689FC;" d="M331,256c0,41.4-33.6,75-75,75V181C297.4,181,331,214.6,331,256z"/>
<g>
	<path style="fill:#1BD9DE;" d="M301,46c0,24.901-20.099,45-45,45V0C280.901,0,301,21.099,301,46z"/>
	<path style="fill:#1BD9DE;" d="M301,466c0,24.901-20.099,46-45,46v-91C280.901,421,301,441.099,301,466z"/>
</g>
<g>
</g>
<g>
</g>
<g>
</g>
<g>
</g>
<g>
</g>
<g>
</g>
<g>
</g>
<g>
</g>
<g>
</g>
<g>
</g>
<g>
</g>
<g>
</g>
<g>
</g>
<g>
</g>
<g>
</g>
</svg>
