<?xml version="1.0" encoding="iso-8859-1"?>

<svg version="1.1" id="Capa_1" xmlns="http://www.w3.org/2000/svg" xmlns:xlink="http://www.w3.org/1999/xlink" x="0px" y="0px"
	 viewBox="0 0 512 512" style="enable-background:new 0 0 512 512;" xml:space="preserve">
<rect x="211" y="360" style="fill:#B7E0F6;" width="90" height="91"/>
<polygon style="fill:#A4D9F5;" points="301,362.143 301,448.857 256,451 256,360 "/>
<path style="fill:#CAE8F9;" d="M361,120l-27.299,15L361,150v30l-30,30H181l-30-30v-30l24.901-15L151,120v-15
	c0-5.101,0.901-10.201,1.5-15L181,75l-19.501-15C178.599,24.6,214.3,0,256,0s77.401,24.6,94.501,60L331,75l28.5,15
	c0.599,4.799,1.5,9.899,1.5,15V120z"/>
<path style="fill:#B7E0F6;" d="M361,120l-27.299,15L361,150v30l-30,30h-75V0c41.7,0,77.401,24.6,94.501,60L331,75l28.5,15
	c0.599,4.799,1.5,9.899,1.5,15V120z"/>
<path style="fill:#CAE8F9;" d="M421,225c0,90.899-74.099,165-165,165S91,315.899,91,225c0-8.401,6.599-15,15-15h60
	c8.401,0,15,6.599,15,15c0,8.399-6.599,15-15,15h-44.099c7.5,67.5,64.799,120,134.099,120s126.599-52.5,134.099-120H346
	c-8.401,0-15-6.601-15-15c0-8.401,6.599-15,15-15h60C414.401,210,421,216.599,421,225z"/>
<g>
	<path style="fill:#17ACE8;" d="M241,75c0-8.291-6.709-15-15-15h-64.468c-4.471,9.342-7.478,19.391-9.016,30H226
		C234.291,90,241,83.291,241,75z"/>
	<path style="fill:#17ACE8;" d="M241,135c0-8.291-6.709-15-15-15h-75v30h75C234.291,150,241,143.291,241,135z"/>
</g>
<g>
	<path style="fill:#1689FC;" d="M276.127,75c0,8.291,6.709,15,15,15h68.357c-1.538-10.609-4.545-20.658-9.016-30h-59.341
		C282.836,60,276.127,66.709,276.127,75z"/>
	<path style="fill:#1689FC;" d="M286,120c-8.291,0-15,6.709-15,15s6.709,15,15,15h75v-30H286z"/>
</g>
<path style="fill:#B7E0F6;" d="M421,225c0,90.899-74.099,165-165,165v-30c69.3,0,126.599-52.5,134.099-120H346
	c-8.401,0-15-6.601-15-15c0-8.401,6.599-15,15-15h60C414.401,210,421,216.599,421,225z"/>
<path style="fill:#17ACE8;" d="M361,180v45c0,57.9-47.1,105-105,105s-105-47.1-105-105v-45H361z"/>
<path style="fill:#1689FC;" d="M361,180v45c0,57.9-47.1,105-105,105V180H361z"/>
<path style="fill:#0F60CF;" d="M346,421H166c-24.901,0-45,20.099-45,45v31c0,8.399,6.599,15,15,15h240c8.401,0,15-6.601,15-15v-31
	C391,441.099,370.901,421,346,421z"/>
<path style="fill:#0A4EAF;" d="M391,466v31c0,8.399-6.599,15-15,15H256v-91h90C370.901,421,391,441.099,391,466z"/>
<g>
</g>
<g>
</g>
<g>
</g>
<g>
</g>
<g>
</g>
<g>
</g>
<g>
</g>
<g>
</g>
<g>
</g>
<g>
</g>
<g>
</g>
<g>
</g>
<g>
</g>
<g>
</g>
<g>
</g>
</svg>
