<?xml version="1.0" encoding="iso-8859-1"?>

<svg version="1.1" id="Capa_1" xmlns="http://www.w3.org/2000/svg" xmlns:xlink="http://www.w3.org/1999/xlink" x="0px" y="0px"
	 viewBox="0 0 512 512" style="enable-background:new 0 0 512 512;" xml:space="preserve">
<path style="fill:#A4D9F5;" d="M120,512H45c-24.853,0-45-20.147-45-45V75c0-8.284,6.716-15,15-15h105V512z"/>
<path style="fill:#CAE8F9;" d="M467,0H135c-24.901,0-45,20.099-45,45v15c0,234.3,0,167.899,0,407c0,24.899-20.099,45-45,45h422
	c24.901,0,45-20.101,45-45V45C512,20.099,491.901,0,467,0z"/>
<path style="fill:#B7E0F6;" d="M512,45v422c0,24.899-20.099,45-45,45H301V0h166C491.901,0,512,20.099,512,45z"/>
<g>
	<path style="fill:#1DE8F1;" d="M437,60H165c-8.401,0-15,6.599-15,15v122c0,8.399,6.599,15,15,15h272c8.401,0,15-6.601,15-15V75
		C452,66.599,445.401,60,437,60z"/>
	<path style="fill:#1DE8F1;" d="M256,452h-91c-8.291,0-15-6.709-15-15v-60c0-8.291,6.709-15,15-15h91c8.291,0,15,6.709,15,15v60
		C271,445.291,264.291,452,256,452z"/>
	<path style="fill:#1DE8F1;" d="M256,272h-91c-8.291,0-15-6.709-15-15s6.709-15,15-15h91c8.291,0,15,6.709,15,15
		C271,265.291,264.291,272,256,272z"/>
	<path style="fill:#1DE8F1;" d="M256,332h-91c-8.291,0-15-6.709-15-15s6.709-15,15-15h91c8.291,0,15,6.709,15,15
		S264.291,332,256,332z"/>
</g>
<g>
	<path style="fill:#1BD9DE;" d="M437,272H316c-8.291,0-15-6.709-15-15s6.709-15,15-15h121c8.291,0,15,6.709,15,15
		C452,265.291,445.291,272,437,272z"/>
	<path style="fill:#1BD9DE;" d="M437,332H316c-8.291,0-15-6.709-15-15s6.709-15,15-15h121c8.291,0,15,6.709,15,15
		S445.291,332,437,332z"/>
	<path style="fill:#1BD9DE;" d="M437,392H316c-8.291,0-15-6.709-15-15s6.709-15,15-15h121c8.291,0,15,6.709,15,15
		S445.291,392,437,392z"/>
	<path style="fill:#1BD9DE;" d="M437,452H316c-8.291,0-15-6.709-15-15s6.709-15,15-15h121c8.291,0,15,6.709,15,15
		S445.291,452,437,452z"/>
	<path style="fill:#1BD9DE;" d="M452,75v122c0,8.399-6.599,15-15,15H301V60h136C445.401,60,452,66.599,452,75z"/>
</g>
<g>
</g>
<g>
</g>
<g>
</g>
<g>
</g>
<g>
</g>
<g>
</g>
<g>
</g>
<g>
</g>
<g>
</g>
<g>
</g>
<g>
</g>
<g>
</g>
<g>
</g>
<g>
</g>
<g>
</g>
</svg>
