<?xml version="1.0" encoding="iso-8859-1"?>

<svg version="1.1" id="Capa_1" xmlns="http://www.w3.org/2000/svg" xmlns:xlink="http://www.w3.org/1999/xlink" x="0px" y="0px"
	 viewBox="0 0 512 512" style="enable-background:new 0 0 512 512;" xml:space="preserve">
<path style="fill:#08469C;" d="M482,181v240c0,8.399-6.599,15-15,15H45c-8.401,0-15-6.601-15-15V181c0-24.901,20.099-45,45-45h362
	C461.901,136,482,156.099,482,181z"/>
<path style="fill:#063E8B;" d="M482,181v240c0,8.399-6.599,15-15,15H256V136h181C461.901,136,482,156.099,482,181z"/>
<path style="fill:#CAE8F9;" d="M452,181v255H60V181c0-8.401,6.599-15,15-15h362C445.401,166,452,172.599,452,181z"/>
<path style="fill:#B7E0F6;" d="M452,181v255H256V166h181C445.401,166,452,172.599,452,181z"/>
<path style="fill:#0F60CF;" d="M497,406H15c-8.401,0-15,6.599-15,15v30c0,24.899,20.099,45,45,45h422c24.901,0,45-20.101,45-45v-30
	C512,412.599,505.401,406,497,406z"/>
<path style="fill:#0A4EAF;" d="M512,421v30c0,24.899-20.099,45-45,45H256v-90h241C505.401,406,512,412.599,512,421z"/>
<path style="fill:#FEA832;" d="M467,16H256c-24.901,0-46,20.099-46,45v122.1c0,24.6,21.099,42.9,46,42.9h15v45
	c0,6,3.6,11.4,9.3,13.799c5.4,2.401,12.001,1.201,16.199-3.3L352,226h114.399c11.4,0.599,23.701-2.701,32.1-11.4
	c8.701-8.401,13.5-19.801,13.5-32.1V61C512,36.099,491.901,16,467,16z"/>
<g>
	<path style="fill:#994C0F;" d="M452,91c0,8.399-6.599,15-15,15H286c-8.401,0-15-6.601-15-15c0-8.401,6.599-15,15-15h151
		C445.401,76,452,82.599,452,91z"/>
	<path style="fill:#994C0F;" d="M392,151c0,8.399-7.599,15-16,15h-90c-8.401,0-15-6.601-15-15c0-8.401,6.599-15,15-15h90
		C384.401,136,392,142.599,392,151z"/>
</g>
<path style="fill:#FE9923;" d="M512,61v121.5c0,12.299-4.799,23.699-13.5,32.1c-8.399,8.699-20.7,11.999-32.1,11.4H361V16h106
	C491.901,16,512,36.099,512,61z"/>
<g>
	<path style="fill:#713708;" d="M392,151c0,8.399-7.599,15-16,15h-15v-30h15C384.401,136,392,142.599,392,151z"/>
	<path style="fill:#713708;" d="M452,91c0,8.399-6.599,15-15,15h-76V76h76C445.401,76,452,82.599,452,91z"/>
</g>
<g>
</g>
<g>
</g>
<g>
</g>
<g>
</g>
<g>
</g>
<g>
</g>
<g>
</g>
<g>
</g>
<g>
</g>
<g>
</g>
<g>
</g>
<g>
</g>
<g>
</g>
<g>
</g>
<g>
</g>
</svg>
