<?xml version="1.0" encoding="iso-8859-1"?>

<svg version="1.1" id="Capa_1" xmlns="http://www.w3.org/2000/svg" xmlns:xlink="http://www.w3.org/1999/xlink" x="0px" y="0px"
	 viewBox="0 0 512 512" style="enable-background:new 0 0 512 512;" xml:space="preserve">
<path style="fill:#FE52A2;" d="M467,0H45C20.099,0,0,20.099,0,45v332c0,24.899,20.099,45,45,45h142.899l55.501,83.399
	c2.999,4.2,7.5,6.601,12.599,6.601s9.6-2.401,12.599-6.601L324.101,422H467c24.901,0,45-20.101,45-45V45C512,20.099,491.901,0,467,0
	z"/>
<path style="fill:#FE318F;" d="M512,45v332c0,24.899-20.099,45-45,45H324.101L268.6,505.399c-2.999,4.2-7.5,6.601-12.599,6.601V0
	h211C491.901,0,512,20.099,512,45z"/>
<path style="fill:#CAE8F9;" d="M323.5,77.8c-34.2,0-55.201,20.7-67.5,39.6c-12.299-18.9-33.3-39.6-67.5-39.6
	c-46.199,0-98.5,39.6-98.5,90.3c0,54.6,58.001,90.599,121.3,145.499c10.8,9.6,22.5,19.501,34.799,30.601
	c2.701,2.399,6.301,3.6,9.901,3.6s7.2-1.201,9.901-3.6c12.299-11.1,24-21,34.799-30.601C363.999,258.699,406,222.7,406,168.1
	C406,117.4,369.699,77.8,323.5,77.8z"/>
<path style="fill:#B7E0F6;" d="M406,168.1c0,54.6-42.001,90.599-105.3,145.499c-10.8,9.6-22.5,19.501-34.799,30.601
	c-2.701,2.399-6.301,3.6-9.901,3.6V117.4c12.299-18.9,33.3-39.6,67.5-39.6C369.699,77.8,406,117.4,406,168.1z"/>
<g>
</g>
<g>
</g>
<g>
</g>
<g>
</g>
<g>
</g>
<g>
</g>
<g>
</g>
<g>
</g>
<g>
</g>
<g>
</g>
<g>
</g>
<g>
</g>
<g>
</g>
<g>
</g>
<g>
</g>
</svg>
