<?xml version="1.0" encoding="iso-8859-1"?>

<svg version="1.1" id="Capa_1" xmlns="http://www.w3.org/2000/svg" xmlns:xlink="http://www.w3.org/1999/xlink" x="0px" y="0px"
	 viewBox="0 0 512 512" style="enable-background:new 0 0 512 512;" xml:space="preserve">
<g>
	<path style="fill:#08469C;" d="M166,90c-8.291,0-15-6.709-15-15V15c0-8.291,6.709-15,15-15s15,6.709,15,15v60
		C181,83.291,174.291,90,166,90z"/>
	<path style="fill:#08469C;" d="M226,90c-8.291,0-15-6.709-15-15V45c0-8.291,6.709-15,15-15s15,6.709,15,15v30
		C241,83.291,234.291,90,226,90z"/>
</g>
<path style="fill:#0F60CF;" d="M346,60H166c-41.4,0-75,33.6-75,75v121c0,16.5,9.6,28.5,18.3,39.3c6,7.5,11.7,14.7,11.7,20.7v151
	c0,24.899,20.099,45,45,45h180c24.901,0,45-20.101,45-45V316c0-6,5.7-13.2,11.7-20.7c8.7-10.8,18.3-22.8,18.3-39.3V135
	C421,93.6,387.4,60,346,60z"/>
<path style="fill:#0A4EAF;" d="M421,135v121c0,16.5-9.6,28.5-18.3,39.3c-6,7.5-11.7,14.7-11.7,20.7v151c0,24.899-20.099,45-45,45
	h-90V60h90C387.4,60,421,93.6,421,135z"/>
<path style="fill:#CAE8F9;" d="M346,120H166c-8.401,0-15,6.599-15,15v121c0,8.399,6.599,15,15,15h180c8.401,0,15-6.601,15-15V135
	C361,126.599,354.401,120,346,120z"/>
<path style="fill:#1DE8F1;" d="M181,150v91h150v-91H181z"/>
<path style="fill:#B7E0F6;" d="M361,135v121c0,8.399-6.599,15-15,15h-90V120h90C354.401,120,361,126.599,361,135z"/>
<rect x="256" y="150" style="fill:#1BD9DE;" width="75" height="91"/>
<path style="fill:#CAE8F9;" d="M361,195c0,8.399-6.599,15-15,15H166c-8.401,0-15-6.601-15-15c0-8.401,6.599-15,15-15h180
	C354.401,180,361,186.599,361,195z"/>
<g>
	<path style="fill:#B7E0F6;" d="M361,195c0,8.399-6.599,15-15,15h-90v-30h90C354.401,180,361,186.599,361,195z"/>
	<circle style="fill:#B7E0F6;" cx="196" cy="316" r="15"/>
	<path style="fill:#B7E0F6;" d="M271,316c0,8.399-6.599,15-15,15s-15-6.601-15-15c0-8.401,6.599-15,15-15S271,307.599,271,316z"/>
</g>
<g>
	<circle style="fill:#A4D9F5;" cx="316" cy="316" r="15"/>
	<circle style="fill:#A4D9F5;" cx="316" cy="376" r="15"/>
</g>
<g>
	<path style="fill:#B7E0F6;" d="M271,376c0,8.399-6.599,15-15,15s-15-6.601-15-15c0-8.401,6.599-15,15-15S271,367.599,271,376z"/>
	<circle style="fill:#B7E0F6;" cx="196" cy="376" r="15"/>
	<circle style="fill:#B7E0F6;" cx="196" cy="436" r="15"/>
	<path style="fill:#B7E0F6;" d="M271,436c0,8.399-6.599,15-15,15s-15-6.601-15-15c0-8.401,6.599-15,15-15S271,427.599,271,436z"/>
</g>
<g>
	<circle style="fill:#A4D9F5;" cx="316" cy="436" r="15"/>
	<path style="fill:#A4D9F5;" d="M271,436c0,8.399-6.599,15-15,15v-30C264.401,421,271,427.599,271,436z"/>
	<path style="fill:#A4D9F5;" d="M271,376c0,8.399-6.599,15-15,15v-30C264.401,361,271,367.599,271,376z"/>
	<path style="fill:#A4D9F5;" d="M271,316c0,8.399-6.599,15-15,15v-30C264.401,301,271,307.599,271,316z"/>
</g>
<g>
</g>
<g>
</g>
<g>
</g>
<g>
</g>
<g>
</g>
<g>
</g>
<g>
</g>
<g>
</g>
<g>
</g>
<g>
</g>
<g>
</g>
<g>
</g>
<g>
</g>
<g>
</g>
<g>
</g>
</svg>
