<?xml version="1.0" encoding="iso-8859-1"?>

<svg version="1.1" id="Capa_1" xmlns="http://www.w3.org/2000/svg" xmlns:xlink="http://www.w3.org/1999/xlink" x="0px" y="0px"
	 viewBox="0 0 512 512" style="enable-background:new 0 0 512 512;" xml:space="preserve">
<path style="fill:#B7E0F6;" d="M257,391H135c-8.401,0-15,6.599-15,15v91c0,8.401,6.599,15,15,15h122c8.401,0,15-6.599,15-15v-91
	C272,397.599,265.401,391,257,391z"/>
<path style="fill:#A4D9F5;" d="M272,406v91c0,8.401-6.599,15-15,15h-61V391h61C265.401,391,272,397.599,272,406z"/>
<path style="fill:#FD003A;" d="M392,121l-75,300H45c-24.901,0-45-20.099-45-45V226c0-57.9,47.1-105,105-105H392z"/>
<polygon style="fill:#E50027;" points="392,121 317,421 196,421 196,121 "/>
<path style="fill:#B7E0F6;" d="M211,15v181c0,8.401-6.599,15-15,15s-15-6.599-15-15V15c0-8.401,6.599-15,15-15S211,6.599,211,15z"/>
<g>
	<path style="fill:#E50027;" d="M75,361c-8.291,0-15-6.709-15-15v-30c0-8.291,6.709-15,15-15s15,6.709,15,15v30
		C90,354.291,83.291,361,75,361z"/>
	<path style="fill:#E50027;" d="M135,361c-8.291,0-15-6.709-15-15v-30c0-8.291,6.709-15,15-15s15,6.709,15,15v30
		C150,354.291,143.291,361,135,361z"/>
</g>
<g>
	<path style="fill:#C1001F;" d="M257,361c-8.291,0-15-6.709-15-15v-30c0-8.291,6.709-15,15-15c8.291,0,15,6.709,15,15v30
		C272,354.291,265.291,361,257,361z"/>
	<path style="fill:#C1001F;" d="M482,211v120H302V211c0-39.3,24.901-72.599,60-84.6c9.3-3.6,19.501-5.4,30-5.4
		c24.901,0,47.401,10.201,63.6,26.4S482,186.099,482,211z"/>
</g>
<path style="fill:#B7E0F6;" d="M413.899,301c-27.299,18.6-21.899,15-41.4,28.2c-2.699,2.999-6.599,4.2-10.499,4.2
	s-7.8-1.201-10.499-4.2C332,316,337.4,319.6,310.101,301L302,309.101V421h165c16.5,0,32.999-9.901,40.8-26.1L413.899,301z"/>
<path style="fill:#1BD9DE;" d="M467,211H302v111.301l28.2,28.2c8.699,8.699,20.4,12.9,31.8,12.9s23.101-4.2,31.8-12.9L507.499,236.8
	C499.701,220.3,483.199,211,467,211z"/>
<path style="fill:#81C8EE;" d="M507.49,236.721l-93.69,64.224l4.83,47.252l38.066,38.066l51.021,8.599
	C510.396,389.105,512,382.757,512,376V256C512,249.073,510.297,242.588,507.49,236.721z"/>
<path style="fill:#A4D9F5;" d="M507.8,394.9C500,411.099,483.5,421,467,421H362v-87.599c3.9,0,7.8-1.201,10.499-4.2
	C392,316,386.6,319.6,413.899,301L507.8,394.9z"/>
<path style="fill:#19C7CC;" d="M507.499,236.8L393.8,350.501c-8.699,8.699-20.4,12.9-31.8,12.9V211h105
	C483.199,211,499.701,220.3,507.499,236.8z"/>
<path style="fill:#FEA832;" d="M196,0h-91c-8.401,0-15,6.599-15,15v60c0,8.401,6.599,15,15,15h106V15C211,6.599,204.401,0,196,0z"/>
<path style="fill:#E50027;" d="M211,316v30c0,8.401-6.599,15-15,15s-15-6.599-15-15v-30c0-8.401,6.599-15,15-15S211,307.599,211,316
	z"/>
<path style="fill:#C1001F;" d="M211,316v30c0,8.401-6.599,15-15,15v-60C204.401,301,211,307.599,211,316z"/>
<g>
</g>
<g>
</g>
<g>
</g>
<g>
</g>
<g>
</g>
<g>
</g>
<g>
</g>
<g>
</g>
<g>
</g>
<g>
</g>
<g>
</g>
<g>
</g>
<g>
</g>
<g>
</g>
<g>
</g>
</svg>
