<?xml version="1.0" encoding="iso-8859-1"?>

<svg version="1.1" id="Capa_1" xmlns="http://www.w3.org/2000/svg" xmlns:xlink="http://www.w3.org/1999/xlink" x="0px" y="0px"
	 viewBox="0 0 512 512" style="enable-background:new 0 0 512 512;" xml:space="preserve">
<path style="fill:#136EF1;" d="M497,436h-61c-8.291,0-15-6.709-15-15s6.709-15,15-15h61c8.291,0,15,6.709,15,15S505.291,436,497,436
	z"/>
<g>
	<path style="fill:#1689FC;" d="M76,436H15c-8.291,0-15-6.709-15-15s6.709-15,15-15h61c8.291,0,15,6.709,15,15S84.291,436,76,436z"
		/>
	<path style="fill:#1689FC;" d="M271,301v120c0,8.401-6.599,15-15,15s-15-6.599-15-15V301c0-8.401,6.599-15,15-15
		S271,292.599,271,301z"/>
	<path style="fill:#1689FC;" d="M361,421c0,8.401-6.599,15-15,15H166c-8.401,0-15-6.599-15-15s6.599-15,15-15h180
		C354.401,406,361,412.599,361,421z"/>
</g>
<g>
	<path style="fill:#136EF1;" d="M361,421c0,8.401-6.599,15-15,15h-90v-30h90C354.401,406,361,412.599,361,421z"/>
	<path style="fill:#136EF1;" d="M271,301v120c0,8.401-6.599,15-15,15V286C264.401,286,271,292.599,271,301z"/>
</g>
<path style="fill:#FEA832;" d="M406,46H106c-24.901,0-45,20.099-45,45v180c0,24.901,20.099,45,45,45h300c24.901,0,45-20.099,45-45
	V91C451,66.099,430.901,46,406,46z"/>
<path style="fill:#FE9923;" d="M451,91v180c0,24.901-20.099,45-45,45H256V46h150C430.901,46,451,66.099,451,91z"/>
<g>
	<path style="fill:#994C0F;" d="M361,121c0,8.401-6.599,15-15,15H166c-8.401,0-15-6.599-15-15s6.599-15,15-15h180
		C354.401,106,361,112.599,361,121z"/>
	<path style="fill:#994C0F;" d="M361,181c0,8.401-6.599,15-15,15H166c-8.401,0-15-6.599-15-15s6.599-15,15-15h180
		C354.401,166,361,172.599,361,181z"/>
	<path style="fill:#994C0F;" d="M361,241c0,8.401-6.599,15-15,15H166c-8.401,0-15-6.599-15-15s6.599-15,15-15h180
		C354.401,226,361,232.599,361,241z"/>
</g>
<path style="fill:#1BD9DE;" d="M406,466h-30c-24.814,0-45-20.186-45-45s20.186-45,45-45h30c24.814,0,45,20.186,45,45
	S430.814,466,406,466z"/>
<path style="fill:#1DE8F1;" d="M136,466h-30c-24.814,0-45-20.186-45-45s20.186-45,45-45h30c24.814,0,45,20.186,45,45
	S160.814,466,136,466z"/>
<g>
	<path style="fill:#713708;" d="M361,241c0,8.401-6.599,15-15,15h-90v-30h90C354.401,226,361,232.599,361,241z"/>
	<path style="fill:#713708;" d="M361,181c0,8.401-6.599,15-15,15h-90v-30h90C354.401,166,361,172.599,361,181z"/>
	<path style="fill:#713708;" d="M361,121c0,8.401-6.599,15-15,15h-90v-30h90C354.401,106,361,112.599,361,121z"/>
</g>
<g>
</g>
<g>
</g>
<g>
</g>
<g>
</g>
<g>
</g>
<g>
</g>
<g>
</g>
<g>
</g>
<g>
</g>
<g>
</g>
<g>
</g>
<g>
</g>
<g>
</g>
<g>
</g>
<g>
</g>
</svg>
