<?xml version="1.0" encoding="iso-8859-1"?>

<svg version="1.1" id="Capa_1" xmlns="http://www.w3.org/2000/svg" xmlns:xlink="http://www.w3.org/1999/xlink" x="0px" y="0px"
	 viewBox="0 0 512 512" style="enable-background:new 0 0 512 512;" xml:space="preserve">
<path style="fill:#136EF1;" d="M327.001,396.903c-2.666,0-5.361-0.703-7.808-2.197l-142.031-86.807
	c-7.075-4.321-9.302-13.55-4.98-20.625c4.307-7.061,13.55-9.302,20.625-4.98l142.031,86.807c7.075,4.321,9.302,13.55,4.98,20.625
	C336.991,394.354,332.055,396.903,327.001,396.903z"/>
<g>
	<path style="fill:#1689FC;" d="M184.999,231.903c-5.054,0-9.99-2.549-12.817-7.178c-4.321-7.075-2.095-16.304,4.98-20.625
		l142.031-86.807c7.061-4.321,16.304-2.08,20.625,4.98c4.321,7.075,2.095,16.304-4.98,20.625l-142.031,86.807
		C190.36,231.2,187.665,231.903,184.999,231.903z"/>
	<path style="fill:#1689FC;" d="M391,512c-49.629,0-90-41.371-90-91s40.371-90,90-90s90,40.371,90,90S440.629,512,391,512z"/>
</g>
<g>
	<path style="fill:#17ACE8;" d="M391,181c-49.629,0-90-40.371-90-90s40.371-91,90-91s90,41.371,90,91S440.629,181,391,181z"/>
	<path style="fill:#17ACE8;" d="M121,166c-49.501,0-90,40.499-90,90c0,49.499,40.499,90,90,90s90-40.501,90-90
		C211,206.499,170.501,166,121,166z"/>
</g>
<path style="fill:#1689FC;" d="M211,256c0,49.499-40.499,90-90,90s-90-40.501-90-90H211z"/>
<g>
</g>
<g>
</g>
<g>
</g>
<g>
</g>
<g>
</g>
<g>
</g>
<g>
</g>
<g>
</g>
<g>
</g>
<g>
</g>
<g>
</g>
<g>
</g>
<g>
</g>
<g>
</g>
<g>
</g>
</svg>
