<?xml version="1.0" encoding="iso-8859-1"?>

<svg version="1.1" id="Capa_1" xmlns="http://www.w3.org/2000/svg" xmlns:xlink="http://www.w3.org/1999/xlink" x="0px" y="0px"
	 viewBox="0 0 512 512" style="enable-background:new 0 0 512 512;" xml:space="preserve">
<path style="fill:#0F60CF;" d="M403.4,96.899l-47.4,18.6c-9,3.6-19.799-0.3-28.799-6C306.2,96.899,280.6,90.3,256,90.3
	c-24.901,0-50.501,6.599-71.499,19.499c-7.5,4.501-15.601,7.2-23.701,7.2c-2.1,0-3.9-0.599-5.7-1.199l-46.8-18.6l54.6-70.5l93.1-0.3
	l62.199-0.3L403.4,96.899z"/>
<path style="fill:#B7E0F6;" d="M452,197v31.5c0,8.399-6.599,15-15,15s-15-6.601-15-15V197c0-90.901-75.099-167-166-167
	S90,106.099,90,197v31.5c0,8.399-6.599,15-15,15s-15-6.601-15-15V197C60,89.599,148.599,0,256,0S452,89.599,452,197z"/>
<path style="fill:#A4D9F5;" d="M377,482h-45c-8.291,0-15-6.709-15-15s6.709-15,15-15h45c24.814,0,45-20.186,45-45v-30
	c0-8.291,6.709-15,15-15s15,6.709,15,15v30C452,448.353,418.353,482,377,482z"/>
<g>
	<path style="fill:#0F60CF;" d="M302,422h-61c-24.901,0-46,20.099-46,45c0,24.899,21.099,45,46,45h61c24.901,0,45-20.101,45-45
		C347,442.099,326.901,422,302,422z"/>
	<path style="fill:#0F60CF;" d="M180,257v90c0,24.899-20.099,45-45,45h-15l-30-30V242l30-30h15C159.901,212,180,232.099,180,257z"/>
</g>
<path style="fill:#B758CE;" d="M120,212v180H90c-49.501,0-90-40.501-90-90c0-49.501,40.499-90,90-90H120z"/>
<path style="fill:#0F60CF;" d="M422,242v120l-30,30h-15c-24.901,0-45-20.101-45-45v-90c0-24.901,20.099-45,45-45h15L422,242z"/>
<g>
	<path style="fill:#0A4EAF;" d="M422,302v60l-30,30h-15c-24.901,0-45-20.101-45-45v-45H422z"/>
	<path style="fill:#0A4EAF;" d="M180,302v45c0,24.899-20.099,45-45,45h-15l-30-30v-60H180z"/>
</g>
<path style="fill:#AA3DC8;" d="M120,302v90H90c-49.501,0-90-40.501-90-90H120z"/>
<path style="fill:#B758CE;" d="M512,302c0,49.499-40.499,90-90,90h-30V212h30C471.501,212,512,252.499,512,302z"/>
<path style="fill:#AA3DC8;" d="M512,302c0,49.499-40.499,90-90,90h-30v-90H512z"/>
<g>
</g>
<g>
</g>
<g>
</g>
<g>
</g>
<g>
</g>
<g>
</g>
<g>
</g>
<g>
</g>
<g>
</g>
<g>
</g>
<g>
</g>
<g>
</g>
<g>
</g>
<g>
</g>
<g>
</g>
</svg>
