<?xml version="1.0" encoding="iso-8859-1"?>

<svg version="1.1" id="Capa_1" xmlns="http://www.w3.org/2000/svg" xmlns:xlink="http://www.w3.org/1999/xlink" x="0px" y="0px"
	 viewBox="0 0 512 512" style="enable-background:new 0 0 512 512;" xml:space="preserve">
<path style="fill:#B7E0F6;" d="M210,437c0,16.8-5.7,32.699-15,45c-13.801,18.3-35.4,30-60,30H75c-41.4,0-75-33.6-75-75V166
	c0-41.4,33.6-76,75-76c8.401,0,15,6.599,15,15c0,8.399-6.599,15-15,15c-24.901,0-45,21.099-45,46v271c0,24.899,20.099,45,45,45h60
	c24.901,0,45-20.101,45-45c0-8.401,6.599-15,15-15S210,428.599,210,437z"/>
<path style="fill:#A4D9F5;" d="M210,437c0,16.8-5.7,32.699-15,45v-60C203.401,422,210,428.599,210,437z"/>
<path style="fill:#0F60CF;" d="M467,30H105c-24.901,0-45,20.099-45,45v302c0,24.899,20.099,45,45,45h362c24.901,0,45-20.101,45-45
	V75C512,50.099,491.901,30,467,30z"/>
<path style="fill:#0A4EAF;" d="M512,75v302c0,24.899-20.099,45-45,45h-91V30h91C491.901,30,512,50.099,512,75z"/>
<path style="fill:#CAE8F9;" d="M436,90H315c-8.401,0-15,6.599-15,15v61c0,8.399,6.599,15,15,15h121c8.401,0,15-6.601,15-15v-61
	C451,96.599,444.401,90,436,90z"/>
<path style="fill:#17ACE8;" d="M225,0h-60c-24.901,0-45,20.099-45,45v362c0,24.899,20.099,45,45,45h60c24.901,0,45-20.101,45-45V45
	C270,20.099,249.901,0,225,0z"/>
<g>
	<circle style="fill:#B7E0F6;" cx="315" cy="226" r="15"/>
	<path style="fill:#B7E0F6;" d="M391,226c0,8.399-6.599,15-15,15s-15-6.601-15-15c0-8.401,6.599-15,15-15S391,217.599,391,226z"/>
</g>
<g>
	<circle style="fill:#A4D9F5;" cx="436" cy="226" r="15"/>
	<circle style="fill:#A4D9F5;" cx="436" cy="286" r="15"/>
</g>
<g>
	<path style="fill:#B7E0F6;" d="M391,286c0,8.399-6.599,15-15,15s-15-6.601-15-15c0-8.401,6.599-15,15-15S391,277.599,391,286z"/>
	<circle style="fill:#B7E0F6;" cx="315" cy="286" r="15"/>
	<circle style="fill:#B7E0F6;" cx="315" cy="347" r="15"/>
	<path style="fill:#B7E0F6;" d="M391,347c0,8.399-6.599,15-15,15s-15-6.601-15-15c0-8.401,6.599-15,15-15S391,338.599,391,347z"/>
</g>
<g>
	<circle style="fill:#A4D9F5;" cx="436" cy="347" r="15"/>
	<path style="fill:#A4D9F5;" d="M391,286c0,8.399-6.599,15-15,15v-30C384.401,271,391,277.599,391,286z"/>
	<path style="fill:#A4D9F5;" d="M391,226c0,8.399-6.599,15-15,15v-30C384.401,211,391,217.599,391,226z"/>
</g>
<path style="fill:#B7E0F6;" d="M451,105v61c0,8.399-6.599,15-15,15h-60V90h60C444.401,90,451,96.599,451,105z"/>
<path style="fill:#A4D9F5;" d="M391,347c0,8.399-6.599,15-15,15v-30C384.401,332,391,338.599,391,347z"/>
<path style="fill:#1689FC;" d="M270,45v362c0,24.899-20.099,45-45,45h-30V0h30C249.901,0,270,20.099,270,45z"/>
<g>
</g>
<g>
</g>
<g>
</g>
<g>
</g>
<g>
</g>
<g>
</g>
<g>
</g>
<g>
</g>
<g>
</g>
<g>
</g>
<g>
</g>
<g>
</g>
<g>
</g>
<g>
</g>
<g>
</g>
</svg>
