<?xml version="1.0" encoding="iso-8859-1"?>

<svg version="1.1" id="Capa_1" xmlns="http://www.w3.org/2000/svg" xmlns:xlink="http://www.w3.org/1999/xlink" x="0px" y="0px"
	 viewBox="0 0 512 512" style="enable-background:new 0 0 512 512;" xml:space="preserve">
<path style="fill:#17ACE8;" d="M406.076,72.6l-57.301,111.6c-3.9,7.5-12.9,10.199-20.099,6.599c-7.5-3.9-10.499-12.9-6.601-20.099
	l36.301-70.499l-71.1,35.698c-7.2,3.9-16.199,0.901-20.099-6.599c-3.6-7.2-0.901-16.201,6.599-20.099l112.2-56.7
	c6.301-3.3,13.2-1.5,17.4,2.701C407.575,59.7,409.375,66.301,406.076,72.6z"/>
<path style="fill:#1689FC;" d="M406.076,72.6l-57.301,111.6c-3.9,7.5-12.9,10.199-20.099,6.599c-7.5-3.9-10.499-12.9-6.601-20.099
	l36.301-70.499l45-45C407.575,59.7,409.375,66.301,406.076,72.6z"/>
<path style="fill:#17ACE8;" d="M320.274,445.399c-2.699,4.2-7.5,6.601-12.299,6.601h-180c-4.799,0-9.6-2.401-12.299-6.601
	c-2.701-3.9-3.602-9-1.8-13.799l57.599-155.001l46.5,18.6l62.999,24.901l41.1,111.501
	C323.876,436.399,322.975,441.499,320.274,445.399z"/>
<path style="fill:#1DE8F1;" d="M445.974,12.6c-17.098-16.8-46.8-16.8-63.6,0c-17.699,17.701-17.699,46.201-0.3,63.6h0.3
	c17.701,17.701,45.901,17.701,63.6,0.3C463.375,58.801,463.375,30.301,445.974,12.6z"/>
<path style="fill:#1BD9DE;" d="M445.974,76.5c-17.699,17.401-45.899,17.401-63.6-0.3l63.6-63.6
	C463.375,30.301,463.375,58.801,445.974,76.5z"/>
<path style="fill:#1689FC;" d="M320.274,445.399c-2.699,4.2-7.5,6.601-12.299,6.601h-90V295.199l62.999,24.901l41.1,111.501
	C323.876,436.399,322.975,441.499,320.274,445.399z"/>
<path style="fill:#B7E0F6;" d="M445.974,266.7l-127.2-127.202l-127.5-127.5c-5.7-5.7-15.3-5.7-21.299,0
	c-75.901,76.201-75.901,199.801,0,276c76.199,75.901,199.799,75.901,275.999,0C451.674,281.999,451.674,272.399,445.974,266.7z"/>
<path style="fill:#A4D9F5;" d="M445.974,287.999c-76.199,75.901-199.799,75.901-275.999,0l148.799-148.5l127.2,127.202
	C451.674,272.399,451.674,281.999,445.974,287.999z"/>
<path style="fill:#0F60CF;" d="M337.975,422h-240c-24.901,0-45,20.099-45,45v30c0,8.399,6.599,15,15,15h300c8.401,0,15-6.601,15-15
	v-30C382.975,442.099,362.876,422,337.975,422z"/>
<path style="fill:#0A4EAF;" d="M382.975,467v30c0,8.399-6.599,15-15,15h-150v-90h120C362.876,422,382.975,442.099,382.975,467z"/>
<g>
</g>
<g>
</g>
<g>
</g>
<g>
</g>
<g>
</g>
<g>
</g>
<g>
</g>
<g>
</g>
<g>
</g>
<g>
</g>
<g>
</g>
<g>
</g>
<g>
</g>
<g>
</g>
<g>
</g>
</svg>
