<?xml version="1.0" encoding="iso-8859-1"?>

<svg version="1.1" id="Capa_1" xmlns="http://www.w3.org/2000/svg" xmlns:xlink="http://www.w3.org/1999/xlink" x="0px" y="0px"
	 viewBox="0 0 512 512" style="enable-background:new 0 0 512 512;" xml:space="preserve">
<path style="fill:#C1001F;" d="M256.229,437.2c-3.721,0-7.412-0.454-10.972-1.348L140.58,409.676
	c-24.067-6.006-38.76-30.483-32.754-54.565c2.93-11.66,10.225-21.489,20.552-27.686c10.327-6.182,22.397-8.027,34.043-5.054
	l104.692,26.177c24.067,6.006,38.76,30.483,32.754,54.565C294.828,423.181,276.884,437.2,256.229,437.2z M151.493,351.023
	c-2.681,0-5.317,0.718-7.69,2.139c-3.457,2.08-5.889,5.347-6.87,9.229c-1.992,8.013,2.9,16.187,10.913,18.193l104.707,26.177
	c7.676,1.89,16.23-3.018,18.208-10.928c1.992-8.013-2.9-16.187-10.913-18.193L155.14,351.463
	C153.925,351.17,152.709,351.023,151.493,351.023z"/>
<polygon style="fill:#FD003A;" points="482,79.3 482,432.7 30,320.2 30,191.8 "/>
<polygon style="fill:#E50027;" points="482,256 482,432.7 30,320.2 30,256 "/>
<g>
	<path style="fill:#FEA832;" d="M60,181v150c0,16.5-13.5,30-30,30S0,347.5,0,331V181c0-16.5,13.5-30,30-30S60,164.5,60,181z"/>
	<path style="fill:#FEA832;" d="M512,61v390c0,16.5-13.5,30-30,30s-30-13.5-30-30V61c0-16.5,13.5-30,30-30S512,44.5,512,61z"/>
</g>
<g>
	<path style="fill:#FE9923;" d="M512,256v195c0,16.5-13.5,30-30,30s-30-13.5-30-30V256H512z"/>
	<path style="fill:#FE9923;" d="M60,256v75c0,16.5-13.5,30-30,30S0,347.5,0,331v-75H60z"/>
</g>
<g>
</g>
<g>
</g>
<g>
</g>
<g>
</g>
<g>
</g>
<g>
</g>
<g>
</g>
<g>
</g>
<g>
</g>
<g>
</g>
<g>
</g>
<g>
</g>
<g>
</g>
<g>
</g>
<g>
</g>
</svg>
