<?xml version="1.0" encoding="iso-8859-1"?>

<svg version="1.1" id="Capa_1" xmlns="http://www.w3.org/2000/svg" xmlns:xlink="http://www.w3.org/1999/xlink" x="0px" y="0px"
	 viewBox="0 0 512 512" style="enable-background:new 0 0 512 512;" xml:space="preserve">
<rect x="181" y="361" style="fill:#08469C;" width="150" height="90"/>
<rect x="256" y="361" style="fill:#063E8B;" width="75" height="90"/>
<path style="fill:#0F60CF;" d="M512,45v256l-30,30H30L0,301V45C0,20.099,20.099,0,45,0h422C491.901,0,512,20.099,512,45z"/>
<path style="fill:#0A4EAF;" d="M512,45v256l-30,30H256V0h211C491.901,0,512,20.099,512,45z"/>
<path style="fill:#CAE8F9;" d="M482,45v286H30V45c0-8.401,6.599-15,15-15h422C475.401,30,482,36.599,482,45z"/>
<path style="fill:#B7E0F6;" d="M482,45v286H256V30h211C475.401,30,482,36.599,482,45z"/>
<path style="fill:#0F60CF;" d="M512,301v45c0,24.901-20.099,45-45,45H45c-24.901,0-45-20.099-45-45v-45H512z"/>
<path style="fill:#0A4EAF;" d="M512,301v45c0,24.901-20.099,45-45,45H256v-90H512z"/>
<path style="fill:#17ACE8;" d="M421,180c0,16.5-13.5,30-30,30h-30c-16.5,0-30-13.5-30-30s-13.5-30-30-30h-90c-16.5,0-30,13.5-30,30
	s-13.5,30-30,30h-30c-16.5,0-30-13.5-30-30c0-49.501,40.499-90,90-90h150C380.501,90,421,130.499,421,180z"/>
<path style="fill:#0F60CF;" d="M419.5,490.399l-21.901-44.5C390.099,430.6,374.5,421,357.4,421H154.6c-17.1,0-26.1,14.702-33.6,30
	l-28.5,39.399c-2.1,4.501-2.1,10.201,0.601,14.401c2.999,4.499,7.8,7.2,12.9,7.2h300c5.099,0,9.901-2.701,12.9-7.2
	C421.601,500.6,421.601,494.9,419.5,490.399z"/>
<path style="fill:#0A4EAF;" d="M418.9,504.8c-2.999,4.499-7.8,7.2-12.9,7.2H256v-91h101.4c17.1,0,32.699,9.6,40.199,24.899
	l21.901,44.5C421.601,494.9,421.601,500.6,418.9,504.8z"/>
<path style="fill:#1689FC;" d="M421,180c0,16.5-13.5,30-30,30h-30c-16.5,0-30-13.5-30-30s-13.5-30-30-30h-45V90h75
	C380.501,90,421,130.499,421,180z"/>
<g>
</g>
<g>
</g>
<g>
</g>
<g>
</g>
<g>
</g>
<g>
</g>
<g>
</g>
<g>
</g>
<g>
</g>
<g>
</g>
<g>
</g>
<g>
</g>
<g>
</g>
<g>
</g>
<g>
</g>
</svg>
