<?xml version="1.0" encoding="iso-8859-1"?>

<svg version="1.1" id="Capa_1" xmlns="http://www.w3.org/2000/svg" xmlns:xlink="http://www.w3.org/1999/xlink" x="0px" y="0px"
	 viewBox="0 0 512 512" style="enable-background:new 0 0 512 512;" xml:space="preserve">
<path style="fill:#CAE8F9;" d="M507.725,131.776l-63.9-63.6l-63.6-63.9c-5.7-5.7-15.3-5.7-21,0
	c-38.401,38.399-65.6,65.6-103.999,103.999c-6,6-6,15.3,0,21.301l127.2,127.2c6,6,15.3,6,21.299,0
	c38.401-38.401,65.6-65.6,104.001-103.999C513.425,147.076,513.425,137.476,507.725,131.776z"/>
<path style="fill:#B7E0F6;" d="M507.725,152.776c-38.401,38.399-65.6,65.598-104.001,103.999c-5.999,6-15.298,6-21.299,0l-63.6-63.6
	l125-125l63.9,63.6C513.425,137.476,513.425,147.076,507.725,152.776z"/>
<path style="fill:#B758CE;" d="M425.024,256.776L255.225,86.977c-6-5.7-15.3-5.7-21.301,0c-76.8,76.8-135.3,135.599-212.1,212.098
	c-29.099,29.401-29.099,77.1,0,106.201l42.599,42.299l42.301,42.601c29.099,29.099,76.8,29.099,106.199,0
	c76.5-76.802,135.3-135.3,212.1-212.1C430.724,272.076,430.724,262.776,425.024,256.776z"/>
<path style="fill:#AA3DC8;" d="M425.024,278.076c-76.8,76.8-135.601,135.298-212.1,212.1c-29.399,29.099-77.1,29.099-106.199,0
	l-42.301-42.601l275.7-275.7l84.901,84.901C430.724,262.776,430.724,272.076,425.024,278.076z"/>
<path style="fill:#CAE8F9;" d="M191.589,335.409c-6.284,0-12.129-3.97-14.224-10.254l-21.211-63.633
	c-1.802-5.391-0.396-11.338,3.618-15.352l31.816-31.816c5.859-5.859,15.352-5.859,21.211,0s5.859,15.352,0,21.211l-25.254,25.269
	l18.267,54.829c2.622,7.866-1.626,16.362-9.478,18.97C194.753,335.16,193.156,335.409,191.589,335.409z"/>
<path style="fill:#B7E0F6;" d="M271.686,334.632l-63.633-21.211c-7.852-2.607-12.1-11.104-9.478-18.97
	c2.607-7.852,11.016-12.1,18.97-9.478l54.844,18.267l25.269-25.254c5.859-5.859,15.352-5.859,21.211,0s5.859,15.352,0,21.211
	l-31.831,31.816C282.996,335.056,277.007,336.439,271.686,334.632z"/>
<path style="fill:#81C8EE;" d="M340.08,129.496c-5.859-5.859-5.859-15.352,0-21.211l21.211-21.211
	c5.859-5.859,15.352-5.859,21.211,0s5.859,15.352,0,21.211l-21.211,21.211C355.431,135.355,345.939,135.355,340.08,129.496z"/>
<path style="fill:#4DBBEB;" d="M382.502,171.917c-5.859-5.859-5.859-15.352,0-21.211l21.211-21.211
	c5.859-5.859,15.352-5.859,21.211,0s5.859,15.352,0,21.211l-21.211,21.211C397.853,177.777,388.361,177.777,382.502,171.917z"/>
<path style="fill:#CAE8F9;" d="M297.524,235.475l-127.2,127.5c-5.7,5.7-15.3,5.7-21.301,0c-5.7-5.999-5.7-15.599,0-21.299
	l127.5-127.2c5.7-6,15.3-6,21,0C303.525,220.177,303.525,229.775,297.524,235.475z"/>
<path style="fill:#B7E0F6;" d="M297.524,235.475l-127.2,127.5c-5.7,5.7-15.3,5.7-21.301,0l148.5-148.499
	C303.525,220.177,303.525,229.775,297.524,235.475z"/>
<path style="fill:#CAE8F9;" d="M170.325,341.676c-17.401-17.701-45.901-17.701-63.6,0c-17.401,17.399-17.701,45.899,0,63.6
	c17.699,17.699,46.199,17.401,63.6,0C188.024,387.575,188.024,359.075,170.325,341.676z"/>
<path style="fill:#B7E0F6;" d="M170.325,405.276c-17.401,17.401-45.901,17.699-63.6,0l63.6-63.6
	C188.024,359.075,188.024,387.575,170.325,405.276z"/>
<g>
</g>
<g>
</g>
<g>
</g>
<g>
</g>
<g>
</g>
<g>
</g>
<g>
</g>
<g>
</g>
<g>
</g>
<g>
</g>
<g>
</g>
<g>
</g>
<g>
</g>
<g>
</g>
<g>
</g>
</svg>
