<?xml version="1.0" encoding="iso-8859-1"?>

<svg version="1.1" id="Capa_1" xmlns="http://www.w3.org/2000/svg" xmlns:xlink="http://www.w3.org/1999/xlink" x="0px" y="0px"
	 viewBox="0 0 512 512" style="enable-background:new 0 0 512 512;" xml:space="preserve">
<path style="fill:#08469C;" d="M357.499,25.499l-121,120C233.8,148.5,229.9,150,226,150s-7.8-1.5-10.499-4.501l-121-120
	c-6-5.7-6-15.3,0-21c5.7-5.999,15.298-5.999,20.999,0l110.5,109.2l110.501-109.2c5.7-5.999,15.298-5.999,20.999,0
	C363.5,10.199,363.5,19.799,357.499,25.499z"/>
<path style="fill:#0A4EAF;" d="M357.499,25.499l-121,120C233.8,148.5,229.9,150,226,150v-36.301l110.501-109.2
	c5.7-5.999,15.298-5.999,20.999,0C363.5,10.199,363.5,19.799,357.499,25.499z"/>
<path style="fill:#FD003A;" d="M467,120H45c-24.901,0-45,20.099-45,45v302c0,24.899,20.099,45,45,45h422c24.901,0,45-20.101,45-45
	V165C512,140.099,491.901,120,467,120z"/>
<path style="fill:#E50027;" d="M512,165v302c0,24.899-20.099,45-45,45H226V120h241C491.901,120,512,140.099,512,165z"/>
<path style="fill:#CAE8F9;" d="M347,180H105c-24.901,0-45,21.099-45,46v180c0,24.899,20.099,46,45,46h242c24.901,0,45-21.101,45-46
	V226C392,201.099,371.901,180,347,180z"/>
<g>
	<circle style="fill:#B7E0F6;" cx="437" cy="226" r="15"/>
	<circle style="fill:#B7E0F6;" cx="437" cy="286" r="15"/>
	<circle style="fill:#B7E0F6;" cx="437" cy="346" r="15"/>
	<path style="fill:#B7E0F6;" d="M392,226v180c0,24.899-20.099,46-45,46H226V180h121C371.901,180,392,201.099,392,226z"/>
</g>
<path style="fill:#FD003A;" d="M293.599,302.5l-122-60c-4.499-2.1-10.199-2.1-14.399,0.601c-4.499,2.999-7.2,7.798-7.2,12.9v120
	c0,5.099,2.701,9.899,7.2,12.9c2.401,1.5,5.099,2.1,7.8,2.1c2.401,0,4.501-0.601,6.599-1.5l122-60C298.7,326.8,302,321.7,302,316
	S298.7,305.2,293.599,302.5z"/>
<path style="fill:#E50027;" d="M302,316c0,5.7-3.3,10.8-8.401,13.5L226,362.8v-93.6l67.599,33.3C298.7,305.2,302,310.3,302,316z"/>
<g>
</g>
<g>
</g>
<g>
</g>
<g>
</g>
<g>
</g>
<g>
</g>
<g>
</g>
<g>
</g>
<g>
</g>
<g>
</g>
<g>
</g>
<g>
</g>
<g>
</g>
<g>
</g>
<g>
</g>
</svg>
