<?xml version="1.0" encoding="iso-8859-1"?>

<svg version="1.1" id="Capa_1" xmlns="http://www.w3.org/2000/svg" xmlns:xlink="http://www.w3.org/1999/xlink" x="0px" y="0px"
	 viewBox="0 0 512 512" style="enable-background:new 0 0 512 512;" xml:space="preserve">
<polygon style="fill:#0F60CF;" points="451,90 451,360 421,390 91,390 61,360 61,90 91,60 421,60 "/>
<polygon style="fill:#0A4EAF;" points="451,90 451,360 421,390 256,390 256,60 421,60 "/>
<rect x="91" y="60" style="fill:#CAE8F9;" width="330" height="330"/>
<rect x="256" y="60" style="fill:#B7E0F6;" width="165" height="330"/>
<g>
	<path style="fill:#0F60CF;" d="M451,360v107c0,24.901-20.099,45-45,45H106c-24.901,0-45-20.099-45-45V360H451z"/>
	<path style="fill:#0F60CF;" d="M451,45v45H61V45c0-24.901,20.099-45,45-45h300C430.901,0,451,20.099,451,45z"/>
</g>
<g>
	<path style="fill:#0A4EAF;" d="M451,360v107c0,24.901-20.099,45-45,45H256V360H451z"/>
	<path style="fill:#0A4EAF;" d="M451,45v45H256V0h150C430.901,0,451,20.099,451,45z"/>
</g>
<path style="fill:#17ACE8;" d="M226,210h-90c-8.291,0-15-6.709-15-15v-60c0-8.291,6.709-15,15-15h90c8.291,0,15,6.709,15,15v60
	C241,203.291,234.291,210,226,210z"/>
<path style="fill:#CAE8F9;" d="M301,437c0,8.399-6.599,15-15,15h-60c-8.401,0-15-6.601-15-15c0-8.401,6.599-15,15-15h60
	C294.401,422,301,428.599,301,437z"/>
<g>
	<path style="fill:#1689FC;" d="M376,150h-90c-8.291,0-15-6.709-15-15s6.709-15,15-15h90c8.291,0,15,6.709,15,15
		S384.291,150,376,150z"/>
	<path style="fill:#1689FC;" d="M376,210h-90c-8.291,0-15-6.709-15-15s6.709-15,15-15h90c8.291,0,15,6.709,15,15
		S384.291,210,376,210z"/>
</g>
<g>
	<path style="fill:#17ACE8;" d="M391,255c0,8.399-6.599,15-15,15H136c-8.401,0-15-6.601-15-15c0-8.401,6.599-15,15-15h240
		C384.401,240,391,246.599,391,255z"/>
	<path style="fill:#17ACE8;" d="M271,315c0,8.399-6.599,15-15,15H136c-8.401,0-15-6.601-15-15c0-8.401,6.599-15,15-15h120
		C264.401,300,271,306.599,271,315z"/>
</g>
<path style="fill:#B7E0F6;" d="M301,437c0,8.399-6.599,15-15,15h-30v-30h30C294.401,422,301,428.599,301,437z"/>
<g>
	<path style="fill:#1689FC;" d="M271,315c0,8.399-6.599,15-15,15v-30C264.401,300,271,306.599,271,315z"/>
	<path style="fill:#1689FC;" d="M391,255c0,8.399-6.599,15-15,15H256v-30h120C384.401,240,391,246.599,391,255z"/>
</g>
<g>
</g>
<g>
</g>
<g>
</g>
<g>
</g>
<g>
</g>
<g>
</g>
<g>
</g>
<g>
</g>
<g>
</g>
<g>
</g>
<g>
</g>
<g>
</g>
<g>
</g>
<g>
</g>
<g>
</g>
</svg>
