<?xml version="1.0" encoding="iso-8859-1"?>

<svg version="1.1" id="Capa_1" xmlns="http://www.w3.org/2000/svg" xmlns:xlink="http://www.w3.org/1999/xlink" x="0px" y="0px"
	 viewBox="0 0 512 512" style="enable-background:new 0 0 512 512;" xml:space="preserve">
<path style="fill:#1689FC;" d="M442.898,486.2c-7.5,15.899-23.099,25.8-40.8,25.8H109.9c-17.701,0-33.3-9.901-40.8-25.8
	c-7.5-16.201-5.101-34.501,6.299-48.001l79.2-95.099L235.9,347l-73.5,80.4c-3.6,4.499-4.501,10.8-2.1,15.899
	c2.701,5.402,7.8,8.701,13.801,8.701h163.799c6,0,11.1-3.3,13.801-8.701c2.401-5.099,1.5-11.4-2.1-15.899L276.1,347l81.301-3.9
	l79.2,95.099C448.001,451.7,450.398,469.999,442.898,486.2z"/>
<path style="fill:#136EF1;" d="M442.898,486.2c-7.5,15.899-23.099,25.8-40.8,25.8H256v-60h81.899c6,0,11.1-3.3,13.801-8.701
	c2.401-5.099,1.5-11.4-2.1-15.899l-73.5-80.4l81.301-3.9l79.2,95.099C448.001,451.7,450.398,469.999,442.898,486.2z"/>
<path style="fill:#CAE8F9;" d="M256,0C148.598,0,61,88.599,61,196c0,107.399,87.598,196,195,196s195-88.601,195-196
	C451,88.599,363.402,0,256,0z"/>
<g>
	<path style="fill:#B7E0F6;" d="M256,0v181v15v196c107.402,0,195-88.601,195-196C451,88.599,363.402,0,256,0z"/>
	<path style="fill:#B7E0F6;" d="M61,196c0,5.063,0.381,10.032,0.762,15h388.477c0.381-4.968,0.762-9.937,0.762-15
		s-0.381-10.032-0.762-15H61.762C61.381,185.968,61,190.937,61,196z"/>
</g>
<path style="fill:#A4D9F5;" d="M256,211h194.238c0.381-4.968,0.762-9.937,0.762-15s-0.381-10.032-0.762-15H256v15V211z"/>
<path style="fill:#08469C;" d="M256,91c-57.9,0-105,47.1-105,105s47.1,105,105,105s105-47.1,105-105S313.9,91,256,91z"/>
<path style="fill:#063E8B;" d="M361,196c0,57.9-47.1,105-105,105V91C313.9,91,361,138.1,361,196z"/>
<path style="fill:#1DE8F1;" d="M256,151c-24.901,0-45,20.099-45,45c0,24.899,20.099,45,45,45s45-20.101,45-45
	C301,171.099,280.901,151,256,151z"/>
<path style="fill:#1BD9DE;" d="M301,196c0,24.899-20.099,45-45,45v-90C280.901,151,301,171.099,301,196z"/>
<g>
</g>
<g>
</g>
<g>
</g>
<g>
</g>
<g>
</g>
<g>
</g>
<g>
</g>
<g>
</g>
<g>
</g>
<g>
</g>
<g>
</g>
<g>
</g>
<g>
</g>
<g>
</g>
<g>
</g>
</svg>
