<?xml version="1.0" encoding="iso-8859-1"?>

<svg version="1.1" id="Capa_1" xmlns="http://www.w3.org/2000/svg" xmlns:xlink="http://www.w3.org/1999/xlink" x="0px" y="0px"
	 viewBox="0 0 512 512" style="enable-background:new 0 0 512 512;" xml:space="preserve">
<rect x="181.084" y="90.047" style="fill:#994C0F;" width="149.961" height="119.969"/>
<rect x="256.064" y="90.047" style="fill:#713708;" width="74.981" height="119.969"/>
<path style="fill:#FD003A;" d="M470.011,481.941H42.123l87.976-233.84c15.296-40.789,54.887-68.081,98.375-68.081h55.185
	c43.489,0,83.079,27.292,98.375,68.081L470.011,481.941z"/>
<path style="fill:#E50027;" d="M470.011,481.941H256.067V180.02h27.592c43.489,0,83.079,27.292,98.375,68.081L470.011,481.941z"/>
<path style="fill:#CAE8F9;" d="M256.067,240.004c-41.389,0-74.981,33.591-74.981,74.98s33.591,74.981,74.981,74.981
	s74.981-33.591,74.981-74.981S297.457,240.004,256.067,240.004z"/>
<path style="fill:#B7E0F6;" d="M331.048,314.985c0,41.389-33.591,74.981-74.981,74.981V240.004
	C297.457,240.004,331.048,273.595,331.048,314.985z"/>
<path style="fill:#994C0F;" d="M256.067,269.996c-24.894,0-44.988,20.094-44.988,44.988c0,24.893,20.094,44.988,44.988,44.988
	s44.988-20.096,44.988-44.988C301.056,290.091,280.961,269.996,256.067,269.996z"/>
<path style="fill:#713708;" d="M301.056,314.985c0,24.893-20.094,44.988-44.988,44.988v-89.977
	C280.961,269.996,301.056,290.091,301.056,314.985z"/>
<path style="fill:#CAE8F9;" d="M271.063,314.985c0,8.397-6.597,14.996-14.996,14.996c-8.399,0-14.996-6.599-14.996-14.996
	c0-8.399,6.597-14.996,14.996-14.996C264.466,299.989,271.063,306.586,271.063,314.985z"/>
<g>
	<path style="fill:#B7E0F6;" d="M482.009,481.941c0,16.496-13.497,29.992-29.992,29.992H60.118
		c-16.496,0-29.992-13.496-29.992-29.992s13.496-29.992,29.992-29.992h391.898C468.511,451.949,482.009,465.447,482.009,481.941z"/>
	<path style="fill:#B7E0F6;" d="M271.063,314.985c0,8.397-6.597,14.996-14.996,14.996v-29.992
		C264.466,299.989,271.063,306.586,271.063,314.985z"/>
</g>
<path style="fill:#A4D9F5;" d="M482.009,481.941c0,16.496-13.497,29.992-29.992,29.992H256.067v-59.984h195.949
	C468.511,451.949,482.009,465.447,482.009,481.941z"/>
<path style="fill:#FD003A;" d="M506.302,120.035l-24.895,29.992h-96.074l-23.994-20.395c-0.901-7.2-7.498-9.598-14.996-9.598
	H166.391c-7.798,0-14.097,2.398-14.996,9.598l-23.994,20.395H30.726L5.831,120.035C24.427,51.053,88.111,0.066,163.092,0.066
	h185.652C423.725,0.066,487.407,51.054,506.302,120.035z"/>
<path style="fill:#E50027;" d="M506.302,120.035l-24.895,29.992h-96.074l-23.994-20.395c-0.901-7.2-7.498-9.598-14.996-9.598
	h-90.277V0.066h92.677C423.725,0.066,487.407,51.054,506.302,120.035z"/>
<path style="fill:#C1001F;" d="M506.221,120.035H346.307c7.674,0,14.015,2.27,14.893,9.709c-5.764,20.068-5.624,19.576-8.626,30.021
	c-3.679,25.021,13.406,50.246,44.505,50.246h69.727c26.805,0,45.193-15.646,45.193-47.713
	C512.001,150.304,510.182,134.672,506.221,120.035z"/>
<path style="fill:#E50027;" d="M166.354,120.035H5.738c-3.987,14.822-5.784,30.475-5.738,42.88
	c0.123,30.322,21.094,47.097,45.032,47.097h60.354c39.024,0,62.944-22.424,51.994-59.984l-5.921-20.312
	C152.354,122.291,158.695,120.035,166.354,120.035z"/>
<g>
</g>
<g>
</g>
<g>
</g>
<g>
</g>
<g>
</g>
<g>
</g>
<g>
</g>
<g>
</g>
<g>
</g>
<g>
</g>
<g>
</g>
<g>
</g>
<g>
</g>
<g>
</g>
<g>
</g>
</svg>
