<?xml version="1.0" encoding="iso-8859-1"?>

<svg version="1.1" id="Capa_1" xmlns="http://www.w3.org/2000/svg" xmlns:xlink="http://www.w3.org/1999/xlink" x="0px" y="0px"
	 viewBox="0 0 511.999 511.999" style="enable-background:new 0 0 511.999 511.999;" xml:space="preserve">
<path style="fill:#1DE8F1;" d="M264.08,246.656c0.624,5.295-1.245,9.965-4.67,13.081c-3.115,3.426-7.785,5.293-13.079,4.67
	c-50.139-2.492-88.444-4.36-138.581-6.85c-7.164,0.622-12.769-3.427-15.259-9.032c-2.492-5.293-1.869-12.144,3.113-17.439
	c16.506-16.504,28.962-28.962,45.468-45.466C91.867,136.102,53.874,98.422,4.671,48.906c-6.228-6.228-6.228-15.882,0-22.11
	L15.57,15.896L26.471,4.998c6.227-6.228,15.88-6.228,22.11,0c49.516,49.203,87.197,87.197,136.712,136.399
	c16.504-16.504,28.962-28.962,45.468-45.466c5.293-4.982,12.144-5.606,17.439-3.113c5.606,2.49,9.654,8.095,9.03,15.259
	C259.721,158.214,261.59,196.519,264.08,246.656z"/>
<path style="fill:#FD003A;" d="M462.765,282.47l-90.31,90.312l-90,90c-32.699,32.699-75.675,48.891-118.339,48.891
	c-28.34,0-56.678-7.162-82.214-21.176c1.869-17.751,3.426-31.453,5.293-49.203l72.249-72.249
	c20.243-4.672,35.814-7.785,56.055-12.145l70.38-70.38h0.311l70.069-70.069c4.36-9.03,7.474-15.882,11.834-24.913
	c26.469-37.683,46.713-66.643,73.182-104.326c17.751-1.869,31.142-3.113,48.893-4.982
	C529.097,152.297,513.526,231.709,462.765,282.47z"/>
<g>
	<path style="fill:#E50027;" d="M372.455,372.782l-90,90c-32.699,32.699-75.675,48.891-118.339,48.891
		c-28.34,0-56.678-7.162-82.214-21.176c1.869-17.751,3.426-31.453,5.293-49.203l72.249-72.249
		c20.243-4.672,35.814-7.785,56.055-12.145l70.38-70.38h0.311L372.455,372.782z"/>
	<path style="fill:#E50027;" d="M490.24,82.219c-8.029-14.457-22.347-32.628-28.082-38.323l-0.016-0.016
		c-23.044-22.78-51.34-19.791-68.594-2.493l-65.584,65.644c-27.463,27.463-29.583,63.208,9.046,84.38l17.032,9.334
		c3.529,4.492,4.19,10.48,2.089,15.58L490.24,82.219z"/>
</g>
<path style="fill:#C1001F;" d="M200.038,354.736l-9.395-16.957c-20.848-37.629-56.618-36.877-76.214-17.181
	c-0.654,0.593-8.378,7.694-73.475,72.654c-17.58,17.58-20.656,45.764,3.163,69.582c5.329,5.326,23.982,19.9,37.914,27.593
	l133.695-133.695C210.593,358.821,204.423,358.224,200.038,354.736z"/>
<path style="fill:#1BD9DE;" d="M259.41,259.737c-3.115,3.426-7.785,5.293-13.079,4.67c-50.139-2.492-88.444-4.36-138.581-6.85
	c-7.164,0.622-12.769-3.427-15.259-9.032c-2.492-5.293-1.869-12.144,3.113-17.439c16.506-16.504,28.962-28.962,45.468-45.466
	C91.867,136.103,53.874,98.423,4.671,48.908c-6.228-6.228-6.228-15.882,0-22.11L15.57,15.896L259.41,259.737z"/>
<g>
</g>
<g>
</g>
<g>
</g>
<g>
</g>
<g>
</g>
<g>
</g>
<g>
</g>
<g>
</g>
<g>
</g>
<g>
</g>
<g>
</g>
<g>
</g>
<g>
</g>
<g>
</g>
<g>
</g>
</svg>
