<?xml version="1.0" encoding="iso-8859-1"?>

<svg version="1.1" id="Capa_1" xmlns="http://www.w3.org/2000/svg" xmlns:xlink="http://www.w3.org/1999/xlink" x="0px" y="0px"
	 viewBox="0 0 512 512" style="enable-background:new 0 0 512 512;" xml:space="preserve">
<g>
	<path style="fill:#1DE8F1;" d="M273.132,15.493c0,8.498-6.676,15.174-15.174,15.174c-62.82,0-119.571,25.493-160.845,66.766
		s-66.766,98.023-66.766,160.845c0,8.498-6.676,15.174-15.174,15.174S0,266.775,0,258.277c0-71.015,28.831-135.655,75.567-182.392
		C122.304,29.15,186.943,0.319,257.958,0.319C266.457,0.319,273.132,6.994,273.132,15.493z"/>
	<path style="fill:#1DE8F1;" d="M273.132,76.189c0,8.498-6.676,15.174-15.174,15.174c-46.13,0-87.706,18.816-118.054,48.86
		c-30.045,30.348-48.86,71.925-48.86,118.054c0,8.498-6.676,15.174-15.174,15.174s-15.174-6.676-15.174-15.174
		c0-54.322,22.153-103.789,57.964-139.299c35.508-35.811,84.976-57.964,139.299-57.964C266.457,61.015,273.132,67.69,273.132,76.189
		z"/>
	<path style="fill:#1DE8F1;" d="M273.132,136.885c0,8.498-6.676,15.174-15.174,15.174c-29.135,0-55.841,11.836-74.959,31.26
		c-19.424,19.117-31.26,45.824-31.26,74.959c0,8.498-6.676,15.174-15.174,15.174c-8.498,0-15.174-6.676-15.174-15.174
		c0-37.632,15.174-71.621,40.059-96.507s58.875-40.059,96.507-40.059C266.457,121.711,273.132,128.386,273.132,136.885z"/>
</g>
<path style="fill:#1BD9DE;" d="M183,183.317c-19.424,19.118-31.26,45.825-31.26,74.96c0,8.498-6.676,15.174-15.174,15.174
	c-8.498,0-15.174-6.676-15.174-15.174c0-37.632,15.174-71.621,40.059-96.507L183,183.317z"/>
<path style="fill:#1DE8F1;" d="M273.132,197.581c0,8.498-6.676,15.174-15.174,15.174c-12.745,0-23.974,5.158-32.169,13.353
	c-8.195,8.195-13.353,19.423-13.353,32.169c0,8.498-6.676,15.174-15.174,15.174c-8.498,0-15.174-6.676-15.174-15.174
	c0-20.94,8.498-40.059,22.153-53.717c13.657-13.656,32.777-22.153,53.717-22.153C266.457,182.407,273.132,189.082,273.132,197.581z"
	/>
<path style="fill:#FD003A;" d="M464.021,288.321l-88.008,88.01l-87.706,87.706c-31.865,31.865-73.746,47.644-115.323,47.644
	c-27.618,0-55.233-6.979-80.119-20.637c1.821-17.298,3.338-30.652,5.158-47.949l70.407-70.408
	c19.727-4.553,34.901-7.587,54.626-11.836l68.587-68.587h0.303l68.283-68.283c4.249-8.8,7.284-15.478,11.532-24.278
	c25.795-36.722,45.522-64.945,71.317-101.667c17.298-1.821,30.348-3.034,47.646-4.855
	C528.662,161.467,513.488,238.853,464.021,288.321z"/>
<path style="fill:#1BD9DE;" d="M225.79,226.108c-8.195,8.195-13.353,19.423-13.353,32.169c0,8.498-6.676,15.174-15.174,15.174
	c-8.498,0-15.174-6.676-15.174-15.174c0-20.94,8.498-40.059,22.153-53.717L225.79,226.108z"/>
<path style="fill:#E50027;" d="M376.012,376.331l-87.706,87.706c-31.865,31.865-73.746,47.644-115.323,47.644
	c-27.618,0-55.233-6.979-80.119-20.637c1.821-17.298,3.338-30.652,5.158-47.949l70.407-70.408
	c19.727-4.553,34.901-7.587,54.626-11.836l68.587-68.587h0.303L376.012,376.331z"/>
<g>
	<path style="fill:#1BD9DE;" d="M139.905,140.222c-30.045,30.348-48.86,71.925-48.86,118.054c0,8.498-6.676,15.174-15.174,15.174
		s-15.174-6.676-15.174-15.174c0-54.322,22.153-103.789,57.964-139.299L139.905,140.222z"/>
	<path style="fill:#1BD9DE;" d="M97.114,97.432c-41.273,41.273-66.766,98.023-66.766,160.845c0,8.498-6.676,15.174-15.174,15.174
		S0,266.775,0,258.277c0-71.015,28.831-135.655,75.567-182.392L97.114,97.432z"/>
</g>
<path style="fill:#E50027;" d="M490.796,93.173c-7.825-14.089-21.778-31.797-27.366-37.346l-0.015-0.015
	c-22.457-22.2-50.032-19.286-66.846-2.43l-63.912,63.971c-26.763,26.763-28.829,61.597,8.815,82.229l16.598,9.096
	c3.439,4.377,4.083,10.213,2.035,15.183L490.796,93.173z"/>
<path style="fill:#C1001F;" d="M207.99,358.745l-9.156-16.525c-20.317-36.67-55.175-35.937-74.272-16.743
	c-0.637,0.578-8.165,7.498-71.602,70.802c-17.131,17.131-20.13,44.597,3.082,67.809c5.194,5.191,23.371,19.392,36.948,26.889
	l130.287-130.287C218.276,362.726,212.264,362.144,207.99,358.745z"/>
<g>
</g>
<g>
</g>
<g>
</g>
<g>
</g>
<g>
</g>
<g>
</g>
<g>
</g>
<g>
</g>
<g>
</g>
<g>
</g>
<g>
</g>
<g>
</g>
<g>
</g>
<g>
</g>
<g>
</g>
</svg>
