<?xml version="1.0" encoding="iso-8859-1"?>

<svg version="1.1" id="Capa_1" xmlns="http://www.w3.org/2000/svg" xmlns:xlink="http://www.w3.org/1999/xlink" x="0px" y="0px"
	 viewBox="0 0 512 512" style="enable-background:new 0 0 512 512;" xml:space="preserve">
<polygon style="fill:#0F60CF;" points="376,90 376,422 346,452 46,452 16,422 16,90 46,60 346,60 "/>
<polygon style="fill:#0A4EAF;" points="376,90 376,422 346,452 196,452 196,60 346,60 "/>
<rect x="46" y="60" style="fill:#CAE8F9;" width="300" height="392"/>
<rect x="196" y="60" style="fill:#B7E0F6;" width="150" height="392"/>
<g>
	<path style="fill:#0F60CF;" d="M376,422v45c0,24.901-20.099,45-45,45H61c-24.901,0-45-20.099-45-45v-45H376z"/>
	<path style="fill:#0F60CF;" d="M376,45v45H16V45C16,20.099,36.099,0,61,0h270C355.901,0,376,20.099,376,45z"/>
</g>
<g>
	<path style="fill:#0A4EAF;" d="M376,422v45c0,24.901-20.099,45-45,45H196v-90H376z"/>
	<path style="fill:#0A4EAF;" d="M376,45v45H196V0h135C355.901,0,376,20.099,376,45z"/>
</g>
<g>
	<path style="fill:#17ACE8;" d="M151,211H91c-8.291,0-15-6.709-15-15s6.709-15,15-15h60c8.291,0,15,6.709,15,15S159.291,211,151,211
		z"/>
	<path style="fill:#17ACE8;" d="M151,271H91c-8.291,0-15-6.709-15-15s6.709-15,15-15h60c8.291,0,15,6.709,15,15
		C166,264.291,159.291,271,151,271z"/>
	<path style="fill:#17ACE8;" d="M151,331H91c-8.291,0-15-6.709-15-15s6.709-15,15-15h60c8.291,0,15,6.709,15,15S159.291,331,151,331
		z"/>
</g>
<path style="fill:#19C7CC;" d="M491.49,176.721l-93.69,64.224l4.83,47.252l38.066,38.066l51.021,8.599
	C494.396,329.105,496,322.757,496,316V196C496,189.073,494.297,182.588,491.49,176.721z"/>
<path style="fill:#1BD9DE;" d="M200.51,176.721C197.703,182.588,196,189.073,196,196v120c0,6.757,1.604,13.105,4.283,18.862
	l51.021-8.599l38.066-38.066l4.83-47.252L200.51,176.721z"/>
<path style="fill:#1DE8F1;" d="M491.8,334.9C484,351.099,467.5,361,451,361H241c-16.5,0-32.999-9.901-40.8-26.1l93.9-93.9
	c27.299,18.6,21.899,15,41.4,28.2c2.699,2.999,6.599,4.2,10.499,4.2s7.8-1.201,10.499-4.2C376,256,370.6,259.6,397.899,241
	L491.8,334.9z"/>
<path style="fill:#1BD9DE;" d="M491.8,334.9C484,351.099,467.5,361,451,361H346v-87.599c3.9,0,7.8-1.201,10.499-4.2
	C376,256,370.6,259.6,397.899,241L491.8,334.9z"/>
<path style="fill:#17ACE8;" d="M491.499,176.8L377.8,290.501c-8.699,8.699-20.4,12.9-31.8,12.9s-23.101-4.2-31.8-12.9L200.501,176.8
	c7.798-16.5,24.3-25.8,40.499-25.8h210C467.199,151,483.701,160.3,491.499,176.8z"/>
<path style="fill:#1689FC;" d="M491.499,176.8L377.8,290.501c-8.699,8.699-20.4,12.9-31.8,12.9V151h105
	C467.199,151,483.701,160.3,491.499,176.8z"/>
<g>
</g>
<g>
</g>
<g>
</g>
<g>
</g>
<g>
</g>
<g>
</g>
<g>
</g>
<g>
</g>
<g>
</g>
<g>
</g>
<g>
</g>
<g>
</g>
<g>
</g>
<g>
</g>
<g>
</g>
</svg>
