<?xml version="1.0" encoding="iso-8859-1"?>

<svg version="1.1" id="Capa_1" xmlns="http://www.w3.org/2000/svg" xmlns:xlink="http://www.w3.org/1999/xlink" x="0px" y="0px"
	 viewBox="0 0 512 512" style="enable-background:new 0 0 512 512;" xml:space="preserve">
<path style="fill:#FD003A;" d="M256,0C115.3,0,0,115.3,0,256s115.3,256,256,256c39.3,0,76.5-10.3,109.799-26.201L366.7,366.7
	l119.099-1.201C501.7,332.199,512,295.3,512,256C512,115.3,396.7,0,256,0z M256,331c-41.4,0-75-33.6-75-75s33.6-75,75-75
	s75,33.6,75,75S297.4,331,256,331z"/>
<path style="fill:#E50027;" d="M512,256c0,39.3-10.3,76.199-26.201,109.499L366.7,366.7l-0.901,119.099
	C332.5,501.7,295.3,512,256,512V331c41.4,0,75-33.6,75-75s-33.6-75-75-75V0C396.7,0,512,115.3,512,256z"/>
<g>
	<path style="fill:#CAE8F9;" d="M256,61c-24.901,0-45,20.099-45,45c0,24.899,20.099,45,45,45s45-20.101,45-45
		C301,81.099,280.901,61,256,61z"/>
	<path style="fill:#CAE8F9;" d="M256,361c-24.901,0-45,20.099-45,45c0,24.899,20.099,45,45,45s45-20.101,45-45
		C301,381.099,280.901,361,256,361z"/>
</g>
<path style="fill:#B7E0F6;" d="M330.238,181.747c-17.546-17.546-17.603-46.015,0.015-63.633c16.963-16.978,46.626-17.007,63.633,0
	c17.617,17.617,17.546,46.102,0,63.647C376.237,199.379,347.8,199.308,330.238,181.747z"/>
<g>
	<path style="fill:#CAE8F9;" d="M118.114,393.886c-17.618-17.617-17.546-46.102,0-63.647c16.992-16.978,46.655-16.963,63.647,0.015
		c17.525,17.525,17.654,45.949,0,63.633l0,0C164.216,411.431,135.732,411.503,118.114,393.886z"/>
	<path style="fill:#CAE8F9;" d="M118.114,181.747c-17.561-17.53-17.618-46.015,0-63.633c16.992-17.007,46.655-16.978,63.647,0
		c17.617,17.648,17.546,46.087-0.015,63.647C164.202,199.307,135.732,199.365,118.114,181.747z"/>
</g>
<path style="fill:#B7E0F6;" d="M406,301c-24.814,0-45-20.186-45-45s20.186-45,45-45s45,20.186,45,45S430.814,301,406,301z"/>
<path style="fill:#CAE8F9;" d="M106,301c-24.814,0-45-20.186-45-45s20.186-45,45-45s45,20.186,45,45S130.814,301,106,301z"/>
<g>
	<path style="fill:#B7E0F6;" d="M301,406c0,24.899-20.099,45-45,45v-90C280.901,361,301,381.099,301,406z"/>
	<path style="fill:#B7E0F6;" d="M301,106c0,24.899-20.099,45-45,45V61C280.901,61,301,81.099,301,106z"/>
	<path style="fill:#B7E0F6;" d="M349.633,331.454c-5.098-1.304-10.547,0.205-14.268,3.955s-5.2,9.17-3.896,14.297l34.329,136.093
		c9.379-4.499,18.459-9.485,27.164-15.055c31.326-20.052,57.936-46.703,77.95-78.056c5.555-8.703,10.532-17.781,15.016-27.156
		L349.633,331.454z"/>
</g>
<g>
</g>
<g>
</g>
<g>
</g>
<g>
</g>
<g>
</g>
<g>
</g>
<g>
</g>
<g>
</g>
<g>
</g>
<g>
</g>
<g>
</g>
<g>
</g>
<g>
</g>
<g>
</g>
<g>
</g>
</svg>
