<?xml version="1.0" encoding="iso-8859-1"?>

<svg version="1.1" id="Capa_1" xmlns="http://www.w3.org/2000/svg" xmlns:xlink="http://www.w3.org/1999/xlink" x="0px" y="0px"
	 viewBox="0 0 512 512" style="enable-background:new 0 0 512 512;" xml:space="preserve">
<path style="fill:#AA3DC8;" d="M181,237.229c-82.8,0-150,67.2-150,150V467c0,24.899,20.099,45,45,45h210c24.901,0,45-20.101,45-45
	v-79.771C331,304.428,263.8,237.229,181,237.229z"/>
<g>
	<path style="fill:#1BD9DE;" d="M426.464,292.732c-7.339-3.853-10.166-12.92-6.299-20.244C440.336,234.094,451,190.778,451,147.229
		S440.336,60.363,420.165,21.97c-3.867-7.324-1.041-16.392,6.299-20.244c7.354-3.853,16.392-1.04,20.244,6.299
		C469.149,50.695,481,98.83,481,147.229s-11.851,96.533-34.292,139.204C442.85,293.79,433.785,296.585,426.464,292.732z"/>
	<path style="fill:#1BD9DE;" d="M373.319,264.885c-7.339-3.853-10.166-12.92-6.299-20.244c15.689-29.868,23.98-63.545,23.98-97.412
		s-8.291-67.544-23.979-97.412c-3.867-7.324-1.04-16.392,6.299-20.244c7.368-3.853,16.406-1.04,20.244,6.299
		C411.508,70.002,421,108.513,421,147.229s-9.492,77.227-27.437,111.357C389.706,265.943,380.641,268.738,373.319,264.885z"/>
	<path style="fill:#1BD9DE;" d="M320.16,237.053c-7.324-3.853-10.151-12.92-6.284-20.259C325.082,195.495,331,171.443,331,147.229
		s-5.918-48.267-17.124-69.565c-3.867-7.339-1.04-16.406,6.284-20.259c7.31-3.853,16.406-1.055,20.259,6.284
		C353.881,89.294,361,118.181,361,147.229s-7.119,57.935-20.581,83.54C336.593,238.045,327.525,240.929,320.16,237.053z"/>
</g>
<path style="fill:#B758CE;" d="M181,27.229c-66.301,0-120,53.699-120,120c0,66.299,53.699,120,120,120s120-53.701,120-120
	C301,80.928,247.301,27.229,181,27.229z"/>
<path style="fill:#9332B0;" d="M331,387.229V467c0,24.899-20.099,45-45,45H181V237.229C263.8,237.229,331,304.428,331,387.229z"/>
<path style="fill:#AA3DC8;" d="M301,147.229c0,66.299-53.699,120-120,120v-240C247.301,27.229,301,80.928,301,147.229z"/>
<g>
</g>
<g>
</g>
<g>
</g>
<g>
</g>
<g>
</g>
<g>
</g>
<g>
</g>
<g>
</g>
<g>
</g>
<g>
</g>
<g>
</g>
<g>
</g>
<g>
</g>
<g>
</g>
<g>
</g>
</svg>
