<?xml version="1.0" encoding="iso-8859-1"?>

<svg version="1.1" id="Capa_1" xmlns="http://www.w3.org/2000/svg" xmlns:xlink="http://www.w3.org/1999/xlink" x="0px" y="0px"
	 viewBox="0 0 512 512" style="enable-background:new 0 0 512 512;" xml:space="preserve">
<path style="fill:#0F60CF;" d="M347,0H45C20.099,0,0,20.099,0,45v332c0,74.399,60.601,135,135,135h121c74.399,0,136-60.601,136-135
	V45C392,20.099,371.901,0,347,0z"/>
<path style="fill:#0A4EAF;" d="M392,45v332c0,74.399-61.601,135-136,135h-60V0h151C371.901,0,392,20.099,392,45z"/>
<path style="fill:#CAE8F9;" d="M317,60H75c-8.401,0-15,6.599-15,15v302c0,8.399,6.599,15,15,15h242c8.401,0,15-6.601,15-15V75
	C332,66.599,325.401,60,317,60z"/>
<path style="fill:#B7E0F6;" d="M332,75v302c0,8.399-6.599,15-15,15H196V60h121C325.401,60,332,66.599,332,75z"/>
<path style="fill:#CAE8F9;" d="M241,437c0,8.399-6.599,15-15,15h-60c-8.401,0-16-6.601-16-15c0-8.401,7.599-15,16-15h60
	C234.401,422,241,428.599,241,437z"/>
<g>
	<path style="fill:#17ACE8;" d="M271,135c0,8.399-6.599,15-15,15H135c-8.401,0-15-6.601-15-15c0-8.401,6.599-15,15-15h121
		C264.401,120,271,126.599,271,135z"/>
	<path style="fill:#17ACE8;" d="M211,195c0,8.399-6.599,15-15,15h-61c-8.401,0-15-6.601-15-15c0-8.401,6.599-15,15-15h61
		C204.401,180,211,186.599,211,195z"/>
</g>
<g>
	<path style="fill:#1689FC;" d="M211,195c0,8.399-6.599,15-15,15v-30C204.401,180,211,186.599,211,195z"/>
	<path style="fill:#1689FC;" d="M271,135c0,8.399-6.599,15-15,15h-60v-30h60C264.401,120,271,126.599,271,135z"/>
</g>
<path style="fill:#B7E0F6;" d="M241,437c0,8.399-6.599,15-15,15h-30v-30h30C234.401,422,241,428.599,241,437z"/>
<path style="fill:#FEC478;" d="M512,392v15c0,2.399-0.601,4.499-1.5,6.599l-30,60C477.8,478.7,472.7,482,467,482
	s-10.8-3.3-13.5-8.401l-30-60c-0.899-2.1-1.5-4.2-1.5-6.599v-15l30-30h30L512,392z"/>
<polygon style="fill:#FD003A;" points="512,120 512,392 422,392 422,120 452,90 482,90 "/>
<path style="fill:#FEA832;" d="M512,75v45h-90V75c0-24.901,20.099-45,45-45S512,50.099,512,75z"/>
<path style="fill:#FEB756;" d="M512,392v15c0,2.399-0.601,4.499-1.5,6.599l-30,60C477.8,478.7,472.7,482,467,482V362h15L512,392z"/>
<polygon style="fill:#E50027;" points="512,120 512,392 467,392 467,90 482,90 "/>
<path style="fill:#FE9923;" d="M512,75v45h-45V30C491.901,30,512,50.099,512,75z"/>
<g>
</g>
<g>
</g>
<g>
</g>
<g>
</g>
<g>
</g>
<g>
</g>
<g>
</g>
<g>
</g>
<g>
</g>
<g>
</g>
<g>
</g>
<g>
</g>
<g>
</g>
<g>
</g>
<g>
</g>
</svg>
