<?xml version="1.0" encoding="iso-8859-1"?>

<svg version="1.1" id="Capa_1" xmlns="http://www.w3.org/2000/svg" xmlns:xlink="http://www.w3.org/1999/xlink" x="0px" y="0px"
	 viewBox="0 0 512 512" style="enable-background:new 0 0 512 512;" xml:space="preserve">
<path style="fill:#1DE8F1;" d="M391,196h-3.6C374.2,131.499,321.099,83.2,256,76.901C250.901,76.3,246.099,76,241,76
	c-72.9,0-134.399,52.5-147.001,123.6C40.3,211.899,0,260.2,0,316c0,66.299,54.699,120,121,120h270c66.301,0,121-53.701,121-120
	C512,249.699,457.301,196,391,196z"/>
<path style="fill:#1BD9DE;" d="M512,316c0,66.299-54.699,120-121,120H256V76.901C321.099,83.2,374.2,131.499,387.4,196h3.6
	C457.301,196,512,249.699,512,316z"/>
<g>
</g>
<g>
</g>
<g>
</g>
<g>
</g>
<g>
</g>
<g>
</g>
<g>
</g>
<g>
</g>
<g>
</g>
<g>
</g>
<g>
</g>
<g>
</g>
<g>
</g>
<g>
</g>
<g>
</g>
</svg>
